<svg width="50" height="50" viewBox="0 0 50 50" fill="none" xmlns="http://www.w3.org/2000/svg">
<path fill-rule="evenodd" clip-rule="evenodd" d="M50 25C50 38.8071 38.8071 50 25 50C11.1929 50 0 38.8071 0 25C0 11.1929 11.1929 0 25 0C38.8071 0 50 11.1929 50 25ZM38.6602 11.1016H33.5332V15.2031H17.127V11.1016H12V42H38.6602V11.1016ZM18.1523 38.2546L15.3763 35.4792L16.8269 34.0286L18.1523 35.3548L21.5286 31.9778L22.9792 33.4284L18.1523 38.2546ZM18.1523 32.1022L15.3763 29.3269L16.8269 27.8763L18.1523 29.2024L21.5286 25.8255L22.9792 27.2761L18.1523 32.1022ZM18.1523 25.9499L15.3763 23.1745L16.8269 21.7239L18.1523 23.0501L21.5286 19.6731L22.9792 21.1237L18.1523 25.9499ZM34.5586 35.7793H24.3047V33.7285H34.5586V35.7793ZM34.5586 29.627H24.3047V27.5762H34.5586V29.627ZM34.5586 23.4746H24.3047V21.4238H34.5586V23.4746ZM25.3301 7C26.4628 7 27.3809 7.91813 27.3809 9.05078H31.4824V13.1523H19.1777V9.05078H23.2793C23.2793 7.91807 24.1974 7 25.3301 7Z" fill="url(#paint0_linear_1181_3826)"/>
<defs>
<linearGradient id="paint0_linear_1181_3826" x1="11.9118" y1="-5.24581e-06" x2="41.8443" y2="1.78402" gradientUnits="userSpaceOnUse">
<stop stop-color="#DDC081"/>
<stop offset="1" stop-color="#5F976E"/>
</linearGradient>
</defs>
</svg>
