<svg width="50" height="50" viewBox="0 0 50 50" fill="none" xmlns="http://www.w3.org/2000/svg">
<path fill-rule="evenodd" clip-rule="evenodd" d="M25 50C38.8071 50 50 38.8071 50 25C50 11.1929 38.8071 0 25 0C11.1929 0 0 11.1929 0 25C0 38.8071 11.1929 50 25 50ZM17.3867 16.7969C17.3867 20.5447 20.4358 23.5938 24.1836 23.5938C27.9314 23.5938 30.9805 20.5447 30.9805 16.7969C30.9805 13.049 27.9314 10 24.1836 10C20.4358 10 17.3867 13.049 17.3867 16.7969ZM26.8203 28.5744C26.8203 27.0697 27.2428 25.6618 27.9751 24.463C26.8316 25.031 25.5446 25.3517 24.1836 25.3517C22.4183 25.3517 20.7763 24.8142 19.4124 23.8943C17.7259 24.548 16.1788 25.5519 14.8614 26.8693C12.3713 29.3593 11 32.67 11 36.1915V39.1212C11 39.6066 11.3935 40.0001 11.8789 40.0001H36.4883C36.9737 40.0001 37.3672 39.6066 37.3672 39.1212V36.1915C37.3672 36.1577 37.3666 36.1238 37.366 36.0898L37.3651 36.0328C36.5405 36.325 35.6538 36.4845 34.7305 36.4845C30.3688 36.4845 26.8203 32.936 26.8203 28.5744ZM28.5781 28.5742C28.5781 25.1818 31.3381 22.4219 34.7305 22.4219C38.1229 22.4219 40.8828 25.1818 40.8828 28.5742C40.8828 31.9666 38.1229 34.7266 34.7305 34.7266C31.3381 34.7266 28.5781 31.9666 28.5781 28.5742ZM35.6094 29.4531H36.4883C36.9737 29.4531 37.3672 29.0596 37.3672 28.5742C37.3672 28.0888 36.9737 27.6953 36.4883 27.6953H35.6094V26.8164C35.6094 26.331 35.2159 25.9375 34.7305 25.9375C34.2451 25.9375 33.8516 26.331 33.8516 26.8164V27.6953H32.9727C32.4873 27.6953 32.0938 28.0888 32.0938 28.5742C32.0938 29.0596 32.4873 29.4531 32.9727 29.4531H33.8516V30.332C33.8516 30.8174 34.2451 31.2109 34.7305 31.2109C35.2159 31.2109 35.6094 30.8174 35.6094 30.332V29.4531Z" fill="url(#paint0_linear_1181_3813)"/>
<defs>
<linearGradient id="paint0_linear_1181_3813" x1="11.9118" y1="-5.24581e-06" x2="41.8443" y2="1.78402" gradientUnits="userSpaceOnUse">
<stop stop-color="#DDC081"/>
<stop offset="1" stop-color="#5F976E"/>
<stop offset="1" stop-color="#5F976E"/>
</linearGradient>
</defs>
</svg>
