<svg width="50" height="50" viewBox="0 0 50 50" fill="none" xmlns="http://www.w3.org/2000/svg">
<path fill-rule="evenodd" clip-rule="evenodd" d="M25 50C38.8071 50 50 38.8071 50 25C50 11.1929 38.8071 0 25 0C11.1929 0 0 11.1929 0 25C0 38.8071 11.1929 50 25 50ZM26.4393 10.6058H39.3937C40.1886 10.6058 40.8331 11.2503 40.833 12.0452V35.0751C40.833 35.8699 40.1886 36.5145 39.3936 36.5145H33.0862L34.9235 40.1891C35.279 40.9001 34.9909 41.7647 34.2798 42.1202C34.0732 42.2235 33.8536 42.2725 33.6373 42.2725C33.1092 42.2725 32.601 41.9809 32.3488 41.4764L29.8678 36.5145H20.132L17.651 41.4764C17.2956 42.1875 16.4311 42.4757 15.7199 42.1202C15.0089 41.7647 14.7207 40.9001 15.0762 40.1891L16.9135 36.5145H10.6061C9.81117 36.5145 9.16675 35.8699 9.16675 35.0751V12.0452C9.16675 11.2503 9.81117 10.6058 10.6061 10.6058H23.5605V9.16642C23.5605 8.37154 24.205 7.72705 24.9999 7.72705C25.7948 7.72705 26.4393 8.37154 26.4393 9.16642V10.6058ZM28.0532 26.6136L34.8385 19.8284C35.4007 19.2662 35.4007 18.3548 34.8385 17.7927C34.2765 17.2306 33.3651 17.2306 32.803 17.7927L27.0355 23.5601L23.9822 20.5066C23.7123 20.2367 23.3462 20.0851 22.9644 20.0851C22.5827 20.0851 22.2166 20.2367 21.9467 20.5066L15.1613 27.292C14.5991 27.8541 14.5991 28.7654 15.1614 29.3275C15.4423 29.6086 15.8107 29.7492 16.1791 29.7492C16.5475 29.7492 16.9158 29.6086 17.1969 29.3275L22.9644 23.56L26.0176 26.6134C26.2875 26.8834 26.6536 27.0352 27.0355 27.0352C27.4171 27.0352 27.7832 26.8836 28.0532 26.6136Z" fill="url(#paint0_linear_1181_3836)"/>
<defs>
<linearGradient id="paint0_linear_1181_3836" x1="11.9118" y1="-5.24581e-06" x2="41.8443" y2="1.78402" gradientUnits="userSpaceOnUse">
<stop stop-color="#DDC081"/>
<stop offset="1" stop-color="#5F976E"/>
</linearGradient>
</defs>
</svg>
