<svg width="250" height="52" viewBox="0 0 250 52" fill="none" xmlns="http://www.w3.org/2000/svg">
<path d="M15.8986 21.8498L25.9979 11.7545L36.1014 21.858L41.9787 15.9807L25.9979 0L10.0213 15.9766L15.8986 21.8498ZM5.87315 20.1248L11.7463 25.9979L5.87315 31.8711L0 25.9979L5.87315 20.1248ZM15.8986 30.1502L25.9979 40.2496L36.1014 30.1461L41.9787 36.0152V36.0193L25.9979 52L10.0213 36.0275L10.0131 36.0193L15.8986 30.1502ZM52 25.9979L46.1268 31.8752L40.2496 26.0021L46.1227 20.1289L52 25.9979Z" fill="#F0B90B"/>
<path d="M31.9619 25.9967L25.9984 20.0332L21.5915 24.4401L21.0863 24.9453L20.039 25.9885L20.0308 25.9967L20.039 26.009L25.9984 31.9643L31.9619 26.0008V25.9967Z" fill="#F0B90B"/>
<path d="M239.405 42.2005C237.547 42.2005 235.758 41.9648 234.039 41.4933C232.347 40.9941 231.002 40.3978 230.003 39.7045L232 35.7525C232.999 36.3904 234.191 36.9173 235.578 37.3333C236.964 37.7493 238.351 37.9573 239.738 37.9573C241.374 37.9573 242.553 37.7354 243.274 37.2917C244.023 36.848 244.397 36.2517 244.397 35.5029C244.397 34.8928 244.147 34.4352 243.648 34.1301C243.149 33.7973 242.497 33.5477 241.693 33.3813C240.889 33.2149 239.987 33.0624 238.989 32.9237C238.018 32.785 237.034 32.6048 236.035 32.3829C235.065 32.1333 234.177 31.7866 233.373 31.3429C232.569 30.8714 231.917 30.2474 231.418 29.4709C230.919 28.6944 230.669 27.6682 230.669 26.3925C230.669 24.9781 231.071 23.7578 231.875 22.7317C232.68 21.6778 233.803 20.8736 235.245 20.3189C236.715 19.7365 238.448 19.4453 240.445 19.4453C241.943 19.4453 243.454 19.6117 244.979 19.9445C246.505 20.2773 247.767 20.7488 248.765 21.3589L246.768 25.3109C245.714 24.673 244.647 24.2432 243.565 24.0213C242.511 23.7717 241.457 23.6469 240.403 23.6469C238.823 23.6469 237.644 23.8826 236.867 24.3541C236.119 24.8256 235.744 25.4218 235.744 26.1429C235.744 26.8085 235.994 27.3077 236.493 27.6405C236.992 27.9733 237.644 28.2368 238.448 28.4309C239.252 28.625 240.14 28.7914 241.111 28.9301C242.109 29.041 243.094 29.2213 244.064 29.4709C245.035 29.7205 245.922 30.0672 246.727 30.5109C247.559 30.9269 248.224 31.5232 248.723 32.2997C249.223 33.0762 249.472 34.0885 249.472 35.3365C249.472 36.7232 249.056 37.9296 248.224 38.9557C247.42 39.9818 246.269 40.7861 244.771 41.3685C243.274 41.9232 241.485 42.2005 239.405 42.2005Z" fill="white"/>
<path d="M216.668 19.4453C218.443 19.4453 220.024 19.792 221.41 20.4853C222.825 21.1786 223.934 22.2464 224.738 23.6885C225.542 25.1029 225.945 26.9333 225.945 29.1797V41.9093H220.745V29.8453C220.745 27.8762 220.273 26.4064 219.33 25.4357C218.415 24.465 217.125 23.9797 215.461 23.9797C214.241 23.9797 213.16 24.2293 212.217 24.7285C211.274 25.2277 210.539 25.9765 210.012 26.9749C209.513 27.9456 209.263 29.1797 209.263 30.6773V41.9093H204.063V19.6949H209.013V25.6853L208.14 23.8549C208.916 22.4405 210.04 21.3589 211.509 20.6101C213.007 19.8336 214.726 19.4453 216.668 19.4453Z" fill="white"/>
<path d="M192.038 41.9101V19.6957H197.238V41.9101H192.038ZM194.659 16.0349C193.688 16.0349 192.884 15.7299 192.246 15.1197C191.636 14.5096 191.331 13.7747 191.331 12.9149C191.331 12.0275 191.636 11.2925 192.246 10.7101C192.884 10.1 193.688 9.79492 194.659 9.79492C195.63 9.79492 196.42 10.0861 197.03 10.6685C197.668 11.2232 197.987 11.9304 197.987 12.7901C197.987 13.7053 197.682 14.4819 197.072 15.1197C196.462 15.7299 195.657 16.0349 194.659 16.0349Z" fill="white"/>
<path d="M175.209 42.2005C172.935 42.2005 170.911 41.7152 169.136 40.7445C167.361 39.7461 165.96 38.3872 164.934 36.6677C163.908 34.9482 163.395 32.993 163.395 30.8021C163.395 28.5834 163.908 26.6282 164.934 24.9365C165.96 23.217 167.361 21.872 169.136 20.9013C170.911 19.9306 172.935 19.4453 175.209 19.4453C177.511 19.4453 179.55 19.9306 181.325 20.9013C183.127 21.872 184.528 23.2032 185.526 24.8949C186.552 26.5866 187.065 28.5557 187.065 30.8021C187.065 32.993 186.552 34.9482 185.526 36.6677C184.528 38.3872 183.127 39.7461 181.325 40.7445C179.55 41.7152 177.511 42.2005 175.209 42.2005ZM175.209 37.7493C176.485 37.7493 177.622 37.472 178.621 36.9173C179.619 36.3626 180.396 35.5584 180.95 34.5045C181.533 33.4506 181.824 32.2165 181.824 30.8021C181.824 29.36 181.533 28.1258 180.95 27.0997C180.396 26.0458 179.619 25.2416 178.621 24.6869C177.622 24.1322 176.499 23.8549 175.251 23.8549C173.975 23.8549 172.838 24.1322 171.84 24.6869C170.869 25.2416 170.093 26.0458 169.51 27.0997C168.928 28.1258 168.637 29.36 168.637 30.8021C168.637 32.2165 168.928 33.4506 169.51 34.5045C170.093 35.5584 170.869 36.3626 171.84 36.9173C172.838 37.472 173.961 37.7493 175.209 37.7493Z" fill="white"/>
<path d="M151.571 42.2005C149.241 42.2005 147.161 41.7152 145.331 40.7445C143.528 39.7461 142.114 38.3872 141.088 36.6677C140.061 34.9482 139.548 32.993 139.548 30.8021C139.548 28.5834 140.061 26.6282 141.088 24.9365C142.114 23.217 143.528 21.872 145.331 20.9013C147.161 19.9306 149.241 19.4453 151.571 19.4453C153.734 19.4453 155.634 19.889 157.27 20.7765C158.934 21.6362 160.196 22.912 161.056 24.6037L157.062 26.9333C156.396 25.8794 155.578 25.1029 154.608 24.6037C153.665 24.1045 152.638 23.8549 151.529 23.8549C150.253 23.8549 149.102 24.1322 148.076 24.6869C147.05 25.2416 146.246 26.0458 145.664 27.0997C145.081 28.1258 144.79 29.36 144.79 30.8021C144.79 32.2442 145.081 33.4922 145.664 34.5461C146.246 35.5722 147.05 36.3626 148.076 36.9173C149.102 37.472 150.253 37.7493 151.529 37.7493C152.638 37.7493 153.665 37.4997 154.608 37.0005C155.578 36.5013 156.396 35.7248 157.062 34.6709L161.056 37.0005C160.196 38.6645 158.934 39.9541 157.27 40.8693C155.634 41.7568 153.734 42.2005 151.571 42.2005Z" fill="white"/>
<path d="M132.841 42.2015C130.4 42.2015 128.514 41.5775 127.183 40.3295C125.852 39.0538 125.186 37.1818 125.186 34.7135V14.7871H130.386V34.5887C130.386 35.6426 130.65 36.4607 131.177 37.0431C131.731 37.6255 132.494 37.9167 133.465 37.9167C134.629 37.9167 135.6 37.6116 136.377 37.0015L137.833 40.7039C137.222 41.2031 136.474 41.5775 135.586 41.8271C134.699 42.0767 133.784 42.2015 132.841 42.2015ZM121.525 24.0223V19.8623H136.335V24.0223H121.525Z" fill="white"/>
<path d="M100.278 41.911V12.791H105.686V37.335H120.911V41.911H100.278Z" fill="white"/>
<path d="M65 41.911L78.104 12.791H83.4288L96.5744 41.911H90.9168L79.6432 15.6614H81.8064L70.5744 41.911H65ZM71.032 35.1718L72.488 30.9286H88.2128L89.6688 35.1718H71.032Z" fill="white"/>
</svg>
