<svg width="6" height="28" viewBox="0 0 6 28" fill="none" xmlns="http://www.w3.org/2000/svg">
<path d="M5.64545 0.5L5.19545 19.3609H0.804546L0.368182 0.5H5.64545ZM3 27.5C2.17273 27.5 1.46364 27.2217 0.872727 26.6652C0.290909 26.1087 0 25.4304 0 24.6304C0 23.8478 0.290909 23.1783 0.872727 22.6217C1.46364 22.0652 2.17273 21.787 3 21.787C3.80909 21.787 4.50909 22.0652 5.1 22.6217C5.7 23.1783 6 23.8478 6 24.6304C6 25.1609 5.85909 25.6435 5.57727 26.0783C5.30455 26.513 4.94091 26.8609 4.48636 27.1217C4.04091 27.3739 3.54545 27.5 3 27.5Z" fill="#9B1321"/>
</svg>
