<svg width="18" height="19" viewBox="0 0 18 19" fill="none" xmlns="http://www.w3.org/2000/svg">
<circle cx="9" cy="9.5" r="9" fill="white"/>
<path d="M8.95108 0.5C9.43104 0.502004 9.908 0.54008 10.3819 0.618237C11.4681 0.796595 12.4932 1.15231 13.4451 1.70742C15.384 2.83669 16.7307 4.46395 17.4912 6.57519C17.6395 6.98501 17.7497 7.40686 17.8319 7.83472C17.9581 8.49103 18.0133 9.15336 17.9902 9.8217C17.9471 11.0582 17.6616 12.2355 17.1305 13.3528C16.7267 14.2005 16.2076 14.97 15.5623 15.6524C14.2938 16.9931 12.7587 17.8729 10.9591 18.2857C10.4731 18.3969 9.98014 18.459 9.48114 18.4871C9.05028 18.5111 8.62142 18.5011 8.19256 18.461C7.54426 18.3999 6.90998 18.2686 6.28874 18.0723C4.91298 17.6374 3.80175 16.925 2.96306 16.1644C2.79974 16.0161 2.64042 15.8618 2.48911 15.7015C1.33179 14.476 0.569261 13.0402 0.205532 11.3929C0.0482159 10.6754 -0.0179168 9.94896 0.00412744 9.21649C0.0151496 8.82971 0.054228 8.44494 0.113347 8.06217C0.218558 7.38582 0.400924 6.7305 0.65844 6.09723C1.04021 5.15734 1.56827 4.30664 2.24061 3.54611C2.32679 3.44892 2.41496 3.35373 2.50515 3.25954C3.00114 2.7405 3.55525 2.2926 4.15946 1.90482C4.45405 1.71644 4.76067 1.55111 5.0743 1.3968C5.21859 1.32566 5.36488 1.25752 5.51318 1.1964C6.16048 0.927858 6.82782 0.72946 7.52121 0.618237C7.99516 0.542084 8.47112 0.502004 8.95108 0.5ZM12.1976 9.68743C12.1976 9.68743 12.2026 9.67942 12.2046 9.67942C12.2377 9.6694 12.2707 9.65837 12.3038 9.64936C12.6335 9.56018 12.919 9.39585 13.1525 9.14534C13.3058 8.98102 13.407 8.78562 13.4922 8.58121C13.5894 8.34774 13.6285 8.09925 13.6555 7.84874C13.6876 7.55115 13.6505 7.26357 13.5423 6.98601C13.4631 6.78461 13.3459 6.60825 13.2016 6.44793C13.0062 6.2315 12.7747 6.06216 12.5273 5.91086C12.379 5.82067 12.2196 5.75454 12.0663 5.67639C11.8639 5.57418 11.6535 5.484 11.4311 5.43089C11.382 5.41887 11.3339 5.40183 11.2858 5.3848C11.2337 5.36576 11.2256 5.35374 11.2417 5.29963C11.2818 5.16937 11.3048 5.0351 11.3459 4.90484C11.393 4.75754 11.416 4.60524 11.4631 4.45794C11.5062 4.32267 11.5303 4.18139 11.5703 4.04411C11.5894 3.97798 11.5934 3.90483 11.6154 3.84371C11.6505 3.74551 11.6705 3.64531 11.7006 3.54711C11.7226 3.47497 11.7196 3.47296 11.6475 3.45192C11.3148 3.35673 10.9822 3.26254 10.6495 3.16735C10.5763 3.14631 10.5763 3.14731 10.5553 3.21745C10.5533 3.22346 10.5513 3.22847 10.5503 3.23348C10.4862 3.49902 10.422 3.76455 10.3579 4.03108C10.2868 4.32467 10.2146 4.61826 10.1435 4.91185C10.1264 4.98199 10.1264 4.98199 10.0583 4.96796C9.78475 4.90985 9.5112 4.85173 9.23765 4.79361C9.18555 4.78259 9.16952 4.75654 9.19657 4.71145C9.2136 4.68239 9.21962 4.65233 9.22763 4.62327C9.28875 4.40083 9.34587 4.17738 9.40699 3.95493C9.46811 3.73449 9.51621 3.51004 9.58335 3.2906C9.59737 3.24651 9.59036 3.19541 9.6094 3.15733C9.63645 3.10422 9.64246 3.04811 9.66251 2.99501C9.67653 2.95693 9.66451 2.92887 9.62343 2.92887C9.54226 2.92887 9.47212 2.88979 9.39697 2.86975C9.27673 2.83869 9.15649 2.80863 9.03725 2.77456C9.00018 2.76454 8.9611 2.77557 8.92803 2.75953C8.82883 2.70943 8.71861 2.70041 8.6154 2.66635C8.58434 2.65633 8.56831 2.66835 8.56029 2.70142C8.53524 2.80162 8.50919 2.90182 8.48214 3.00202C8.42101 3.23348 8.35889 3.46395 8.29877 3.69541C8.23163 3.95193 8.1665 4.20844 8.09937 4.46495C8.08133 4.53209 8.08033 4.53409 8.0132 4.52107C7.83384 4.485 7.65448 4.44792 7.47812 4.40083C7.418 4.38479 7.35488 4.37678 7.29375 4.36676C7.22161 4.35574 7.15648 4.32167 7.08634 4.30564C6.88994 4.26155 6.70056 4.1904 6.49916 4.16535C6.47511 4.16235 6.44505 4.15634 6.419 4.14632C6.21559 4.06615 6.00116 4.02607 5.78873 3.98199C5.76368 3.97698 5.74364 3.97998 5.73462 4.01706C5.66849 4.27658 5.59835 4.5361 5.52921 4.79462C5.49915 4.90885 5.47009 5.02408 5.43803 5.1373C5.42801 5.17237 5.43202 5.19241 5.4711 5.19843C5.48212 5.20043 5.49314 5.20444 5.50416 5.20744C5.76969 5.27258 6.03623 5.33771 6.30176 5.40384C6.36589 5.41987 6.42802 5.44292 6.48613 5.47598C6.69555 5.59522 6.81579 5.87178 6.76068 6.10024C6.67251 6.46096 6.58533 6.82068 6.49715 7.18141C6.36689 7.71247 6.23663 8.24354 6.10637 8.7746C6.00116 9.20547 5.89394 9.63533 5.78873 10.0662C5.69655 10.4429 5.60637 10.8207 5.51318 11.1985C5.47711 11.3458 5.37991 11.4359 5.23663 11.48C5.14143 11.5091 5.04825 11.4961 4.95506 11.473C4.71157 11.4119 4.46808 11.3508 4.22459 11.2906C4.15646 11.2736 4.15546 11.2746 4.1284 11.3357C4.0783 11.449 4.0292 11.5622 3.9791 11.6764C3.85585 11.959 3.73161 12.2406 3.60836 12.5231C3.58431 12.5792 3.58431 12.5812 3.64443 12.5973C4.15846 12.7396 4.67249 12.8828 5.18652 13.0231C5.38993 13.0782 5.59835 13.1113 5.79976 13.1714C5.8719 13.1925 5.8729 13.1945 5.85487 13.2666C5.80777 13.453 5.75967 13.6394 5.71158 13.8257C5.60737 14.2336 5.50316 14.6404 5.39895 15.0482C5.38292 15.1123 5.38292 15.1143 5.43703 15.1304C5.78372 15.2296 6.13042 15.3277 6.47611 15.4279C6.51719 15.44 6.53423 15.4259 6.54124 15.3869C6.55427 15.3137 6.58032 15.2436 6.58934 15.1684C6.59836 15.0973 6.63343 15.0302 6.65247 14.959C6.67451 14.8768 6.68954 14.7927 6.71058 14.7105C6.72561 14.6534 6.74665 14.5973 6.76369 14.5412C6.77772 14.4971 6.77271 14.451 6.78774 14.4069C6.81479 14.3267 6.83383 14.2436 6.86189 14.1634C6.88092 14.1093 6.88092 14.0522 6.89696 13.9971C6.93203 13.8768 6.97912 13.7606 6.98714 13.6334C6.99014 13.5863 7.03123 13.5632 7.07732 13.5702C7.11439 13.5752 7.15147 13.5812 7.18854 13.5873C7.42702 13.6283 7.66049 13.6905 7.89496 13.7516C7.95608 13.7676 7.95708 13.7666 7.94005 13.8327C7.88995 14.0281 7.83885 14.2225 7.78774 14.4179C7.68754 14.8027 7.58634 15.1865 7.48614 15.5712C7.4671 15.6454 7.4671 15.6474 7.53624 15.6694C7.85688 15.7726 8.17753 15.8748 8.49817 15.976C8.6134 16.0121 8.6144 16.0111 8.64546 15.8989C8.80579 15.3207 8.96611 14.7426 9.12643 14.1654C9.14647 14.0933 9.14747 14.0933 9.22062 14.1053C9.59637 14.1684 9.97413 14.2135 10.3549 14.2315C10.7337 14.2486 11.1104 14.2315 11.4822 14.1504C12.1776 13.9981 12.6986 13.6143 13.0293 12.98C13.1786 12.6925 13.2848 12.3889 13.3609 12.0732C13.415 11.8498 13.4481 11.6263 13.4431 11.3979C13.4341 10.975 13.2918 10.6023 13.0072 10.2866C12.7998 10.0562 12.5483 9.88383 12.2778 9.73653C12.2507 9.7225 12.2196 9.71449 12.2006 9.68743H12.1976Z" fill="#FF9416"/>
</svg>
