<svg width="147" height="89" viewBox="0 0 147 89" fill="none" xmlns="http://www.w3.org/2000/svg">
<path d="M101.812 88.9906C126.55 88.9906 146.604 69.0694 146.604 44.4953C146.604 19.9212 126.55 0 101.812 0C77.0737 0 57.0195 19.9212 57.0195 44.4953C57.0195 69.0694 77.0737 88.9906 101.812 88.9906Z" fill="#627EEA"/>
<path d="M103.205 11.123V35.7901L124.193 45.1063L103.205 11.123Z" fill="white" fill-opacity="0.602"/>
<path d="M103.206 11.123L82.2148 45.1063L103.206 35.7901V11.123Z" fill="white"/>
<path d="M103.205 61.091V77.8518L124.207 48.9883L103.205 61.091Z" fill="white" fill-opacity="0.602"/>
<path d="M103.206 77.8518V61.0882L82.2148 48.9883L103.206 77.8518Z" fill="white"/>
<path d="M103.205 57.2111L124.193 45.1056L103.205 35.7949V57.2111Z" fill="white" fill-opacity="0.2"/>
<path d="M82.2148 45.1056L103.206 57.2111V35.7949L82.2148 45.1056Z" fill="white" fill-opacity="0.602"/>
<path d="M44.5534 0C42.1645 0.00990877 39.7954 0.20313 37.4364 0.584617C33.99 1.13951 30.6634 2.12048 27.4415 3.4433C26.7034 3.74551 25.9802 4.08241 25.257 4.43417C23.6959 5.19715 22.1698 6.01462 20.7035 6.94605C17.696 8.85844 14.938 11.078 12.4692 13.6444C12.0203 14.1101 11.5814 14.5808 11.1525 15.0613C7.81093 18.8217 5.17756 23.028 3.27735 27.6752C1.99557 30.8064 1.08786 34.0465 0.564176 37.3907C0.264929 39.2833 0.075406 41.1858 0.0205441 43.0982C-0.0891797 46.7248 0.239992 50.3118 1.02302 53.8542C2.83346 61.9992 6.62891 69.0938 12.3894 75.158C13.1425 75.9507 13.9305 76.7137 14.7485 77.4469C18.923 81.2073 24.454 84.7299 31.3018 86.8801C34.394 87.8511 37.5511 88.5002 40.778 88.8024C42.9126 89.0006 45.0472 89.0501 47.1918 88.9312C49.6706 88.7974 52.1244 88.4903 54.5483 87.9354C63.5057 85.8892 71.1465 81.5442 77.4606 74.9152C80.6725 71.5413 83.256 67.7363 85.266 63.5449C87.9143 58.0208 89.3357 52.1994 89.5452 46.0857C89.6599 42.7811 89.3856 39.5063 88.7572 36.2611C88.3482 34.1456 87.7946 32.0598 87.0614 30.0335C83.276 19.5946 76.5728 11.5487 66.9221 5.96508C62.189 3.2253 57.0869 1.4665 51.6755 0.579663C49.3165 0.198175 46.9424 0.00990877 44.5534 0Z" fill="black"/>
<path d="M60.7074 45.429C60.8021 45.5628 60.9617 45.6024 61.0914 45.6718C62.438 46.4001 63.6899 47.2522 64.7223 48.3917C66.1387 49.9524 66.8469 51.7904 66.8918 53.8861C66.9167 55.0157 66.7521 56.1206 66.4828 57.2254C66.1038 58.786 65.5801 60.2872 64.832 61.7091C63.1861 64.8452 60.5927 66.7428 57.1314 67.4958C55.281 67.8971 53.4057 67.9814 51.5205 67.8971C49.6253 67.808 47.745 67.59 45.8747 67.2729C45.5106 67.2134 45.5056 67.2134 45.4059 67.5702C44.6079 70.4288 43.8099 73.2875 43.0119 76.1412C42.8573 76.6961 42.8573 76.706 42.2787 76.5227C40.6828 76.0223 39.0868 75.517 37.4908 75.0067C37.1467 74.8977 37.1467 74.8878 37.2414 74.5211C37.7402 72.6187 38.2439 70.7211 38.7427 68.8186C38.997 67.8525 39.2464 66.8914 39.5007 65.9253C39.5855 65.5983 39.5855 65.6033 39.2763 65.524C38.1142 65.2218 36.9472 64.9146 35.7602 64.7115C35.5756 64.6817 35.3911 64.652 35.2066 64.6272C34.9721 64.5975 34.7677 64.7115 34.7577 64.9394C34.7178 65.5686 34.4834 66.1482 34.3088 66.7378C34.229 67.0103 34.229 67.2927 34.1343 67.5602C33.9946 67.9566 33.9048 68.3678 33.7652 68.7642C33.6904 68.9821 33.7103 69.2051 33.6455 69.428C33.5607 69.7055 33.456 69.9829 33.3811 70.2653C33.2764 70.6716 33.2016 71.0878 33.0919 71.494C32.9971 71.8408 32.8226 72.1777 32.7777 72.5295C32.7328 72.9011 32.6031 73.2479 32.5383 73.6095C32.5034 73.8028 32.4186 73.8672 32.2141 73.8127C30.4884 73.3172 28.7628 72.8317 27.0421 72.3412C26.7728 72.2669 26.7728 72.252 26.8526 71.935C27.3713 69.9185 27.89 67.9071 28.4087 65.8906C28.6481 64.9691 28.8875 64.0476 29.1219 63.1261C29.2116 62.7694 29.2116 62.7644 28.8476 62.6554C27.8401 62.3581 26.8027 62.1946 25.7952 61.9222C23.2317 61.2285 20.6781 60.5201 18.1196 59.8165C17.8203 59.7323 17.8203 59.7224 17.94 59.4499C18.5535 58.0528 19.1719 56.6556 19.7854 55.2635C20.0347 54.7036 20.2791 54.1388 20.5285 53.579C20.6632 53.2767 20.6681 53.2718 21.0073 53.356C22.2192 53.6533 23.4312 53.9555 24.6431 54.2577C25.107 54.3717 25.5708 54.4361 26.0446 54.2924C26.7578 54.0744 27.2416 53.6285 27.4211 52.9002C27.885 51.0374 28.3339 49.1696 28.7927 47.3018C29.3164 45.1714 29.845 43.041 30.3737 40.9156C31.0221 38.2897 31.6705 35.6639 32.3188 33.0381C32.7577 31.2545 33.1916 29.4759 33.6305 27.6923C33.9098 26.5627 33.3063 25.1953 32.264 24.6057C31.9747 24.4422 31.6655 24.3283 31.3463 24.249C30.0246 23.922 28.6979 23.6 27.3763 23.2779C27.3214 23.2631 27.2665 23.2383 27.2117 23.2334C27.0172 23.2036 26.9972 23.1095 27.0471 22.9311C27.2067 22.3713 27.3513 21.8015 27.5009 21.2367C27.8451 19.9536 28.1942 18.6753 28.5234 17.3921C28.5732 17.2039 28.668 17.189 28.7927 17.2187C29.85 17.4367 30.9173 17.6349 31.9298 18.0313C32.0595 18.0808 32.2091 18.1105 32.3288 18.1254C33.3313 18.2443 34.2739 18.601 35.2514 18.819C35.6006 18.8983 35.9247 19.0667 36.2838 19.1212C36.5931 19.1708 36.9023 19.2104 37.2015 19.2897C38.0843 19.5225 38.9721 19.7058 39.8648 19.8842C40.199 19.9536 40.209 19.9387 40.2937 19.6068C40.6279 18.3384 40.9521 17.0701 41.2862 15.8018C41.5855 14.6573 41.8947 13.5178 42.199 12.3733C42.3286 11.8779 42.4633 11.3825 42.588 10.887C42.6279 10.7285 42.7077 10.6641 42.8623 10.7136C43.376 10.8821 43.9246 10.9267 44.4184 11.1744C44.5829 11.2586 44.7824 11.1992 44.962 11.2487C45.5555 11.4172 46.154 11.5658 46.7525 11.7194C47.1265 11.8185 47.4757 12.0117 47.8797 12.0117C48.0841 12.0117 48.149 12.1504 48.0742 12.3387C47.9744 12.6013 47.9445 12.8837 47.8098 13.1413C47.7151 13.3295 47.75 13.5822 47.6802 13.8002C47.346 14.8852 47.1066 15.99 46.8024 17.085C46.4981 18.1848 46.2138 19.2897 45.9096 20.3895C45.8697 20.5382 45.8398 20.6868 45.755 20.8255C45.6203 21.0485 45.7001 21.1773 45.9595 21.2318C47.3211 21.5191 48.6826 21.8065 50.0442 22.0939C50.3833 22.1632 50.3834 22.1632 50.4681 21.8164C50.8222 20.3648 51.1813 18.9131 51.5354 17.4615C51.8546 16.1486 52.1738 14.8357 52.493 13.5178C52.498 13.4881 52.508 13.4633 52.518 13.4385C52.6227 13.0917 52.6227 13.0868 52.9868 13.1908C54.6426 13.6565 56.2985 14.1272 57.9543 14.5979C58.3134 14.7019 58.3284 14.7118 58.2186 15.0685C58.069 15.5541 57.9693 16.0545 57.7947 16.535C57.685 16.8372 57.67 17.1989 57.5703 17.5259C57.3658 18.1997 57.2511 18.8983 57.0366 19.5721C56.8022 20.3004 56.6875 21.0584 56.4531 21.7817C56.2486 22.4258 56.1339 23.0897 55.9344 23.7338C55.8496 24.0013 55.8895 24.0657 56.1538 24.1549C56.3932 24.2391 56.6326 24.3233 56.877 24.3828C57.9842 24.6503 59.0316 25.0913 60.039 25.5966C60.8071 25.9781 61.6001 26.31 62.3333 26.7559C63.5652 27.504 64.7223 28.3413 65.6898 29.4115C66.408 30.2042 66.9965 31.0762 67.3856 32.072C67.9292 33.4443 68.1087 34.8712 67.9491 36.3377C67.8145 37.5763 67.62 38.805 67.1362 39.9594C66.7122 40.9701 66.2085 41.9362 65.4454 42.7487C64.2784 43.9873 62.8619 44.7998 61.2211 45.2407C61.0565 45.2853 60.8919 45.3349 60.7273 45.3894C60.7173 45.3894 60.7074 45.4092 60.6924 45.429H60.7074ZM47.0717 60.3764C47.7749 60.4111 48.4781 60.3764 49.1814 60.2971C50.0841 60.198 50.9569 59.985 51.7948 59.6134C54.3434 58.4838 55.276 55.5954 54.6426 53.3412C54.3534 52.3057 53.715 51.4833 52.922 50.7748C52.104 50.0415 51.1714 49.4817 50.1839 49.0061C48.5629 48.2233 46.8572 47.6733 45.1216 47.2126C44.2239 46.9748 43.3161 46.7667 42.4034 46.5735C41.6753 46.4149 40.9471 46.2514 40.2289 46.0632C40.0693 46.0235 39.9895 46.0533 39.9496 46.2118C39.78 46.8955 39.6254 47.5891 39.416 48.2629C39.3312 48.5404 39.2863 48.8327 39.2364 49.12C39.0718 50.0366 38.7327 50.9036 38.5731 51.8251C38.4235 52.6872 38.1392 53.5245 37.9546 54.3816C37.8 55.1 37.6055 55.8084 37.406 56.5169C37.2963 56.9083 37.2315 57.3146 37.1467 57.7159C37.1018 57.924 37.0469 58.132 36.9921 58.3401C36.9571 58.4789 37.007 58.5581 37.1517 58.5829C37.5856 58.6572 38.0095 58.7712 38.4185 58.9198C38.7676 59.0437 39.1267 59.0585 39.4808 59.1427C40.2339 59.3161 40.987 59.4995 41.7451 59.6629C43.5007 60.0395 45.2762 60.312 47.0717 60.3813V60.3764ZM50.0592 41.8866C51.1414 41.8817 52.1788 41.7776 53.1863 41.4605C56.7673 40.3409 57.5004 36.1445 55.6401 33.7961C55.1813 33.2214 54.6476 32.726 54.0491 32.3048C53.1215 31.6509 52.094 31.1752 51.0417 30.7541C48.9819 29.9366 46.8123 29.4957 44.6927 28.9012C44.5181 28.8516 44.4583 28.9259 44.4234 29.0696C44.2837 29.6146 44.169 30.1695 43.9795 30.6996C43.8398 31.0811 43.8249 31.4874 43.7301 31.8788C43.3461 33.375 42.982 34.8762 42.583 36.3674C42.5231 36.6003 42.5181 36.8331 42.4533 37.066C42.189 38.0569 41.9546 39.0577 41.7102 40.0535C41.6404 40.3458 41.6453 40.3557 41.9346 40.43C42.9072 40.6777 43.8797 40.9354 44.8523 41.1682C46.5729 41.5695 48.3136 41.8569 50.0592 41.8866Z" fill="white"/>
<path d="M47.0767 60.372C45.2762 60.3027 43.5056 60.0302 41.7501 59.6536C40.992 59.4901 40.2389 59.3068 39.4858 59.1334C39.1316 59.0542 38.7726 59.0393 38.4234 58.9105C38.0145 58.7618 37.5905 58.6479 37.1566 58.5736C37.012 58.5488 36.9621 58.4695 36.997 58.3308C37.0519 58.1227 37.1067 57.9146 37.1516 57.7066C37.2414 57.3053 37.3013 56.904 37.411 56.5076C37.6105 55.7991 37.8 55.0906 37.9596 54.3723C38.1441 53.5152 38.4284 52.6779 38.578 51.8158C38.7376 50.8992 39.0768 50.0273 39.2414 49.1107C39.2912 48.8234 39.3361 48.531 39.4209 48.2536C39.6304 47.5748 39.78 46.8862 39.9546 46.2025C39.9945 46.039 40.0743 46.0093 40.2339 46.0539C40.9521 46.2421 41.6802 46.4056 42.4084 46.5642C43.3211 46.7623 44.2288 46.9655 45.1266 47.2033C46.8622 47.664 48.5679 48.209 50.1888 48.9968C51.1713 49.4724 52.109 50.0322 52.9269 50.7655C53.7199 51.4739 54.3583 52.2964 54.6476 53.3318C55.281 55.5861 54.3483 58.4745 51.7998 59.6041C50.9619 59.9757 50.0891 60.1838 49.1863 60.2878C48.4881 60.3671 47.7849 60.4017 47.0767 60.3671V60.372Z" fill="#FF9416"/>
<path d="M50.0639 41.8777C48.3183 41.848 46.5777 41.5606 44.857 41.1593C43.8795 40.9314 42.9069 40.6738 41.9394 40.4211C41.6501 40.3468 41.6451 40.3369 41.7149 40.0446C41.9593 39.0488 42.1937 38.048 42.458 37.0571C42.5179 36.8243 42.5229 36.5914 42.5877 36.3585C42.9867 34.8673 43.3558 33.3661 43.7348 31.8699C43.8346 31.4785 43.8495 31.0722 43.9842 30.6907C44.1737 30.1606 44.2884 29.6057 44.4281 29.0607C44.463 28.9171 44.5229 28.8427 44.6974 28.8923C46.8221 29.4868 48.9916 29.9278 51.0464 30.7452C52.0988 31.1614 53.1212 31.637 54.0539 32.2959C54.6524 32.7171 55.186 33.2125 55.6449 33.7872C57.5052 36.1356 56.772 40.332 53.191 41.4516C52.1786 41.7687 51.1412 41.8728 50.0639 41.8777Z" fill="#FF9416"/>
<path d="M44.5534 0C46.9424 0.00990877 49.3165 0.198175 51.6755 0.584617C57.0819 1.4665 62.1841 3.2253 66.9221 5.97003C76.5728 11.5536 83.276 19.5995 87.0614 30.0384C87.7996 32.0648 88.3482 34.1506 88.7572 36.2661C89.3856 39.5112 89.6599 42.7861 89.5452 46.0906C89.3307 52.2043 87.9093 58.0257 85.266 63.5499C83.256 67.7413 80.6725 71.5463 77.4606 74.9202C71.1465 81.5492 63.5057 85.8991 54.5483 87.9403C52.1294 88.4903 49.6756 88.7974 47.1918 88.9361C45.0472 89.0551 42.9126 89.0055 40.778 88.8073C37.5511 88.5051 34.394 87.8561 31.3018 86.885C24.454 84.7348 18.923 81.2123 14.7485 77.4519C13.9355 76.7186 13.1425 75.9557 12.3894 75.163C6.62891 69.1038 2.83346 62.0041 1.02302 53.8591C0.239992 50.3118 -0.0891797 46.7198 0.0205441 43.0982C0.075406 41.1858 0.269916 39.2833 0.564176 37.3907C1.08786 34.0465 1.99557 30.8064 3.27735 27.6752C5.17756 23.028 7.80595 18.8217 11.1525 15.0613C11.5814 14.5808 12.0203 14.1101 12.4692 13.6444C14.938 11.078 17.696 8.86339 20.7035 6.94605C22.1698 6.01462 23.6959 5.19715 25.257 4.43417C25.9752 4.08241 26.7034 3.74551 27.4415 3.4433C30.6634 2.11552 33.985 1.13455 37.4364 0.584617C39.7954 0.208084 42.1645 0.00990877 44.5534 0ZM60.7128 45.4268C60.7128 45.4268 60.7377 45.3871 60.7477 45.3871C60.9123 45.3376 61.0769 45.2831 61.2414 45.2385C62.8823 44.7975 64.3037 43.985 65.4658 42.7464C66.2289 41.9339 66.7326 40.9678 67.1565 39.9571C67.6403 38.8027 67.8348 37.574 67.9695 36.3355C68.1291 34.864 67.9446 33.4421 67.4059 32.0697C67.0119 31.0739 66.4284 30.2019 65.7102 29.4092C64.7376 28.3391 63.5855 27.5018 62.3536 26.7537C61.6155 26.3078 60.8225 25.9808 60.0594 25.5943C59.0519 25.089 58.0046 24.6431 56.8974 24.3805C56.653 24.3211 56.4136 24.2368 56.1742 24.1526C55.9148 24.0585 55.8749 23.999 55.9547 23.7315C56.1542 23.0874 56.269 22.4235 56.4734 21.7795C56.7079 21.0512 56.8226 20.2981 57.057 19.5698C57.2714 18.901 57.3911 18.2024 57.5906 17.5237C57.6854 17.1967 57.7053 16.835 57.8151 16.5328C57.9896 16.0473 58.0894 15.5518 58.239 15.0663C58.3487 14.7096 58.3338 14.6997 57.9747 14.5956C56.3188 14.1249 54.663 13.6592 53.0072 13.1886C52.6431 13.0845 52.6431 13.0895 52.5383 13.4363C52.5284 13.466 52.5184 13.4908 52.5134 13.5156C52.1942 14.8285 51.875 16.1414 51.5558 17.4593C51.2017 18.9109 50.8426 20.3625 50.4885 21.8142C50.4037 22.161 50.4037 22.161 50.0646 22.0916C48.703 21.8042 47.3414 21.5169 45.9799 21.2295C45.7205 21.175 45.6407 21.0462 45.7754 20.8233C45.8602 20.6796 45.8901 20.531 45.93 20.3873C46.2342 19.2874 46.5185 18.1826 46.8227 17.0827C47.127 15.9928 47.3664 14.883 47.7005 13.798C47.7703 13.58 47.7354 13.3273 47.8302 13.139C47.9649 12.8764 47.9948 12.599 48.0945 12.3364C48.1644 12.1482 48.1045 12.0094 47.9 12.0094C47.496 12.0094 47.1469 11.8162 46.7729 11.7171C46.1744 11.5635 45.5759 11.4149 44.9824 11.2465C44.7978 11.1969 44.6033 11.2514 44.4387 11.1721C43.945 10.9244 43.3964 10.8798 42.8827 10.7114C42.728 10.6618 42.6482 10.7213 42.6083 10.8848C42.4837 11.3802 42.354 11.8757 42.2193 12.3711C41.9151 13.5156 41.6059 14.6551 41.3066 15.7995C40.9725 17.0679 40.6483 18.3362 40.3141 19.6045C40.2243 19.9364 40.2194 19.9464 39.8852 19.8819C38.9924 19.7036 38.0997 19.5203 37.2219 19.2874C36.9226 19.2081 36.6084 19.1685 36.3042 19.119C35.9451 19.0645 35.6209 18.896 35.2718 18.8168C34.2943 18.5988 33.3516 18.247 32.3492 18.1231C32.2295 18.1083 32.0798 18.0785 31.9502 18.029C30.9377 17.6327 29.8704 17.4345 28.8131 17.2165C28.6884 17.1917 28.5886 17.2066 28.5437 17.3899C28.2146 18.6731 27.8655 19.9563 27.5213 21.2345C27.3717 21.7993 27.2271 22.369 27.0675 22.9289C27.0176 23.1023 27.0375 23.2014 27.232 23.2311C27.2869 23.241 27.3418 23.2608 27.3966 23.2757C28.7183 23.5977 30.045 23.9198 31.3666 24.2468C31.6858 24.326 31.9951 24.44 32.2843 24.6035C33.3267 25.193 33.9252 26.5605 33.6509 27.6901C33.212 29.4736 32.7781 31.2523 32.3392 33.0358C31.6908 35.6617 31.0425 38.2875 30.3941 40.9133C29.8704 43.0437 29.3367 45.1691 28.8131 47.2995C28.3542 49.1624 27.9054 51.0302 27.4415 52.898C27.262 53.6263 26.7782 54.0722 26.065 54.2901C25.5912 54.4338 25.1273 54.3694 24.6635 54.2555C23.4516 53.9532 22.2396 53.651 21.0277 53.3538C20.6885 53.2695 20.6835 53.2745 20.5489 53.5767C20.2995 54.1366 20.0551 54.6964 19.8057 55.2612C19.1923 56.6583 18.5738 58.0505 17.9604 59.4477C17.8407 59.7251 17.8407 59.735 18.1399 59.8143C20.6985 60.5178 23.2571 61.2263 25.8156 61.9199C26.8281 62.1924 27.8655 62.3559 28.8679 62.6531C29.227 62.7572 29.232 62.7671 29.1422 63.1238C28.9078 64.0453 28.6684 64.9668 28.429 65.8884C27.9103 67.9048 27.3916 69.9163 26.8729 71.9327C26.7932 72.2498 26.7931 72.2597 27.0625 72.339C28.7881 72.8294 30.5138 73.315 32.2345 73.8104C32.4389 73.8699 32.5237 73.8005 32.5586 73.6073C32.6235 73.2456 32.7532 72.8988 32.798 72.5272C32.8429 72.1755 33.0175 71.8435 33.1122 71.4918C33.222 71.0855 33.2968 70.6693 33.4015 70.2631C33.4763 69.9807 33.5811 69.7032 33.6659 69.4258C33.7357 69.2078 33.7107 68.9799 33.7855 68.7619C33.9202 68.3655 34.015 67.9543 34.1546 67.558C34.2494 67.2905 34.2494 67.008 34.3292 66.7356C34.5037 66.141 34.7382 65.5663 34.7781 64.9371C34.793 64.7043 34.9975 64.5903 35.2269 64.625C35.4115 64.6498 35.596 64.6795 35.7805 64.7092C36.9675 64.9123 38.1296 65.2195 39.2967 65.5217C39.6009 65.601 39.6059 65.596 39.5211 65.923C39.2717 66.8891 39.0174 67.8503 38.763 68.8164C38.2643 70.7189 37.7605 72.6164 37.2618 74.5189C37.167 74.8855 37.167 74.8954 37.5112 75.0044C39.1072 75.5147 40.7031 76.0201 42.2991 76.5205C42.8727 76.6988 42.8777 76.6939 43.0323 76.139C43.8303 73.2803 44.6283 70.4216 45.4262 67.5679C45.526 67.2112 45.531 67.2112 45.8951 67.2706C47.7654 67.5828 49.6456 67.8057 51.5409 67.8949C53.4261 67.9791 55.3014 67.8949 57.1517 67.4936C60.613 66.7405 63.2065 64.843 64.8523 61.7069C65.5955 60.285 66.1241 58.7838 66.5032 57.2231C66.7725 56.1183 66.9371 55.0135 66.9122 53.8839C66.8673 51.7931 66.1591 49.9501 64.7426 48.3895C63.7102 47.25 62.4584 46.3978 61.1118 45.6695C60.9771 45.6002 60.8225 45.5605 60.7277 45.4268H60.7128Z" fill="#FF9416"/>
</svg>
