<svg width="37" height="22" viewBox="0 0 37 22" fill="none" xmlns="http://www.w3.org/2000/svg">
<path d="M10.9414 0C10.3547 0.00244962 9.77289 0.0502171 9.19355 0.144527C8.34721 0.281706 7.53027 0.524218 6.73904 0.851242C6.55777 0.925955 6.38017 1.00924 6.20257 1.0962C5.81921 1.28482 5.44442 1.48692 5.08432 1.71718C4.34576 2.18996 3.66845 2.73867 3.06217 3.37312C2.95193 3.48825 2.84415 3.60461 2.73882 3.72342C1.9182 4.65305 1.2715 5.69291 0.804845 6.84178C0.490069 7.61586 0.267154 8.41688 0.138549 9.24363C0.0650608 9.7115 0.0185181 10.1818 0.00504518 10.6546C-0.0219006 11.5512 0.0589367 12.4379 0.251232 13.3137C0.695837 15.3272 1.62792 17.0812 3.04257 18.5803C3.22752 18.7763 3.42103 18.9649 3.6219 19.1462C4.64707 20.0758 6.00538 20.9467 7.68704 21.4782C8.44642 21.7183 9.22173 21.8787 10.0142 21.9535C10.5384 22.0025 11.0626 22.0147 11.5893 21.9853C12.198 21.9522 12.8006 21.8763 13.3959 21.7391C15.5956 21.2333 17.472 20.1591 19.0226 18.5203C19.8114 17.6862 20.4459 16.7456 20.9395 15.7094C21.5898 14.3437 21.9389 12.9046 21.9903 11.3932C22.0185 10.5762 21.9512 9.76662 21.7968 8.96437C21.6964 8.44138 21.5604 7.92573 21.3804 7.42479C20.4508 4.84412 18.8046 2.85503 16.4346 1.47467C15.2723 0.79735 14.0193 0.362543 12.6904 0.143303C12.111 0.0489923 11.528 0.00244962 10.9414 0Z" fill="black"/>
<path d="M14.9083 11.2308C14.9316 11.2639 14.9708 11.2737 15.0026 11.2908C15.3333 11.4709 15.6407 11.6815 15.8943 11.9632C16.2421 12.3491 16.416 12.8035 16.4271 13.3216C16.4332 13.6008 16.3928 13.8739 16.3266 14.1471C16.2335 14.5329 16.1049 14.904 15.9212 15.2555C15.517 16.0308 14.8801 16.4999 14.0301 16.6861C13.5757 16.7853 13.1152 16.8061 12.6522 16.7853C12.1868 16.7633 11.725 16.7094 11.2657 16.631C11.1763 16.6163 11.1751 16.6163 11.1506 16.7045C10.9546 17.4112 10.7587 18.1179 10.5627 18.8234C10.5247 18.9606 10.5247 18.963 10.3826 18.9177C9.9907 18.794 9.59876 18.6691 9.20682 18.5429C9.12231 18.516 9.12231 18.5135 9.14558 18.4229C9.26806 17.9526 9.39177 17.4834 9.51425 17.0131C9.57671 16.7743 9.63795 16.5367 9.70042 16.2978C9.72124 16.217 9.72124 16.2182 9.6453 16.1986C9.35992 16.1239 9.07331 16.048 8.78181 15.9978C8.73649 15.9904 8.69117 15.9831 8.64586 15.9769C8.58829 15.9696 8.53807 15.9978 8.53562 16.0541C8.52583 16.2097 8.46826 16.353 8.42539 16.4987C8.40579 16.5661 8.4058 16.6359 8.38252 16.702C8.34823 16.8 8.32618 16.9017 8.29189 16.9997C8.27351 17.0535 8.27841 17.1087 8.26249 17.1638C8.24167 17.2324 8.21595 17.301 8.19758 17.3708C8.17186 17.4712 8.15348 17.5741 8.12654 17.6745C8.10327 17.7603 8.0604 17.8435 8.04938 17.9305C8.03835 18.0224 8.00651 18.1081 7.99058 18.1975C7.98201 18.2453 7.96119 18.2612 7.91097 18.2477C7.48719 18.1252 7.06341 18.0052 6.64085 17.884C6.57471 17.8656 6.57471 17.8619 6.5943 17.7835C6.72168 17.285 6.84906 16.7878 6.97644 16.2893C7.03523 16.0615 7.09403 15.8336 7.15159 15.6058C7.17364 15.5176 7.17364 15.5164 7.08423 15.4895C6.83682 15.416 6.58206 15.3756 6.33464 15.3082C5.70509 15.1367 5.07799 14.9616 4.44967 14.7876C4.37618 14.7668 4.37618 14.7644 4.40557 14.697C4.55622 14.3516 4.7081 14.0062 4.85875 13.6621C4.91999 13.5236 4.98001 13.384 5.04125 13.2456C5.07432 13.1709 5.07554 13.1697 5.15883 13.1905C5.45646 13.264 5.75409 13.3387 6.05171 13.4134C6.16562 13.4416 6.27953 13.4575 6.39588 13.422C6.57103 13.3681 6.68984 13.2579 6.73393 13.0778C6.84784 12.6173 6.95807 12.1555 7.07075 11.6938C7.19936 11.1671 7.32919 10.6404 7.45902 10.115C7.61824 9.46586 7.77747 8.81671 7.93669 8.16756C8.04448 7.72663 8.15103 7.28692 8.25882 6.84599C8.32741 6.56674 8.17921 6.22869 7.92322 6.08294C7.85218 6.04252 7.77624 6.01435 7.69786 5.99475C7.37328 5.91391 7.04748 5.8343 6.72291 5.75469C6.70944 5.75102 6.69596 5.74489 6.68249 5.74367C6.63472 5.73632 6.62982 5.71305 6.64207 5.66895C6.68126 5.53055 6.71678 5.3897 6.75353 5.25007C6.83804 4.93284 6.92378 4.61684 7.00461 4.29962C7.01686 4.25308 7.04013 4.2494 7.07075 4.25675C7.33041 4.31064 7.59252 4.35963 7.84116 4.45762C7.873 4.46987 7.90975 4.47722 7.93914 4.48089C8.18533 4.51029 8.41682 4.59847 8.65688 4.65236C8.74262 4.67196 8.82223 4.7136 8.91042 4.72708C8.98635 4.73932 9.06229 4.74912 9.13578 4.76872C9.35257 4.82629 9.57059 4.8716 9.78983 4.9157C9.87189 4.93284 9.87434 4.92917 9.89516 4.84711C9.97722 4.53356 10.0568 4.22001 10.1389 3.90645C10.2124 3.62352 10.2883 3.34182 10.363 3.05889C10.3949 2.93641 10.428 2.81393 10.4586 2.69145C10.4684 2.65225 10.488 2.63633 10.5259 2.64858C10.6521 2.69022 10.7868 2.70124 10.9081 2.76248C10.9485 2.78331 10.9975 2.76861 11.0416 2.78086C11.1873 2.8225 11.3343 2.85924 11.4813 2.89721C11.5731 2.92171 11.6589 2.96948 11.7581 2.96948C11.8083 2.96948 11.8242 3.00377 11.8059 3.05031C11.7814 3.11523 11.774 3.18504 11.7409 3.24873C11.7177 3.29528 11.7262 3.35774 11.7091 3.41163C11.627 3.67987 11.5682 3.953 11.4935 4.22368C11.4188 4.49559 11.349 4.76872 11.2743 5.04063C11.2645 5.07737 11.2571 5.11411 11.2363 5.14841C11.2033 5.20353 11.2229 5.23537 11.2865 5.24884C11.6209 5.31988 11.9553 5.39092 12.2897 5.46196C12.3729 5.47911 12.3729 5.47911 12.3938 5.39337C12.4807 5.0345 12.5689 4.67563 12.6559 4.31677C12.7343 3.99219 12.8127 3.66762 12.891 3.34182C12.8923 3.33447 12.8947 3.32835 12.8972 3.32222C12.9229 3.23648 12.9229 3.23526 13.0123 3.26098C13.4189 3.37611 13.8256 3.49247 14.2322 3.60883C14.3204 3.63455 14.3241 3.637 14.2971 3.72518C14.2604 3.84521 14.2359 3.96892 14.193 4.08773C14.1661 4.16244 14.1624 4.25185 14.1379 4.33269C14.0877 4.49926 14.0595 4.67196 14.0068 4.83853C13.9493 5.01858 13.9211 5.20598 13.8635 5.3848C13.8133 5.54402 13.7852 5.70815 13.7362 5.86737C13.7153 5.93351 13.7251 5.94943 13.7901 5.97148C13.8488 5.9923 13.9076 6.01312 13.9676 6.02782C14.2396 6.09396 14.4968 6.20297 14.7442 6.3279C14.9328 6.42221 15.1275 6.50427 15.3076 6.61451C15.6101 6.79945 15.8943 7.00644 16.1319 7.271C16.3083 7.46697 16.4528 7.68254 16.5483 7.92872C16.6818 8.268 16.7259 8.62074 16.6867 8.98328C16.6537 9.28949 16.6059 9.59324 16.4871 9.87862C16.383 10.1285 16.2593 10.3673 16.0719 10.5682C15.7853 10.8744 15.4374 11.0753 15.0345 11.1843C14.994 11.1953 14.9536 11.2075 14.9132 11.221C14.9108 11.221 14.9083 11.2259 14.9046 11.2308H14.9083ZM11.5597 14.9261C11.7324 14.9346 11.9051 14.9261 12.0778 14.9065C12.2995 14.882 12.5138 14.8293 12.7196 14.7374C13.3454 14.4582 13.5745 13.7441 13.4189 13.1868C13.3479 12.9308 13.1911 12.7275 12.9964 12.5524C12.7955 12.3711 12.5665 12.2327 12.324 12.1151C11.9259 11.9216 11.507 11.7856 11.0808 11.6717C10.8603 11.6129 10.6374 11.5615 10.4133 11.5137C10.2344 11.4745 10.0556 11.4341 9.87924 11.3876C9.84005 11.3778 9.82045 11.3851 9.81065 11.4243C9.76901 11.5933 9.73104 11.7648 9.67959 11.9314C9.65877 12 9.64775 12.0722 9.6355 12.1433C9.59508 12.3699 9.5118 12.5842 9.4726 12.812C9.43586 13.0252 9.36604 13.2321 9.32073 13.444C9.28276 13.6216 9.23499 13.7968 9.186 13.9719C9.15905 14.0687 9.14313 14.1691 9.12231 14.2683C9.11128 14.3198 9.09781 14.3712 9.08434 14.4227C9.07576 14.457 9.08801 14.4765 9.12353 14.4827C9.23009 14.501 9.3342 14.5292 9.43463 14.566C9.52037 14.5966 9.60856 14.6003 9.69552 14.6211C9.88046 14.6639 10.0654 14.7093 10.2516 14.7497C10.6827 14.8428 11.1187 14.9101 11.5597 14.9273V14.9261ZM12.2933 10.3551C12.5591 10.3538 12.8139 10.3281 13.0613 10.2497C13.9407 9.97293 14.1207 8.93552 13.6639 8.35496C13.5512 8.21288 13.4202 8.0904 13.2732 7.98629C13.0454 7.82462 12.7931 7.70703 12.5346 7.60293C12.0288 7.40083 11.496 7.29182 10.9754 7.14485C10.9326 7.1326 10.9179 7.15097 10.9093 7.18649C10.875 7.32122 10.8468 7.4584 10.8003 7.58945C10.766 7.68376 10.7623 7.7842 10.7391 7.88096C10.6447 8.25085 10.5553 8.62197 10.4573 8.99063C10.4427 9.0482 10.4414 9.10576 10.4255 9.16333C10.3606 9.40829 10.303 9.6557 10.243 9.90189C10.2259 9.97415 10.2271 9.9766 10.2981 9.99498C10.537 10.0562 10.7758 10.1199 11.0146 10.1775C11.4372 10.2767 11.8647 10.3477 12.2933 10.3551Z" fill="white"/>
<path d="M11.561 14.9252C11.1188 14.908 10.684 14.8407 10.2529 14.7476C10.0667 14.7072 9.88176 14.6618 9.69681 14.619C9.60985 14.5994 9.52167 14.5957 9.43593 14.5639C9.3355 14.5271 9.23139 14.4989 9.12483 14.4806C9.08931 14.4744 9.07706 14.4548 9.08563 14.4206C9.09911 14.3691 9.11258 14.3177 9.1236 14.2662C9.14565 14.167 9.16035 14.0678 9.18729 13.9698C9.23629 13.7947 9.28283 13.6195 9.32202 13.4419C9.36734 13.23 9.43715 13.023 9.4739 12.8099C9.51309 12.5833 9.59638 12.3678 9.6368 12.1412C9.64905 12.0701 9.66007 11.9979 9.68089 11.9293C9.73233 11.7615 9.76908 11.5912 9.81195 11.4222C9.82174 11.3818 9.84134 11.3745 9.88053 11.3855C10.0569 11.432 10.2357 11.4724 10.4146 11.5116C10.6387 11.5606 10.8616 11.6108 11.0821 11.6696C11.5083 11.7835 11.9272 11.9183 12.3253 12.113C12.5665 12.2306 12.7968 12.369 12.9977 12.5503C13.1924 12.7254 13.3492 12.9287 13.4202 13.1847C13.5758 13.742 13.3467 14.4561 12.7209 14.7353C12.5151 14.8272 12.3008 14.8786 12.0791 14.9044C11.9076 14.924 11.7349 14.9325 11.561 14.924V14.9252Z" fill="#FF9416"/>
<path d="M12.2948 10.3527C11.8661 10.3453 11.4387 10.2743 11.0161 10.1751C10.7761 10.1187 10.5372 10.0551 10.2996 9.99259C10.2286 9.97422 10.2273 9.97177 10.2445 9.8995C10.3045 9.65332 10.3621 9.40591 10.427 9.16095C10.4417 9.10338 10.4429 9.04581 10.4588 8.98825C10.5568 8.61958 10.6474 8.24846 10.7405 7.87857C10.765 7.78181 10.7687 7.68138 10.8018 7.58707C10.8483 7.45601 10.8765 7.31883 10.9108 7.18411C10.9194 7.14859 10.9341 7.13021 10.9769 7.14246C11.4987 7.28944 12.0315 7.39845 12.5361 7.60054C12.7945 7.70342 13.0456 7.82101 13.2747 7.98391C13.4216 8.08801 13.5527 8.21049 13.6654 8.35257C14.1222 8.93313 13.9422 9.97054 13.0628 10.2473C12.8141 10.3257 12.5594 10.3515 12.2948 10.3527Z" fill="#FF9416"/>
<path d="M10.9414 0C11.528 0.00244962 12.111 0.0489923 12.6904 0.144527C14.0181 0.362543 15.2711 0.79735 16.4346 1.47589C18.8046 2.85625 20.4508 4.84534 21.3804 7.42601C21.5617 7.92696 21.6964 8.4426 21.7968 8.96559C21.9512 9.76784 22.0185 10.5774 21.9903 11.3944C21.9377 12.9058 21.5886 14.345 20.9395 15.7106C20.4459 16.7468 19.8114 17.6875 19.0226 18.5215C17.472 20.1603 15.5956 21.2357 13.3959 21.7403C12.8018 21.8763 12.1992 21.9522 11.5893 21.9865C11.0626 22.0159 10.5384 22.0037 10.0142 21.9547C9.22173 21.88 8.44642 21.7195 7.68704 21.4795C6.00538 20.9479 4.64707 20.0771 3.6219 19.1474C3.42226 18.9662 3.22752 18.7775 3.04257 18.5816C1.62792 17.0836 0.695837 15.3285 0.251232 13.3149C0.0589367 12.4379 -0.0219006 11.5499 0.00504518 10.6546C0.0185181 10.1818 0.0662856 9.7115 0.138549 9.24363C0.267154 8.41688 0.490069 7.61586 0.804845 6.84178C1.2715 5.69291 1.91697 4.65305 2.73882 3.72342C2.84415 3.60461 2.95193 3.48825 3.06217 3.37312C3.66845 2.73867 4.34576 2.19118 5.08432 1.71718C5.44442 1.48692 5.81921 1.28482 6.20257 1.0962C6.37895 1.00924 6.55777 0.925955 6.73904 0.851242C7.53027 0.522993 8.34599 0.280481 9.19355 0.144527C9.77289 0.0514419 10.3547 0.00244962 10.9414 0ZM14.9097 11.2303C14.9097 11.2303 14.9159 11.2205 14.9183 11.2205C14.9587 11.2082 14.9991 11.1947 15.0396 11.1837C15.4425 11.0747 15.7916 10.8738 16.077 10.5676C16.2644 10.3668 16.3881 10.1279 16.4922 9.87808C16.611 9.5927 16.6588 9.28894 16.6918 8.98274C16.731 8.61897 16.6857 8.26745 16.5534 7.92818C16.4567 7.682 16.3134 7.46643 16.137 7.27046C15.8982 7.0059 15.6152 6.79891 15.3127 6.61396C15.1314 6.50373 14.9367 6.42289 14.7493 6.32736C14.5019 6.20243 14.2447 6.09219 13.9728 6.02728C13.9127 6.01258 13.8539 5.99176 13.7952 5.97094C13.7315 5.94767 13.7217 5.93297 13.7413 5.86683C13.7903 5.70761 13.8184 5.54348 13.8686 5.38426C13.9262 5.20421 13.9544 5.01804 14.0119 4.83799C14.0646 4.67264 14.094 4.49994 14.143 4.33215C14.1663 4.25131 14.1712 4.1619 14.1981 4.08718C14.241 3.96715 14.2655 3.84467 14.3022 3.72464C14.3292 3.63645 14.3255 3.63401 14.2373 3.60828C13.8307 3.49193 13.424 3.3768 13.0174 3.26044C12.928 3.23472 12.928 3.23594 12.9023 3.32168C12.8998 3.32903 12.8974 3.33515 12.8961 3.34128C12.8178 3.66585 12.7394 3.99042 12.661 4.31622C12.574 4.67509 12.4858 5.03396 12.3989 5.39283C12.3781 5.47857 12.3781 5.47857 12.2948 5.46142C11.9604 5.39038 11.626 5.31934 11.2917 5.2483C11.228 5.23483 11.2084 5.20298 11.2414 5.14787C11.2623 5.11235 11.2696 5.0756 11.2794 5.04008C11.3541 4.76818 11.4239 4.49505 11.4986 4.22314C11.5734 3.95368 11.6321 3.67932 11.7142 3.41109C11.7314 3.3572 11.7228 3.29473 11.7461 3.24819C11.7791 3.18328 11.7865 3.11469 11.811 3.04977C11.8281 3.00323 11.8134 2.96893 11.7632 2.96893C11.664 2.96893 11.5783 2.92117 11.4864 2.89667C11.3394 2.8587 11.1924 2.82196 11.0467 2.78031C11.0014 2.76807 10.9536 2.78154 10.9132 2.76194C10.7919 2.7007 10.6572 2.68968 10.531 2.64803C10.4931 2.63579 10.4735 2.65048 10.4637 2.6909C10.4331 2.81338 10.4012 2.93586 10.3681 3.05835C10.2934 3.34128 10.2175 3.62298 10.144 3.90591C10.0619 4.21946 9.98233 4.53301 9.90027 4.84657C9.87822 4.92863 9.877 4.93108 9.79494 4.91515C9.5757 4.87106 9.35645 4.82574 9.14089 4.76818C9.0674 4.74858 8.99024 4.73878 8.91552 4.72653C8.82734 4.71306 8.74772 4.67142 8.66199 4.65182C8.42193 4.59793 8.19044 4.51097 7.94425 4.48035C7.91486 4.47667 7.87811 4.46932 7.84627 4.45708C7.59763 4.35909 7.33552 4.3101 7.07586 4.25621C7.04524 4.25008 7.02075 4.25376 7.00972 4.29908C6.92888 4.6163 6.84315 4.93353 6.75864 5.24953C6.72189 5.38915 6.68637 5.53001 6.64718 5.66841C6.63493 5.71128 6.63983 5.73578 6.6876 5.74312C6.70107 5.74557 6.71454 5.75047 6.72802 5.75415C7.05259 5.83376 7.37839 5.91337 7.70296 5.99421C7.78135 6.01381 7.85729 6.04198 7.92833 6.0824C8.18431 6.22815 8.33129 6.5662 8.26393 6.84545C8.15614 7.28638 8.04958 7.72609 7.9418 8.16702C7.78258 8.81617 7.62335 9.46532 7.46413 10.1145C7.33552 10.6411 7.20447 11.1666 7.07586 11.6932C6.96318 12.1538 6.85295 12.6155 6.73904 13.0773C6.69495 13.2573 6.57614 13.3676 6.40099 13.4214C6.28464 13.457 6.17073 13.441 6.05682 13.4129C5.75919 13.3382 5.46156 13.2634 5.16394 13.19C5.08065 13.1691 5.07942 13.1704 5.04635 13.2451C4.98511 13.3835 4.9251 13.5219 4.86386 13.6615C4.71321 14.0069 4.56133 14.3511 4.41068 14.6965C4.38128 14.7651 4.38128 14.7675 4.45477 14.7871C5.0831 14.961 5.71143 15.1362 6.33975 15.3077C6.58839 15.375 6.84315 15.4154 7.08933 15.4889C7.17752 15.5146 7.17875 15.5171 7.1567 15.6053C7.09913 15.8331 7.04034 16.0609 6.98155 16.2887C6.85417 16.7872 6.72679 17.2845 6.59941 17.783C6.57981 17.8614 6.57981 17.8638 6.64595 17.8834C7.06974 18.0047 7.49352 18.1247 7.91608 18.2472C7.9663 18.2619 7.98712 18.2447 7.99569 18.197C8.01161 18.1076 8.04346 18.0218 8.05448 17.93C8.06551 17.843 8.10837 17.7609 8.13165 17.674C8.15859 17.5735 8.17696 17.4707 8.20269 17.3702C8.22106 17.3004 8.24678 17.2318 8.2676 17.1632C8.28475 17.1093 8.27862 17.053 8.297 16.9991C8.33006 16.9011 8.35334 16.7995 8.38763 16.7015C8.4109 16.6353 8.4109 16.5655 8.4305 16.4982C8.47337 16.3512 8.53093 16.2091 8.54073 16.0536C8.54441 15.996 8.59462 15.9678 8.65096 15.9764C8.69628 15.9825 8.7416 15.9899 8.78692 15.9972C9.07842 16.0474 9.3638 16.1234 9.65041 16.1981C9.72512 16.2177 9.72635 16.2165 9.70552 16.2973C9.64428 16.5361 9.58182 16.7737 9.51935 17.0126C9.39687 17.4829 9.27317 17.952 9.15069 18.4223C9.12741 18.513 9.12741 18.5154 9.21193 18.5424C9.60387 18.6685 9.9958 18.7935 10.3877 18.9172C10.5286 18.9613 10.5298 18.96 10.5678 18.8228C10.7638 18.1161 10.9597 17.4094 11.1557 16.7039C11.1802 16.6157 11.1814 16.6157 11.2708 16.6304C11.7301 16.7076 12.1919 16.7627 12.6573 16.7848C13.1203 16.8056 13.5808 16.7848 14.0352 16.6856C14.8852 16.4994 15.5221 16.0303 15.9263 15.255C16.1088 14.9035 16.2386 14.5323 16.3317 14.1465C16.3979 13.8734 16.4383 13.6003 16.4322 13.321C16.4211 12.8041 16.2472 12.3485 15.8994 11.9627C15.6458 11.681 15.3384 11.4703 15.0077 11.2903C14.9746 11.2731 14.9367 11.2633 14.9134 11.2303H14.9097Z" fill="#FF9416"/>
<ellipse cx="24.5" cy="11" rx="11.5" ry="11" fill="white"/>
<path fill-rule="evenodd" clip-rule="evenodd" d="M36.1 11C36.1 17.0751 30.9289 22 24.55 22C18.1711 22 13 17.0751 13 11C13 4.92487 18.1711 0 24.55 0C30.9289 0 36.1 4.92487 36.1 11ZM25.9374 11.9494V11.9508C28.7383 11.8326 30.8281 11.3685 30.8281 10.8116C30.8281 10.2561 28.7383 9.79069 25.9374 9.67175V11.4888C25.8559 11.4957 25.4191 11.5301 24.5478 11.5301C23.8216 11.5301 23.2961 11.5005 23.1127 11.4881V9.67037C20.3061 9.79 18.2112 10.2554 18.2112 10.8116C18.2112 11.3685 20.3061 11.8339 23.1127 11.9515V11.9494C23.2932 11.9577 23.8065 11.9783 24.5356 11.9783C25.4487 11.9783 25.858 11.9549 25.9374 11.9494ZM25.9374 7.85606V9.48269C29.1086 9.62225 31.4916 10.2211 31.4916 10.9381C31.4916 11.6552 29.1086 12.254 25.9374 12.3929V17.6069H23.1127V12.3942C19.9365 12.2547 17.5478 11.6559 17.5478 10.9381C17.5478 10.2204 19.9365 9.62088 23.1127 9.482V7.85606H19.2045V5.37556H29.8457V7.85606H25.9374Z" fill="#4EB098"/>
</svg>
