<svg width="76" height="46" viewBox="0 0 76 46" fill="none" xmlns="http://www.w3.org/2000/svg">
<path d="M52.6379 45.9971C65.4276 45.9971 75.7958 35.7008 75.7958 22.9995C75.7958 10.2983 65.4276 0.00195312 52.6379 0.00195312C39.8481 0.00195312 29.48 10.2983 29.48 22.9995C29.48 35.7008 39.8481 45.9971 52.6379 45.9971Z" fill="#627EEA"/>
<path d="M53.3589 5.75098V18.5003L64.2098 23.3154L53.3589 5.75098Z" fill="white" fill-opacity="0.602"/>
<path d="M53.3587 5.75098L42.5063 23.3154L53.3587 18.5003V5.75098Z" fill="white"/>
<path d="M53.3589 31.5776V40.2405L64.217 25.3223L53.3589 31.5776Z" fill="white" fill-opacity="0.602"/>
<path d="M53.3587 40.2405V31.5762L42.5063 25.3223L53.3587 40.2405Z" fill="white"/>
<path d="M53.3589 29.572L64.2098 23.3152L53.3589 18.5029V29.572Z" fill="white" fill-opacity="0.2"/>
<path d="M42.5063 23.3152L53.3587 29.572V18.5029L42.5063 23.3152Z" fill="white" fill-opacity="0.602"/>
<path d="M23.0344 0.00195312C21.7993 0.00707451 20.5745 0.106942 19.3549 0.304115C17.5731 0.590913 15.8532 1.09793 14.1875 1.78163C13.8058 1.93784 13.4319 2.11196 13.058 2.29377C12.251 2.68812 11.4619 3.11063 10.7038 3.59204C9.14898 4.58047 7.72304 5.72766 6.44667 7.0541C6.2146 7.29481 5.98768 7.53807 5.76593 7.78646C4.03831 9.73003 2.67684 11.9041 1.69441 14.306C1.03172 15.9243 0.56243 17.599 0.291683 19.3275C0.13697 20.3057 0.0389854 21.289 0.0106214 22.2774C-0.0461065 24.1518 0.124077 26.0058 0.528909 27.8367C1.46492 32.0465 3.42719 35.7134 6.40541 38.8477C6.79477 39.2574 7.20218 39.6517 7.62506 40.0307C9.7833 41.9743 12.6429 43.7949 16.1832 44.9063C17.7819 45.4082 19.4142 45.7436 21.0825 45.8998C22.1861 46.0022 23.2897 46.0279 24.3985 45.9664C25.68 45.8973 26.9487 45.7385 28.2018 45.4517C32.8329 44.3941 36.7832 42.1484 40.0477 38.7222C41.7082 36.9784 43.0439 35.0117 44.0831 32.8454C45.4523 29.9902 46.1872 26.9814 46.2955 23.8215C46.3548 22.1135 46.213 20.4209 45.8881 18.7437C45.6766 17.6502 45.3904 16.5722 45.0114 15.5249C43.0542 10.1295 39.5887 5.97093 34.5992 3.08503C32.1522 1.66896 29.5143 0.759918 26.7166 0.301554C25.4969 0.104381 24.2696 0.00707451 23.0344 0.00195312Z" fill="black"/>
<path d="M31.386 23.4825C31.435 23.5516 31.5175 23.5721 31.5845 23.608C32.2808 23.9844 32.928 24.4248 33.4617 25.0138C34.194 25.8204 34.5602 26.7704 34.5834 27.8536C34.5963 28.4374 34.5112 29.0085 34.372 29.5795C34.176 30.3861 33.9052 31.162 33.5185 31.8969C32.6675 33.5178 31.3267 34.4986 29.5372 34.8878C28.5805 35.0952 27.611 35.1388 26.6363 35.0952C25.6565 35.0491 24.6844 34.9365 23.7174 34.7726C23.5292 34.7419 23.5266 34.7419 23.475 34.9262C23.0625 36.4037 22.6499 37.8813 22.2373 39.3562C22.1574 39.643 22.1574 39.6481 21.8583 39.5534C21.0331 39.2948 20.208 39.0336 19.3829 38.7698C19.205 38.7135 19.205 38.7084 19.254 38.5189C19.5118 37.5356 19.7722 36.5548 20.0301 35.5715C20.1616 35.0722 20.2905 34.5754 20.422 34.0761C20.4659 33.9071 20.4659 33.9096 20.306 33.8687C19.7052 33.7125 19.1018 33.5537 18.4881 33.4487C18.3927 33.4333 18.2973 33.418 18.2019 33.4052C18.0807 33.3898 17.975 33.4487 17.9698 33.5665C17.9492 33.8917 17.828 34.1913 17.7378 34.496C17.6965 34.6369 17.6965 34.7828 17.6475 34.9211C17.5753 35.126 17.5289 35.3385 17.4567 35.5433C17.418 35.656 17.4283 35.7713 17.3948 35.8865C17.351 36.0299 17.2968 36.1733 17.2582 36.3192C17.204 36.5292 17.1653 36.7443 17.1086 36.9543C17.0596 37.1335 16.9694 37.3077 16.9462 37.4895C16.923 37.6815 16.8559 37.8608 16.8224 38.0477C16.8043 38.1476 16.7605 38.1809 16.6548 38.1527C15.7626 37.8966 14.8704 37.6457 13.9808 37.3922C13.8416 37.3538 13.8416 37.3461 13.8828 37.1822C14.151 36.14 14.4192 35.1003 14.6874 34.0581C14.8111 33.5819 14.9349 33.1056 15.0561 32.6293C15.1025 32.4449 15.1025 32.4423 14.9143 32.386C14.3934 32.2324 13.8571 32.1479 13.3362 32.007C12.0108 31.6485 10.6906 31.2824 9.36782 30.9187C9.21311 30.8752 9.21311 30.8701 9.27499 30.7292C9.59215 30.0071 9.91189 29.285 10.2291 28.5655C10.358 28.2761 10.4843 27.9842 10.6133 27.6948C10.6829 27.5386 10.6855 27.5361 10.8608 27.5796C11.4874 27.7332 12.114 27.8894 12.7406 28.0456C12.9804 28.1045 13.2202 28.1378 13.4651 28.0636C13.8339 27.9509 14.084 27.7204 14.1768 27.344C14.4166 26.3812 14.6487 25.4158 14.8859 24.4504C15.1566 23.3493 15.43 22.2482 15.7033 21.1497C16.0385 19.7925 16.3737 18.4354 16.7089 17.0782C16.9358 16.1563 17.1602 15.2371 17.3871 14.3152C17.5315 13.7314 17.2195 13.0246 16.6806 12.7199C16.531 12.6354 16.3711 12.5765 16.2061 12.5355C15.5228 12.3665 14.8369 12.2001 14.1536 12.0336C14.1252 12.0259 14.0969 12.0131 14.0685 12.0106C13.9679 11.9952 13.9576 11.9466 13.9834 11.8544C14.0659 11.565 14.1407 11.2705 14.2181 10.9786C14.396 10.3154 14.5765 9.65474 14.7467 8.99152C14.7724 8.89422 14.8214 8.88653 14.8859 8.9019C15.4326 9.01457 15.9844 9.117 16.5078 9.32185C16.5748 9.34746 16.6522 9.36282 16.7141 9.37051C17.2324 9.43196 17.7197 9.61633 18.2251 9.729C18.4056 9.76997 18.5732 9.85704 18.7589 9.8852C18.9187 9.91081 19.0786 9.9313 19.2333 9.97227C19.6897 10.0926 20.1487 10.1874 20.6103 10.2796C20.783 10.3154 20.7882 10.3077 20.832 10.1362C21.0048 9.48061 21.1724 8.82508 21.3452 8.16954C21.4999 7.57802 21.6597 6.98906 21.817 6.39754C21.8841 6.14147 21.9537 5.8854 22.0182 5.62933C22.0388 5.54739 22.08 5.5141 22.16 5.53971C22.4256 5.62677 22.7092 5.64982 22.9645 5.77785C23.0496 5.82138 23.1527 5.79066 23.2455 5.81626C23.5524 5.90333 23.8618 5.98015 24.1712 6.05953C24.3646 6.11074 24.5451 6.21061 24.754 6.21061C24.8597 6.21061 24.8932 6.28231 24.8545 6.37962C24.803 6.51533 24.7875 6.66129 24.7179 6.79445C24.6689 6.89175 24.6869 7.02235 24.6508 7.13502C24.4781 7.69581 24.3543 8.26685 24.197 8.83276C24.0397 9.40123 23.8928 9.97227 23.7355 10.5407C23.7148 10.6176 23.6994 10.6944 23.6555 10.7661C23.5859 10.8813 23.6272 10.9479 23.7612 10.9761C24.4652 11.1246 25.1691 11.2731 25.8731 11.4216C26.0484 11.4575 26.0484 11.4575 26.0923 11.2782C26.2753 10.5279 26.461 9.77766 26.6441 9.02737C26.8091 8.34879 26.9741 7.67021 27.1391 6.98906C27.1417 6.9737 27.1469 6.96089 27.152 6.94809C27.2062 6.76884 27.2062 6.76628 27.3944 6.82006C28.2505 7.06076 29.1066 7.30403 29.9626 7.54729C30.1483 7.60107 30.156 7.60619 30.0993 7.79056C30.022 8.04151 29.9704 8.30014 29.8801 8.54852C29.8234 8.70472 29.8157 8.89166 29.7641 9.06066C29.6584 9.40892 29.5991 9.76997 29.4882 10.1182C29.367 10.4946 29.3077 10.8864 29.1865 11.2603C29.0808 11.5932 29.0215 11.9363 28.9183 12.2692C28.8745 12.4075 28.8951 12.4408 29.0318 12.4869C29.1556 12.5304 29.2793 12.5739 29.4057 12.6047C29.9781 12.7429 30.5196 12.9708 31.0405 13.232C31.4376 13.4292 31.8476 13.6008 32.2266 13.8312C32.8635 14.2179 33.4617 14.6507 33.962 15.2038C34.3333 15.6135 34.6375 16.0642 34.8387 16.5789C35.1197 17.2882 35.2126 18.0256 35.13 18.7836C35.0604 19.4238 34.9599 20.0588 34.7097 20.6555C34.4906 21.1779 34.2301 21.6772 33.8356 22.0971C33.2322 22.7373 32.4999 23.1573 31.6516 23.3852C31.5665 23.4082 31.4814 23.4338 31.3963 23.462C31.3912 23.462 31.386 23.4722 31.3783 23.4825H31.386ZM24.3363 31.2081C24.6998 31.226 25.0634 31.2081 25.427 31.1671C25.8937 31.1159 26.3449 31.0058 26.7781 30.8137C28.0958 30.2299 28.578 28.737 28.2505 27.5719C28.1009 27.0367 27.7709 26.6117 27.3609 26.2455C26.938 25.8665 26.4558 25.5771 25.9453 25.3313C25.1072 24.9267 24.2254 24.6425 23.3281 24.4043C22.8639 24.2814 22.3946 24.1739 21.9227 24.074C21.5463 23.9921 21.1698 23.9076 20.7985 23.8103C20.716 23.7898 20.6747 23.8051 20.6541 23.8871C20.5664 24.2404 20.4865 24.5989 20.3782 24.9472C20.3344 25.0906 20.3112 25.2417 20.2854 25.3902C20.2003 25.8639 20.0249 26.312 19.9424 26.7883C19.8651 27.2339 19.7181 27.6667 19.6227 28.1097C19.5428 28.481 19.4422 28.8471 19.339 29.2133C19.2823 29.4156 19.2488 29.6256 19.205 29.833C19.1818 29.9406 19.1534 30.0481 19.125 30.1557C19.107 30.2274 19.1328 30.2683 19.2075 30.2811C19.4319 30.3195 19.651 30.3784 19.8625 30.4553C20.043 30.5193 20.2286 30.527 20.4117 30.5705C20.8011 30.6601 21.1904 30.7549 21.5824 30.8394C22.49 31.034 23.408 31.1748 24.3363 31.2107V31.2081ZM25.8808 21.6516C26.4404 21.649 26.9767 21.5953 27.4976 21.4314C29.349 20.8527 29.728 18.6837 28.7662 17.47C28.529 17.1729 28.2531 16.9169 27.9436 16.6992C27.464 16.3612 26.9329 16.1154 26.3888 15.8977C25.3238 15.4752 24.2022 15.2473 23.1063 14.94C23.016 14.9144 22.9851 14.9528 22.9671 15.0271C22.8949 15.3088 22.8356 15.5955 22.7376 15.8695C22.6654 16.0667 22.6576 16.2767 22.6086 16.479C22.4101 17.2523 22.2219 18.0282 22.0156 18.799C21.9846 18.9193 21.9821 19.0397 21.9485 19.16C21.8119 19.6722 21.6907 20.1894 21.5643 20.7041C21.5282 20.8552 21.5308 20.8603 21.6804 20.8987C22.1832 21.0268 22.686 21.1599 23.1888 21.2803C24.0784 21.4877 24.9783 21.6362 25.8808 21.6516Z" fill="white"/>
<path d="M24.3388 31.206C23.408 31.1701 22.4926 31.0293 21.585 30.8347C21.193 30.7502 20.8037 30.6554 20.4143 30.5658C20.2312 30.5248 20.0456 30.5171 19.8651 30.4506C19.6536 30.3737 19.4344 30.3148 19.2101 30.2764C19.1353 30.2636 19.1096 30.2227 19.1276 30.151C19.156 30.0434 19.1843 29.9359 19.2075 29.8283C19.2539 29.6209 19.2849 29.4135 19.3416 29.2086C19.4448 28.8424 19.5427 28.4763 19.6253 28.105C19.7207 27.662 19.8676 27.2292 19.945 26.7836C20.0275 26.3099 20.2029 25.8592 20.2879 25.3855C20.3137 25.237 20.3369 25.0859 20.3808 24.9425C20.4891 24.5917 20.5664 24.2358 20.6567 23.8824C20.6773 23.7979 20.7186 23.7825 20.8011 23.8056C21.1724 23.9029 21.5489 23.9874 21.9253 24.0693C22.3972 24.1717 22.8665 24.2767 23.3306 24.3996C24.228 24.6378 25.1098 24.9195 25.9478 25.3266C26.4558 25.5724 26.9406 25.8618 27.3635 26.2408C27.7735 26.607 28.1035 27.032 28.2531 27.5672C28.5805 28.7323 28.0984 30.2252 26.7807 30.8091C26.3475 31.0011 25.8963 31.1087 25.4296 31.1624C25.0686 31.2034 24.705 31.2213 24.3388 31.2034V31.206Z" fill="#FF9416"/>
<path d="M25.884 21.6463C24.9816 21.6309 24.0816 21.4824 23.192 21.275C22.6867 21.1572 22.1838 21.024 21.6836 20.8934C21.534 20.855 21.5315 20.8499 21.5676 20.6988C21.6939 20.1841 21.8151 19.6668 21.9518 19.1547C21.9827 19.0344 21.9853 18.914 22.0188 18.7936C22.2251 18.0229 22.4159 17.247 22.6119 16.4737C22.6634 16.2714 22.6712 16.0614 22.7408 15.8642C22.8388 15.5902 22.8981 15.3034 22.9703 15.0217C22.9883 14.9475 23.0193 14.9091 23.1095 14.9347C24.208 15.242 25.3297 15.4699 26.392 15.8924C26.9361 16.1075 27.4647 16.3533 27.9469 16.6939C28.2563 16.9115 28.5322 17.1676 28.7694 17.4646C29.7312 18.6784 29.3522 20.8473 27.5008 21.426C26.9774 21.5899 26.441 21.6437 25.884 21.6463Z" fill="#FF9416"/>
<path d="M23.0344 0.00195313C24.2696 0.00707451 25.4969 0.104381 26.7166 0.304115C29.5117 0.759918 32.1496 1.66896 34.5992 3.08759C39.5887 5.97349 43.0542 10.1321 45.0114 15.5274C45.393 16.5748 45.6766 17.6528 45.8881 18.7462C46.213 20.4235 46.3548 22.1161 46.2955 23.8241C46.1846 26.984 45.4497 29.9928 44.0831 32.848C43.0439 35.0143 41.7082 36.9809 40.0477 38.7248C36.7832 42.151 32.8329 44.3993 28.2018 45.4543C26.9512 45.7385 25.6826 45.8973 24.3985 45.969C23.2897 46.0304 22.1861 46.0048 21.0825 45.9024C19.4142 45.7462 17.7819 45.4107 16.1832 44.9088C12.6429 43.7975 9.7833 41.9768 7.62506 40.0333C7.20476 39.6543 6.79477 39.2599 6.40541 38.8502C3.42719 35.7185 1.46492 32.049 0.528909 27.8392C0.124077 26.0058 -0.0461065 24.1493 0.0106214 22.2774C0.0389854 21.289 0.139549 20.3057 0.291683 19.3275C0.56243 17.599 1.03172 15.9243 1.69441 14.306C2.67684 11.9041 4.03573 9.73003 5.76593 7.78646C5.98768 7.53807 6.2146 7.29481 6.44667 7.0541C7.72304 5.72766 9.14898 4.58303 10.7038 3.59204C11.4619 3.11063 12.251 2.68812 13.058 2.29377C13.4294 2.11196 13.8058 1.93784 14.1875 1.78163C15.8532 1.09537 17.5705 0.588352 19.3549 0.304115C20.5745 0.109502 21.7993 0.00707451 23.0344 0.00195313ZM31.3889 23.4809C31.3889 23.4809 31.4018 23.4605 31.407 23.4605C31.4921 23.4349 31.5771 23.4067 31.6622 23.3836C32.5106 23.1557 33.2455 22.7358 33.8463 22.0956C34.2408 21.6757 34.5012 21.1763 34.7204 20.6539C34.9705 20.0573 35.0711 19.4222 35.1407 18.7821C35.2232 18.0215 35.1278 17.2866 34.8493 16.5773C34.6456 16.0626 34.3439 15.6119 33.9726 15.2022C33.4698 14.6491 32.8742 14.2164 32.2373 13.8297C31.8556 13.5992 31.4456 13.4302 31.0511 13.2305C30.5303 12.9693 29.9888 12.7388 29.4163 12.6031C29.29 12.5724 29.1662 12.5289 29.0424 12.4853C28.9084 12.4367 28.8877 12.406 28.929 12.2677C29.0321 11.9348 29.0914 11.5916 29.1972 11.2588C29.3183 10.8823 29.3776 10.4931 29.4988 10.1167C29.6097 9.771 29.6716 9.40994 29.7747 9.05912C29.8237 8.89012 29.8341 8.70319 29.8908 8.54699C29.981 8.29604 30.0326 8.03997 30.11 7.78902C30.1667 7.60465 30.1589 7.59953 29.9733 7.54575C29.1172 7.30249 28.2611 7.06178 27.4051 6.81852C27.2168 6.76474 27.2168 6.7673 27.1627 6.94655C27.1575 6.96192 27.1524 6.97472 27.1498 6.98752C26.9848 7.66611 26.8197 8.34469 26.6547 9.02584C26.4716 9.77612 26.286 10.5264 26.1029 11.2767C26.0591 11.4559 26.0591 11.4559 25.8837 11.4201C25.1798 11.2716 24.4758 11.123 23.7719 10.9745C23.6378 10.9464 23.5966 10.8798 23.6662 10.7645C23.71 10.6903 23.7255 10.6135 23.7461 10.5392C23.9034 9.97073 24.0504 9.3997 24.2077 8.83122C24.365 8.26787 24.4887 7.69427 24.6615 7.13348C24.6976 7.02081 24.6795 6.89022 24.7285 6.79291C24.7982 6.65719 24.8136 6.5138 24.8652 6.37808C24.9013 6.28077 24.8704 6.20907 24.7646 6.20907C24.5558 6.20907 24.3753 6.10921 24.1819 6.05799C23.8725 5.97861 23.563 5.90179 23.2562 5.81473C23.1608 5.78912 23.0602 5.81729 22.9751 5.77632C22.7199 5.64828 22.4362 5.62524 22.1706 5.53817C22.0907 5.51256 22.0494 5.54329 22.0288 5.6278C21.9643 5.88386 21.8973 6.13993 21.8277 6.396C21.6704 6.98752 21.5105 7.57648 21.3558 8.168C21.183 8.82354 21.0154 9.47908 20.8427 10.1346C20.7963 10.3062 20.7937 10.3113 20.6209 10.278C20.1594 10.1858 19.6978 10.0911 19.244 9.97073C19.0893 9.92976 18.9268 9.90927 18.7695 9.88367C18.5839 9.8555 18.4163 9.76844 18.2358 9.72746C17.7304 9.61479 17.243 9.43299 16.7247 9.36897C16.6629 9.36129 16.5855 9.34592 16.5185 9.32032C15.995 9.11546 15.4432 9.01303 14.8966 8.90036C14.8321 8.88756 14.7805 8.89524 14.7573 8.98999C14.5871 9.6532 14.4066 10.3164 14.2287 10.9771C14.1514 11.269 14.0766 11.5635 13.9941 11.8528C13.9683 11.9425 13.9786 11.9937 14.0792 12.009C14.1075 12.0142 14.1359 12.0244 14.1642 12.0321C14.8476 12.1985 15.5335 12.365 16.2168 12.534C16.3818 12.575 16.5417 12.6339 16.6912 12.7184C17.2301 13.0231 17.5396 13.7298 17.3977 14.3137C17.1708 15.2355 16.9465 16.1548 16.7196 17.0767C16.3844 18.4338 16.0492 19.791 15.7139 21.1482C15.4432 22.2493 15.1673 23.3478 14.8966 24.4489C14.6593 25.4117 14.4273 26.3771 14.1875 27.3425C14.0946 27.7189 13.8445 27.9494 13.4758 28.062C13.2308 28.1363 12.991 28.103 12.7512 28.0441C12.1246 27.8879 11.498 27.7317 10.8714 27.5781C10.6961 27.5345 10.6935 27.5371 10.6239 27.6933C10.495 27.9826 10.3686 28.272 10.2397 28.5639C9.92254 29.286 9.6028 30.0056 9.28564 30.7277C9.22375 30.8711 9.22376 30.8762 9.37847 30.9172C10.7013 31.2808 12.0241 31.647 13.3468 32.0055C13.8703 32.1463 14.4066 32.2308 14.9249 32.3845C15.1106 32.4383 15.1131 32.4434 15.0667 32.6277C14.9455 33.104 14.8218 33.5803 14.698 34.0566C14.4298 35.0988 14.1617 36.1385 13.8935 37.1807C13.8522 37.3445 13.8522 37.3497 13.9915 37.3906C14.8837 37.6441 15.7758 37.8951 16.6654 38.1512C16.7712 38.1819 16.815 38.146 16.833 38.0462C16.8666 37.8592 16.9336 37.68 16.9568 37.4879C16.98 37.3061 17.0703 37.1346 17.1193 36.9528C17.176 36.7428 17.2147 36.5277 17.2688 36.3177C17.3075 36.1717 17.3616 36.0283 17.4055 35.8849C17.4416 35.7723 17.4287 35.6545 17.4674 35.5418C17.537 35.337 17.586 35.1244 17.6582 34.9196C17.7072 34.7813 17.7072 34.6353 17.7484 34.4945C17.8387 34.1872 17.9599 33.8902 17.9805 33.565C17.9882 33.4446 18.0939 33.3857 18.2126 33.4036C18.308 33.4164 18.4034 33.4318 18.4988 33.4472C19.1125 33.5522 19.7133 33.7109 20.3166 33.8671C20.4739 33.9081 20.4765 33.9055 20.4327 34.0745C20.3038 34.5739 20.1723 35.0706 20.0407 35.57C19.7829 36.5533 19.5225 37.534 19.2646 38.5173C19.2156 38.7068 19.2156 38.7119 19.3935 38.7683C20.2187 39.032 21.0438 39.2932 21.8689 39.5519C22.1655 39.644 22.168 39.6415 22.248 39.3547C22.6605 37.8772 23.0731 36.3996 23.4857 34.9247C23.5372 34.7403 23.5398 34.7403 23.7281 34.771C24.695 34.9324 25.6671 35.0476 26.647 35.0937C27.6217 35.1372 28.5912 35.0937 29.5478 34.8863C31.3373 34.497 32.6782 33.5163 33.5291 31.8954C33.9133 31.1605 34.1866 30.3846 34.3826 29.578C34.5218 29.0069 34.6069 28.4359 34.594 27.8521C34.5708 26.7714 34.2047 25.8189 33.4724 25.0122C32.9386 24.4233 32.2914 23.9828 31.5952 23.6064C31.5256 23.5706 31.4456 23.5501 31.3966 23.4809H31.3889Z" fill="#FF9416"/>
</svg>
