<svg width="25" height="25" viewBox="0 0 25 25" fill="none" xmlns="http://www.w3.org/2000/svg">
<path fill-rule="evenodd" clip-rule="evenodd" d="M25 12.5C25 19.4035 19.4035 25 12.5 25C5.59644 25 0 19.4035 0 12.5C0 5.59644 5.59644 0 12.5 0C19.4035 0 25 5.59644 25 12.5ZM6.25625 8.75C6.25625 8.0625 6.8125 7.5 7.5 7.5H17.5C18.1875 7.5 18.75 8.0625 18.75 8.75V16.25C18.75 16.9375 18.1875 17.5 17.5 17.5H7.5C6.8125 17.5 6.25 16.9375 6.25 16.25L6.25625 8.75ZM12.5 13.125L7.50001 9.99996V16.25H17.5V9.99996L12.5 13.125ZM12.5 11.875L7.50001 8.75001H17.5L12.5 11.875Z" fill="white"/>
</svg>
