<svg width="37" height="22" viewBox="0 0 37 22" fill="none" xmlns="http://www.w3.org/2000/svg">
<g clip-path="url(#clip0_2957_23020)">
<path d="M11 22.002C17.0751 22.002 22 17.0771 22 11.002C22 4.92682 17.0751 0.00195312 11 0.00195312C4.92487 0.00195312 0 4.92682 0 11.002C0 17.0771 4.92487 22.002 11 22.002Z" fill="#627EEA"/>
<path d="M11.3423 2.75195V8.85008L16.4965 11.1532L11.3423 2.75195Z" fill="white" fill-opacity="0.602"/>
<path d="M11.3424 2.75195L6.1875 11.1532L11.3424 8.85008V2.75195Z" fill="white"/>
<path d="M11.3423 15.1053V19.2488L16.4999 12.1133L11.3423 15.1053Z" fill="white" fill-opacity="0.602"/>
<path d="M11.3424 19.2488V15.1046L6.1875 12.1133L11.3424 19.2488Z" fill="white"/>
<path d="M11.3423 14.146L16.4965 11.1533L11.3423 8.85156V14.146Z" fill="white" fill-opacity="0.2"/>
<path d="M6.1875 11.1533L11.3424 14.146V8.85156L6.1875 11.1533Z" fill="white" fill-opacity="0.602"/>
</g>
<ellipse cx="24.5" cy="11.002" rx="11.5" ry="11" fill="white"/>
<path fill-rule="evenodd" clip-rule="evenodd" d="M36.1 11.002C36.1 17.0771 30.9289 22.002 24.55 22.002C18.1711 22.002 13 17.0771 13 11.002C13 4.92682 18.1711 0.00195312 24.55 0.00195312C30.9289 0.00195312 36.1 4.92682 36.1 11.002ZM25.9374 11.9514V11.9528C28.7383 11.8345 30.8281 11.3705 30.8281 10.8136C30.8281 10.2581 28.7383 9.79264 25.9374 9.6737V11.4908C25.8559 11.4976 25.4191 11.532 24.5478 11.532C23.8216 11.532 23.2961 11.5025 23.1127 11.4901V9.67233C20.3061 9.79195 18.2112 10.2574 18.2112 10.8136C18.2112 11.3705 20.3061 11.8359 23.1127 11.9535V11.9514C23.2932 11.9596 23.8065 11.9803 24.5356 11.9803C25.4487 11.9803 25.858 11.9569 25.9374 11.9514ZM25.9374 7.85802V9.48464C29.1086 9.6242 31.4916 10.223 31.4916 10.9401C31.4916 11.6571 29.1086 12.256 25.9374 12.3948V17.6088H23.1127V12.3962C19.9365 12.2566 17.5478 11.6578 17.5478 10.9401C17.5478 10.2223 19.9365 9.62283 23.1127 9.48395V7.85802H19.2045V5.37752H29.8457V7.85802H25.9374Z" fill="#4EB098"/>
<defs>
<clipPath id="clip0_2957_23020">
<rect width="22" height="22" fill="white" transform="translate(0 0.00195312)"/>
</clipPath>
</defs>
</svg>
