<svg width="25" height="26" viewBox="0 0 25 26" fill="none" xmlns="http://www.w3.org/2000/svg">
<path fill-rule="evenodd" clip-rule="evenodd" d="M12.5 25.5C19.4036 25.5 25 19.9036 25 13C25 6.09644 19.4036 0.5 12.5 0.5C5.59644 0.5 0 6.09644 0 13C0 19.9036 5.59644 25.5 12.5 25.5ZM13.2195 5.80339H19.6967C20.0942 5.80339 20.4164 6.12563 20.4164 6.52307V18.038C20.4164 18.4354 20.0942 18.7577 19.6967 18.7577H16.543L17.4616 20.595C17.6394 20.9506 17.4953 21.3828 17.1398 21.5606C17.0365 21.6122 16.9267 21.6367 16.8185 21.6367C16.5545 21.6367 16.3004 21.4909 16.1743 21.2387L14.9338 18.7577H10.0659L8.82536 21.2387C8.64767 21.5942 8.21542 21.7384 7.85984 21.5606C7.50433 21.3828 7.36025 20.9506 7.538 20.595L8.45663 18.7577H5.30294C4.90546 18.7577 4.58325 18.4354 4.58325 18.038V6.52307C4.58325 6.12563 4.90546 5.80339 5.30294 5.80339H11.7801V5.0837C11.7801 4.68626 12.1024 4.36401 12.4998 4.36401C12.8973 4.36401 13.2195 4.68626 13.2195 5.0837V5.80339ZM14.0265 13.8073L17.4191 10.4147C17.7002 10.1336 17.7002 9.67791 17.4191 9.39682C17.1381 9.1158 16.6824 9.1158 16.4014 9.39682L13.5176 12.2806L11.991 10.7538C11.856 10.6188 11.673 10.543 11.4821 10.543C11.2912 10.543 11.1082 10.6188 10.9732 10.7538L7.58054 14.1465C7.29942 14.4275 7.29942 14.8832 7.58058 15.1642C7.72105 15.3048 7.90525 15.3751 8.08945 15.3751C8.27361 15.3751 8.45777 15.3048 8.59832 15.1642L11.4821 12.2805L13.0087 13.8072C13.1436 13.9422 13.3267 14.0181 13.5176 14.0181C13.7084 14.0181 13.8915 13.9423 14.0265 13.8073Z" fill="#A2A2A2"/>
</svg>
