<svg width="25" height="26" viewBox="0 0 25 26" fill="none" xmlns="http://www.w3.org/2000/svg">
<path fill-rule="evenodd" clip-rule="evenodd" d="M25 13C25 19.9036 19.4036 25.5 12.5 25.5C5.59644 25.5 0 19.9036 0 13C0 6.09644 5.59644 0.5 12.5 0.5C19.4036 0.5 25 6.09644 25 13ZM7.45795 13.4196C7.1548 13.1164 6.66316 13.1164 6.35991 13.4196L5.26186 14.5176C4.95872 14.8209 4.95872 15.3125 5.26186 15.6157C5.56508 15.9188 6.05676 15.9188 6.35991 15.6157L7.45795 14.5176C7.76113 14.2145 7.76113 13.7229 7.45795 13.4196ZM8.18998 15.2495C8.4932 14.9463 8.98488 14.9463 9.28803 15.2495C9.59117 15.5527 9.59117 16.0444 9.28803 16.3475L8.18998 17.4456C7.88684 17.7487 7.39516 17.7487 7.09194 17.4456C6.7888 17.1424 6.7888 16.6508 7.09194 16.3475L8.18998 15.2495ZM11.1191 17.0798C10.8159 16.7767 10.3243 16.7767 10.021 17.0798L8.923 18.1779C8.61985 18.4811 8.61985 18.9728 8.923 19.2759C9.22621 19.5791 9.71789 19.5791 10.021 19.2759L11.1191 18.1779C11.4223 17.8747 11.4223 17.3831 11.1191 17.0798ZM11.8491 18.9095C12.1524 18.6062 12.644 18.6062 12.9472 18.9095C13.2504 19.2126 13.2504 19.7043 12.9472 20.0074L11.8491 21.1055C11.546 21.4087 11.0543 21.4087 10.7512 21.1055C10.448 20.8023 10.448 20.3106 10.7512 20.0074L11.8491 18.9095ZM20.8512 9.943L15.6924 4.81878C15.4903 4.61661 15.1625 4.61661 14.9604 4.81878L14.2283 5.5508C14.0262 5.75296 14.0262 6.08068 14.2283 6.28281L14.701 6.75551L14.5064 6.74895C14.048 6.73353 13.6025 6.90895 13.2774 7.2338L12.454 8.05719L12.3738 8.13737C11.6095 8.90164 10.7266 9.78455 10.7512 9.76002C10.448 10.0632 10.448 10.5548 10.7512 10.8581C11.0543 11.1612 11.546 11.1612 11.8491 10.8581L13.8623 8.84499C14.2665 8.44066 14.922 8.44066 15.3263 8.84499L19.1544 12.6731L19.1661 11.2207L19.3525 11.4071C19.5547 11.6093 19.8824 11.6093 20.0845 11.4071L20.8511 10.6751C21.0532 10.4729 21.0532 10.1451 20.8512 9.943ZM14.5958 9.57645L19.903 14.8837C20.2061 15.1868 20.2061 15.6785 19.903 15.9817C19.5999 16.2849 19.1082 16.2849 18.805 15.9817C18.8223 15.999 16.2913 13.468 15.3278 12.5046C15.2934 12.4702 15.2554 12.4417 15.2151 12.419C15.0179 12.3083 14.7635 12.3368 14.5957 12.5046C14.3936 12.7067 14.3936 13.0345 14.5957 13.2366L18.0729 16.7138C18.3761 17.0169 18.3761 17.5086 18.0729 17.8118C17.7697 18.115 17.278 18.115 16.9749 17.8118C16.9867 17.8236 15.8039 16.6409 14.7476 15.5845C14.2611 15.0981 13.8015 14.6384 13.4977 14.3346C13.2956 14.1325 12.9678 14.1325 12.7657 14.3346C12.5635 14.5368 12.5635 14.8645 12.7657 15.0667L16.2428 18.5438C16.546 18.847 16.546 19.3387 16.2428 19.6419C15.9396 19.945 15.448 19.945 15.1448 19.6419L12.0337 16.5308L11.8506 16.3477C11.492 15.9891 11.0193 15.8145 10.5482 15.82C10.5537 15.3489 10.3792 14.8762 10.0205 14.5176C9.66192 14.159 9.18918 13.9844 8.7181 13.9899C8.72359 13.5188 8.549 13.0461 8.19043 12.6875C7.5666 12.0637 6.6004 11.9972 5.89613 12.4758C5.89302 12.4496 5.88784 12.428 5.88784 12.428L5.5009 11.1438L4.97582 11.669C4.77368 11.8711 4.4459 11.8711 4.24373 11.669L3.48593 10.937C3.28377 10.7349 3.28377 10.4071 3.48593 10.205L8.636 5.08072C8.83813 4.87858 9.16589 4.87858 9.36802 5.08072L10.1 5.81273C10.3022 6.01486 10.3022 6.34262 10.1 6.54475L9.62651 7.01835L12.0337 7.01431L10.0206 9.02741C9.31425 9.73375 9.31428 10.8832 10.0206 11.5895C10.7269 12.2958 11.8764 12.2958 12.5827 11.5895L14.5958 9.57645Z" fill="#A2A2A2"/>
</svg>
