<svg width="25" height="26" viewBox="0 0 25 26" fill="none" xmlns="http://www.w3.org/2000/svg">
<path fill-rule="evenodd" clip-rule="evenodd" d="M25 13C25 19.9036 19.4036 25.5 12.5 25.5C5.59644 25.5 0 19.9036 0 13C0 6.09644 5.59644 0.5 12.5 0.5C19.4036 0.5 25 6.09644 25 13ZM11.1816 13.9082C11.1816 14.1507 11.3786 14.3477 11.6211 14.3477H12.0605V13.4688H11.6211C11.3786 13.4688 11.1816 13.6657 11.1816 13.9082ZM14.8671 5.5L13.9881 8.19531H11.0108L10.1318 5.5H14.8671ZM13.3789 16.1055C13.6214 16.1055 13.8184 15.9085 13.8184 15.666C13.8184 15.4236 13.6214 15.2266 13.3789 15.2266H12.9395V16.1055H13.3789ZM14.2786 9.07422L19.4327 15.651C19.8078 16.1801 20 16.7878 20 17.4238C20 19.1199 18.6199 20.5 16.9238 20.5H8.07617C6.38015 20.5 5 19.1199 5 17.4238C5 16.7878 5.19228 16.1801 5.55532 15.6669L10.7214 9.07422H14.2786ZM14.6973 15.666C14.6973 14.939 14.1059 14.3477 13.3789 14.3477H12.9395V13.4688H13.3789C13.6214 13.4688 13.8184 13.6657 13.8184 13.9082H14.6973C14.6973 13.1812 14.1059 12.5898 13.3789 12.5898H12.9395V11.7109H12.0605V12.5898H11.6211C10.8941 12.5898 10.3027 13.1812 10.3027 13.9082C10.3027 14.6352 10.8941 15.2266 11.6211 15.2266H12.0605V16.1055H11.6211C11.3786 16.1055 11.1816 15.9085 11.1816 15.666H10.3027C10.3027 16.393 10.8941 16.9844 11.6211 16.9844H12.0605V17.8633H12.9395V16.9844H13.3789C14.1059 16.9844 14.6973 16.393 14.6973 15.666Z" fill="#A2A2A2"/>
</svg>
