<svg width="50" height="50" viewBox="0 0 50 50" fill="none" xmlns="http://www.w3.org/2000/svg">
<path fill-rule="evenodd" clip-rule="evenodd" d="M50 25C50 38.8071 38.8071 50 25 50C11.1929 50 0 38.8071 0 25C0 11.1929 11.1929 0 25 0C38.8071 0 50 11.1929 50 25ZM14.9152 25.8386C14.309 25.2322 13.3257 25.2322 12.7192 25.8386L10.5231 28.0346C9.91679 28.6411 9.91679 29.6244 10.5231 30.2307C11.1295 30.837 12.1129 30.837 12.7192 30.2307L14.9152 28.0346C15.5216 27.4284 15.5216 26.4451 14.9152 25.8386ZM16.3793 29.4987C16.9857 28.8924 17.9691 28.8924 18.5754 29.4987C19.1817 30.1051 19.1817 31.0885 18.5754 31.6947L16.3793 33.8908C15.773 34.4971 14.7897 34.4971 14.1832 33.8908C13.5769 33.2845 13.5769 32.3012 14.1832 31.6947L16.3793 29.4987ZM22.2375 33.1598C21.6312 32.5535 20.6479 32.5535 20.0414 33.1598L17.8453 35.3559C17.2391 35.9623 17.2391 36.9457 17.8453 37.552C18.4518 38.1584 19.4351 38.1584 20.0414 37.552L22.2375 35.3559C22.8439 34.7496 22.8439 33.7663 22.2375 33.1598ZM23.6976 36.8181C24.3041 36.2117 25.2874 36.2117 25.8937 36.8181C26.5002 37.4244 26.5002 38.4078 25.8937 39.014L23.6976 41.2101C23.0914 41.8166 22.108 41.8166 21.5017 41.2101C20.8953 40.6038 20.8953 39.6205 21.5017 39.014L23.6976 36.8181ZM41.7017 18.8857L31.3842 8.63723C30.9799 8.2329 30.3244 8.2329 29.9201 8.63723L28.456 10.1013C28.0517 10.5056 28.0517 11.161 28.456 11.5653L29.4014 12.5107L29.0121 12.4976C28.0954 12.4667 27.2043 12.8176 26.5541 13.4673L25.0018 15.0196C23.4224 16.599 21.4498 18.5715 21.5017 18.5197C20.8953 19.126 20.8953 20.1094 21.5017 20.7158C22.108 21.3221 23.0914 21.3221 23.6976 20.7158L27.7239 16.6897C28.5324 15.881 29.8433 15.881 30.6519 16.6897L38.3082 24.3459L38.3315 21.4411L38.7043 21.8139C39.1087 22.2182 39.7641 22.2182 40.1684 21.8139L41.7016 20.3499C42.1058 19.9455 42.1058 19.2899 41.7017 18.8857ZM29.1909 18.1521L39.8054 28.7666C40.4116 29.3728 40.4116 30.3562 39.8054 30.9626C39.1991 31.5689 38.2157 31.5689 37.6093 30.9626C37.6439 30.9971 32.5819 25.9351 30.6549 24.0084C30.5861 23.9396 30.5101 23.8826 30.4295 23.8373C30.0351 23.6158 29.5263 23.6728 29.1908 24.0084C28.7865 24.4126 28.7865 25.0681 29.1908 25.4724L36.1452 32.4267C36.7515 33.033 36.7515 34.0164 36.1452 34.6228C35.5387 35.2291 34.5554 35.2291 33.9491 34.6228C33.9727 34.6464 31.6204 32.2941 29.5122 30.186C28.5328 29.2065 27.606 28.2797 26.9947 27.6685C26.5905 27.2642 25.935 27.2642 25.5307 27.6685C25.1263 28.0727 25.1264 28.7282 25.5307 29.1325L32.485 36.0869C33.0913 36.6931 33.0913 37.6765 32.485 38.2829C31.8786 38.8892 30.8953 38.8892 30.289 38.2829L24.0667 32.0607L23.7006 31.6945C22.9834 30.9774 22.0379 30.6282 21.0957 30.6392C21.1067 29.697 20.7577 28.7515 20.0404 28.0344C19.3232 27.3172 18.3777 26.968 17.4356 26.979C17.4465 26.0369 17.0973 25.0913 16.3802 24.3742C15.1326 23.1265 13.2001 22.9936 11.7916 23.9507C11.7854 23.8984 11.775 23.8552 11.775 23.8552L11.0012 21.2868L9.95098 22.3371C9.54672 22.7414 8.89114 22.7414 8.48681 22.3371L6.97122 20.8732C6.56689 20.4689 6.56689 19.8134 6.97122 19.4091L17.2714 9.16062C17.6756 8.75636 18.3311 8.75636 18.7354 9.16062L20.1994 10.6247C20.6037 11.0289 20.6037 11.6844 20.1994 12.0887L19.2524 13.0359L24.0667 13.0278L20.0405 17.054C18.6278 18.4667 18.6279 20.7656 20.0405 22.1782C21.4531 23.5908 23.7521 23.5908 25.1647 22.1782L29.1909 18.1521Z" fill="#A2A2A2" fill-opacity="0.1"/>
</svg>
