<svg width="50" height="50" viewBox="0 0 50 50" fill="none" xmlns="http://www.w3.org/2000/svg">
<path fill-rule="evenodd" clip-rule="evenodd" d="M50 25C50 38.8071 38.8071 50 25 50C11.1929 50 0 38.8071 0 25C0 11.1929 11.1929 0 25 0C38.8071 0 50 11.1929 50 25ZM23.1967 26.8164C23.1967 27.3013 23.5918 27.6953 24.0782 27.6953H24.9597V25.9375H24.0782C23.5918 25.9375 23.1967 26.3315 23.1967 26.8164ZM30.5903 10L28.8272 15.3906H22.8551L21.092 10H30.5903ZM27.6042 31.2109C28.0905 31.2109 28.4857 30.817 28.4857 30.332C28.4857 29.8471 28.0905 29.4531 27.6042 29.4531H26.7227V31.2109H27.6042ZM29.4088 17.1484L39.7473 30.302C40.4997 31.3603 40.8853 32.5756 40.8853 33.8477C40.8853 37.2397 38.1169 40 34.7149 40H16.9675C13.5655 40 10.7971 37.2397 10.7971 33.8477C10.7971 32.5756 11.1827 31.3603 11.911 30.3337L22.2735 17.1484H29.4088ZM30.2486 30.332C30.2486 28.8781 29.0624 27.6953 27.6042 27.6953H26.7227V25.9375H27.6042C28.0905 25.9375 28.4857 26.3315 28.4857 26.8164H30.2486C30.2486 25.3625 29.0624 24.1797 27.6042 24.1797H26.7227V22.4219H24.9597V24.1797H24.0782C22.62 24.1797 21.4337 25.3625 21.4337 26.8164C21.4337 28.2704 22.62 29.4531 24.0782 29.4531H24.9597V31.2109H24.0782C23.5918 31.2109 23.1967 30.817 23.1967 30.332H21.4337C21.4337 31.786 22.62 32.9688 24.0782 32.9688H24.9597V34.7266H26.7227V32.9688H27.6042C29.0624 32.9688 30.2486 31.786 30.2486 30.332Z" fill="#A2A2A2" fill-opacity="0.1"/>
</svg>
