<svg width="20" height="20" viewBox="0 0 20 20" fill="none" xmlns="http://www.w3.org/2000/svg">
<path fill-rule="evenodd" clip-rule="evenodd" d="M10 0C7.28418 0 6.94363 0.0115116 5.87702 0.0601778C4.81263 0.108725 4.0857 0.277787 3.44963 0.525008C2.79204 0.780526 2.23436 1.12246 1.67839 1.67839C1.12246 2.23436 0.780525 2.79203 0.525007 3.44963C0.277786 4.0857 0.108725 4.81264 0.0601778 5.87702C0.0115116 6.94363 0 7.28417 0 10.0001C0 12.7159 0.0115116 13.0564 0.0601778 14.1231C0.108725 15.1874 0.277786 15.9144 0.525007 16.5504C0.780525 17.208 1.12246 17.7657 1.67839 18.3216C2.23436 18.8776 2.79204 19.2195 3.44963 19.4751C4.0857 19.7222 4.81263 19.8913 5.87702 19.9399C6.94363 19.9885 7.28418 20 10 20C12.7159 20 13.0564 19.9885 14.123 19.9399C15.1874 19.8913 15.9143 19.7222 16.5504 19.4751C17.208 19.2195 17.7656 18.8776 18.3216 18.3216C18.8776 17.7657 19.2195 17.208 19.4751 16.5504C19.7223 15.9144 19.8913 15.1874 19.9398 14.1231C19.9885 13.0564 20 12.7159 20 10.0001C20 7.28417 19.9885 6.94363 19.9398 5.87702C19.8913 4.81264 19.7223 4.0857 19.4751 3.44963C19.2195 2.79203 18.8776 2.23436 18.3216 1.67839C17.7656 1.12246 17.208 0.780526 16.5504 0.525008C15.9143 0.277787 15.1874 0.108725 14.123 0.0601778C13.0564 0.0115116 12.7159 0 10 0ZM6.66668 10.0001C6.66668 11.841 8.15905 13.3334 10 13.3334C11.841 13.3334 13.3334 11.841 13.3334 10.0001C13.3334 8.15905 11.841 6.66668 10 6.66668C8.15905 6.66668 6.66668 8.15905 6.66668 10.0001ZM4.86488 10.0001C4.86488 7.16394 7.16394 4.86487 10 4.86487C12.8361 4.86487 15.1351 7.16394 15.1351 10.0001C15.1351 12.8361 12.8361 15.1351 10 15.1351C7.16394 15.1351 4.86488 12.8361 4.86488 10.0001ZM15.338 5.86198C16.0008 5.86198 16.5381 5.32475 16.5381 4.66199C16.5381 3.99924 16.0008 3.46197 15.338 3.46197C14.6753 3.46197 14.1381 3.99924 14.1381 4.66199C14.1381 5.32475 14.6753 5.86198 15.338 5.86198Z" fill="#A2A2A2"/>
</svg>
