<svg width="25" height="25" viewBox="0 0 25 25" fill="none" xmlns="http://www.w3.org/2000/svg">
<path fill-rule="evenodd" clip-rule="evenodd" d="M12.5 25C19.4036 25 25 19.4036 25 12.5C25 5.59644 19.4036 0 12.5 0C5.59644 0 0 5.59644 0 12.5C0 19.4036 5.59644 25 12.5 25ZM12.4413 13.3464C14.6833 13.3464 16.3671 10.9542 16.3671 8.16694C16.3671 5.37876 14.9189 3.75 12.4413 3.75C9.96369 3.75 8.51551 5.37963 8.51551 8.16607C8.51551 10.9542 10.1975 13.3464 12.4413 13.3464ZM12.4413 21.1979C7.33341 21.1979 5.88698 19.9766 5.55111 19.577C5.51972 19.5388 5.49649 19.4954 5.48284 19.4478C5.46919 19.4002 5.4654 19.3504 5.47172 19.3013C5.54936 18.5319 6.24205 15.0911 12.4413 15.0911C18.6405 15.0911 19.3332 18.5319 19.41 19.3013C19.4164 19.3503 19.4128 19.4002 19.3993 19.4477C19.3858 19.4953 19.3627 19.5396 19.3315 19.5779C18.9947 19.9766 17.5492 21.1979 12.4413 21.1979Z" fill="#A2A2A2"/>
</svg>
