<svg width="96" height="100" viewBox="0 0 96 100" fill="none" xmlns="http://www.w3.org/2000/svg">
<path d="M50.0626 23.3928C56.5304 23.3928 61.7736 18.1561 61.7736 11.6964C61.7736 5.23665 56.5304 0 50.0626 0C43.5948 0 38.3516 5.23665 38.3516 11.6964C38.3516 18.1561 43.5948 23.3928 50.0626 23.3928Z" fill="#A2A2A2"/>
<path d="M50.063 100C53.9432 100 57.0888 96.8583 57.0888 92.9829C57.0888 89.1075 53.9432 85.9658 50.063 85.9658C46.1827 85.9658 43.0371 89.1075 43.0371 92.9829C43.0371 96.8583 46.1827 100 50.063 100Z" fill="#A2A2A2"/>
<path d="M21.2868 34.1253C27.1082 34.1253 31.8274 29.412 31.8274 23.5978C31.8274 17.7836 27.1082 13.0703 21.2868 13.0703C15.4653 13.0703 10.7461 17.7836 10.7461 23.5978C10.7461 29.412 15.4653 34.1253 21.2868 34.1253Z" fill="#A2A2A2"/>
<path d="M78.8389 86.922C82.0728 86.922 84.6944 84.3037 84.6944 81.0738C84.6944 77.8439 82.0728 75.2256 78.8389 75.2256C75.605 75.2256 72.9834 77.8439 72.9834 81.0738C72.9834 84.3037 75.605 86.922 78.8389 86.922Z" fill="#A2A2A2"/>
<path d="M9.36653 61.696C14.5395 61.696 18.7331 57.5077 18.7331 52.3412C18.7331 47.1746 14.5395 42.9863 9.36653 42.9863C4.19354 42.9863 0 47.1746 0 52.3412C0 57.5077 4.19354 61.696 9.36653 61.696Z" fill="#A2A2A2"/>
<path d="M90.7546 57.0132C93.3401 57.0132 95.436 54.9199 95.436 52.3376C95.436 49.7554 93.3401 47.6621 90.7546 47.6621C88.1692 47.6621 86.0732 49.7554 86.0732 52.3376C86.0732 54.9199 88.1692 57.0132 90.7546 57.0132Z" fill="#A2A2A2"/>
<path d="M15.4923 75.2945C12.289 78.4938 12.289 83.6702 15.4923 86.8695C18.6917 90.0687 23.8823 90.0687 27.0817 86.8695C30.2849 83.6702 30.2849 78.4938 27.0817 75.2945C23.8823 72.0915 18.6955 72.0611 15.4923 75.2945Z" fill="#A2A2A2"/>
<path d="M78.8343 27.1041C80.7734 27.1041 82.3453 25.5341 82.3453 23.5975C82.3453 21.6608 80.7734 20.0908 78.8343 20.0908C76.8952 20.0908 75.3232 21.6608 75.3232 23.5975C75.3232 25.5341 76.8952 27.1041 78.8343 27.1041Z" fill="#A2A2A2"/>
</svg>
