<svg width="21" height="25" viewBox="0 0 21 25" fill="none" xmlns="http://www.w3.org/2000/svg">
<path d="M19.7072 9.375H18.018V7.29165C18.018 3.271 14.4818 0 10.1351 0C5.78843 0 2.25227 3.271 2.25227 7.29165V9.375H0.563081C0.251848 9.375 0 9.60796 0 9.89585V22.9167C0 24.0657 1.01008 25 2.25227 25H18.0181C19.2602 25 20.2703 24.0657 20.2703 22.9167V9.89585C20.2703 9.60796 20.0184 9.375 19.7072 9.375ZM11.8211 20.255C11.8386 20.402 11.7875 20.5495 11.6809 20.6599C11.5742 20.7703 11.4213 20.8333 11.2613 20.8333H9.00903C8.84903 20.8333 8.69616 20.7703 8.58947 20.6599C8.48279 20.5496 8.43164 20.4021 8.44927 20.255L8.80448 17.3004C8.22767 16.9124 7.88292 16.2984 7.88292 15.625C7.88292 14.476 8.893 13.5417 10.1352 13.5417C11.3774 13.5417 12.3875 14.476 12.3875 15.625C12.3875 16.2984 12.0427 16.9124 11.4659 17.3004L11.8211 20.255ZM14.6396 9.375H5.63065V7.29165C5.63065 4.99419 7.65139 3.125 10.1351 3.125C12.6189 3.125 14.6396 4.99419 14.6396 7.29165V9.375Z" fill="black"/>
</svg>
