<svg width="50" height="50" viewBox="0 0 50 50" fill="none" xmlns="http://www.w3.org/2000/svg">
<path fill-rule="evenodd" clip-rule="evenodd" d="M50 25C50 38.8071 38.8071 50 25 50C11.1929 50 0 38.8071 0 25C0 11.1929 11.1929 0 25 0C38.8071 0 50 11.1929 50 25ZM37.5526 27.1835C39.8203 27.1835 41.6591 25.346 41.6591 23.0782C41.6591 20.8105 39.8203 18.9717 37.5526 18.9717C35.2855 18.9717 33.4467 20.8105 33.4467 23.0782C33.4467 25.346 35.2855 27.1835 37.5526 27.1835ZM41.0308 27.8147C41.7187 28.5021 42.6275 30.0409 42.8105 31.1404C43.2623 33.8424 40.3744 34.8208 37.5525 34.8208C36.4706 34.8208 35.38 34.6764 34.4706 34.3474C34.7266 33.5226 34.778 32.6179 34.6197 31.6623C34.4613 30.709 34.0223 29.602 33.4688 28.5599C33.6734 28.263 33.8832 28.007 34.0755 27.8147C34.1662 27.7236 34.5706 27.7025 34.6805 27.7703C35.5169 28.2847 36.4994 28.5874 37.5526 28.5874C38.607 28.5874 39.5894 28.2847 40.4258 27.7703C40.5352 27.7025 40.9402 27.7236 41.0308 27.8147ZM24.8948 25.4512C28.57 25.4512 31.5496 22.4716 31.5496 18.7965C31.5496 15.1225 28.57 12.1429 24.8948 12.1429C21.2203 12.1429 18.2418 15.1225 18.2418 18.7965C18.2418 22.4716 21.2202 25.4512 24.8948 25.4512ZM29.5513 26.4003C29.7296 26.2899 30.3853 26.3267 30.5297 26.4705C31.6472 27.5868 33.12 30.0825 33.4164 31.8616C34.147 36.244 29.466 37.8262 24.8948 37.8262C20.3249 37.8262 15.6438 36.244 16.3744 31.8616C16.6708 30.0825 18.1436 27.5868 19.2612 26.4705C19.4056 26.3267 20.0613 26.2899 20.2395 26.4003C21.5954 27.235 23.1882 27.7236 24.8948 27.7236C26.6027 27.7236 28.1947 27.235 29.5513 26.4003ZM12.4479 27.1835C14.7151 27.1835 16.5538 25.346 16.5538 23.0782C16.5538 20.8105 14.7151 18.9717 12.4479 18.9717C10.1802 18.9717 8.34143 20.8105 8.34143 23.0782C8.34143 25.346 10.1802 27.1835 12.4479 27.1835ZM16.4106 28.3922C15.815 29.4822 15.3399 30.6611 15.1715 31.6623C15.0085 32.646 15.0664 33.5718 15.3399 34.4134C14.4719 34.6968 13.455 34.8208 12.4479 34.8208C9.62608 34.8208 6.7388 33.8424 7.18997 31.1404C7.37357 30.0409 8.28003 28.5021 8.96969 27.8147C9.0603 27.7236 9.46585 27.7025 9.57523 27.7703C10.411 28.2847 11.3941 28.5874 12.4479 28.5874C13.5016 28.5874 14.4841 28.2847 15.3206 27.7703C15.4304 27.7025 15.8349 27.7236 15.9255 27.8147C16.0786 27.9679 16.2446 28.1654 16.4106 28.3922Z" fill="#A2A2A2" fill-opacity="0.1"/>
</svg>
