<svg width="30" height="31" viewBox="0 0 30 31" fill="none" xmlns="http://www.w3.org/2000/svg">
<path fill-rule="evenodd" clip-rule="evenodd" d="M15 30.5C23.2843 30.5 30 23.7843 30 15.5C30 7.21573 23.2843 0.5 15 0.5C6.71573 0.5 0 7.21573 0 15.5C0 23.7843 6.71573 30.5 15 30.5ZM25.5064 14.1668H26.5662C26.9527 14.1668 27.2662 14.4803 27.2662 14.8668V15.8001C27.2662 15.9955 27.1845 16.1819 27.041 16.3144L24.0077 19.1145C23.8737 19.2382 23.7032 19.3 23.5328 19.3C23.3625 19.3 23.1922 19.2382 23.058 19.1145L20.0248 16.3144C19.8812 16.1819 19.7995 15.9955 19.7995 15.8001V14.8668C19.7995 14.4803 20.113 14.1668 20.4995 14.1668H21.2188C20.4929 11.4572 18.0052 9.50024 15.1329 9.50024C12.785 9.50024 10.6802 10.809 9.59894 12.7876L8.15727 11.4568C7.76848 11.098 7.26268 10.9001 6.733 10.9001C6.37124 10.9001 6.02077 10.9925 5.71103 11.1656C6.33791 9.89347 7.22158 8.74895 8.31649 7.81344C10.2136 6.19274 12.6345 5.30018 15.1329 5.30018C17.763 5.30018 20.2796 6.27735 22.2187 8.05153C23.9872 9.66945 25.1398 11.8217 25.5064 14.1668ZM16.0664 16.9665H13.2665C12.8798 16.9665 12.5665 17.28 12.5665 17.6665C12.5665 18.0531 12.8798 18.3666 13.2665 18.3666H14.4331V19.0666C14.4331 19.4531 14.7465 19.7666 15.1331 19.7666C15.5196 19.7666 15.8331 19.4531 15.8331 19.0666V18.3666H16.0664C16.9671 18.3666 17.6997 17.634 17.6997 16.7333C17.6997 15.8328 16.9671 15.1 16.0664 15.1H14.1998C14.0711 15.1 13.9663 14.9954 13.9663 14.8667C13.9663 14.738 14.0711 14.6332 14.1998 14.6332H16.9996C17.3864 14.6332 17.6997 14.3198 17.6997 13.9332C17.6997 13.5467 17.3864 13.2332 16.9996 13.2332H15.8331V12.5334C15.8331 12.1466 15.5196 11.8334 15.1331 11.8334C14.7465 11.8334 14.4331 12.1466 14.4331 12.5334V13.2332H14.1998C13.2991 13.2332 12.5665 13.966 12.5665 14.8667C12.5665 15.7672 13.2991 16.5 14.1998 16.5H16.0664C16.195 16.5 16.2998 16.6046 16.2998 16.7333C16.2998 16.8619 16.195 16.9665 16.0664 16.9665ZM20.6671 18.8125L22.1086 20.1431C22.4978 20.5022 23.0036 20.7 23.5331 20.7C23.8946 20.7 24.2453 20.6076 24.555 20.4349C23.9281 21.7068 23.0445 22.8513 21.9496 23.7868C20.0524 25.4075 17.6316 26.3 15.1331 26.3C12.503 26.3 9.98646 25.3229 8.04732 23.5487C6.27888 21.9306 5.1262 19.7785 4.75963 17.4334H3.6999C3.31333 17.4334 2.99989 17.12 2.99989 16.7334V15.8001C2.99989 15.6046 3.08153 15.4182 3.22501 15.2858L6.25833 12.4857C6.52659 12.2382 6.93982 12.2382 7.20809 12.4857L10.2412 15.2858C10.3849 15.4182 10.4665 15.6046 10.4665 15.8001V16.7334C10.4665 17.12 10.1531 17.4334 9.76652 17.4334H9.04725C9.77318 20.1429 12.2609 22.1 15.1331 22.1C17.4811 22.1 19.5859 20.7911 20.6671 18.8125Z" fill="url(#paint0_linear_4255_8918)"/>
<defs>
<linearGradient id="paint0_linear_4255_8918" x1="7.14706" y1="0.499997" x2="25.1066" y2="1.57041" gradientUnits="userSpaceOnUse">
<stop stop-color="#DDC081"/>
<stop offset="1" stop-color="#5F976E"/>
</linearGradient>
</defs>
</svg>
