<svg width="50" height="50" viewBox="0 0 50 50" fill="none" xmlns="http://www.w3.org/2000/svg">
<path fill-rule="evenodd" clip-rule="evenodd" d="M50 25C50 38.8071 38.8071 50 25 50C11.1929 50 0 38.8071 0 25C0 11.1929 11.1929 0 25 0C38.8071 0 50 11.1929 50 25ZM38.98 30.8254C38.7014 30.6536 38.3723 30.5826 38.0476 30.6243C37.723 30.666 37.4225 30.8178 37.1964 31.0545L34 34.2509L33.9142 34.3368L33.9142 34.3369C33.6368 34.6152 33.457 34.7955 33.2425 34.9113C32.8477 35.1243 32.335 35.1186 30.8792 35.1026H30.8792H30.8791H30.8791H30.8791H30.879H30.879L30.8784 35.1026H30.8783H30.8782H30.878H30.8779H30.8777C30.3955 35.0973 29.8099 35.0909 29.0909 35.0909C28.9462 35.0909 28.8075 35.0334 28.7052 34.9311C28.6029 34.8288 28.5455 34.6901 28.5455 34.5454C28.5455 34.4008 28.6029 34.262 28.7052 34.1597C28.8075 34.0574 28.9462 34 29.0909 34C29.863 34 30.4927 34.0031 31.0086 34.0056H31.0097H31.0106H31.0114H31.0114H31.0114H31.0115H31.0115H31.0115H31.0116H31.0116C33.3244 34.0169 33.3482 34.017 33.6782 33.6782C33.8298 33.5256 33.933 33.3316 33.9747 33.1206C34.0164 32.9096 33.9948 32.691 33.9126 32.4922C33.8304 32.2934 33.6913 32.1234 33.5128 32.0035C33.3342 31.8835 33.1242 31.8191 32.9091 31.8182H30.4055C29.7591 31.8182 29.418 31.5431 29.0784 31.2692C28.7417 30.9977 28.4064 30.7272 27.7764 30.7272H22.5455V37.8182C22.7488 37.8182 22.9375 37.815 23.1138 37.812C24.0679 37.7959 24.6582 37.7859 25.2291 38.32C25.8841 38.9341 25.9739 38.9336 29.3833 38.9165H29.3834H29.3835H29.3836H29.3837H29.3839H29.3841H29.3843C30.0629 38.9131 30.8731 38.9091 31.8455 38.9091C32.276 38.9094 32.7024 38.8248 33.1002 38.66C33.498 38.4953 33.8594 38.2537 34.1636 37.9491L39.1873 32.9091C39.3263 32.7661 39.4324 32.5945 39.4982 32.4062C39.564 32.2179 39.5879 32.0175 39.5681 31.8191C39.5484 31.6206 39.4855 31.4288 39.3839 31.2572C39.2823 31.0856 39.1445 30.9382 38.98 30.8254ZM19.2727 39.4545H18.1818V29.6364H21.4545V39.4545H20.3636V36.1818C20.3636 36.0372 20.3062 35.8984 20.2039 35.7961C20.1016 35.6938 19.9628 35.6364 19.8182 35.6364C19.6735 35.6364 19.5348 35.6938 19.4325 35.7961C19.3302 35.8984 19.2727 36.0372 19.2727 36.1818V39.4545ZM16.5455 29.0909H10V40H16.5455C16.6901 40 16.8289 39.9425 16.9312 39.8402C17.0334 39.7379 17.0909 39.5992 17.0909 39.4545V29.6364C17.0909 29.4917 17.0334 29.353 16.9312 29.2507C16.8289 29.1484 16.6901 29.0909 16.5455 29.0909ZM14.3636 38.3636C14.1479 38.3636 13.937 38.2997 13.7576 38.1798C13.5782 38.0599 13.4383 37.8895 13.3558 37.6902C13.2732 37.4909 13.2516 37.2715 13.2937 37.0599C13.3358 36.8483 13.4397 36.6539 13.5922 36.5013C13.7448 36.3488 13.9392 36.2449 14.1508 36.2028C14.3624 36.1607 14.5818 36.1823 14.7811 36.2649C14.9804 36.3474 15.1508 36.4873 15.2707 36.6667C15.3906 36.8461 15.4545 37.057 15.4545 37.2727C15.4545 37.5621 15.3396 37.8395 15.135 38.0441C14.9304 38.2487 14.653 38.3636 14.3636 38.3636ZM30.8416 28.6342C30.1136 28.9357 29.3334 29.0909 28.5455 29.0909C26.9542 29.0909 25.428 28.4588 24.3028 27.3335C23.1776 26.2083 22.5455 24.6822 22.5455 23.0909V17.0909C22.5455 16.9462 22.6029 16.8075 22.7052 16.7052C22.8075 16.6029 22.9462 16.5455 23.0909 16.5455C23.2356 16.5455 23.3743 16.6029 23.4766 16.7052C23.5789 16.8075 23.6364 16.9462 23.6364 17.0909V19.6436C24.1369 18.9313 24.7865 18.3364 25.54 17.9003C26.2936 17.4642 27.133 17.1973 28 17.1182V12.7273C28 12.5826 28.0575 12.4439 28.1598 12.3416C28.2621 12.2393 28.4008 12.1818 28.5455 12.1818C28.6901 12.1818 28.8289 12.2393 28.9311 12.3416C29.0334 12.4439 29.0909 12.5826 29.0909 12.7273V17.1182C29.9579 17.1973 30.7973 17.4642 31.5509 17.9003C32.3044 18.3364 32.954 18.9313 33.4545 19.6436V16.5455C33.4545 16.4008 33.512 16.2621 33.6143 16.1598C33.7166 16.0575 33.8553 16 34 16C34.1447 16 34.2834 16.0575 34.3857 16.1598C34.488 16.2621 34.5455 16.4008 34.5455 16.5455V23.0909C34.5455 23.8788 34.3903 24.6591 34.0887 25.387C33.7872 26.115 33.3452 26.7764 32.7881 27.3335C32.2309 27.8907 31.5695 28.3327 30.8416 28.6342ZM28 19.8182V20.3636C27.566 20.3636 27.1498 20.536 26.8429 20.8429C26.536 21.1498 26.3636 21.566 26.3636 22C26.3636 22.434 26.536 22.8502 26.8429 23.1571C27.1498 23.464 27.566 23.6364 28 23.6364H29.0909C29.2356 23.6364 29.3743 23.6938 29.4766 23.7961C29.5789 23.8984 29.6364 24.0372 29.6364 24.1818C29.6364 24.3265 29.5789 24.4652 29.4766 24.5675C29.3743 24.6698 29.2356 24.7273 29.0909 24.7273H26.9091C26.7644 24.7273 26.6257 24.7847 26.5234 24.887C26.4211 24.9893 26.3636 25.1281 26.3636 25.2727C26.3636 25.4174 26.4211 25.5561 26.5234 25.6584C26.6257 25.7607 26.7644 25.8182 26.9091 25.8182H28V26.3636C28 26.5083 28.0575 26.647 28.1598 26.7493C28.2621 26.8516 28.4008 26.9091 28.5455 26.9091C28.6901 26.9091 28.8289 26.8516 28.9311 26.7493C29.0334 26.647 29.0909 26.5083 29.0909 26.3636V25.8182C29.5249 25.8182 29.9411 25.6458 30.248 25.3389C30.5549 25.032 30.7273 24.6158 30.7273 24.1818C30.7273 23.7478 30.5549 23.3316 30.248 23.0247C29.9411 22.7179 29.5249 22.5455 29.0909 22.5455H28C27.8553 22.5455 27.7166 22.488 27.6143 22.3857C27.512 22.2834 27.4545 22.1447 27.4545 22C27.4545 21.8553 27.512 21.7166 27.6143 21.6143C27.7166 21.512 27.8553 21.4545 28 21.4545H30.1818C30.3265 21.4545 30.4652 21.3971 30.5675 21.2948C30.6698 21.1925 30.7273 21.0538 30.7273 20.9091C30.7273 20.7644 30.6698 20.6257 30.5675 20.5234C30.4652 20.4211 30.3265 20.3636 30.1818 20.3636H29.0909V19.8182C29.0909 19.6735 29.0334 19.5348 28.9311 19.4325C28.8289 19.3302 28.6901 19.2727 28.5455 19.2727C28.4008 19.2727 28.2621 19.3302 28.1598 19.4325C28.0575 19.5348 28 19.6735 28 19.8182ZM28.5455 11.0909C28.6901 11.0909 28.8289 11.0334 28.9312 10.9311C29.0334 10.8289 29.0909 10.6901 29.0909 10.5455C29.0909 10.4008 29.0334 10.2621 28.9312 10.1598C28.8289 10.0575 28.6901 10 28.5455 10C28.4008 10 28.2621 10.0575 28.1598 10.1598C28.0575 10.2621 28 10.4008 28 10.5455C28 10.6901 28.0575 10.8289 28.1598 10.9311C28.2621 11.0334 28.4008 11.0909 28.5455 11.0909ZM34.3857 14.7493C34.2834 14.8516 34.1447 14.9091 34 14.9091C33.8553 14.9091 33.7166 14.8516 33.6143 14.7493C33.512 14.647 33.4545 14.5083 33.4545 14.3636C33.4545 14.219 33.512 14.0802 33.6143 13.9779C33.7166 13.8756 33.8553 13.8182 34 13.8182C34.1447 13.8182 34.2834 13.8756 34.3857 13.9779C34.488 14.0802 34.5455 14.219 34.5455 14.3636C34.5455 14.5083 34.488 14.647 34.3857 14.7493ZM26.3636 14.9091V11.6364C26.3636 11.4917 26.3062 11.353 26.2039 11.2507C26.1016 11.1484 25.9628 11.0909 25.8182 11.0909C25.6735 11.0909 25.5348 11.1484 25.4325 11.2507C25.3302 11.353 25.2727 11.4917 25.2727 11.6364V14.9091C25.2727 15.0538 25.3302 15.1925 25.4325 15.2948C25.5348 15.3971 25.6735 15.4545 25.8182 15.4545C25.9628 15.4545 26.1016 15.3971 26.2039 15.2948C26.3062 15.1925 26.3636 15.0538 26.3636 14.9091ZM31.8182 13.2727V16C31.8182 16.1447 31.7607 16.2834 31.6584 16.3857C31.5561 16.488 31.4174 16.5455 31.2727 16.5455C31.1281 16.5455 30.9893 16.488 30.887 16.3857C30.7847 16.2834 30.7273 16.1447 30.7273 16V13.2727C30.7273 13.1281 30.7847 12.9893 30.887 12.887C30.9893 12.7847 31.1281 12.7273 31.2727 12.7273C31.4174 12.7273 31.5561 12.7847 31.6584 12.887C31.7607 12.9893 31.8182 13.1281 31.8182 13.2727Z" fill="#A2A2A2" fill-opacity="0.1"/>
</svg>
