<svg width="50" height="50" viewBox="0 0 50 50" fill="none" xmlns="http://www.w3.org/2000/svg">
<path fill-rule="evenodd" clip-rule="evenodd" d="M25 50C38.8071 50 50 38.8071 50 25C50 11.1929 38.8071 0 25 0C11.1929 0 0 11.1929 0 25C0 38.8071 11.1929 50 25 50ZM42.5105 22.7776H44.2768C44.921 22.7776 45.4434 23.3 45.4434 23.9443V25.4998C45.4434 25.8253 45.3074 26.136 45.0682 26.3569L40.0127 31.0237C39.7893 31.2298 39.5051 31.3329 39.2212 31.3329C38.9374 31.3329 38.6535 31.2298 38.4298 31.0237L33.3746 26.3569C33.1351 26.136 32.999 25.8253 32.999 25.4998V23.9443C32.999 23.3 33.5214 22.7776 34.1657 22.7776H35.3645C34.1546 18.2615 30.0084 14.9999 25.2214 14.9999C21.3082 14.9999 17.8001 17.1812 15.9981 20.4788L13.5953 18.2608C12.9473 17.6628 12.1043 17.333 11.2215 17.333C10.6186 17.333 10.0345 17.487 9.51823 17.7755C10.563 15.6553 12.0358 13.7478 13.8607 12.1886C17.0225 9.48743 21.0573 7.99984 25.2214 7.99984C29.6048 7.99984 33.7992 9.62844 37.0311 12.5854C39.9785 15.282 41.8996 18.869 42.5105 22.7776ZM26.7771 27.4438H22.1107C21.4661 27.4438 20.944 27.9662 20.944 28.6104C20.944 29.2547 21.4661 29.7771 22.1107 29.7771H24.055V30.9438C24.055 31.5881 24.5774 32.1105 25.2216 32.1105C25.8659 32.1105 26.3883 31.5881 26.3883 30.9438V29.7771H26.7771C28.2783 29.7771 29.4993 28.5561 29.4993 27.055C29.4993 25.5541 28.2783 24.3328 26.7771 24.3328H23.6662C23.4517 24.3328 23.2771 24.1585 23.2771 23.944C23.2771 23.7296 23.4517 23.5549 23.6662 23.5549H28.3326C28.9772 23.5549 29.4993 23.0325 29.4993 22.3882C29.4993 21.744 28.9772 21.2216 28.3326 21.2216H26.3883V20.0552C26.3883 19.4106 25.8659 18.8885 25.2216 18.8885C24.5774 18.8885 24.055 19.4106 24.055 20.0552V21.2216H23.6662C22.165 21.2216 20.944 22.4429 20.944 23.944C20.944 25.4449 22.165 26.6662 23.6662 26.6662H26.7771C26.9916 26.6662 27.1662 26.8405 27.1662 27.055C27.1662 27.2694 26.9916 27.4438 26.7771 27.4438ZM34.4454 30.5205L36.8478 32.7381C37.4965 33.3368 38.3394 33.6663 39.2219 33.6663C39.8246 33.6663 40.409 33.5123 40.9252 33.2244C39.8804 35.3443 38.4076 37.2518 36.5828 38.811C33.4209 41.5122 29.3861 42.9998 25.2221 42.9998C20.8386 42.9998 16.6443 41.3711 13.4124 38.4142C10.465 35.7173 8.54386 32.1306 7.9329 28.222H6.16668C5.5224 28.222 5 27.6996 5 27.0553V25.4998C5 25.174 5.13608 24.8633 5.37521 24.6426L10.4307 19.9759C10.8778 19.5634 11.5666 19.5634 12.0137 19.9759L17.0689 24.6426C17.3083 24.8633 17.4444 25.174 17.4444 25.4998V27.0553C17.4444 27.6996 16.922 28.222 16.2777 28.222H15.0789C16.2888 32.7378 20.435 35.9997 25.2221 35.9997C29.1353 35.9997 32.6434 33.8181 34.4454 30.5205Z" fill="#A2A2A2" fill-opacity="0.1"/>
</svg>
