<svg width="50" height="50" viewBox="0 0 50 50" fill="none" xmlns="http://www.w3.org/2000/svg">
<path fill-rule="evenodd" clip-rule="evenodd" d="M50 25C50 38.8071 38.8071 50 25 50C11.1929 50 0 38.8071 0 25C0 11.1929 11.1929 0 25 0C38.8071 0 50 11.1929 50 25ZM25.2471 21.473C21.6712 21.473 18.7726 24.3718 18.7726 27.9474C18.7726 31.523 21.6712 34.4219 25.2471 34.4219C28.8227 34.4219 31.7213 31.523 31.7213 27.9474C31.7213 24.3718 28.8228 21.473 25.2471 21.473ZM25.7862 31.2878L25.7841 31.2882C25.7708 31.291 25.7274 31.2998 25.7274 31.3621V32.0692C25.7274 32.2625 25.566 32.4198 25.3677 32.4198H25.0468C24.8485 32.4198 24.6872 32.2625 24.6872 32.0692V31.3972C24.6872 31.3475 24.6328 31.3283 24.6221 31.3267C24.5823 31.3206 23.6881 31.1795 23.226 30.9389C23.1103 30.8788 23.0198 30.743 23.0786 30.5759L23.2439 30.1284C23.2937 29.9943 23.4185 29.9077 23.5616 29.9077C23.6141 29.9077 23.6651 29.9193 23.7132 29.942C23.7206 29.9456 24.4731 30.2981 25.029 30.2981C25.6802 30.2981 26.1345 29.9489 26.1345 29.4492C26.1345 28.9899 25.8137 28.6767 25.027 28.3679C24.0431 27.9939 23.1318 27.4958 23.1318 26.3933C23.1318 25.5088 23.73 24.8076 24.6871 24.5798C24.7075 24.5749 24.7636 24.5525 24.7636 24.5007L24.7628 23.8258C24.7628 23.6324 24.9242 23.4751 25.1222 23.4751H25.4326C25.6308 23.4751 25.7923 23.6324 25.7923 23.8257L25.7947 24.4676C25.7947 24.5173 25.8372 24.5264 25.8494 24.5285C25.8572 24.5298 26.6154 24.6605 27.0034 24.8294C27.12 24.8798 27.2115 25.0203 27.1511 25.1815L26.978 25.6241C26.9275 25.7533 26.8055 25.8367 26.6676 25.8367C26.6112 25.8367 26.5541 25.8222 26.5033 25.7951C26.499 25.7928 26.0157 25.5444 25.3855 25.5444C24.6731 25.5444 24.4205 25.9342 24.4205 26.2678C24.4205 26.6846 24.6958 26.9156 25.648 27.2973C26.8998 27.7917 27.434 28.4135 27.434 29.3758C27.4341 30.3126 26.8059 31.0586 25.7862 31.2878ZM29.4888 12.2122C29.1779 12.5138 29.4901 12.692 29.6329 12.767C35.9156 16.0699 40.4942 25.8135 40.4942 32.7096C40.4942 41.1302 33.6678 44 25.2471 44C16.8264 44 10 41.1302 10 32.7096C10 25.8609 14.5161 16.2034 20.7324 12.8359C20.7572 12.8224 20.787 12.8079 20.8192 12.792C21.0278 12.6899 21.3408 12.5366 21.0904 12.313L17.3632 7.89556C16.4835 6.85297 16.88 6 18.244 6H32.2502C33.6142 6 34.0105 6.85297 33.1309 7.89556L29.4888 12.2122ZM16.8195 27.9474C16.8195 32.6019 20.5925 36.3751 25.2471 36.3751C29.9015 36.3751 33.6745 32.6018 33.6745 27.9474C33.6745 23.2931 29.9014 19.5199 25.2471 19.5199C20.5924 19.5199 16.8195 23.2932 16.8195 27.9474Z" fill="#A2A2A2" fill-opacity="0.1"/>
</svg>
