<svg width="20" height="20" viewBox="0 0 20 20" fill="none" xmlns="http://www.w3.org/2000/svg">
<path fill-rule="evenodd" clip-rule="evenodd" d="M10 20C15.5228 20 20 15.5228 20 10C20 4.47715 15.5228 0 10 0C4.47715 0 0 4.47715 0 10C0 15.5228 4.47715 20 10 20ZM9.95303 10.6771C11.7467 10.6771 13.0937 8.7634 13.0937 6.53355C13.0937 4.30301 11.9351 3 9.95303 3C7.97095 3 6.81241 4.30371 6.81241 6.53285C6.81241 8.7634 8.15799 10.6771 9.95303 10.6771ZM9.95303 16.9583C5.86673 16.9583 4.70959 15.9812 4.44089 15.6616C4.41578 15.631 4.39719 15.5963 4.38627 15.5582C4.37535 15.5202 4.37232 15.4803 4.37738 15.4411C4.43949 14.8255 4.99364 12.0729 9.95303 12.0729C14.9124 12.0729 15.4666 14.8255 15.528 15.4411C15.5331 15.4803 15.5302 15.5201 15.5194 15.5582C15.5086 15.5962 15.4902 15.6316 15.4652 15.6623C15.1958 15.9812 14.0393 16.9583 9.95303 16.9583Z" fill="#9C9C9C" fill-opacity="0.5"/>
</svg>
