<svg width="30" height="31" viewBox="0 0 30 31" fill="none" xmlns="http://www.w3.org/2000/svg">
<path fill-rule="evenodd" clip-rule="evenodd" d="M15 30.5C23.2843 30.5 30 23.7843 30 15.5C30 7.21573 23.2843 0.5 15 0.5C6.71573 0.5 0 7.21573 0 15.5C0 23.7843 6.71573 30.5 15 30.5ZM10.4321 10.5781C10.4321 12.8268 12.2616 14.6562 14.5103 14.6562C16.759 14.6562 18.5884 12.8268 18.5884 10.5781C18.5884 8.32943 16.759 6.5 14.5103 6.5C12.2616 6.5 10.4321 8.32943 10.4321 10.5781ZM16.0928 17.6445C16.0928 16.7417 16.3463 15.897 16.7856 15.1777C16.0996 15.5185 15.3274 15.7109 14.5107 15.7109C13.4516 15.7109 12.4663 15.3884 11.648 14.8364C10.6361 15.2287 9.70787 15.831 8.91745 16.6214C7.42338 18.1155 6.60059 20.1019 6.60059 22.2148V23.9726C6.60059 24.2639 6.8367 24.5 7.12793 24.5H21.8936C22.1848 24.5 22.4209 24.2639 22.4209 23.9726V22.2148C22.4209 22.1945 22.4205 22.1741 22.4202 22.1538C22.42 22.1424 22.4198 22.131 22.4196 22.1196C21.9249 22.2949 21.3929 22.3906 20.8389 22.3906C18.2219 22.3906 16.0928 20.2615 16.0928 17.6445ZM17.1472 17.6445C17.1472 15.6091 18.8032 13.9531 20.8386 13.9531C22.8741 13.9531 24.53 15.6091 24.53 17.6445C24.53 19.68 22.8741 21.3359 20.8386 21.3359C18.8032 21.3359 17.1472 19.68 17.1472 17.6445ZM21.366 18.1719H21.8933C22.1845 18.1719 22.4207 17.9358 22.4207 17.6445C22.4207 17.3533 22.1845 17.1172 21.8933 17.1172H21.366V16.5898C21.366 16.2986 21.1299 16.0625 20.8386 16.0625C20.5474 16.0625 20.3113 16.2986 20.3113 16.5898V17.1172H19.7839C19.4927 17.1172 19.2566 17.3533 19.2566 17.6445C19.2566 17.9358 19.4927 18.1719 19.7839 18.1719H20.3113V18.6992C20.3113 18.9905 20.5474 19.2266 20.8386 19.2266C21.1299 19.2266 21.366 18.9905 21.366 18.6992V18.1719Z" fill="url(#paint0_linear_4255_8894)"/>
<defs>
<linearGradient id="paint0_linear_4255_8894" x1="7.14706" y1="0.499997" x2="25.1066" y2="1.57041" gradientUnits="userSpaceOnUse">
<stop stop-color="#DDC081"/>
<stop offset="1" stop-color="#5F976E"/>
</linearGradient>
</defs>
</svg>
