<svg width="75" height="75" viewBox="0 0 75 75" fill="none" xmlns="http://www.w3.org/2000/svg">
<path d="M16.4208 0H14.5479V1.88277H16.4208V0Z" fill="white"/>
<path d="M20.0571 0H18.1841V1.88277H20.0571V0Z" fill="white"/>
<path d="M25.5126 0H23.6396V1.88277H25.5126V0Z" fill="white"/>
<path d="M30.968 0H29.095V1.88277H30.968V0Z" fill="white"/>
<path d="M40.0598 0H38.1868V1.88277H40.0598V0Z" fill="white"/>
<path d="M41.8786 0H40.0056V1.88277H41.8786V0Z" fill="white"/>
<path d="M47.3339 0H45.4609V1.88277H47.3339V0Z" fill="white"/>
<path d="M49.1525 0H47.2795V1.88277H49.1525V0Z" fill="white"/>
<path d="M50.9704 0H49.0974V1.88277H50.9704V0Z" fill="white"/>
<path d="M56.4265 0H54.5535V1.88277H56.4265V0Z" fill="white"/>
<path d="M60.0629 0H58.1899V1.88277H60.0629V0Z" fill="white"/>
<path d="M16.4208 1.82812H14.5479V3.71089H16.4208V1.82812Z" fill="white"/>
<path d="M18.2387 1.82812H16.3657V3.71089H18.2387V1.82812Z" fill="white"/>
<path d="M20.0571 1.82812H18.1841V3.71089H20.0571V1.82812Z" fill="white"/>
<path d="M23.6943 1.82812H21.8213V3.71089H23.6943V1.82812Z" fill="white"/>
<path d="M25.5126 1.82812H23.6396V3.71089H25.5126V1.82812Z" fill="white"/>
<path d="M29.1494 1.82812H27.2764V3.71089H29.1494V1.82812Z" fill="white"/>
<path d="M30.968 1.82812H29.095V3.71089H30.968V1.82812Z" fill="white"/>
<path d="M34.6052 1.82812H32.7322V3.71089H34.6052V1.82812Z" fill="white"/>
<path d="M38.2416 1.82812H36.3687V3.71089H38.2416V1.82812Z" fill="white"/>
<path d="M41.8786 1.82812H40.0056V3.71089H41.8786V1.82812Z" fill="white"/>
<path d="M43.6967 1.82812H41.8237V3.71089H43.6967V1.82812Z" fill="white"/>
<path d="M47.3339 1.82812H45.4609V3.71089H47.3339V1.82812Z" fill="white"/>
<path d="M49.1525 1.82812H47.2795V3.71089H49.1525V1.82812Z" fill="white"/>
<path d="M54.6074 1.82812H52.7344V3.71089H54.6074V1.82812Z" fill="white"/>
<path d="M56.4265 1.82812H54.5535V3.71089H56.4265V1.82812Z" fill="white"/>
<path d="M58.2446 1.82812H56.3716V3.71089H58.2446V1.82812Z" fill="white"/>
<path d="M60.0629 1.82812H58.1899V3.71089H60.0629V1.82812Z" fill="white"/>
<path d="M16.4208 3.65625H14.5479V5.53902H16.4208V3.65625Z" fill="white"/>
<path d="M20.0571 3.65625H18.1841V5.53902H20.0571V3.65625Z" fill="white"/>
<path d="M21.8754 3.65625H20.0024V5.53902H21.8754V3.65625Z" fill="white"/>
<path d="M23.6943 3.65625H21.8213V5.53902H23.6943V3.65625Z" fill="white"/>
<path d="M25.5126 3.65625H23.6396V5.53902H25.5126V3.65625Z" fill="white"/>
<path d="M27.3312 3.65625H25.4583V5.53902H27.3312V3.65625Z" fill="white"/>
<path d="M29.1494 3.65625H27.2764V5.53902H29.1494V3.65625Z" fill="white"/>
<path d="M30.968 3.65625H29.095V5.53902H30.968V3.65625Z" fill="white"/>
<path d="M34.6052 3.65625H32.7322V5.53902H34.6052V3.65625Z" fill="white"/>
<path d="M36.423 3.65625H34.55V5.53902H36.423V3.65625Z" fill="white"/>
<path d="M38.2416 3.65625H36.3687V5.53902H38.2416V3.65625Z" fill="white"/>
<path d="M40.0598 3.65625H38.1868V5.53902H40.0598V3.65625Z" fill="white"/>
<path d="M43.6967 3.65625H41.8237V5.53902H43.6967V3.65625Z" fill="white"/>
<path d="M45.5158 3.65625H43.6428V5.53902H45.5158V3.65625Z" fill="white"/>
<path d="M47.3339 3.65625H45.4609V5.53902H47.3339V3.65625Z" fill="white"/>
<path d="M54.6074 3.65625H52.7344V5.53902H54.6074V3.65625Z" fill="white"/>
<path d="M18.2387 5.48438H16.3657V7.36714H18.2387V5.48438Z" fill="white"/>
<path d="M21.8754 5.48438H20.0024V7.36714H21.8754V5.48438Z" fill="white"/>
<path d="M27.3312 5.48438H25.4583V7.36714H27.3312V5.48438Z" fill="white"/>
<path d="M29.1494 5.48438H27.2764V7.36714H29.1494V5.48438Z" fill="white"/>
<path d="M32.7858 5.48438H30.9128V7.36714H32.7858V5.48438Z" fill="white"/>
<path d="M36.423 5.48438H34.55V7.36714H36.423V5.48438Z" fill="white"/>
<path d="M41.8786 5.48438H40.0056V7.36714H41.8786V5.48438Z" fill="white"/>
<path d="M43.6967 5.48438H41.8237V7.36714H43.6967V5.48438Z" fill="white"/>
<path d="M45.5158 5.48438H43.6428V7.36714H45.5158V5.48438Z" fill="white"/>
<path d="M49.1525 5.48438H47.2795V7.36714H49.1525V5.48438Z" fill="white"/>
<path d="M50.9704 5.48438H49.0974V7.36714H50.9704V5.48438Z" fill="white"/>
<path d="M52.789 5.48438H50.916V7.36714H52.789V5.48438Z" fill="white"/>
<path d="M60.0629 5.48438H58.1899V7.36714H60.0629V5.48438Z" fill="white"/>
<path d="M20.0571 7.3125H18.1841V9.19527H20.0571V7.3125Z" fill="white"/>
<path d="M23.6943 7.3125H21.8213V9.19527H23.6943V7.3125Z" fill="white"/>
<path d="M25.5126 7.3125H23.6396V9.19527H25.5126V7.3125Z" fill="white"/>
<path d="M27.3312 7.3125H25.4583V9.19527H27.3312V7.3125Z" fill="white"/>
<path d="M29.1494 7.3125H27.2764V9.19527H29.1494V7.3125Z" fill="white"/>
<path d="M30.968 7.3125H29.095V9.19527H30.968V7.3125Z" fill="white"/>
<path d="M32.7858 7.3125H30.9128V9.19527H32.7858V7.3125Z" fill="white"/>
<path d="M34.6052 7.3125H32.7322V9.19527H34.6052V7.3125Z" fill="white"/>
<path d="M38.2416 7.3125H36.3687V9.19527H38.2416V7.3125Z" fill="white"/>
<path d="M40.0598 7.3125H38.1868V9.19527H40.0598V7.3125Z" fill="white"/>
<path d="M41.8786 7.3125H40.0056V9.19527H41.8786V7.3125Z" fill="white"/>
<path d="M43.6967 7.3125H41.8237V9.19527H43.6967V7.3125Z" fill="white"/>
<path d="M56.4265 7.3125H54.5535V9.19527H56.4265V7.3125Z" fill="white"/>
<path d="M58.2446 7.3125H56.3716V9.19527H58.2446V7.3125Z" fill="white"/>
<path d="M60.0629 7.3125H58.1899V9.19527H60.0629V7.3125Z" fill="white"/>
<path d="M16.4208 9.14062H14.5479V11.0234H16.4208V9.14062Z" fill="white"/>
<path d="M20.0571 9.14062H18.1841V11.0234H20.0571V9.14062Z" fill="white"/>
<path d="M21.8754 9.14062H20.0024V11.0234H21.8754V9.14062Z" fill="white"/>
<path d="M23.6943 9.14062H21.8213V11.0234H23.6943V9.14062Z" fill="white"/>
<path d="M25.5126 9.14062H23.6396V11.0234H25.5126V9.14062Z" fill="white"/>
<path d="M30.968 9.14062H29.095V11.0234H30.968V9.14062Z" fill="white"/>
<path d="M32.7858 9.14062H30.9128V11.0234H32.7858V9.14062Z" fill="white"/>
<path d="M36.423 9.14062H34.55V11.0234H36.423V9.14062Z" fill="white"/>
<path d="M47.3339 9.14062H45.4609V11.0234H47.3339V9.14062Z" fill="white"/>
<path d="M50.9704 9.14062H49.0974V11.0234H50.9704V9.14062Z" fill="white"/>
<path d="M54.6074 9.14062H52.7344V11.0234H54.6074V9.14062Z" fill="white"/>
<path d="M56.4265 9.14062H54.5535V11.0234H56.4265V9.14062Z" fill="white"/>
<path d="M60.0629 9.14062H58.1899V11.0234H60.0629V9.14062Z" fill="white"/>
<path d="M16.4208 10.9668H14.5479V12.8496H16.4208V10.9668Z" fill="white"/>
<path d="M20.0571 10.9668H18.1841V12.8496H20.0571V10.9668Z" fill="white"/>
<path d="M23.6943 10.9668H21.8213V12.8496H23.6943V10.9668Z" fill="white"/>
<path d="M27.3312 10.9668H25.4583V12.8496H27.3312V10.9668Z" fill="white"/>
<path d="M30.968 10.9668H29.095V12.8496H30.968V10.9668Z" fill="white"/>
<path d="M34.6052 10.9668H32.7322V12.8496H34.6052V10.9668Z" fill="white"/>
<path d="M38.2416 10.9668H36.3687V12.8496H38.2416V10.9668Z" fill="white"/>
<path d="M41.8786 10.9668H40.0056V12.8496H41.8786V10.9668Z" fill="white"/>
<path d="M45.5158 10.9668H43.6428V12.8496H45.5158V10.9668Z" fill="white"/>
<path d="M49.1525 10.9668H47.2795V12.8496H49.1525V10.9668Z" fill="white"/>
<path d="M52.789 10.9668H50.916V12.8496H52.789V10.9668Z" fill="white"/>
<path d="M56.4265 10.9668H54.5535V12.8496H56.4265V10.9668Z" fill="white"/>
<path d="M60.0629 10.9668H58.1899V12.8496H60.0629V10.9668Z" fill="white"/>
<path d="M16.4208 12.7949H14.5479V14.6777H16.4208V12.7949Z" fill="white"/>
<path d="M18.2387 12.7949H16.3657V14.6777H18.2387V12.7949Z" fill="white"/>
<path d="M20.0571 12.7949H18.1841V14.6777H20.0571V12.7949Z" fill="white"/>
<path d="M21.8754 12.7949H20.0024V14.6777H21.8754V12.7949Z" fill="white"/>
<path d="M23.6943 12.7949H21.8213V14.6777H23.6943V12.7949Z" fill="white"/>
<path d="M32.7858 12.7949H30.9128V14.6777H32.7858V12.7949Z" fill="white"/>
<path d="M34.6052 12.7949H32.7322V14.6777H34.6052V12.7949Z" fill="white"/>
<path d="M40.0598 12.7949H38.1868V14.6777H40.0598V12.7949Z" fill="white"/>
<path d="M41.8786 12.7949H40.0056V14.6777H41.8786V12.7949Z" fill="white"/>
<path d="M43.6967 12.7949H41.8237V14.6777H43.6967V12.7949Z" fill="white"/>
<path d="M56.4265 12.7949H54.5535V14.6777H56.4265V12.7949Z" fill="white"/>
<path d="M58.2446 12.7949H56.3716V14.6777H58.2446V12.7949Z" fill="white"/>
<path d="M5.50995 14.623H3.63696V16.5058H5.50995V14.623Z" fill="white"/>
<path d="M7.32807 14.623H5.45508V16.5058H7.32807V14.623Z" fill="white"/>
<path d="M9.14667 14.623H7.27368V16.5058H9.14667V14.623Z" fill="white"/>
<path d="M12.7834 14.623H10.9104V16.5058H12.7834V14.623Z" fill="white"/>
<path d="M16.4208 14.623H14.5479V16.5058H16.4208V14.623Z" fill="white"/>
<path d="M23.6943 14.623H21.8213V16.5058H23.6943V14.623Z" fill="white"/>
<path d="M32.7858 14.623H30.9128V16.5058H32.7858V14.623Z" fill="white"/>
<path d="M34.6052 14.623H32.7322V16.5058H34.6052V14.623Z" fill="white"/>
<path d="M36.423 14.623H34.55V16.5058H36.423V14.623Z" fill="white"/>
<path d="M43.6967 14.623H41.8237V16.5058H43.6967V14.623Z" fill="white"/>
<path d="M45.5158 14.623H43.6428V16.5058H45.5158V14.623Z" fill="white"/>
<path d="M49.1525 14.623H47.2795V16.5058H49.1525V14.623Z" fill="white"/>
<path d="M54.6074 14.623H52.7344V16.5058H54.6074V14.623Z" fill="white"/>
<path d="M60.0629 14.623H58.1899V16.5058H60.0629V14.623Z" fill="white"/>
<path d="M61.8808 14.623H60.0078V16.5058H61.8808V14.623Z" fill="white"/>
<path d="M63.6996 14.623H61.8267V16.5058H63.6996V14.623Z" fill="white"/>
<path d="M65.518 14.623H63.645V16.5058H65.518V14.623Z" fill="white"/>
<path d="M70.9724 14.623H69.0994V16.5058H70.9724V14.623Z" fill="white"/>
<path d="M72.7917 14.623H70.9187V16.5058H72.7917V14.623Z" fill="white"/>
<path d="M74.6105 14.623H72.7375V16.5058H74.6105V14.623Z" fill="white"/>
<path d="M3.6911 16.4512H1.81812V18.3339H3.6911V16.4512Z" fill="white"/>
<path d="M5.50995 16.4512H3.63696V18.3339H5.50995V16.4512Z" fill="white"/>
<path d="M9.14667 16.4512H7.27368V18.3339H9.14667V16.4512Z" fill="white"/>
<path d="M14.6017 16.4512H12.7288V18.3339H14.6017V16.4512Z" fill="white"/>
<path d="M16.4208 16.4512H14.5479V18.3339H16.4208V16.4512Z" fill="white"/>
<path d="M18.2387 16.4512H16.3657V18.3339H18.2387V16.4512Z" fill="white"/>
<path d="M21.8754 16.4512H20.0024V18.3339H21.8754V16.4512Z" fill="white"/>
<path d="M23.6943 16.4512H21.8213V18.3339H23.6943V16.4512Z" fill="white"/>
<path d="M29.1494 16.4512H27.2764V18.3339H29.1494V16.4512Z" fill="white"/>
<path d="M30.968 16.4512H29.095V18.3339H30.968V16.4512Z" fill="white"/>
<path d="M32.7858 16.4512H30.9128V18.3339H32.7858V16.4512Z" fill="white"/>
<path d="M34.6052 16.4512H32.7322V18.3339H34.6052V16.4512Z" fill="white"/>
<path d="M45.5158 16.4512H43.6428V18.3339H45.5158V16.4512Z" fill="white"/>
<path d="M47.3339 16.4512H45.4609V18.3339H47.3339V16.4512Z" fill="white"/>
<path d="M49.1525 16.4512H47.2795V18.3339H49.1525V16.4512Z" fill="white"/>
<path d="M54.6074 16.4512H52.7344V18.3339H54.6074V16.4512Z" fill="white"/>
<path d="M58.2446 16.4512H56.3716V18.3339H58.2446V16.4512Z" fill="white"/>
<path d="M65.518 16.4512H63.645V18.3339H65.518V16.4512Z" fill="white"/>
<path d="M67.3364 16.4512H65.4634V18.3339H67.3364V16.4512Z" fill="white"/>
<path d="M70.9724 16.4512H69.0994V18.3339H70.9724V16.4512Z" fill="white"/>
<path d="M72.7917 16.4512H70.9187V18.3339H72.7917V16.4512Z" fill="white"/>
<path d="M1.87299 18.2793H0V20.1621H1.87299V18.2793Z" fill="white"/>
<path d="M7.32807 18.2793H5.45508V20.1621H7.32807V18.2793Z" fill="white"/>
<path d="M9.14667 18.2793H7.27368V20.1621H9.14667V18.2793Z" fill="white"/>
<path d="M10.9653 18.2793H9.09229V20.1621H10.9653V18.2793Z" fill="white"/>
<path d="M12.7834 18.2793H10.9104V20.1621H12.7834V18.2793Z" fill="white"/>
<path d="M14.6017 18.2793H12.7288V20.1621H14.6017V18.2793Z" fill="white"/>
<path d="M16.4208 18.2793H14.5479V20.1621H16.4208V18.2793Z" fill="white"/>
<path d="M18.2387 18.2793H16.3657V20.1621H18.2387V18.2793Z" fill="white"/>
<path d="M21.8754 18.2793H20.0024V20.1621H21.8754V18.2793Z" fill="white"/>
<path d="M25.5126 18.2793H23.6396V20.1621H25.5126V18.2793Z" fill="white"/>
<path d="M27.3312 18.2793H25.4583V20.1621H27.3312V18.2793Z" fill="white"/>
<path d="M29.1494 18.2793H27.2764V20.1621H29.1494V18.2793Z" fill="white"/>
<path d="M30.968 18.2793H29.095V20.1621H30.968V18.2793Z" fill="white"/>
<path d="M40.0598 18.2793H38.1868V20.1621H40.0598V18.2793Z" fill="white"/>
<path d="M43.6967 18.2793H41.8237V20.1621H43.6967V18.2793Z" fill="white"/>
<path d="M47.3339 18.2793H45.4609V20.1621H47.3339V18.2793Z" fill="white"/>
<path d="M49.1525 18.2793H47.2795V20.1621H49.1525V18.2793Z" fill="white"/>
<path d="M50.9704 18.2793H49.0974V20.1621H50.9704V18.2793Z" fill="white"/>
<path d="M52.789 18.2793H50.916V20.1621H52.789V18.2793Z" fill="white"/>
<path d="M54.6074 18.2793H52.7344V20.1621H54.6074V18.2793Z" fill="white"/>
<path d="M56.4265 18.2793H54.5535V20.1621H56.4265V18.2793Z" fill="white"/>
<path d="M58.2446 18.2793H56.3716V20.1621H58.2446V18.2793Z" fill="white"/>
<path d="M60.0629 18.2793H58.1899V20.1621H60.0629V18.2793Z" fill="white"/>
<path d="M72.7917 18.2793H70.9187V20.1621H72.7917V18.2793Z" fill="white"/>
<path d="M7.32807 20.1074H5.45508V21.9902H7.32807V20.1074Z" fill="white"/>
<path d="M14.6017 20.1074H12.7288V21.9902H14.6017V20.1074Z" fill="white"/>
<path d="M21.8754 20.1074H20.0024V21.9902H21.8754V20.1074Z" fill="white"/>
<path d="M30.968 20.1074H29.095V21.9902H30.968V20.1074Z" fill="white"/>
<path d="M34.6052 20.1074H32.7322V21.9902H34.6052V20.1074Z" fill="white"/>
<path d="M40.0598 20.1074H38.1868V21.9902H40.0598V20.1074Z" fill="white"/>
<path d="M43.6967 20.1074H41.8237V21.9902H43.6967V20.1074Z" fill="white"/>
<path d="M54.6074 20.1074H52.7344V21.9902H54.6074V20.1074Z" fill="white"/>
<path d="M56.4265 20.1074H54.5535V21.9902H56.4265V20.1074Z" fill="white"/>
<path d="M60.0629 20.1074H58.1899V21.9902H60.0629V20.1074Z" fill="white"/>
<path d="M63.6996 20.1074H61.8267V21.9902H63.6996V20.1074Z" fill="white"/>
<path d="M69.155 20.1074H67.282V21.9902H69.155V20.1074Z" fill="white"/>
<path d="M1.87299 21.9355H0V23.8183H1.87299V21.9355Z" fill="white"/>
<path d="M3.6911 21.9355H1.81812V23.8183H3.6911V21.9355Z" fill="white"/>
<path d="M5.50995 21.9355H3.63696V23.8183H5.50995V21.9355Z" fill="white"/>
<path d="M9.14667 21.9355H7.27368V23.8183H9.14667V21.9355Z" fill="white"/>
<path d="M10.9653 21.9355H9.09229V23.8183H10.9653V21.9355Z" fill="white"/>
<path d="M12.7834 21.9355H10.9104V23.8183H12.7834V21.9355Z" fill="white"/>
<path d="M23.6943 21.9355H21.8213V23.8183H23.6943V21.9355Z" fill="white"/>
<path d="M25.5126 21.9355H23.6396V23.8183H25.5126V21.9355Z" fill="white"/>
<path d="M29.1494 21.9355H27.2764V23.8183H29.1494V21.9355Z" fill="white"/>
<path d="M30.968 21.9355H29.095V23.8183H30.968V21.9355Z" fill="white"/>
<path d="M34.6052 21.9355H32.7322V23.8183H34.6052V21.9355Z" fill="white"/>
<path d="M36.423 21.9355H34.55V23.8183H36.423V21.9355Z" fill="white"/>
<path d="M50.9704 21.9355H49.0974V23.8183H50.9704V21.9355Z" fill="white"/>
<path d="M54.6074 21.9355H52.7344V23.8183H54.6074V21.9355Z" fill="white"/>
<path d="M56.4265 21.9355H54.5535V23.8183H56.4265V21.9355Z" fill="white"/>
<path d="M61.8808 21.9355H60.0078V23.8183H61.8808V21.9355Z" fill="white"/>
<path d="M65.518 21.9355H63.645V23.8183H65.518V21.9355Z" fill="white"/>
<path d="M69.155 21.9355H67.282V23.8183H69.155V21.9355Z" fill="white"/>
<path d="M70.9724 21.9355H69.0994V23.8183H70.9724V21.9355Z" fill="white"/>
<path d="M72.7917 21.9355H70.9187V23.8183H72.7917V21.9355Z" fill="white"/>
<path d="M74.6105 21.9355H72.7375V23.8183H74.6105V21.9355Z" fill="white"/>
<path d="M1.87299 23.7637H0V25.6464H1.87299V23.7637Z" fill="white"/>
<path d="M14.6017 23.7637H12.7288V25.6464H14.6017V23.7637Z" fill="white"/>
<path d="M16.4208 23.7637H14.5479V25.6464H16.4208V23.7637Z" fill="white"/>
<path d="M18.2387 23.7637H16.3657V25.6464H18.2387V23.7637Z" fill="white"/>
<path d="M20.0571 23.7637H18.1841V25.6464H20.0571V23.7637Z" fill="white"/>
<path d="M23.6943 23.7637H21.8213V25.6464H23.6943V23.7637Z" fill="white"/>
<path d="M29.1494 23.7637H27.2764V25.6464H29.1494V23.7637Z" fill="white"/>
<path d="M34.6052 23.7637H32.7322V25.6464H34.6052V23.7637Z" fill="white"/>
<path d="M36.423 23.7637H34.55V25.6464H36.423V23.7637Z" fill="white"/>
<path d="M38.2416 23.7637H36.3687V25.6464H38.2416V23.7637Z" fill="white"/>
<path d="M40.0598 23.7637H38.1868V25.6464H40.0598V23.7637Z" fill="white"/>
<path d="M41.8786 23.7637H40.0056V25.6464H41.8786V23.7637Z" fill="white"/>
<path d="M47.3339 23.7637H45.4609V25.6464H47.3339V23.7637Z" fill="white"/>
<path d="M50.9704 23.7637H49.0974V25.6464H50.9704V23.7637Z" fill="white"/>
<path d="M54.6074 23.7637H52.7344V25.6464H54.6074V23.7637Z" fill="white"/>
<path d="M56.4265 23.7637H54.5535V25.6464H56.4265V23.7637Z" fill="white"/>
<path d="M58.2446 23.7637H56.3716V25.6464H58.2446V23.7637Z" fill="white"/>
<path d="M67.3364 23.7637H65.4634V25.6464H67.3364V23.7637Z" fill="white"/>
<path d="M70.9724 23.7637H69.0994V25.6464H70.9724V23.7637Z" fill="white"/>
<path d="M74.6105 23.7637H72.7375V25.6464H74.6105V23.7637Z" fill="white"/>
<path d="M1.87299 25.5918H0V27.4746H1.87299V25.5918Z" fill="white"/>
<path d="M3.6911 25.5918H1.81812V27.4746H3.6911V25.5918Z" fill="white"/>
<path d="M9.14667 25.5918H7.27368V27.4746H9.14667V25.5918Z" fill="white"/>
<path d="M12.7834 25.5918H10.9104V27.4746H12.7834V25.5918Z" fill="white"/>
<path d="M16.4208 25.5918H14.5479V27.4746H16.4208V25.5918Z" fill="white"/>
<path d="M18.2387 25.5918H16.3657V27.4746H18.2387V25.5918Z" fill="white"/>
<path d="M20.0571 25.5918H18.1841V27.4746H20.0571V25.5918Z" fill="white"/>
<path d="M21.8754 25.5918H20.0024V27.4746H21.8754V25.5918Z" fill="white"/>
<path d="M25.5126 25.5918H23.6396V27.4746H25.5126V25.5918Z" fill="white"/>
<path d="M27.3312 25.5918H25.4583V27.4746H27.3312V25.5918Z" fill="white"/>
<path d="M29.1494 25.5918H27.2764V27.4746H29.1494V25.5918Z" fill="white"/>
<path d="M36.423 25.5918H34.55V27.4746H36.423V25.5918Z" fill="white"/>
<path d="M38.2416 25.5918H36.3687V27.4746H38.2416V25.5918Z" fill="white"/>
<path d="M41.8786 25.5918H40.0056V27.4746H41.8786V25.5918Z" fill="white"/>
<path d="M50.9704 25.5918H49.0974V27.4746H50.9704V25.5918Z" fill="white"/>
<path d="M54.6074 25.5918H52.7344V27.4746H54.6074V25.5918Z" fill="white"/>
<path d="M56.4265 25.5918H54.5535V27.4746H56.4265V25.5918Z" fill="white"/>
<path d="M61.8808 25.5918H60.0078V27.4746H61.8808V25.5918Z" fill="white"/>
<path d="M65.518 25.5918H63.645V27.4746H65.518V25.5918Z" fill="white"/>
<path d="M69.155 25.5918H67.282V27.4746H69.155V25.5918Z" fill="white"/>
<path d="M72.7917 25.5918H70.9187V27.4746H72.7917V25.5918Z" fill="white"/>
<path d="M5.50995 27.418H3.63696V29.3007H5.50995V27.418Z" fill="white"/>
<path d="M9.14667 27.418H7.27368V29.3007H9.14667V27.418Z" fill="white"/>
<path d="M18.2387 27.418H16.3657V29.3007H18.2387V27.418Z" fill="white"/>
<path d="M21.8754 27.418H20.0024V29.3007H21.8754V27.418Z" fill="white"/>
<path d="M29.1494 27.418H27.2764V29.3007H29.1494V27.418Z" fill="white"/>
<path d="M32.7858 27.418H30.9128V29.3007H32.7858V27.418Z" fill="white"/>
<path d="M36.423 27.418H34.55V29.3007H36.423V27.418Z" fill="white"/>
<path d="M38.2416 27.418H36.3687V29.3007H38.2416V27.418Z" fill="white"/>
<path d="M41.8786 27.418H40.0056V29.3007H41.8786V27.418Z" fill="white"/>
<path d="M45.5158 27.418H43.6428V29.3007H45.5158V27.418Z" fill="white"/>
<path d="M49.1525 27.418H47.2795V29.3007H49.1525V27.418Z" fill="white"/>
<path d="M50.9704 27.418H49.0974V29.3007H50.9704V27.418Z" fill="white"/>
<path d="M56.4265 27.418H54.5535V29.3007H56.4265V27.418Z" fill="white"/>
<path d="M61.8808 27.418H60.0078V29.3007H61.8808V27.418Z" fill="white"/>
<path d="M70.9724 27.418H69.0994V29.3007H70.9724V27.418Z" fill="white"/>
<path d="M74.6105 27.418H72.7375V29.3007H74.6105V27.418Z" fill="white"/>
<path d="M3.6911 29.2461H1.81812V31.1289H3.6911V29.2461Z" fill="white"/>
<path d="M12.7834 29.2461H10.9104V31.1289H12.7834V29.2461Z" fill="white"/>
<path d="M16.4208 29.2461H14.5479V31.1289H16.4208V29.2461Z" fill="white"/>
<path d="M18.2387 29.2461H16.3657V31.1289H18.2387V29.2461Z" fill="white"/>
<path d="M20.0571 29.2461H18.1841V31.1289H20.0571V29.2461Z" fill="white"/>
<path d="M21.8754 29.2461H20.0024V31.1289H21.8754V29.2461Z" fill="white"/>
<path d="M23.6943 29.2461H21.8213V31.1289H23.6943V29.2461Z" fill="white"/>
<path d="M29.1494 29.2461H27.2764V31.1289H29.1494V29.2461Z" fill="white"/>
<path d="M32.7858 29.2461H30.9128V31.1289H32.7858V29.2461Z" fill="white"/>
<path d="M36.423 29.2461H34.55V31.1289H36.423V29.2461Z" fill="white"/>
<path d="M38.2416 29.2461H36.3687V31.1289H38.2416V29.2461Z" fill="white"/>
<path d="M40.0598 29.2461H38.1868V31.1289H40.0598V29.2461Z" fill="white"/>
<path d="M41.8786 29.2461H40.0056V31.1289H41.8786V29.2461Z" fill="white"/>
<path d="M45.5158 29.2461H43.6428V31.1289H45.5158V29.2461Z" fill="white"/>
<path d="M49.1525 29.2461H47.2795V31.1289H49.1525V29.2461Z" fill="white"/>
<path d="M50.9704 29.2461H49.0974V31.1289H50.9704V29.2461Z" fill="white"/>
<path d="M54.6074 29.2461H52.7344V31.1289H54.6074V29.2461Z" fill="white"/>
<path d="M60.0629 29.2461H58.1899V31.1289H60.0629V29.2461Z" fill="white"/>
<path d="M70.9724 29.2461H69.0994V31.1289H70.9724V29.2461Z" fill="white"/>
<path d="M72.7917 29.2461H70.9187V31.1289H72.7917V29.2461Z" fill="white"/>
<path d="M1.87299 31.0742H0V32.957H1.87299V31.0742Z" fill="white"/>
<path d="M7.32807 31.0742H5.45508V32.957H7.32807V31.0742Z" fill="white"/>
<path d="M14.6017 31.0742H12.7288V32.957H14.6017V31.0742Z" fill="white"/>
<path d="M16.4208 31.0742H14.5479V32.957H16.4208V31.0742Z" fill="white"/>
<path d="M20.0571 31.0742H18.1841V32.957H20.0571V31.0742Z" fill="white"/>
<path d="M21.8754 31.0742H20.0024V32.957H21.8754V31.0742Z" fill="white"/>
<path d="M23.6943 31.0742H21.8213V32.957H23.6943V31.0742Z" fill="white"/>
<path d="M25.5126 31.0742H23.6396V32.957H25.5126V31.0742Z" fill="white"/>
<path d="M29.1494 31.0742H27.2764V32.957H29.1494V31.0742Z" fill="white"/>
<path d="M32.7858 31.0742H30.9128V32.957H32.7858V31.0742Z" fill="white"/>
<path d="M34.6052 31.0742H32.7322V32.957H34.6052V31.0742Z" fill="white"/>
<path d="M38.2416 31.0742H36.3687V32.957H38.2416V31.0742Z" fill="white"/>
<path d="M40.0598 31.0742H38.1868V32.957H40.0598V31.0742Z" fill="white"/>
<path d="M45.5158 31.0742H43.6428V32.957H45.5158V31.0742Z" fill="white"/>
<path d="M52.789 31.0742H50.916V32.957H52.789V31.0742Z" fill="white"/>
<path d="M56.4265 31.0742H54.5535V32.957H56.4265V31.0742Z" fill="white"/>
<path d="M58.2446 31.0742H56.3716V32.957H58.2446V31.0742Z" fill="white"/>
<path d="M61.8808 31.0742H60.0078V32.957H61.8808V31.0742Z" fill="white"/>
<path d="M67.3364 31.0742H65.4634V32.957H67.3364V31.0742Z" fill="white"/>
<path d="M72.7917 31.0742H70.9187V32.957H72.7917V31.0742Z" fill="white"/>
<path d="M3.6911 32.9023H1.81812V34.7851H3.6911V32.9023Z" fill="white"/>
<path d="M7.32807 32.9023H5.45508V34.7851H7.32807V32.9023Z" fill="white"/>
<path d="M12.7834 32.9023H10.9104V34.7851H12.7834V32.9023Z" fill="white"/>
<path d="M14.6017 32.9023H12.7288V34.7851H14.6017V32.9023Z" fill="white"/>
<path d="M16.4208 32.9023H14.5479V34.7851H16.4208V32.9023Z" fill="white"/>
<path d="M23.6943 32.9023H21.8213V34.7851H23.6943V32.9023Z" fill="white"/>
<path d="M25.5126 32.9023H23.6396V34.7851H25.5126V32.9023Z" fill="white"/>
<path d="M30.968 32.9023H29.095V34.7851H30.968V32.9023Z" fill="white"/>
<path d="M32.7858 32.9023H30.9128V34.7851H32.7858V32.9023Z" fill="white"/>
<path d="M34.6052 32.9023H32.7322V34.7851H34.6052V32.9023Z" fill="white"/>
<path d="M38.2416 32.9023H36.3687V34.7851H38.2416V32.9023Z" fill="white"/>
<path d="M40.0598 32.9023H38.1868V34.7851H40.0598V32.9023Z" fill="white"/>
<path d="M41.8786 32.9023H40.0056V34.7851H41.8786V32.9023Z" fill="white"/>
<path d="M43.6967 32.9023H41.8237V34.7851H43.6967V32.9023Z" fill="white"/>
<path d="M49.1525 32.9023H47.2795V34.7851H49.1525V32.9023Z" fill="white"/>
<path d="M50.9704 32.9023H49.0974V34.7851H50.9704V32.9023Z" fill="white"/>
<path d="M52.789 32.9023H50.916V34.7851H52.789V32.9023Z" fill="white"/>
<path d="M54.6074 32.9023H52.7344V34.7851H54.6074V32.9023Z" fill="white"/>
<path d="M56.4265 32.9023H54.5535V34.7851H56.4265V32.9023Z" fill="white"/>
<path d="M58.2446 32.9023H56.3716V34.7851H58.2446V32.9023Z" fill="white"/>
<path d="M60.0629 32.9023H58.1899V34.7851H60.0629V32.9023Z" fill="white"/>
<path d="M61.8808 32.9023H60.0078V34.7851H61.8808V32.9023Z" fill="white"/>
<path d="M63.6996 32.9023H61.8267V34.7851H63.6996V32.9023Z" fill="white"/>
<path d="M67.3364 32.9023H65.4634V34.7851H67.3364V32.9023Z" fill="white"/>
<path d="M70.9724 32.9023H69.0994V34.7851H70.9724V32.9023Z" fill="white"/>
<path d="M74.6105 32.9023H72.7375V34.7851H74.6105V32.9023Z" fill="white"/>
<path d="M3.6911 34.7305H1.81812V36.6132H3.6911V34.7305Z" fill="white"/>
<path d="M7.32807 34.7305H5.45508V36.6132H7.32807V34.7305Z" fill="white"/>
<path d="M9.14667 34.7305H7.27368V36.6132H9.14667V34.7305Z" fill="white"/>
<path d="M14.6017 34.7305H12.7288V36.6132H14.6017V34.7305Z" fill="white"/>
<path d="M23.6943 34.7305H21.8213V36.6132H23.6943V34.7305Z" fill="white"/>
<path d="M25.5126 34.7305H23.6396V36.6132H25.5126V34.7305Z" fill="white"/>
<path d="M29.1494 34.7305H27.2764V36.6132H29.1494V34.7305Z" fill="white"/>
<path d="M36.423 34.7305H34.55V36.6132H36.423V34.7305Z" fill="white"/>
<path d="M40.0598 34.7305H38.1868V36.6132H40.0598V34.7305Z" fill="white"/>
<path d="M43.6967 34.7305H41.8237V36.6132H43.6967V34.7305Z" fill="white"/>
<path d="M45.5158 34.7305H43.6428V36.6132H45.5158V34.7305Z" fill="white"/>
<path d="M49.1525 34.7305H47.2795V36.6132H49.1525V34.7305Z" fill="white"/>
<path d="M63.6996 34.7305H61.8267V36.6132H63.6996V34.7305Z" fill="white"/>
<path d="M67.3364 34.7305H65.4634V36.6132H67.3364V34.7305Z" fill="white"/>
<path d="M69.155 34.7305H67.282V36.6132H69.155V34.7305Z" fill="white"/>
<path d="M70.9724 34.7305H69.0994V36.6132H70.9724V34.7305Z" fill="white"/>
<path d="M74.6105 34.7305H72.7375V36.6132H74.6105V34.7305Z" fill="white"/>
<path d="M1.87299 36.5586H0V38.4414H1.87299V36.5586Z" fill="white"/>
<path d="M3.6911 36.5586H1.81812V38.4414H3.6911V36.5586Z" fill="white"/>
<path d="M10.9653 36.5586H9.09229V38.4414H10.9653V36.5586Z" fill="white"/>
<path d="M12.7834 36.5586H10.9104V38.4414H12.7834V36.5586Z" fill="white"/>
<path d="M14.6017 36.5586H12.7288V38.4414H14.6017V36.5586Z" fill="white"/>
<path d="M16.4208 36.5586H14.5479V38.4414H16.4208V36.5586Z" fill="white"/>
<path d="M21.8754 36.5586H20.0024V38.4414H21.8754V36.5586Z" fill="white"/>
<path d="M30.968 36.5586H29.095V38.4414H30.968V36.5586Z" fill="white"/>
<path d="M38.2416 36.5586H36.3687V38.4414H38.2416V36.5586Z" fill="white"/>
<path d="M40.0598 36.5586H38.1868V38.4414H40.0598V36.5586Z" fill="white"/>
<path d="M47.3339 36.5586H45.4609V38.4414H47.3339V36.5586Z" fill="white"/>
<path d="M50.9704 36.5586H49.0974V38.4414H50.9704V36.5586Z" fill="white"/>
<path d="M54.6074 36.5586H52.7344V38.4414H54.6074V36.5586Z" fill="white"/>
<path d="M58.2446 36.5586H56.3716V38.4414H58.2446V36.5586Z" fill="white"/>
<path d="M67.3364 36.5586H65.4634V38.4414H67.3364V36.5586Z" fill="white"/>
<path d="M69.155 36.5586H67.282V38.4414H69.155V36.5586Z" fill="white"/>
<path d="M72.7917 36.5586H70.9187V38.4414H72.7917V36.5586Z" fill="white"/>
<path d="M74.6105 36.5586H72.7375V38.4414H74.6105V36.5586Z" fill="white"/>
<path d="M3.6911 38.3867H1.81812V40.2695H3.6911V38.3867Z" fill="white"/>
<path d="M9.14667 38.3867H7.27368V40.2695H9.14667V38.3867Z" fill="white"/>
<path d="M10.9653 38.3867H9.09229V40.2695H10.9653V38.3867Z" fill="white"/>
<path d="M14.6017 38.3867H12.7288V40.2695H14.6017V38.3867Z" fill="white"/>
<path d="M16.4208 38.3867H14.5479V40.2695H16.4208V38.3867Z" fill="white"/>
<path d="M21.8754 38.3867H20.0024V40.2695H21.8754V38.3867Z" fill="white"/>
<path d="M29.1494 38.3867H27.2764V40.2695H29.1494V38.3867Z" fill="white"/>
<path d="M30.968 38.3867H29.095V40.2695H30.968V38.3867Z" fill="white"/>
<path d="M34.6047 38.3867H32.7317V40.2695H34.6047V38.3867Z" fill="white"/>
<path d="M36.4228 38.3867H34.5498V40.2695H36.4228V38.3867Z" fill="white"/>
<path d="M45.5156 38.3867H43.6426V40.2695H45.5156V38.3867Z" fill="white"/>
<path d="M47.3337 38.3867H45.4607V40.2695H47.3337V38.3867Z" fill="white"/>
<path d="M49.1523 38.3867H47.2793V40.2695H49.1523V38.3867Z" fill="white"/>
<path d="M54.6071 38.3867H52.7341V40.2695H54.6071V38.3867Z" fill="white"/>
<path d="M60.0627 38.3867H58.1897V40.2695H60.0627V38.3867Z" fill="white"/>
<path d="M67.3364 38.3867H65.4634V40.2695H67.3364V38.3867Z" fill="white"/>
<path d="M72.7917 38.3867H70.9187V40.2695H72.7917V38.3867Z" fill="white"/>
<path d="M74.6105 38.3867H72.7375V40.2695H74.6105V38.3867Z" fill="white"/>
<path d="M3.6911 40.2148H1.81812V42.0976H3.6911V40.2148Z" fill="white"/>
<path d="M7.32807 40.2148H5.45508V42.0976H7.32807V40.2148Z" fill="white"/>
<path d="M10.9653 40.2148H9.09229V42.0976H10.9653V40.2148Z" fill="white"/>
<path d="M12.7834 40.2148H10.9104V42.0976H12.7834V40.2148Z" fill="white"/>
<path d="M20.0571 40.2148H18.1841V42.0976H20.0571V40.2148Z" fill="white"/>
<path d="M23.6943 40.2148H21.8213V42.0976H23.6943V40.2148Z" fill="white"/>
<path d="M25.5126 40.2148H23.6396V42.0976H25.5126V40.2148Z" fill="white"/>
<path d="M29.1494 40.2148H27.2764V42.0976H29.1494V40.2148Z" fill="white"/>
<path d="M34.6052 40.2148H32.7322V42.0976H34.6052V40.2148Z" fill="white"/>
<path d="M38.2416 40.2148H36.3687V42.0976H38.2416V40.2148Z" fill="white"/>
<path d="M40.0598 40.2148H38.1868V42.0976H40.0598V40.2148Z" fill="white"/>
<path d="M41.8786 40.2148H40.0056V42.0976H41.8786V40.2148Z" fill="white"/>
<path d="M52.789 40.2148H50.916V42.0976H52.789V40.2148Z" fill="white"/>
<path d="M58.2446 40.2148H56.3716V42.0976H58.2446V40.2148Z" fill="white"/>
<path d="M61.8808 40.2148H60.0078V42.0976H61.8808V40.2148Z" fill="white"/>
<path d="M67.3364 40.2148H65.4634V42.0976H67.3364V40.2148Z" fill="white"/>
<path d="M69.155 40.2148H67.282V42.0976H69.155V40.2148Z" fill="white"/>
<path d="M1.87299 42.043H0V43.9257H1.87299V42.043Z" fill="white"/>
<path d="M3.6911 42.043H1.81812V43.9257H3.6911V42.043Z" fill="white"/>
<path d="M7.32807 42.043H5.45508V43.9257H7.32807V42.043Z" fill="white"/>
<path d="M9.14667 42.043H7.27368V43.9257H9.14667V42.043Z" fill="white"/>
<path d="M10.9653 42.043H9.09229V43.9257H10.9653V42.043Z" fill="white"/>
<path d="M16.4208 42.043H14.5479V43.9257H16.4208V42.043Z" fill="white"/>
<path d="M21.8754 42.043H20.0024V43.9257H21.8754V42.043Z" fill="white"/>
<path d="M27.3312 42.043H25.4583V43.9257H27.3312V42.043Z" fill="white"/>
<path d="M36.423 42.043H34.55V43.9257H36.423V42.043Z" fill="white"/>
<path d="M40.0598 42.041H38.1868V43.9238H40.0598V42.041Z" fill="white"/>
<path d="M43.6967 42.043H41.8237V43.9257H43.6967V42.043Z" fill="white"/>
<path d="M47.3339 42.043H45.4609V43.9257H47.3339V42.043Z" fill="white"/>
<path d="M58.2446 42.043H56.3716V43.9257H58.2446V42.043Z" fill="white"/>
<path d="M63.6996 42.041H61.8267V43.9238H63.6996V42.041Z" fill="white"/>
<path d="M67.3364 42.041H65.4634V43.9238H67.3364V42.041Z" fill="white"/>
<path d="M69.155 42.041H67.282V43.9238H69.155V42.041Z" fill="white"/>
<path d="M70.9724 42.041H69.0994V43.9238H70.9724V42.041Z" fill="white"/>
<path d="M72.7917 42.041H70.9187V43.9238H72.7917V42.041Z" fill="white"/>
<path d="M1.87299 43.8711H0V45.7539H1.87299V43.8711Z" fill="white"/>
<path d="M3.6911 43.8711H1.81812V45.7539H3.6911V43.8711Z" fill="white"/>
<path d="M5.50995 43.8711H3.63696V45.7539H5.50995V43.8711Z" fill="white"/>
<path d="M7.32807 43.8711H5.45508V45.7539H7.32807V43.8711Z" fill="white"/>
<path d="M10.9653 43.8711H9.09229V45.7539H10.9653V43.8711Z" fill="white"/>
<path d="M12.7834 43.8711H10.9104V45.7539H12.7834V43.8711Z" fill="white"/>
<path d="M14.6017 43.8711H12.7288V45.7539H14.6017V43.8711Z" fill="white"/>
<path d="M16.4208 43.8711H14.5479V45.7539H16.4208V43.8711Z" fill="white"/>
<path d="M20.0571 43.8711H18.1841V45.7539H20.0571V43.8711Z" fill="white"/>
<path d="M23.6943 43.8711H21.8213V45.7539H23.6943V43.8711Z" fill="white"/>
<path d="M25.5126 43.8711H23.6396V45.7539H25.5126V43.8711Z" fill="white"/>
<path d="M27.3312 43.8711H25.4583V45.7539H27.3312V43.8711Z" fill="white"/>
<path d="M36.423 43.8711H34.55V45.7539H36.423V43.8711Z" fill="white"/>
<path d="M38.2416 43.8711H36.3687V45.7539H38.2416V43.8711Z" fill="white"/>
<path d="M41.8786 43.8711H40.0056V45.7539H41.8786V43.8711Z" fill="white"/>
<path d="M43.6967 43.8711H41.8237V45.7539H43.6967V43.8711Z" fill="white"/>
<path d="M45.5158 43.8711H43.6428V45.7539H45.5158V43.8711Z" fill="white"/>
<path d="M49.1525 43.8711H47.2795V45.7539H49.1525V43.8711Z" fill="white"/>
<path d="M54.6074 43.8711H52.7344V45.7539H54.6074V43.8711Z" fill="white"/>
<path d="M56.4265 43.8711H54.5535V45.7539H56.4265V43.8711Z" fill="white"/>
<path d="M60.0629 43.8711H58.1899V45.7539H60.0629V43.8711Z" fill="white"/>
<path d="M61.8808 43.8711H60.0078V45.7539H61.8808V43.8711Z" fill="white"/>
<path d="M63.6996 43.8711H61.8267V45.7539H63.6996V43.8711Z" fill="white"/>
<path d="M65.518 43.8711H63.645V45.7539H65.518V43.8711Z" fill="white"/>
<path d="M67.3364 43.8711H65.4634V45.7539H67.3364V43.8711Z" fill="white"/>
<path d="M69.155 43.8711H67.282V45.7539H69.155V43.8711Z" fill="white"/>
<path d="M70.9724 43.8711H69.0994V45.7539H70.9724V43.8711Z" fill="white"/>
<path d="M1.87299 45.6992H0V47.582H1.87299V45.6992Z" fill="white"/>
<path d="M3.6911 45.6992H1.81812V47.582H3.6911V45.6992Z" fill="white"/>
<path d="M5.50995 45.6992H3.63696V47.582H5.50995V45.6992Z" fill="white"/>
<path d="M7.32807 45.6992H5.45508V47.582H7.32807V45.6992Z" fill="white"/>
<path d="M14.6017 45.6992H12.7288V47.582H14.6017V45.6992Z" fill="white"/>
<path d="M16.4208 45.6992H14.5479V47.582H16.4208V45.6992Z" fill="white"/>
<path d="M18.2387 45.6992H16.3657V47.582H18.2387V45.6992Z" fill="white"/>
<path d="M25.5126 45.6992H23.6396V47.582H25.5126V45.6992Z" fill="white"/>
<path d="M27.3312 45.6992H25.4583V47.582H27.3312V45.6992Z" fill="white"/>
<path d="M34.6052 45.6992H32.7322V47.582H34.6052V45.6992Z" fill="white"/>
<path d="M40.0598 45.6973H38.1868V47.58H40.0598V45.6973Z" fill="white"/>
<path d="M41.8786 45.6992H40.0056V47.582H41.8786V45.6992Z" fill="white"/>
<path d="M43.6967 45.6992H41.8237V47.582H43.6967V45.6992Z" fill="white"/>
<path d="M45.5158 45.6992H43.6428V47.582H45.5158V45.6992Z" fill="white"/>
<path d="M50.9704 45.6973H49.0974V47.58H50.9704V45.6973Z" fill="white"/>
<path d="M58.2446 45.6992H56.3716V47.582H58.2446V45.6992Z" fill="white"/>
<path d="M60.0629 45.6992H58.1899V47.582H60.0629V45.6992Z" fill="white"/>
<path d="M69.155 45.6973H67.282V47.58H69.155V45.6973Z" fill="white"/>
<path d="M72.7917 45.6973H70.9187V47.58H72.7917V45.6973Z" fill="white"/>
<path d="M3.6911 47.5273H1.81812V49.4101H3.6911V47.5273Z" fill="white"/>
<path d="M5.50995 47.5273H3.63696V49.4101H5.50995V47.5273Z" fill="white"/>
<path d="M7.32807 47.5273H5.45508V49.4101H7.32807V47.5273Z" fill="white"/>
<path d="M9.14667 47.5273H7.27368V49.4101H9.14667V47.5273Z" fill="white"/>
<path d="M10.9653 47.5273H9.09229V49.4101H10.9653V47.5273Z" fill="white"/>
<path d="M12.7834 47.5273H10.9104V49.4101H12.7834V47.5273Z" fill="white"/>
<path d="M18.2387 47.5273H16.3657V49.4101H18.2387V47.5273Z" fill="white"/>
<path d="M20.0571 47.5273H18.1841V49.4101H20.0571V47.5273Z" fill="white"/>
<path d="M21.8754 47.5273H20.0024V49.4101H21.8754V47.5273Z" fill="white"/>
<path d="M23.6943 47.5273H21.8213V49.4101H23.6943V47.5273Z" fill="white"/>
<path d="M25.5126 47.5273H23.6396V49.4101H25.5126V47.5273Z" fill="white"/>
<path d="M29.1494 47.5273H27.2764V49.4101H29.1494V47.5273Z" fill="white"/>
<path d="M30.968 47.5273H29.095V49.4101H30.968V47.5273Z" fill="white"/>
<path d="M32.7858 47.5273H30.9128V49.4101H32.7858V47.5273Z" fill="white"/>
<path d="M41.8786 47.5273H40.0056V49.4101H41.8786V47.5273Z" fill="white"/>
<path d="M43.6967 47.5273H41.8237V49.4101H43.6967V47.5273Z" fill="white"/>
<path d="M45.5158 47.5273H43.6428V49.4101H45.5158V47.5273Z" fill="white"/>
<path d="M49.1525 47.5273H47.2795V49.4101H49.1525V47.5273Z" fill="white"/>
<path d="M50.9704 47.5254H49.0974V49.4082H50.9704V47.5254Z" fill="white"/>
<path d="M52.789 47.5254H50.916V49.4082H52.789V47.5254Z" fill="white"/>
<path d="M54.6074 47.5273H52.7344V49.4101H54.6074V47.5273Z" fill="white"/>
<path d="M56.4265 47.5273H54.5535V49.4101H56.4265V47.5273Z" fill="white"/>
<path d="M58.2446 47.5273H56.3716V49.4101H58.2446V47.5273Z" fill="white"/>
<path d="M60.0629 47.5273H58.1899V49.4101H60.0629V47.5273Z" fill="white"/>
<path d="M63.6996 47.5254H61.8267V49.4082H63.6996V47.5254Z" fill="white"/>
<path d="M74.6105 47.5254H72.7375V49.4082H74.6105V47.5254Z" fill="white"/>
<path d="M3.6911 49.3535H1.81812V51.2363H3.6911V49.3535Z" fill="white"/>
<path d="M7.32807 49.3535H5.45508V51.2363H7.32807V49.3535Z" fill="white"/>
<path d="M9.14667 49.3535H7.27368V51.2363H9.14667V49.3535Z" fill="white"/>
<path d="M20.0571 49.3535H18.1841V51.2363H20.0571V49.3535Z" fill="white"/>
<path d="M30.968 49.3535H29.095V51.2363H30.968V49.3535Z" fill="white"/>
<path d="M34.6047 49.3535H32.7317V51.2363H34.6047V49.3535Z" fill="white"/>
<path d="M38.2414 49.3535H36.3684V51.2363H38.2414V49.3535Z" fill="white"/>
<path d="M50.9704 49.3535H49.0974V51.2363H50.9704V49.3535Z" fill="white"/>
<path d="M54.6071 49.3535H52.7341V51.2363H54.6071V49.3535Z" fill="white"/>
<path d="M56.426 49.3535H54.553V51.2363H56.426V49.3535Z" fill="white"/>
<path d="M58.2443 49.3535H56.3713V51.2363H58.2443V49.3535Z" fill="white"/>
<path d="M60.0627 49.3535H58.1897V51.2363H60.0627V49.3535Z" fill="white"/>
<path d="M63.6996 49.3535H61.8267V51.2363H63.6996V49.3535Z" fill="white"/>
<path d="M67.3364 49.3535H65.4634V51.2363H67.3364V49.3535Z" fill="white"/>
<path d="M69.155 49.3535H67.282V51.2363H69.155V49.3535Z" fill="white"/>
<path d="M74.6105 49.3535H72.7375V51.2363H74.6105V49.3535Z" fill="white"/>
<path d="M7.32807 51.1816H5.45508V53.0644H7.32807V51.1816Z" fill="white"/>
<path d="M9.14667 51.1816H7.27368V53.0644H9.14667V51.1816Z" fill="white"/>
<path d="M10.9653 51.1816H9.09229V53.0644H10.9653V51.1816Z" fill="white"/>
<path d="M12.7834 51.1816H10.9104V53.0644H12.7834V51.1816Z" fill="white"/>
<path d="M16.4208 51.1816H14.5479V53.0644H16.4208V51.1816Z" fill="white"/>
<path d="M18.2387 51.1816H16.3657V53.0644H18.2387V51.1816Z" fill="white"/>
<path d="M20.0571 51.1816H18.1841V53.0644H20.0571V51.1816Z" fill="white"/>
<path d="M25.5126 51.1816H23.6396V53.0644H25.5126V51.1816Z" fill="white"/>
<path d="M29.1494 51.1816H27.2764V53.0644H29.1494V51.1816Z" fill="white"/>
<path d="M32.7856 51.1816H30.9126V53.0644H32.7856V51.1816Z" fill="white"/>
<path d="M43.6965 51.1816H41.8235V53.0644H43.6965V51.1816Z" fill="white"/>
<path d="M45.5156 51.1816H43.6426V53.0644H45.5156V51.1816Z" fill="white"/>
<path d="M47.3337 51.1816H45.4607V53.0644H47.3337V51.1816Z" fill="white"/>
<path d="M49.1523 51.1816H47.2793V53.0644H49.1523V51.1816Z" fill="white"/>
<path d="M50.9704 51.1816H49.0974V53.0644H50.9704V51.1816Z" fill="white"/>
<path d="M69.155 51.1816H67.282V53.0644H69.155V51.1816Z" fill="white"/>
<path d="M70.9724 51.1816H69.0994V53.0644H70.9724V51.1816Z" fill="white"/>
<path d="M72.7917 51.1816H70.9187V53.0644H72.7917V51.1816Z" fill="white"/>
<path d="M74.6105 51.1816H72.7375V53.0644H74.6105V51.1816Z" fill="white"/>
<path d="M1.87299 53.0098H0V54.8925H1.87299V53.0098Z" fill="white"/>
<path d="M5.50995 53.0098H3.63696V54.8925H5.50995V53.0098Z" fill="white"/>
<path d="M7.32807 53.0098H5.45508V54.8925H7.32807V53.0098Z" fill="white"/>
<path d="M10.9653 53.0098H9.09229V54.8925H10.9653V53.0098Z" fill="white"/>
<path d="M16.4208 53.0098H14.5479V54.8925H16.4208V53.0098Z" fill="white"/>
<path d="M29.1494 53.0098H27.2764V54.8925H29.1494V53.0098Z" fill="white"/>
<path d="M32.7858 53.0098H30.9128V54.8925H32.7858V53.0098Z" fill="white"/>
<path d="M36.423 53.0098H34.55V54.8925H36.423V53.0098Z" fill="white"/>
<path d="M47.3339 53.0098H45.4609V54.8925H47.3339V53.0098Z" fill="white"/>
<path d="M56.4265 53.0098H54.5535V54.8925H56.4265V53.0098Z" fill="white"/>
<path d="M58.2446 53.0098H56.3716V54.8925H58.2446V53.0098Z" fill="white"/>
<path d="M61.8808 53.0098H60.0078V54.8925H61.8808V53.0098Z" fill="white"/>
<path d="M63.6996 53.0098H61.8267V54.8925H63.6996V53.0098Z" fill="white"/>
<path d="M65.518 53.0098H63.645V54.8925H65.518V53.0098Z" fill="white"/>
<path d="M67.3364 53.0098H65.4634V54.8925H67.3364V53.0098Z" fill="white"/>
<path d="M74.6105 53.0098H72.7375V54.8925H74.6105V53.0098Z" fill="white"/>
<path d="M1.87299 54.8379H0V56.7207H1.87299V54.8379Z" fill="white"/>
<path d="M5.50995 54.8379H3.63696V56.7207H5.50995V54.8379Z" fill="white"/>
<path d="M12.7834 54.8379H10.9104V56.7207H12.7834V54.8379Z" fill="white"/>
<path d="M16.4208 54.8379H14.5479V56.7207H16.4208V54.8379Z" fill="white"/>
<path d="M20.0571 54.8379H18.1841V56.7207H20.0571V54.8379Z" fill="white"/>
<path d="M32.7858 54.8379H30.9128V56.7207H32.7858V54.8379Z" fill="white"/>
<path d="M36.423 54.8379H34.55V56.7207H36.423V54.8379Z" fill="white"/>
<path d="M38.2416 54.8379H36.3687V56.7207H38.2416V54.8379Z" fill="white"/>
<path d="M40.0598 54.8379H38.1868V56.7207H40.0598V54.8379Z" fill="white"/>
<path d="M41.8786 54.8379H40.0056V56.7207H41.8786V54.8379Z" fill="white"/>
<path d="M47.3339 54.8379H45.4609V56.7207H47.3339V54.8379Z" fill="white"/>
<path d="M52.789 54.8379H50.916V56.7207H52.789V54.8379Z" fill="white"/>
<path d="M56.4265 54.8379H54.5535V56.7207H56.4265V54.8379Z" fill="white"/>
<path d="M58.2446 54.8379H56.3716V56.7207H58.2446V54.8379Z" fill="white"/>
<path d="M69.155 54.8379H67.282V56.7207H69.155V54.8379Z" fill="white"/>
<path d="M70.9724 54.8379H69.0994V56.7207H70.9724V54.8379Z" fill="white"/>
<path d="M72.7917 54.8379H70.9187V56.7207H72.7917V54.8379Z" fill="white"/>
<path d="M1.87299 56.666H0V58.5488H1.87299V56.666Z" fill="white"/>
<path d="M5.50995 56.666H3.63696V58.5488H5.50995V56.666Z" fill="white"/>
<path d="M7.32807 56.666H5.45508V58.5488H7.32807V56.666Z" fill="white"/>
<path d="M14.6017 56.666H12.7288V58.5488H14.6017V56.666Z" fill="white"/>
<path d="M20.0571 56.666H18.1841V58.5488H20.0571V56.666Z" fill="white"/>
<path d="M27.3312 56.666H25.4583V58.5488H27.3312V56.666Z" fill="white"/>
<path d="M34.6052 56.666H32.7322V58.5488H34.6052V56.666Z" fill="white"/>
<path d="M38.2416 56.666H36.3687V58.5488H38.2416V56.666Z" fill="white"/>
<path d="M41.8786 56.666H40.0056V58.5488H41.8786V56.666Z" fill="white"/>
<path d="M43.6967 56.666H41.8237V58.5488H43.6967V56.666Z" fill="white"/>
<path d="M47.3339 56.666H45.4609V58.5488H47.3339V56.666Z" fill="white"/>
<path d="M49.1525 56.666H47.2795V58.5488H49.1525V56.666Z" fill="white"/>
<path d="M50.9704 56.666H49.0974V58.5488H50.9704V56.666Z" fill="white"/>
<path d="M54.6074 56.666H52.7344V58.5488H54.6074V56.666Z" fill="white"/>
<path d="M58.2446 56.666H56.3716V58.5488H58.2446V56.666Z" fill="white"/>
<path d="M63.6996 56.666H61.8267V58.5488H63.6996V56.666Z" fill="white"/>
<path d="M67.3364 56.666H65.4634V58.5488H67.3364V56.666Z" fill="white"/>
<path d="M70.9724 56.666H69.0994V58.5488H70.9724V56.666Z" fill="white"/>
<path d="M74.6105 56.666H72.7375V58.5488H74.6105V56.666Z" fill="white"/>
<path d="M1.87299 58.4941H0V60.3769H1.87299V58.4941Z" fill="white"/>
<path d="M5.50995 58.4941H3.63696V60.3769H5.50995V58.4941Z" fill="white"/>
<path d="M9.14667 58.4941H7.27368V60.3769H9.14667V58.4941Z" fill="white"/>
<path d="M10.9653 58.4941H9.09229V60.3769H10.9653V58.4941Z" fill="white"/>
<path d="M12.7834 58.4941H10.9104V60.3769H12.7834V58.4941Z" fill="white"/>
<path d="M14.6017 58.4941H12.7288V60.3769H14.6017V58.4941Z" fill="white"/>
<path d="M16.4208 58.4941H14.5479V60.3769H16.4208V58.4941Z" fill="white"/>
<path d="M21.8754 58.4941H20.0024V60.3769H21.8754V58.4941Z" fill="white"/>
<path d="M23.6943 58.4941H21.8213V60.3769H23.6943V58.4941Z" fill="white"/>
<path d="M27.3312 58.4941H25.4583V60.3769H27.3312V58.4941Z" fill="white"/>
<path d="M29.1494 58.4941H27.2764V60.3769H29.1494V58.4941Z" fill="white"/>
<path d="M32.7858 58.4941H30.9128V60.3769H32.7858V58.4941Z" fill="white"/>
<path d="M34.6052 58.4941H32.7322V60.3769H34.6052V58.4941Z" fill="white"/>
<path d="M38.2416 58.4941H36.3687V60.3769H38.2416V58.4941Z" fill="white"/>
<path d="M40.0598 58.4941H38.1868V60.3769H40.0598V58.4941Z" fill="white"/>
<path d="M41.8786 58.4941H40.0056V60.3769H41.8786V58.4941Z" fill="white"/>
<path d="M49.1525 58.4941H47.2795V60.3769H49.1525V58.4941Z" fill="white"/>
<path d="M50.9704 58.4941H49.0974V60.3769H50.9704V58.4941Z" fill="white"/>
<path d="M60.0629 58.4941H58.1899V60.3769H60.0629V58.4941Z" fill="white"/>
<path d="M61.8808 58.4941H60.0078V60.3769H61.8808V58.4941Z" fill="white"/>
<path d="M63.6996 58.4941H61.8267V60.3769H63.6996V58.4941Z" fill="white"/>
<path d="M65.518 58.4941H63.645V60.3769H65.518V58.4941Z" fill="white"/>
<path d="M67.3364 58.4941H65.4634V60.3769H67.3364V58.4941Z" fill="white"/>
<path d="M69.155 58.4941H67.282V60.3769H69.155V58.4941Z" fill="white"/>
<path d="M70.9724 58.4941H69.0994V60.3769H70.9724V58.4941Z" fill="white"/>
<path d="M72.7917 58.4941H70.9187V60.3769H72.7917V58.4941Z" fill="white"/>
<path d="M16.4208 60.3203H14.5479V62.2031H16.4208V60.3203Z" fill="white"/>
<path d="M18.2387 60.3203H16.3657V62.2031H18.2387V60.3203Z" fill="white"/>
<path d="M29.1494 60.3203H27.2764V62.2031H29.1494V60.3203Z" fill="white"/>
<path d="M32.7856 60.3203H30.9126V62.2031H32.7856V60.3203Z" fill="white"/>
<path d="M38.2414 60.3203H36.3684V62.2031H38.2414V60.3203Z" fill="white"/>
<path d="M41.8784 60.3203H40.0054V62.2031H41.8784V60.3203Z" fill="white"/>
<path d="M45.5156 60.3203H43.6426V62.2031H45.5156V60.3203Z" fill="white"/>
<path d="M52.789 60.3203H50.916V62.2031H52.789V60.3203Z" fill="white"/>
<path d="M56.426 60.3203H54.553V62.2031H56.426V60.3203Z" fill="white"/>
<path d="M58.2443 60.3203H56.3713V62.2031H58.2443V60.3203Z" fill="white"/>
<path d="M60.0627 60.3203H58.1897V62.2031H60.0627V60.3203Z" fill="white"/>
<path d="M67.3364 60.3203H65.4634V62.2031H67.3364V60.3203Z" fill="white"/>
<path d="M74.6105 60.3203H72.7375V62.2031H74.6105V60.3203Z" fill="white"/>
<path d="M18.2387 62.1504H16.3657V64.0332H18.2387V62.1504Z" fill="white"/>
<path d="M20.0571 62.1504H18.1841V64.0332H20.0571V62.1504Z" fill="white"/>
<path d="M21.8754 62.1504H20.0024V64.0332H21.8754V62.1504Z" fill="white"/>
<path d="M23.6943 62.1504H21.8213V64.0332H23.6943V62.1504Z" fill="white"/>
<path d="M25.5126 62.1504H23.6396V64.0332H25.5126V62.1504Z" fill="white"/>
<path d="M27.3312 62.1504H25.4583V64.0332H27.3312V62.1504Z" fill="white"/>
<path d="M36.4228 62.1504H34.5498V64.0332H36.4228V62.1504Z" fill="white"/>
<path d="M38.2414 62.1504H36.3684V64.0332H38.2414V62.1504Z" fill="white"/>
<path d="M40.0598 62.1504H38.1868V64.0332H40.0598V62.1504Z" fill="white"/>
<path d="M45.5156 62.1504H43.6426V64.0332H45.5156V62.1504Z" fill="white"/>
<path d="M49.1523 62.1504H47.2793V64.0332H49.1523V62.1504Z" fill="white"/>
<path d="M50.9704 62.1504H49.0974V64.0332H50.9704V62.1504Z" fill="white"/>
<path d="M52.789 62.1504H50.916V64.0332H52.789V62.1504Z" fill="white"/>
<path d="M54.6071 62.1504H52.7341V64.0332H54.6071V62.1504Z" fill="white"/>
<path d="M56.426 62.1504H54.553V64.0332H56.426V62.1504Z" fill="white"/>
<path d="M58.2443 62.1504H56.3713V64.0332H58.2443V62.1504Z" fill="white"/>
<path d="M60.0627 62.1504H58.1897V64.0332H60.0627V62.1504Z" fill="white"/>
<path d="M63.6996 62.1504H61.8267V64.0332H63.6996V62.1504Z" fill="white"/>
<path d="M67.3364 62.1504H65.4634V64.0332H67.3364V62.1504Z" fill="white"/>
<path d="M69.155 62.1504H67.282V64.0332H69.155V62.1504Z" fill="white"/>
<path d="M70.9724 62.1504H69.0994V64.0332H70.9724V62.1504Z" fill="white"/>
<path d="M72.7917 62.1504H70.9187V64.0332H72.7917V62.1504Z" fill="white"/>
<path d="M20.0571 63.9766H18.1841V65.8593H20.0571V63.9766Z" fill="white"/>
<path d="M23.6943 63.9766H21.8213V65.8593H23.6943V63.9766Z" fill="white"/>
<path d="M25.5126 63.9766H23.6396V65.8593H25.5126V63.9766Z" fill="white"/>
<path d="M29.1494 63.9766H27.2764V65.8593H29.1494V63.9766Z" fill="white"/>
<path d="M36.4228 63.9766H34.5498V65.8593H36.4228V63.9766Z" fill="white"/>
<path d="M43.6965 63.9766H41.8235V65.8593H43.6965V63.9766Z" fill="white"/>
<path d="M47.3337 63.9766H45.4607V65.8593H47.3337V63.9766Z" fill="white"/>
<path d="M49.1523 63.9766H47.2793V65.8593H49.1523V63.9766Z" fill="white"/>
<path d="M54.6071 63.9766H52.7341V65.8593H54.6071V63.9766Z" fill="white"/>
<path d="M56.426 63.9766H54.553V65.8593H56.426V63.9766Z" fill="white"/>
<path d="M58.2443 63.9766H56.3713V65.8593H58.2443V63.9766Z" fill="white"/>
<path d="M60.0627 63.9766H58.1897V65.8593H60.0627V63.9766Z" fill="white"/>
<path d="M67.3364 63.9766H65.4634V65.8593H67.3364V63.9766Z" fill="white"/>
<path d="M70.9724 63.9766H69.0994V65.8593H70.9724V63.9766Z" fill="white"/>
<path d="M72.7917 63.9766H70.9187V65.8593H72.7917V63.9766Z" fill="white"/>
<path d="M74.6105 63.9766H72.7375V65.8593H74.6105V63.9766Z" fill="white"/>
<path d="M16.4206 65.8047H14.5476V67.6875H16.4206V65.8047Z" fill="white"/>
<path d="M18.2387 65.8047H16.3657V67.6875H18.2387V65.8047Z" fill="white"/>
<path d="M20.0571 65.8047H18.1841V67.6875H20.0571V65.8047Z" fill="white"/>
<path d="M23.6943 65.8047H21.8213V67.6875H23.6943V65.8047Z" fill="white"/>
<path d="M34.6047 65.8047H32.7317V67.6875H34.6047V65.8047Z" fill="white"/>
<path d="M40.0598 65.8047H38.1868V67.6875H40.0598V65.8047Z" fill="white"/>
<path d="M41.8786 65.8047H40.0056V67.6875H41.8786V65.8047Z" fill="white"/>
<path d="M50.9704 65.8047H49.0974V67.6875H50.9704V65.8047Z" fill="white"/>
<path d="M52.789 65.8047H50.916V67.6875H52.789V65.8047Z" fill="white"/>
<path d="M56.426 65.8047H54.553V67.6875H56.426V65.8047Z" fill="white"/>
<path d="M60.0627 65.8047H58.1897V67.6875H60.0627V65.8047Z" fill="white"/>
<path d="M61.8808 65.8047H60.0078V67.6875H61.8808V65.8047Z" fill="white"/>
<path d="M63.6996 65.8047H61.8267V67.6875H63.6996V65.8047Z" fill="white"/>
<path d="M65.518 65.8047H63.645V67.6875H65.518V65.8047Z" fill="white"/>
<path d="M67.3364 65.8047H65.4634V67.6875H67.3364V65.8047Z" fill="white"/>
<path d="M69.155 65.8047H67.282V67.6875H69.155V65.8047Z" fill="white"/>
<path d="M72.7917 65.8047H70.9187V67.6875H72.7917V65.8047Z" fill="white"/>
<path d="M16.4206 67.6328H14.5476V69.5156H16.4206V67.6328Z" fill="white"/>
<path d="M20.0571 67.6328H18.1841V69.5156H20.0571V67.6328Z" fill="white"/>
<path d="M32.7858 67.6328H30.9128V69.5156H32.7858V67.6328Z" fill="white"/>
<path d="M34.6047 67.6328H32.7317V69.5156H34.6047V67.6328Z" fill="white"/>
<path d="M50.9704 67.6328H49.0974V69.5156H50.9704V67.6328Z" fill="white"/>
<path d="M52.789 67.6328H50.916V69.5156H52.789V67.6328Z" fill="white"/>
<path d="M60.0627 67.6328H58.1897V69.5156H60.0627V67.6328Z" fill="white"/>
<path d="M63.6996 67.6328H61.8267V69.5156H63.6996V67.6328Z" fill="white"/>
<path d="M65.518 67.6328H63.645V69.5156H65.518V67.6328Z" fill="white"/>
<path d="M72.7917 67.6328H70.9187V69.5156H72.7917V67.6328Z" fill="white"/>
<path d="M16.4208 69.4609H14.5479V71.3437H16.4208V69.4609Z" fill="white"/>
<path d="M18.2387 69.4609H16.3657V71.3437H18.2387V69.4609Z" fill="white"/>
<path d="M25.5126 69.4609H23.6396V71.3437H25.5126V69.4609Z" fill="white"/>
<path d="M30.968 69.4609H29.095V71.3437H30.968V69.4609Z" fill="white"/>
<path d="M36.4228 69.4609H34.5498V71.3437H36.4228V69.4609Z" fill="white"/>
<path d="M38.2414 69.4609H36.3684V71.3437H38.2414V69.4609Z" fill="white"/>
<path d="M41.8784 69.4609H40.0054V71.3437H41.8784V69.4609Z" fill="white"/>
<path d="M43.6965 69.4609H41.8235V71.3437H43.6965V69.4609Z" fill="white"/>
<path d="M47.3337 69.4609H45.4607V71.3437H47.3337V69.4609Z" fill="white"/>
<path d="M49.1523 69.4609H47.2793V71.3437H49.1523V69.4609Z" fill="white"/>
<path d="M50.9704 69.4609H49.0974V71.3437H50.9704V69.4609Z" fill="white"/>
<path d="M52.789 69.4609H50.916V71.3437H52.789V69.4609Z" fill="white"/>
<path d="M60.0627 69.4609H58.1897V71.3437H60.0627V69.4609Z" fill="white"/>
<path d="M61.8808 69.4609H60.0078V71.3437H61.8808V69.4609Z" fill="white"/>
<path d="M63.6996 69.4609H61.8267V71.3437H63.6996V69.4609Z" fill="white"/>
<path d="M65.518 69.4609H63.645V71.3437H65.518V69.4609Z" fill="white"/>
<path d="M67.3364 69.4609H65.4634V71.3437H67.3364V69.4609Z" fill="white"/>
<path d="M70.9724 69.4609H69.0994V71.3437H70.9724V69.4609Z" fill="white"/>
<path d="M72.7917 69.4609H70.9187V71.3437H72.7917V69.4609Z" fill="white"/>
<path d="M18.2387 71.2891H16.3657V73.1718H18.2387V71.2891Z" fill="white"/>
<path d="M20.0571 71.2891H18.1841V73.1718H20.0571V71.2891Z" fill="white"/>
<path d="M21.8754 71.2891H20.0024V73.1718H21.8754V71.2891Z" fill="white"/>
<path d="M25.5126 71.2891H23.6396V73.1718H25.5126V71.2891Z" fill="white"/>
<path d="M27.3312 71.2891H25.4583V73.1718H27.3312V71.2891Z" fill="white"/>
<path d="M29.1494 71.2891H27.2764V73.1718H29.1494V71.2891Z" fill="white"/>
<path d="M30.968 71.2891H29.095V73.1718H30.968V71.2891Z" fill="white"/>
<path d="M32.7856 71.2891H30.9126V73.1718H32.7856V71.2891Z" fill="white"/>
<path d="M36.4228 71.2891H34.5498V73.1718H36.4228V71.2891Z" fill="white"/>
<path d="M40.0598 71.2891H38.1868V73.1718H40.0598V71.2891Z" fill="white"/>
<path d="M41.8784 71.2891H40.0054V73.1718H41.8784V71.2891Z" fill="white"/>
<path d="M45.5156 71.2891H43.6426V73.1718H45.5156V71.2891Z" fill="white"/>
<path d="M47.3337 71.2891H45.4607V73.1718H47.3337V71.2891Z" fill="white"/>
<path d="M61.8808 71.2891H60.0078V73.1718H61.8808V71.2891Z" fill="white"/>
<path d="M67.3364 71.2891H65.4634V73.1718H67.3364V71.2891Z" fill="white"/>
<path d="M69.155 71.2891H67.282V73.1718H69.155V71.2891Z" fill="white"/>
<path d="M72.7917 71.2891H70.9187V73.1718H72.7917V71.2891Z" fill="white"/>
<path d="M18.2387 73.1172H16.3657V75H18.2387V73.1172Z" fill="white"/>
<path d="M20.0571 73.1172H18.1841V75H20.0571V73.1172Z" fill="white"/>
<path d="M23.6943 73.1172H21.8213V75H23.6943V73.1172Z" fill="white"/>
<path d="M29.1494 73.1172H27.2764V75H29.1494V73.1172Z" fill="white"/>
<path d="M36.4228 73.1172H34.5498V75H36.4228V73.1172Z" fill="white"/>
<path d="M38.2414 73.1172H36.3684V75H38.2414V73.1172Z" fill="white"/>
<path d="M40.0598 73.1172H38.1868V75H40.0598V73.1172Z" fill="white"/>
<path d="M45.5156 73.1172H43.6426V75H45.5156V73.1172Z" fill="white"/>
<path d="M49.1523 73.1172H47.2793V75H49.1523V73.1172Z" fill="white"/>
<path d="M50.9704 73.1172H49.0974V75H50.9704V73.1172Z" fill="white"/>
<path d="M54.6071 73.1172H52.7341V75H54.6071V73.1172Z" fill="white"/>
<path d="M56.426 73.1172H54.553V75H56.426V73.1172Z" fill="white"/>
<path d="M60.0627 73.1172H58.1897V75H60.0627V73.1172Z" fill="white"/>
<path d="M61.8808 73.1172H60.0078V75H61.8808V73.1172Z" fill="white"/>
<path d="M63.6996 73.1172H61.8267V75H63.6996V73.1172Z" fill="white"/>
<path d="M65.518 73.1172H63.645V75H65.518V73.1172Z" fill="white"/>
<path d="M67.3364 73.1172H65.4634V75H67.3364V73.1172Z" fill="white"/>
<path d="M69.155 73.1172H67.282V75H69.155V73.1172Z" fill="white"/>
<path d="M0 0V12.7955H12.7291V0H0ZM10.9106 10.9676H1.81844V1.82793H10.9106V10.9676Z" fill="white"/>
<path d="M61.8267 0V12.7955H74.5557V0H61.8267ZM72.7373 10.9676H63.6451V1.82793H72.7373V10.9676Z" fill="white"/>
<path d="M0 62.1504V74.9459H12.7291V62.1504H0ZM10.9106 73.118H1.81844V63.9783H10.9106V73.118Z" fill="white"/>
<path d="M9.09227 3.65625H3.63696V9.14005H9.09227V3.65625Z" fill="white"/>
<path d="M70.9187 3.65625H65.4634V9.14005H70.9187V3.65625Z" fill="white"/>
<path d="M9.09227 65.8047H3.63696V71.2885H9.09227V65.8047Z" fill="white"/>
</svg>
