<svg width="22" height="23" viewBox="0 0 22 23" fill="none" xmlns="http://www.w3.org/2000/svg">
<circle cx="11" cy="11.5" r="11" fill="black"/>
<path d="M12.65 10.6742H9.625V7.31922C9.625 7.21255 9.62511 7.14906 9.62643 7.1012C9.6272 7.07083 9.62841 7.05763 9.62863 7.05445C9.64788 6.9382 9.73896 6.84707 9.85523 6.82789C9.85842 6.82757 9.87162 6.82643 9.90198 6.8256C9.94983 6.8243 10.0133 6.82422 10.12 6.82422H12.65C13.7132 6.82422 14.575 7.68607 14.575 8.74922C14.575 9.81237 13.7132 10.6742 12.65 10.6742Z" fill="white"/>
<path fill-rule="evenodd" clip-rule="evenodd" d="M22 11.5C22 17.5751 17.0751 22.5 11 22.5C4.92487 22.5 0 17.5751 0 11.5C0 5.42487 4.92487 0.5 11 0.5C17.0751 0.5 22 5.42487 22 11.5ZM6.875 13.7C6.875 13.2444 7.24437 12.875 7.7 12.875H7.975V12.325H7.7C7.24437 12.325 6.875 11.9556 6.875 11.5C6.875 11.0444 7.24437 10.675 7.7 10.675H7.975L7.97497 7.27766C7.97477 7.11758 7.97457 6.95118 7.99871 6.79886C8.12917 5.97517 8.77517 5.32917 9.59882 5.19871C9.75117 5.17457 9.9176 5.17477 10.0777 5.17497L12.65 5.175C14.6244 5.175 16.225 6.77558 16.225 8.75C16.225 10.7244 14.6244 12.325 12.65 12.325H9.625V12.875H11C11.4556 12.875 11.825 13.2444 11.825 13.7C11.825 14.1556 11.4556 14.525 11 14.525H9.625V17C9.625 17.4556 9.25562 17.825 8.8 17.825C8.34437 17.825 7.975 17.4556 7.975 17V14.525H7.7C7.24437 14.525 6.875 14.1556 6.875 13.7Z" fill="white"/>
</svg>
