<svg width="50" height="50" viewBox="0 0 50 50" fill="none" xmlns="http://www.w3.org/2000/svg">
<path d="M44.1406 0H14.6484C11.4176 0 8.78906 2.62852 8.78906 5.85938V41.2109H0V44.1406C0 47.3715 2.62852 50 5.85938 50H35.3516C38.5824 50 41.2109 47.3715 41.2109 44.1406V8.78906H50V5.85938C50 2.62852 47.3715 0 44.1406 0ZM5.85938 47.0703C4.24395 47.0703 2.92969 45.7561 2.92969 44.1406H29.4922C29.4922 45.207 29.7786 46.208 30.2785 47.0703H5.85938ZM38.2812 44.1406C38.2812 45.7561 36.967 47.0703 35.3516 47.0703C33.7361 47.0703 32.4219 45.7561 32.4219 44.1406V41.2109H11.7188V5.85938C11.7188 4.24395 13.033 2.92969 14.6484 2.92969H39.0695C38.5692 3.79229 38.2812 4.79248 38.2812 5.85938V44.1406ZM41.2109 5.85938C41.2109 4.24395 42.5252 2.92969 44.1406 2.92969C45.7561 2.92969 47.0703 4.24395 47.0703 5.85938H41.2109Z" fill="white"/>
<path d="M17.5781 8.88672H32.4219V11.8164H17.5781V8.88672Z" fill="white"/>
<path d="M17.5781 14.7461H32.4219V17.6758H17.5781V14.7461Z" fill="white"/>
<path d="M17.5781 20.6055H32.4219V23.5352H17.5781V20.6055Z" fill="white"/>
<path d="M17.5781 26.4648H32.4219V29.3945H17.5781V26.4648Z" fill="white"/>
<path d="M17.5781 32.3242H32.4219V35.2539H17.5781V32.3242Z" fill="white"/>
</svg>
