<svg width="20" height="20" viewBox="0 0 20 20" fill="none" xmlns="http://www.w3.org/2000/svg">
<path fill-rule="evenodd" clip-rule="evenodd" d="M10.009 20C15.5319 20 20.009 15.5228 20.009 10C20.009 4.47715 15.5319 0 10.009 0C4.48619 0 0.0090332 4.47715 0.0090332 10C0.0090332 15.5228 4.48619 20 10.009 20ZM7.1906 11.5893C7.83414 12.4421 8.93682 13.0864 10.0222 13.0864C11.1076 13.0864 12.1613 12.433 12.8041 11.5697C16.2762 11.5697 16.0339 16 16.0339 16H4.00977C4.00977 16 4.1031 11.5893 7.1906 11.5893ZM12.3635 9.0343C11.9502 10.2193 11.0563 11.4945 10.0196 11.4945C8.97175 11.4945 8.06863 10.1872 7.66214 8.9901C7.72255 8.92892 7.75703 8.85834 7.75703 8.78329V6.71041C7.75703 6.70303 7.75598 6.69582 7.75421 6.68872C8.19505 5.9807 9.04435 5.50085 10.0196 5.50085C10.9893 5.50136 11.8341 5.97495 12.2775 6.67499C12.2732 6.68422 12.2694 6.69352 12.2694 6.70363V8.82394C12.2694 8.9003 12.3035 8.97205 12.3635 9.0343ZM12.3635 9.0343C12.491 9.16655 12.7351 9.25597 13.016 9.25597C13.0205 9.25597 13.0245 9.25522 13.0284 9.25447C13.0324 9.25372 13.0363 9.25296 13.0409 9.25296V10.0275H12.3002V10.7576H13.7702L13.7627 6.70363C13.7627 6.46578 13.4315 6.27385 13.0205 6.27235V5.78235L13.0205 5.78036C13.0208 5.68299 13.025 4 10.0286 4C7.03374 4 7.03798 5.68298 7.03822 5.78036C7.03822 5.78112 7.03822 5.78178 7.03822 5.78235V6.28966C7.03436 6.28966 7.0309 6.28906 7.02752 6.28848C7.02432 6.28793 7.0212 6.2874 7.0179 6.2874C6.6092 6.2874 6.28027 6.47632 6.28027 6.71041V8.78329C6.28027 9.01587 6.60995 9.20555 7.0179 9.20555C7.29422 9.20555 7.53532 9.11853 7.66214 8.9901C7.51472 8.55597 7.43262 8.13633 7.43262 7.79879C7.43262 7.39631 7.54928 7.01786 7.75421 6.68872C7.75042 6.67349 7.74333 6.65878 7.73628 6.64415C7.73218 6.63563 7.72809 6.62713 7.72467 6.61858V6.05331C7.72467 6.05122 7.72432 6.04711 7.7238 6.04114C7.71163 5.89934 7.60963 4.71128 10.0286 4.71128C12.4355 4.71128 12.3062 5.88681 12.2895 6.0388C12.2887 6.04604 12.2882 6.05095 12.2882 6.05331V6.64869C12.2863 6.65637 12.2829 6.66368 12.2794 6.67097C12.2788 6.67231 12.2781 6.67365 12.2775 6.67499C12.488 7.00735 12.6081 7.39074 12.6081 7.79879C12.6081 8.14789 12.5204 8.58461 12.3635 9.0343Z" fill="#9C9C9C"/>
</svg>
