<svg width="20" height="20" viewBox="0 0 20 20" fill="none" xmlns="http://www.w3.org/2000/svg">
<path d="M20.009 3.81295C20.009 7.94065 20.009 12.0683 20.009 16.1915C20 16.268 19.9865 16.3444 19.982 16.4209C19.955 16.839 19.9146 17.2617 19.7527 17.6439C19.1906 18.9703 18.2104 19.7752 16.7536 19.9415C16.5692 19.964 16.3804 19.982 16.196 20C12.0683 20 7.94065 20 3.81745 20C3.75 19.973 3.67356 19.9775 3.60162 19.973C3.20144 19.9505 2.79227 19.9146 2.42356 19.7617C1.05216 19.2176 0.22482 18.2284 0.0584534 16.7356C0.0359714 16.5558 0.0179856 16.3759 0 16.1915C0 12.0638 0 7.93615 0 3.81295C0.00899281 3.73651 0.0224823 3.66007 0.0269787 3.58363C0.0674463 3.03957 0.134892 2.5 0.404676 2.01439C1.03867 0.872302 1.97842 0.17536 3.30486 0.0539567C3.47572 0.0404675 3.64658 0.0179856 3.81745 0C7.94514 0 12.0728 0 16.196 0C16.2635 0.0269784 16.3399 0.0224816 16.4119 0.026978C16.812 0.04946 17.2212 0.0854311 17.5899 0.238309C18.9568 0.791366 19.7842 1.78057 19.9505 3.27338C19.9685 3.45324 19.991 3.63309 20.009 3.81295ZM9.68975 6.25899C8.30935 6.25899 6.92896 6.25899 5.54856 6.25899C5.32824 6.25899 5.32374 6.26349 5.32374 6.48831C5.32374 6.94245 5.32374 7.39658 5.32374 7.84622C5.32374 8.04856 5.33723 8.05755 5.53507 8.06205C6.36691 8.06205 7.20324 8.06205 8.03507 8.06205C8.30935 8.06205 8.31385 8.06205 8.31385 8.34083C8.31385 9.7482 8.31385 11.1556 8.31385 12.5629C8.31385 12.7833 8.32734 12.9991 8.3678 13.2149C8.52968 14.1412 9.02428 14.6763 9.94604 14.8606C10.8453 15.0405 11.7491 15.0225 12.6484 14.8696C12.7923 14.8426 12.8462 14.7752 12.8417 14.6268C12.8327 14.1906 12.8417 13.75 12.8372 13.3138C12.8372 13.1205 12.8282 13.1115 12.6304 13.143C12.2842 13.2014 11.9335 13.2149 11.5872 13.152C11.1061 13.062 10.9038 12.8192 10.8768 12.3246C10.8723 12.2797 10.8768 12.2302 10.8768 12.1853C10.8768 10.8993 10.8768 9.61331 10.8768 8.32284C10.8768 8.06655 10.8813 8.05755 11.1376 8.05755C12.0459 8.05755 12.9496 8.05306 13.8579 8.05755C14.0063 8.05755 14.0603 8.0036 14.0558 7.85521C14.0513 7.39658 14.0558 6.93795 14.0513 6.47932C14.0513 6.2545 14.0468 6.25 13.8264 6.25C12.4505 6.25899 11.0701 6.25899 9.68975 6.25899Z" fill="#A2A2A2"/>
</svg>
