<svg width="15" height="15" viewBox="0 0 15 15" fill="none" xmlns="http://www.w3.org/2000/svg">
<path fill-rule="evenodd" clip-rule="evenodd" d="M7.5 15C11.6421 15 15 11.6421 15 7.5C15 3.35786 11.6421 0 7.5 0C3.35786 0 0 3.35786 0 7.5C0 11.6421 3.35786 15 7.5 15ZM7.15446 7.96752C7.07446 8.15419 7.03446 8.37086 7.03446 8.61753H8.30446C8.30446 8.41753 8.34446 8.24419 8.42446 8.09752C8.50446 7.95086 8.60779 7.81419 8.73446 7.68752C8.86779 7.56086 9.00779 7.43419 9.15446 7.30752C9.30112 7.17419 9.43779 7.03419 9.56446 6.88752C9.69779 6.73419 9.80446 6.55752 9.88446 6.35752C9.97112 6.15752 10.0145 5.92419 10.0145 5.65753C10.0145 5.27086 9.91112 4.94419 9.70446 4.67752C9.49779 4.40419 9.21112 4.19752 8.84446 4.05752C8.47779 3.91086 8.05112 3.83752 7.56446 3.83752C6.94446 3.83752 6.40779 3.94752 5.95446 4.16752C5.50112 4.38086 5.13446 4.67752 4.85446 5.05752L5.82446 5.68752C6.00446 5.44086 6.22779 5.25086 6.49446 5.11752C6.76779 4.98419 7.08779 4.91752 7.45446 4.91752C7.83446 4.91752 8.13779 5.00419 8.36446 5.17752C8.59112 5.35086 8.70446 5.57752 8.70446 5.85752C8.70446 6.02419 8.66446 6.17419 8.58446 6.30752C8.50446 6.44086 8.40112 6.56752 8.27446 6.68752C8.14779 6.80753 8.01112 6.93086 7.86446 7.05753C7.72446 7.18419 7.59112 7.32086 7.46446 7.46753C7.33779 7.61419 7.23446 7.78086 7.15446 7.96752ZM7.09446 10.7775C7.24779 10.9309 7.44112 11.0075 7.67446 11.0075C7.90779 11.0075 8.09779 10.9309 8.24446 10.7775C8.39112 10.6242 8.46446 10.4409 8.46446 10.2275C8.46446 10.0142 8.39112 9.83419 8.24446 9.68753C8.09779 9.53419 7.90779 9.45753 7.67446 9.45753C7.44112 9.45753 7.24779 9.53419 7.09446 9.68753C6.94779 9.83419 6.87446 10.0142 6.87446 10.2275C6.87446 10.4409 6.94779 10.6242 7.09446 10.7775Z" fill="#A2A2A2"/>
</svg>
