<svg width="26" height="25" viewBox="0 0 26 25" fill="none" xmlns="http://www.w3.org/2000/svg">
<path fill-rule="evenodd" clip-rule="evenodd" d="M25.5 12.5C25.5 19.4036 19.9036 25 13 25C6.09644 25 0.5 19.4036 0.5 12.5C0.5 5.59644 6.09644 0 13 0C19.9036 0 25.5 5.59644 25.5 12.5ZM12.7961 15.5549L11.7354 14.4942L9.2379 11.9967C9.12807 11.8869 9.03884 11.7643 8.97019 11.6336C8.94535 11.5613 8.91513 11.4915 8.88002 11.4247C8.69959 10.8996 8.81889 10.2944 9.2379 9.87538C9.80307 9.31021 10.707 9.29032 11.2961 9.81571V7.05105C11.2961 6.22262 11.9676 5.55105 12.7961 5.55105C13.6245 5.55105 14.2961 6.22262 14.2961 7.05105V9.81571C14.8851 9.29032 15.789 9.31021 16.3542 9.87538C16.94 10.4612 16.94 11.4109 16.3542 11.9967L13.8567 14.4942L12.7961 15.5549ZM8.88002 11.4247C8.62912 10.947 8.12822 10.6213 7.55124 10.6213C6.72281 10.6213 6.05124 11.2928 6.05124 12.1213V15.9488C6.05124 17.8818 7.61824 19.4488 9.55124 19.4488H16.3321C18.2651 19.4488 19.8321 17.8818 19.8321 15.9488V12.1213C19.8321 11.2928 19.1605 10.6213 18.3321 10.6213C17.5037 10.6213 16.8321 11.2928 16.8321 12.1213V15.9488C16.8321 16.2249 16.6082 16.4488 16.3321 16.4488H9.55124C9.2751 16.4488 9.05124 16.2249 9.05124 15.9488V12.1213C9.05124 11.9506 9.02272 11.7865 8.97019 11.6336C8.9346 11.5659 8.90454 11.496 8.88002 11.4247Z" fill="#2C3934" fill-opacity="0.8"/>
</svg>
