<svg width="24" height="22" viewBox="0 0 24 22" fill="none" xmlns="http://www.w3.org/2000/svg">
<ellipse cx="11.5" cy="11.002" rx="11.5" ry="11" fill="white"/>
<path fill-rule="evenodd" clip-rule="evenodd" d="M23.1 11.002C23.1 17.0771 17.9289 22.002 11.55 22.002C5.17111 22.002 0 17.0771 0 11.002C0 4.92682 5.17111 0.00195312 11.55 0.00195312C17.9289 0.00195312 23.1 4.92682 23.1 11.002ZM12.9374 11.9514V11.9528C15.7383 11.8345 17.8281 11.3705 17.8281 10.8136C17.8281 10.2581 15.7383 9.79264 12.9374 9.6737V11.4908C12.8559 11.4976 12.4191 11.532 11.5478 11.532C10.8216 11.532 10.2961 11.5025 10.1127 11.4901V9.67233C7.3061 9.79195 5.21122 10.2574 5.21122 10.8136C5.21122 11.3705 7.3061 11.8359 10.1127 11.9535V11.9514C10.2932 11.9596 10.8065 11.9803 11.5356 11.9803C12.4487 11.9803 12.858 11.9569 12.9374 11.9514ZM12.9374 7.85802V9.48464C16.1086 9.6242 18.4916 10.223 18.4916 10.9401C18.4916 11.6571 16.1086 12.256 12.9374 12.3948V17.6088H10.1127V12.3962C6.9365 12.2566 4.54781 11.6578 4.54781 10.9401C4.54781 10.2223 6.9365 9.62283 10.1127 9.48395V7.85802H6.20452V5.37752H16.8457V7.85802H12.9374Z" fill="#4EB098"/>
</svg>
