<svg width="15" height="15" viewBox="0 0 15 15" fill="none" xmlns="http://www.w3.org/2000/svg">
<circle cx="7.5" cy="7.5" r="7.5" fill="#FFF1B1"/>
<path fill-rule="evenodd" clip-rule="evenodd" d="M15 7.5C15 11.6421 11.6421 15 7.5 15C3.35786 15 0 11.6421 0 7.5C0 3.35786 3.35786 0 7.5 0C11.6421 0 15 3.35786 15 7.5ZM8.40094 8.14734V8.14828C10.2197 8.06766 11.5767 7.75125 11.5767 7.37156C11.5767 6.99281 10.2197 6.67547 8.40094 6.59437V7.83328C8.34797 7.83797 8.06437 7.86141 7.49859 7.86141C7.02703 7.86141 6.68578 7.84125 6.56672 7.83281V6.59344C4.74422 6.675 3.38391 6.99234 3.38391 7.37156C3.38391 7.75125 4.74422 8.06859 6.56672 8.14875V8.14734C6.68391 8.15297 7.01719 8.16703 7.49062 8.16703C8.08359 8.16703 8.34938 8.15109 8.40094 8.14734ZM8.40094 5.35641V6.46547C10.4602 6.56063 12.0075 6.96891 12.0075 7.45781C12.0075 7.94672 10.4602 8.355 8.40094 8.44969V12.0047H6.56672V8.45062C4.50422 8.35547 2.95312 7.94719 2.95312 7.45781C2.95312 6.96844 4.50422 6.55969 6.56672 6.465V5.35641H4.02891V3.66516H10.9388V5.35641H8.40094Z" fill="#4EB098"/>
</svg>
