<svg width="101" height="100" viewBox="0 0 101 100" fill="none" xmlns="http://www.w3.org/2000/svg">
<path d="M50.5007 68.0471C49.3637 68.0471 48.2846 67.544 47.5539 66.6726L27.0418 42.2159C25.6769 40.5883 25.8897 38.1625 27.5173 36.7974C29.1447 35.4325 31.5707 35.6452 32.9358 37.2729L50.4957 58.2099L93.7034 6.5087C95.0657 4.87913 97.4911 4.66158 99.1212 6.02384C100.751 7.3861 100.968 9.81158 99.606 11.4414L53.4522 66.6673C52.7221 67.5409 51.6428 68.0459 50.5044 68.0471C50.5029 68.0471 50.5019 68.0471 50.5007 68.0471Z" fill="url(#paint0_linear_2110_22320)"/>
<path d="M50.5 100C22.93 100 0.5 77.57 0.5 50C0.5 22.43 22.93 0 50.5 0C60.9228 0 70.9151 3.18125 79.3964 9.19976C81.1286 10.4291 81.5363 12.83 80.3072 14.5623C79.0779 16.2945 76.6769 16.7024 74.9445 15.4731C67.7716 10.3829 59.3187 7.69231 50.5 7.69231C27.1714 7.69231 8.19231 26.6714 8.19231 50C8.19231 73.3286 27.1714 92.3077 50.5 92.3077C73.8286 92.3077 92.8077 73.3286 92.8077 50C92.8077 45.5514 92.1209 41.1724 90.7661 36.9841C90.1123 34.963 91.2209 32.7947 93.2421 32.1409C95.2639 31.4877 97.4315 32.5959 98.0851 34.6166C99.6875 39.5709 100.5 44.7466 100.5 50C100.5 77.57 78.07 100 50.5 100Z" fill="url(#paint1_linear_2110_22320)"/>
<defs>
<linearGradient id="paint0_linear_2110_22320" x1="43.8574" y1="5.1289" x2="88.3097" y2="8.26005" gradientUnits="userSpaceOnUse">
<stop stop-color="#FF9416"/>
<stop offset="1" stop-color="#627EEA"/>
</linearGradient>
<linearGradient id="paint1_linear_2110_22320" x1="24.3235" y1="-1.04916e-05" x2="84.1887" y2="3.56803" gradientUnits="userSpaceOnUse">
<stop stop-color="#FF9416"/>
<stop offset="1" stop-color="#627EEA"/>
</linearGradient>
</defs>
</svg>
