<svg width="52" height="52" viewBox="0 0 52 52" fill="none" xmlns="http://www.w3.org/2000/svg">
<path d="M15.8986 21.8498L25.9979 11.7545L36.1014 21.858L41.9787 15.9807L25.9979 0L10.0213 15.9766L15.8986 21.8498ZM5.87315 20.1248L11.7463 25.9979L5.87315 31.8711L0 25.9979L5.87315 20.1248ZM15.8986 30.1502L25.9979 40.2496L36.1014 30.1461L41.9787 36.0152V36.0193L25.9979 52L10.0213 36.0275L10.0131 36.0193L15.8986 30.1502ZM52 25.9979L46.1268 31.8752L40.2496 26.0021L46.1227 20.1289L52 25.9979Z" fill="#F0B90B"/>
<path d="M31.9619 25.9967L25.9984 20.0332L21.5915 24.4401L21.0863 24.9453L20.039 25.9885L20.0308 25.9967L20.039 26.009L25.9984 31.9643L31.9619 26.0008V25.9967Z" fill="#F0B90B"/>
</svg>
