<svg width="20" height="20" viewBox="0 0 20 20" fill="none" xmlns="http://www.w3.org/2000/svg">
<path d="M6.11484 8.40376L9.99921 4.52097L13.8852 8.40692L16.1456 6.14643L9.99921 0L3.85436 6.14485L6.11484 8.40376ZM2.25891 7.7403L4.51781 9.99921L2.25891 12.2581L0 9.99921L2.25891 7.7403ZM6.11484 11.5962L9.99921 15.4806L13.8852 11.5947L16.1456 13.852V13.8536L9.99921 20L3.85436 13.8567L3.8512 13.8536L6.11484 11.5962ZM20 9.99921L17.7411 12.2597L15.4806 10.0008L17.7395 7.74188L20 9.99921Z" fill="#F0B90B"/>
<path d="M12.293 9.99874L9.99934 7.70508L8.30437 9.40005L8.11007 9.59434L7.70726 9.99558L7.7041 9.99874L7.70726 10.0035L9.99934 12.294L12.293 10.0003V9.99874Z" fill="#F0B90B"/>
</svg>
