<svg width="226" height="45" viewBox="0 0 226 45" fill="none" xmlns="http://www.w3.org/2000/svg">
<path d="M14.4322 18.9085L23.1721 10.1722L31.9154 18.9156L37.0015 13.8295L23.1721 0L9.34613 13.8259L14.4322 18.9085ZM5.75637 17.4157L10.8389 22.4982L5.75637 27.5808L0.673828 22.4982L5.75637 17.4157ZM14.4322 26.0915L23.1721 34.8314L31.9154 26.088L37.0015 31.167V31.1705L23.1721 45L9.34613 31.1776L9.33902 31.1705L14.4322 26.0915ZM45.6738 22.4982L40.5913 27.5843L35.5052 22.5018L40.5877 17.4192L45.6738 22.4982Z" fill="white"/>
<path d="M28.3328 22.4987L23.1721 17.338L19.3584 21.1516L18.9212 21.5888L18.0149 22.4916L18.0078 22.4987L18.0149 22.5094L23.1721 27.663L28.3328 22.5023V22.4987ZM53.5998 10.9048H64.6605C67.4044 10.9048 69.48 11.6086 70.8875 13.016C71.4225 13.5453 71.8435 14.1784 72.1247 14.8764C72.4059 15.5745 72.5412 16.3227 72.5225 17.075V17.146C72.5225 17.8213 72.4336 18.4256 72.2666 18.948C71.9652 19.9302 71.3893 20.8058 70.6067 21.4715C70.2368 21.788 69.8327 22.0622 69.4019 22.289C70.7844 22.8115 71.8685 23.5223 72.6611 24.4215C73.4537 25.3208 73.8482 26.5647 73.8482 28.1535V28.2246C73.8482 29.3121 73.6385 30.2682 73.2191 31.0857C72.7976 31.9071 72.1783 32.6106 71.4171 33.1329C70.5583 33.7113 69.6005 34.1269 68.5915 34.3591C67.4897 34.6328 66.2706 34.7679 64.9306 34.7679H53.5998V10.9048ZM63.5516 20.551C64.7138 20.551 65.6344 20.3519 66.3168 19.9539C66.9956 19.5594 67.3369 18.916 67.3369 18.031V17.96C67.3369 17.1674 67.0419 16.5596 66.4483 16.1366C65.8619 15.7172 65.0088 15.5075 63.8964 15.5075H58.7143V20.5545H63.5552L63.5516 20.551ZM64.952 30.1652C66.1106 30.1652 67.0205 29.9555 67.6781 29.5361C68.3391 29.1131 68.6661 28.4627 68.6661 27.5741V27.5066C68.6661 26.7105 68.3605 26.0814 67.7456 25.6158C67.1343 25.1502 66.1462 24.9156 64.7814 24.9156H58.7143V30.1652H64.952ZM80.4377 10.9048H85.6873V34.7679H80.4342V10.9048H80.4377ZM93.6381 10.9048H98.4789L109.661 25.598V10.9048H114.843V34.7679H110.371L98.8201 19.5985V34.7679H93.6381V10.9048ZM130.737 10.7342H135.578L145.803 34.7679H140.316L138.133 29.4152H128.043L125.861 34.7679H120.508L130.737 10.7342ZM136.26 24.7805L133.083 17.0394L129.916 24.7805H136.257H136.26ZM151.472 10.9048H156.313L167.495 25.598V10.9048H172.677V34.7679H168.209L156.654 19.5985V34.7679H151.472V10.9048ZM191.571 35.1766C189.819 35.1766 188.195 34.8567 186.695 34.2205C185.195 33.5843 183.898 32.7171 182.81 31.6153C181.707 30.4968 180.837 29.1703 180.251 27.7127C179.632 26.1856 179.319 24.5517 179.33 22.9039V22.8328C179.31 19.5874 180.559 16.4625 182.81 14.125C183.898 13.0018 185.205 12.1133 186.727 11.4664C188.248 10.8195 189.933 10.4961 191.774 10.4961C192.886 10.4961 193.906 10.5849 194.823 10.7662C195.747 10.951 196.579 11.1998 197.333 11.5162C198.079 11.836 198.772 12.2234 199.412 12.6784C200.042 13.1291 200.634 13.6308 201.182 14.1783L197.841 18.0275C196.988 17.2417 196.031 16.5768 194.997 16.0513C193.982 15.5637 192.868 15.3192 191.742 15.3369C190.805 15.3297 189.878 15.5203 189.021 15.8964C188.163 16.2725 187.395 16.8255 186.766 17.5192C186.144 18.2122 185.657 19.0149 185.33 19.8863C184.987 20.807 184.814 21.7827 184.822 22.7653V22.8364C184.822 23.86 184.989 24.8267 185.33 25.733C185.671 26.6429 186.144 27.4391 186.744 28.1179C187.37 28.8231 188.139 29.3859 189.001 29.7685C189.862 30.1511 190.796 30.3445 191.738 30.3358C193.103 30.3358 194.255 30.087 195.2 29.5858C196.142 29.0882 197.084 28.4058 198.011 27.5386L201.352 30.9151C200.761 31.5533 200.123 32.1461 199.444 32.6887C198.06 33.7846 196.436 34.5384 194.706 34.8887C193.775 35.0806 192.73 35.1766 191.571 35.1766ZM207.533 10.9048H225.493V15.5751H212.712V20.4159H223.961V25.0862H212.712V30.0976H225.667V34.7679H207.53V10.9048H207.533Z" fill="white"/>
</svg>
