<svg width="20" height="20" viewBox="0 0 20 20" fill="none" xmlns="http://www.w3.org/2000/svg">
<path d="M6.11484 8.40571L9.99921 4.52292L13.8852 8.40887L16.1456 6.14839L9.99921 0.00195312L3.85436 6.14681L6.11484 8.40571ZM2.25891 7.74226L4.51781 10.0012L2.25891 12.2601L0 10.0012L2.25891 7.74226ZM6.11484 11.5982L9.99921 15.4826L13.8852 11.5966L16.1456 13.8539V13.8555L9.99921 20.002L3.85436 13.8587L3.8512 13.8555L6.11484 11.5982ZM20 10.0012L17.7411 12.2616L15.4806 10.0027L17.7395 7.74384L20 10.0012Z" fill="#9C9C9C"/>
<path d="M12.293 10.0007L9.99934 7.70703L8.30437 9.402L8.11007 9.5963L7.70726 9.99753L7.7041 10.0007L7.70726 10.0054L9.99934 12.2959L12.293 10.0023V10.0007Z" fill="#9C9C9C"/>
</svg>
