<svg width="37" height="22" viewBox="0 0 37 22" fill="none" xmlns="http://www.w3.org/2000/svg">
<path d="M10.9374 0C10.3508 0.00244962 9.76898 0.0502171 9.18965 0.144527C8.34331 0.281706 7.52636 0.524218 6.73513 0.851242C6.55386 0.925955 6.37626 1.00924 6.19867 1.0962C5.8153 1.28482 5.44051 1.48692 5.08042 1.71718C4.34186 2.18996 3.66454 2.73867 3.05826 3.37312C2.94803 3.48825 2.84024 3.60461 2.73491 3.72342C1.91429 4.65305 1.26759 5.69291 0.800939 6.84178C0.486163 7.61586 0.263248 8.41688 0.134643 9.24363C0.0611545 9.7115 0.0146118 10.1818 0.00113893 10.6546C-0.0258068 11.5512 0.0550305 12.4379 0.247325 13.3137C0.691931 15.3272 1.62401 17.0812 3.03866 18.5803C3.22361 18.7763 3.41713 18.9649 3.618 19.1462C4.64316 20.0758 6.00147 20.9467 7.68313 21.4782C8.44252 21.7183 9.21782 21.8787 10.0103 21.9535C10.5345 22.0025 11.0587 22.0147 11.5854 21.9853C12.1941 21.9522 12.7967 21.8763 13.392 21.7391C15.5917 21.2333 17.4681 20.1591 19.0187 18.5203C19.8075 17.6862 20.442 16.7456 20.9356 15.7094C21.5859 14.3437 21.935 12.9046 21.9864 11.3932C22.0146 10.5762 21.9473 9.76662 21.7929 8.96437C21.6925 8.44138 21.5565 7.92573 21.3765 7.42479C20.4469 4.84412 18.8007 2.85503 16.4307 1.47467C15.2684 0.79735 14.0154 0.362543 12.6865 0.143303C12.1071 0.0489923 11.5241 0.00244962 10.9374 0Z" fill="black"/>
<path d="M14.9039 11.2308C14.9272 11.2639 14.9664 11.2737 14.9982 11.2908C15.3289 11.4709 15.6363 11.6815 15.8899 11.9632C16.2377 12.3491 16.4116 12.8035 16.4227 13.3216C16.4288 13.6008 16.3884 13.8739 16.3222 14.1471C16.2291 14.5329 16.1005 14.904 15.9168 15.2555C15.5126 16.0308 14.8757 16.4999 14.0257 16.6861C13.5713 16.7853 13.1108 16.8061 12.6478 16.7853C12.1824 16.7633 11.7206 16.7094 11.2613 16.631C11.1719 16.6163 11.1707 16.6163 11.1462 16.7045C10.9502 17.4112 10.7543 18.1179 10.5583 18.8234C10.5203 18.9606 10.5203 18.963 10.3782 18.9177C9.9863 18.794 9.59436 18.6691 9.20242 18.5429C9.11791 18.516 9.11791 18.5135 9.14118 18.4229C9.26366 17.9526 9.38737 17.4834 9.50985 17.0131C9.57232 16.7743 9.63356 16.5367 9.69602 16.2978C9.71684 16.217 9.71684 16.2182 9.64091 16.1986C9.35553 16.1239 9.06892 16.048 8.77742 15.9978C8.7321 15.9904 8.68678 15.9831 8.64146 15.9769C8.5839 15.9696 8.53368 15.9978 8.53123 16.0541C8.52143 16.2097 8.46387 16.353 8.421 16.4987C8.4014 16.5661 8.4014 16.6359 8.37813 16.702C8.34383 16.8 8.32179 16.9017 8.28749 16.9997C8.26912 17.0535 8.27402 17.1087 8.2581 17.1638C8.23728 17.2324 8.21156 17.301 8.19318 17.3708C8.16746 17.4712 8.14909 17.5741 8.12214 17.6745C8.09887 17.7603 8.056 17.8435 8.04498 17.9305C8.03396 18.0224 8.00211 18.1081 7.98619 18.1975C7.97762 18.2453 7.95679 18.2612 7.90658 18.2477C7.48279 18.1252 7.05901 18.0052 6.63645 17.884C6.57031 17.8656 6.57031 17.8619 6.58991 17.7835C6.71729 17.285 6.84467 16.7878 6.97205 16.2893C7.03084 16.0615 7.08963 15.8336 7.1472 15.6058C7.16924 15.5176 7.16924 15.5164 7.07983 15.4895C6.83242 15.416 6.57766 15.3756 6.33025 15.3082C5.7007 15.1367 5.0736 14.9616 4.44527 14.7876C4.37178 14.7668 4.37178 14.7644 4.40118 14.697C4.55183 14.3516 4.7037 14.0062 4.85436 13.6621C4.9156 13.5236 4.97561 13.384 5.03685 13.2456C5.06992 13.1709 5.07115 13.1697 5.15443 13.1905C5.45206 13.264 5.74969 13.3387 6.04732 13.4134C6.16123 13.4416 6.27513 13.4575 6.39149 13.422C6.56664 13.3681 6.68544 13.2579 6.72954 13.0778C6.84344 12.6173 6.95368 12.1555 7.06636 11.6938C7.19496 11.1671 7.32479 10.6404 7.45462 10.115C7.61385 9.46586 7.77307 8.81671 7.9323 8.16756C8.04008 7.72663 8.14664 7.28692 8.25442 6.84599C8.32301 6.56674 8.17481 6.22869 7.91883 6.08294C7.84779 6.04252 7.77185 6.01435 7.69346 5.99475C7.36889 5.91391 7.04309 5.8343 6.71851 5.75469C6.70504 5.75102 6.69157 5.74489 6.6781 5.74367C6.63033 5.73632 6.62543 5.71305 6.63768 5.66895C6.67687 5.53055 6.71239 5.3897 6.74913 5.25007C6.83365 4.93284 6.91938 4.61684 7.00022 4.29962C7.01247 4.25308 7.03574 4.2494 7.06636 4.25675C7.32602 4.31064 7.58813 4.35963 7.83676 4.45762C7.86861 4.46987 7.90535 4.47722 7.93475 4.48089C8.18093 4.51029 8.41242 4.59847 8.65249 4.65236C8.73822 4.67196 8.81783 4.7136 8.90602 4.72708C8.98196 4.73932 9.0579 4.74912 9.13139 4.76872C9.34818 4.82629 9.56619 4.8716 9.78543 4.9157C9.8675 4.93284 9.86995 4.92917 9.89077 4.84711C9.97283 4.53356 10.0524 4.22001 10.1345 3.90645C10.208 3.62352 10.2839 3.34182 10.3586 3.05889C10.3905 2.93641 10.4236 2.81393 10.4542 2.69145C10.464 2.65225 10.4836 2.63633 10.5215 2.64858C10.6477 2.69022 10.7824 2.70124 10.9037 2.76248C10.9441 2.78331 10.9931 2.76861 11.0372 2.78086C11.1829 2.8225 11.3299 2.85924 11.4769 2.89721C11.5688 2.92171 11.6545 2.96948 11.7537 2.96948C11.8039 2.96948 11.8198 3.00377 11.8015 3.05031C11.777 3.11523 11.7696 3.18504 11.7366 3.24873C11.7133 3.29528 11.7219 3.35774 11.7047 3.41163C11.6226 3.67987 11.5639 3.953 11.4891 4.22368C11.4144 4.49559 11.3446 4.76872 11.2699 5.04063C11.2601 5.07737 11.2528 5.11411 11.2319 5.14841C11.1989 5.20353 11.2185 5.23537 11.2821 5.24884C11.6165 5.31988 11.9509 5.39092 12.2853 5.46196C12.3686 5.47911 12.3686 5.47911 12.3894 5.39337C12.4763 5.0345 12.5645 4.67563 12.6515 4.31677C12.7299 3.99219 12.8083 3.66762 12.8866 3.34182C12.8879 3.33447 12.8903 3.32835 12.8928 3.32222C12.9185 3.23648 12.9185 3.23526 13.0079 3.26098C13.4145 3.37611 13.8212 3.49247 14.2278 3.60883C14.316 3.63455 14.3197 3.637 14.2927 3.72518C14.256 3.84521 14.2315 3.96892 14.1886 4.08773C14.1617 4.16244 14.158 4.25185 14.1335 4.33269C14.0833 4.49926 14.0551 4.67196 14.0024 4.83853C13.9449 5.01858 13.9167 5.20598 13.8591 5.3848C13.8089 5.54402 13.7808 5.70815 13.7318 5.86737C13.7109 5.93351 13.7207 5.94943 13.7857 5.97148C13.8444 5.9923 13.9032 6.01312 13.9633 6.02782C14.2352 6.09396 14.4924 6.20297 14.7398 6.3279C14.9284 6.42221 15.1231 6.50427 15.3032 6.61451C15.6057 6.79945 15.8899 7.00644 16.1275 7.271C16.3039 7.46697 16.4484 7.68254 16.5439 7.92872C16.6774 8.268 16.7215 8.62074 16.6823 8.98328C16.6493 9.28949 16.6015 9.59324 16.4827 9.87862C16.3786 10.1285 16.2549 10.3673 16.0675 10.5682C15.7809 10.8744 15.433 11.0753 15.0301 11.1843C14.9896 11.1953 14.9492 11.2075 14.9088 11.221C14.9064 11.221 14.9039 11.2259 14.9002 11.2308H14.9039ZM11.5553 14.9261C11.728 14.9346 11.9007 14.9261 12.0734 14.9065C12.2951 14.882 12.5094 14.8293 12.7152 14.7374C13.3411 14.4582 13.5701 13.7441 13.4145 13.1868C13.3435 12.9308 13.1867 12.7275 12.992 12.5524C12.7911 12.3711 12.5621 12.2327 12.3196 12.1151C11.9215 11.9216 11.5026 11.7856 11.0764 11.6717C10.8559 11.6129 10.633 11.5615 10.4089 11.5137C10.23 11.4745 10.0512 11.4341 9.87484 11.3876C9.83565 11.3778 9.81605 11.3851 9.80625 11.4243C9.76461 11.5933 9.72664 11.7648 9.6752 11.9314C9.65438 12 9.64336 12.0722 9.63111 12.1433C9.59069 12.3699 9.5074 12.5842 9.46821 12.812C9.43146 13.0252 9.36165 13.2321 9.31633 13.444C9.27836 13.6216 9.2306 13.7968 9.1816 13.9719C9.15466 14.0687 9.13873 14.1691 9.11791 14.2683C9.10689 14.3198 9.09342 14.3712 9.07994 14.4227C9.07137 14.457 9.08362 14.4765 9.11914 14.4827C9.2257 14.501 9.3298 14.5292 9.43024 14.566C9.51598 14.5966 9.60416 14.6003 9.69112 14.6211C9.87607 14.6639 10.061 14.7093 10.2472 14.7497C10.6783 14.8428 11.1143 14.9101 11.5553 14.9273V14.9261ZM12.2889 10.3551C12.5547 10.3538 12.8095 10.3281 13.0569 10.2497C13.9363 9.97293 14.1164 8.93552 13.6595 8.35496C13.5468 8.21288 13.4158 8.0904 13.2688 7.98629C13.041 7.82462 12.7887 7.70703 12.5302 7.60293C12.0244 7.40083 11.4916 7.29182 10.971 7.14485C10.9282 7.1326 10.9135 7.15097 10.9049 7.18649C10.8706 7.32122 10.8424 7.4584 10.7959 7.58945C10.7616 7.68376 10.7579 7.7842 10.7347 7.88096C10.6403 8.25085 10.5509 8.62197 10.453 8.99063C10.4383 9.0482 10.437 9.10576 10.4211 9.16333C10.3562 9.40829 10.2986 9.6557 10.2386 9.90189C10.2215 9.97415 10.2227 9.9766 10.2937 9.99498C10.5326 10.0562 10.7714 10.1199 11.0102 10.1775C11.4328 10.2767 11.8603 10.3477 12.2889 10.3551Z" fill="white"/>
<path d="M11.5561 14.9252C11.1139 14.908 10.6791 14.8407 10.248 14.7476C10.0618 14.7072 9.87688 14.6618 9.69193 14.619C9.60497 14.5994 9.51678 14.5957 9.43105 14.5639C9.33061 14.5271 9.2265 14.4989 9.11995 14.4806C9.08443 14.4744 9.07218 14.4548 9.08075 14.4206C9.09422 14.3691 9.1077 14.3177 9.11872 14.2662C9.14077 14.167 9.15547 14.0678 9.18241 13.9698C9.2314 13.7947 9.27795 13.6195 9.31714 13.4419C9.36246 13.23 9.43227 13.023 9.46902 12.8099C9.50821 12.5833 9.5915 12.3678 9.63192 12.1412C9.64416 12.0701 9.65519 11.9979 9.67601 11.9293C9.72745 11.7615 9.76419 11.5912 9.80706 11.4222C9.81686 11.3818 9.83646 11.3745 9.87565 11.3855C10.052 11.432 10.2308 11.4724 10.4097 11.5116C10.6338 11.5606 10.8567 11.6108 11.0772 11.6696C11.5034 11.7835 11.9223 11.9183 12.3204 12.113C12.5617 12.2306 12.7919 12.369 12.9928 12.5503C13.1875 12.7254 13.3443 12.9287 13.4153 13.1847C13.5709 13.742 13.3419 14.4561 12.716 14.7353C12.5102 14.8272 12.2959 14.8786 12.0742 14.9044C11.9027 14.924 11.73 14.9325 11.5561 14.924V14.9252Z" fill="#FF9416"/>
<path d="M12.2899 10.3527C11.8612 10.3453 11.4338 10.2743 11.0112 10.1751C10.7712 10.1187 10.5323 10.0551 10.2947 9.99259C10.2237 9.97422 10.2225 9.97177 10.2396 9.8995C10.2996 9.65332 10.3572 9.40591 10.4221 9.16095C10.4368 9.10338 10.438 9.04581 10.4539 8.98825C10.5519 8.61958 10.6426 8.24846 10.7356 7.87857C10.7601 7.78181 10.7638 7.68138 10.7969 7.58707C10.8434 7.45601 10.8716 7.31883 10.9059 7.18411C10.9145 7.14859 10.9292 7.13021 10.972 7.14246C11.4938 7.28944 12.0266 7.39845 12.5312 7.60054C12.7897 7.70342 13.0407 7.82101 13.2698 7.98391C13.4168 8.08801 13.5478 8.21049 13.6605 8.35257C14.1173 8.93313 13.9373 9.97054 13.0579 10.2473C12.8092 10.3257 12.5545 10.3515 12.2899 10.3527Z" fill="#FF9416"/>
<path d="M10.9374 0C11.5241 0.00244962 12.1071 0.0489923 12.6865 0.144527C14.0142 0.362543 15.2671 0.79735 16.4307 1.47589C18.8007 2.85625 20.4469 4.84534 21.3765 7.42601C21.5578 7.92696 21.6925 8.4426 21.7929 8.96559C21.9473 9.76784 22.0146 10.5774 21.9864 11.3944C21.9338 12.9058 21.5847 14.345 20.9356 15.7106C20.442 16.7468 19.8075 17.6875 19.0187 18.5215C17.4681 20.1603 15.5917 21.2357 13.392 21.7403C12.7979 21.8763 12.1953 21.9522 11.5854 21.9865C11.0587 22.0159 10.5345 22.0037 10.0103 21.9547C9.21782 21.88 8.44252 21.7195 7.68313 21.4795C6.00147 20.9479 4.64316 20.0771 3.618 19.1474C3.41835 18.9662 3.22361 18.7775 3.03866 18.5816C1.62401 17.0836 0.691931 15.3285 0.247325 13.3149C0.0550305 12.4379 -0.0258068 11.5499 0.00113893 10.6546C0.0146118 10.1818 0.0623793 9.7115 0.134643 9.24363C0.263248 8.41688 0.486163 7.61586 0.800939 6.84178C1.26759 5.69291 1.91306 4.65305 2.73491 3.72342C2.84024 3.60461 2.94803 3.48825 3.05826 3.37312C3.66454 2.73867 4.34186 2.19118 5.08042 1.71718C5.44051 1.48692 5.8153 1.28482 6.19867 1.0962C6.37504 1.00924 6.55386 0.925955 6.73513 0.851242C7.52636 0.522993 8.34208 0.280481 9.18965 0.144527C9.76898 0.0514419 10.3508 0.00244962 10.9374 0ZM14.9058 11.2303C14.9058 11.2303 14.912 11.2205 14.9144 11.2205C14.9548 11.2082 14.9952 11.1947 15.0357 11.1837C15.4386 11.0747 15.7877 10.8738 16.0731 10.5676C16.2605 10.3668 16.3842 10.1279 16.4883 9.87808C16.6071 9.5927 16.6549 9.28894 16.6879 8.98274C16.7271 8.61897 16.6818 8.26745 16.5495 7.92818C16.4528 7.682 16.3095 7.46643 16.1331 7.27046C15.8942 7.0059 15.6113 6.79891 15.3088 6.61396C15.1275 6.50373 14.9328 6.42289 14.7454 6.32736C14.498 6.20243 14.2408 6.09219 13.9689 6.02728C13.9088 6.01258 13.85 5.99176 13.7913 5.97094C13.7276 5.94767 13.7178 5.93297 13.7374 5.86683C13.7864 5.70761 13.8145 5.54348 13.8647 5.38426C13.9223 5.20421 13.9505 5.01804 14.008 4.83799C14.0607 4.67264 14.0901 4.49994 14.1391 4.33215C14.1624 4.25131 14.1673 4.1619 14.1942 4.08718C14.2371 3.96715 14.2616 3.84467 14.2983 3.72464C14.3253 3.63645 14.3216 3.63401 14.2334 3.60828C13.8268 3.49193 13.4201 3.3768 13.0135 3.26044C12.9241 3.23472 12.9241 3.23594 12.8984 3.32168C12.8959 3.32903 12.8935 3.33515 12.8922 3.34128C12.8139 3.66585 12.7355 3.99042 12.6571 4.31622C12.5701 4.67509 12.4819 5.03396 12.395 5.39283C12.3742 5.47857 12.3741 5.47857 12.2909 5.46142C11.9565 5.39038 11.6221 5.31934 11.2877 5.2483C11.2241 5.23483 11.2045 5.20298 11.2375 5.14787C11.2583 5.11235 11.2657 5.0756 11.2755 5.04008C11.3502 4.76818 11.42 4.49505 11.4947 4.22314C11.5695 3.95368 11.6282 3.67932 11.7103 3.41109C11.7275 3.3572 11.7189 3.29473 11.7421 3.24819C11.7752 3.18328 11.7826 3.11469 11.8071 3.04977C11.8242 3.00323 11.8095 2.96893 11.7593 2.96893C11.6601 2.96893 11.5743 2.92117 11.4825 2.89667C11.3355 2.8587 11.1885 2.82196 11.0428 2.78031C10.9975 2.76807 10.9497 2.78154 10.9093 2.76194C10.788 2.7007 10.6533 2.68968 10.5271 2.64803C10.4892 2.63579 10.4696 2.65048 10.4598 2.6909C10.4292 2.81338 10.3973 2.93586 10.3642 3.05835C10.2895 3.34128 10.2136 3.62298 10.1401 3.90591C10.058 4.21946 9.97843 4.53301 9.89636 4.84657C9.87432 4.92863 9.87309 4.93108 9.79103 4.91515C9.57179 4.87106 9.35255 4.82574 9.13698 4.76818C9.06349 4.74858 8.98633 4.73878 8.91162 4.72653C8.82343 4.71306 8.74382 4.67142 8.65808 4.65182C8.41802 4.59793 8.18653 4.51097 7.94034 4.48035C7.91095 4.47667 7.8742 4.46932 7.84236 4.45708C7.59372 4.35909 7.33161 4.3101 7.07196 4.25621C7.04134 4.25008 7.01684 4.25376 7.00582 4.29908C6.92498 4.6163 6.83924 4.93353 6.75473 5.24953C6.71799 5.38915 6.68247 5.53001 6.64327 5.66841C6.63102 5.71128 6.63592 5.73578 6.68369 5.74312C6.69716 5.74557 6.71064 5.75047 6.72411 5.75415C7.04868 5.83376 7.37448 5.91337 7.69906 5.99421C7.77744 6.01381 7.85338 6.04198 7.92442 6.0824C8.18041 6.22815 8.32738 6.5662 8.26002 6.84545C8.15224 7.28638 8.04568 7.72609 7.93789 8.16702C7.77867 8.81617 7.61944 9.46532 7.46022 10.1145C7.33161 10.6411 7.20056 11.1666 7.07196 11.6932C6.95927 12.1538 6.84904 12.6155 6.73513 13.0773C6.69104 13.2573 6.57223 13.3676 6.39709 13.4214C6.28073 13.457 6.16682 13.441 6.05292 13.4129C5.75529 13.3382 5.45766 13.2634 5.16003 13.19C5.07674 13.1691 5.07552 13.1704 5.04245 13.2451C4.98121 13.3835 4.92119 13.5219 4.85995 13.6615C4.7093 14.0069 4.55742 14.3511 4.40677 14.6965C4.37738 14.7651 4.37738 14.7675 4.45087 14.7871C5.07919 14.961 5.70752 15.1362 6.33585 15.3077C6.58448 15.375 6.83924 15.4154 7.08543 15.4889C7.17361 15.5146 7.17484 15.5171 7.15279 15.6053C7.09523 15.8331 7.03644 16.0609 6.97765 16.2887C6.85027 16.7872 6.72289 17.2845 6.59551 17.783C6.57591 17.8614 6.57591 17.8638 6.64205 17.8834C7.06583 18.0047 7.48961 18.1247 7.91217 18.2472C7.96239 18.2619 7.98321 18.2447 7.99179 18.197C8.00771 18.1076 8.03955 18.0218 8.05058 17.93C8.0616 17.843 8.10447 17.7609 8.12774 17.674C8.15469 17.5735 8.17306 17.4707 8.19878 17.3702C8.21715 17.3004 8.24287 17.2318 8.26369 17.1632C8.28084 17.1093 8.27472 17.053 8.29309 16.9991C8.32616 16.9011 8.34943 16.7995 8.38373 16.7015C8.407 16.6353 8.407 16.5655 8.42659 16.4982C8.46946 16.3512 8.52703 16.2091 8.53683 16.0536C8.5405 15.996 8.59072 15.9678 8.64706 15.9764C8.69238 15.9825 8.73769 15.9899 8.78301 15.9972C9.07452 16.0474 9.3599 16.1234 9.6465 16.1981C9.72122 16.2177 9.72244 16.2165 9.70162 16.2973C9.64038 16.5361 9.57791 16.7737 9.51545 17.0126C9.39297 17.4829 9.26926 17.952 9.14678 18.4223C9.12351 18.513 9.12351 18.5154 9.20802 18.5424C9.59996 18.6685 9.9919 18.7935 10.3838 18.9172C10.5247 18.9613 10.5259 18.96 10.5639 18.8228C10.7599 18.1161 10.9558 17.4094 11.1518 16.7039C11.1763 16.6157 11.1775 16.6157 11.2669 16.6304C11.7262 16.7076 12.188 16.7627 12.6534 16.7848C13.1164 16.8056 13.5769 16.7848 14.0313 16.6856C14.8813 16.4994 15.5182 16.0303 15.9224 15.255C16.1049 14.9035 16.2347 14.5323 16.3278 14.1465C16.394 13.8734 16.4344 13.6003 16.4283 13.321C16.4172 12.8041 16.2433 12.3485 15.8955 11.9627C15.6419 11.681 15.3345 11.4703 15.0038 11.2903C14.9707 11.2731 14.9328 11.2633 14.9095 11.2303H14.9058Z" fill="#FF9416"/>
<g clip-path="url(#clip0_3764_2899)">
<path d="M25 22C31.0751 22 36 17.0751 36 11C36 4.92487 31.0751 0 25 0C18.9249 0 14 4.92487 14 11C14 17.0751 18.9249 22 25 22Z" fill="#627EEA"/>
<path d="M25.3418 2.75V8.84812L30.496 11.1512L25.3418 2.75Z" fill="white" fill-opacity="0.602"/>
<path d="M25.3424 2.75L20.1875 11.1512L25.3424 8.84812V2.75Z" fill="white"/>
<path d="M25.3418 15.1033V19.2469L30.4994 12.1113L25.3418 15.1033Z" fill="white" fill-opacity="0.602"/>
<path d="M25.3424 19.2469V15.1026L20.1875 12.1113L25.3424 19.2469Z" fill="white"/>
<path d="M25.3418 14.144L30.496 11.1514L25.3418 8.84961V14.144Z" fill="white" fill-opacity="0.2"/>
<path d="M20.1875 11.1514L25.3424 14.144V8.84961L20.1875 11.1514Z" fill="white" fill-opacity="0.602"/>
</g>
<defs>
<clipPath id="clip0_3764_2899">
<rect width="22" height="22" fill="white" transform="translate(14)"/>
</clipPath>
</defs>
</svg>
