<svg width="136" height="45" viewBox="0 0 136 45" fill="none" xmlns="http://www.w3.org/2000/svg">
<path d="M97.1875 34.6967V0H104.17V34.6967H97.1875Z" fill="white"/>
<path d="M15.9236 44.9994H0.980469V10.3027H15.334C22.3168 10.3027 26.3513 14.1045 26.3513 20.0476C26.3544 21.5338 25.9439 22.9916 25.1655 24.2577C24.3872 25.5239 23.2719 26.5484 21.9443 27.2166C23.4612 27.8579 24.7455 28.948 25.6248 30.3404C26.5041 31.7329 26.9363 33.361 26.8633 35.0063C26.8633 41.4925 22.3012 44.9994 15.9236 44.9994ZM14.7909 16.3545H7.96325V24.3459H14.7909C17.7392 24.3459 19.415 22.7321 19.415 20.3424C19.415 17.9528 17.7547 16.3545 14.7909 16.3545ZM15.2564 30.4287H7.96325V38.9632H15.2564C18.4064 38.9632 19.9116 37.008 19.9116 34.6649C19.9116 32.3373 18.4064 30.4287 15.2564 30.4287ZM48.1376 30.7701V44.9994H41.2168V30.7701L30.4633 10.3027H38.0358L44.7082 24.2838L51.272 10.3183H58.86L48.122 30.7701H48.1376ZM78.6446 44.9994H63.6704V10.3027H78.0239C85.0067 10.3027 89.0567 14.1045 89.0567 20.0476C89.0584 21.5354 88.6455 22.9943 87.8644 24.2606C87.0832 25.5269 85.9647 26.5505 84.6342 27.2166C86.1511 27.8579 87.4354 28.948 88.3147 30.3404C89.194 31.7329 89.6262 33.361 89.5532 35.0063C89.5532 41.4925 84.9911 44.9994 78.6291 44.9994H78.6446ZM77.4808 16.3545H70.6532V24.3459H77.4808C80.4446 24.3459 82.1049 22.7321 82.1049 20.3424C82.1049 17.9528 80.4446 16.3545 77.4808 16.3545ZM77.9463 30.4287H70.6532V38.9632H77.9463C81.0963 38.9632 82.6015 37.008 82.6015 34.6649C82.6015 32.3373 81.0963 30.4287 77.9463 30.4287ZM126.655 16.3545V44.9994H119.672V16.3545H110.346V10.3027H135.981V16.3545H126.655Z" fill="white"/>
</svg>
