<svg width="154" height="45" viewBox="0 0 154 45" fill="none" xmlns="http://www.w3.org/2000/svg">
<path d="M9.95371 35.3284C10.0697 24.6116 21.4622 22.3464 20.1866 10.637C19.8188 7.26591 18.1921 3.27045 14.891 0.0733414C14.7186 -0.093891 14.4317 0.0453831 14.4535 0.284584C15.4491 11.0413 7.86044 16.1406 4.44848 20.6233C-3.11739 30.5636 2.44375 43.3096 13.6592 44.9968C13.9072 45.0341 14.0589 44.7334 13.8808 44.5569C11.5784 42.2746 9.95371 39.3778 9.95371 35.3284Z" fill="#F0F1F4"/>
<path d="M24.6271 18.1731C24.4759 18.0447 24.2435 18.1271 24.2058 18.3218C23.9339 19.7115 23.0688 22.0061 20.2926 26.0284C13.1036 36.443 16.5772 41.0711 19.7158 44.5515C20.408 45.3751 20.0625 44.3686 21.5339 43.3492C23.51 41.9803 24.3484 41.8074 26.2213 40.1419C28.3575 38.0013 30.091 34.6314 30.2588 31.2184C30.6237 23.8001 26.2601 19.5592 24.6271 18.1731Z" fill="white"/>
<path fill-rule="evenodd" clip-rule="evenodd" d="M57.0268 22.4243V9.33008H61.2689C62.1747 9.33008 62.9091 10.0842 62.9091 11.0149V42.2192H58.6665C57.7607 42.2192 57.0268 41.4646 57.0268 40.5345V27.7059H44.4565V42.2192H40.2139C39.3086 42.2192 38.5742 41.4646 38.5742 40.5345V9.33008H42.8167C43.7225 9.33008 44.4565 10.0842 44.4565 11.0149V22.4243H57.0268ZM82.2041 32.6764V17.0735L86.5507 17.0729C87.4744 17.0729 88.2233 17.8281 88.2233 18.7597V32.9497C88.2233 38.0581 84.0776 42.2375 79.0104 42.2375H76.5464C71.4797 42.2375 67.3335 38.0581 67.3335 32.95V17.0729H71.6804C72.6046 17.0729 73.3535 17.8281 73.3535 18.7597V32.3935C73.3535 35.6545 76.8702 38.1272 80.2692 36.1474C81.4864 35.4383 82.2041 34.0944 82.2041 32.6764ZM148.989 42.2185H153.245V20.0889C153.245 19.1559 152.508 18.3997 151.6 18.3997H147.345V40.5288C147.345 41.4618 148.081 42.2185 148.989 42.2185ZM153.612 12.6116C153.612 14.4241 152.143 15.8931 150.331 15.8931C148.518 15.8931 147.049 14.4241 147.049 12.6116C147.049 10.7992 148.518 9.33008 150.331 9.33008C152.143 9.33008 153.612 10.7992 153.612 12.6116ZM109.356 31.7851C109.356 34.783 106.939 36.7787 103.985 36.7787C101.03 36.7787 98.6134 34.783 98.6134 31.7851V27.507C98.6134 24.5091 101.03 22.5132 103.985 22.5132C106.939 22.5132 109.356 24.5091 109.356 27.507V31.7851ZM103.985 17.0729C97.7388 17.0729 92.628 21.6071 92.628 27.9452V31.3734C92.628 37.7119 97.7388 42.2192 103.985 42.2192C110.231 42.2192 115.341 37.7119 115.341 31.3734V27.9452C115.341 21.6071 110.231 17.0729 103.985 17.0729ZM131.193 36.7825C134.166 36.7825 136.599 34.788 136.599 31.7922V27.517C136.599 24.521 134.166 22.5267 131.193 22.5267C128.219 22.5267 125.787 24.521 125.787 27.517V31.7922C125.787 34.788 128.219 36.7825 131.193 36.7825ZM125.756 18.3344C127.375 17.5324 129.228 17.09 131.193 17.09C137.479 17.09 142.623 21.621 142.623 27.9549V31.3808C142.623 37.715 137.479 42.2192 131.193 42.2192C124.906 42.2192 119.763 37.715 119.763 31.3808V9.33008H124.085C125.007 9.33008 125.756 10.0836 125.756 11.013V18.3344Z" fill="#F0F1F4"/>
</svg>
