<svg width="21" height="20" viewBox="0 0 21 20" fill="none" xmlns="http://www.w3.org/2000/svg">
<path fill-rule="evenodd" clip-rule="evenodd" d="M10.625 0C7.90918 0 7.56863 0.0115116 6.50202 0.0601778C5.43763 0.108725 4.7107 0.277787 4.07463 0.525008C3.41704 0.780526 2.85936 1.12246 2.30339 1.67839C1.74746 2.23436 1.40552 2.79203 1.15001 3.44963C0.902786 4.0857 0.733725 4.81264 0.685178 5.87702C0.636512 6.94363 0.625 7.28417 0.625 10.0001C0.625 12.7159 0.636512 13.0564 0.685178 14.1231C0.733725 15.1874 0.902786 15.9144 1.15001 16.5504C1.40552 17.208 1.74746 17.7657 2.30339 18.3216C2.85936 18.8776 3.41704 19.2195 4.07463 19.4751C4.7107 19.7222 5.43763 19.8913 6.50202 19.9399C7.56863 19.9885 7.90918 20 10.625 20C13.3409 20 13.6814 19.9885 14.748 19.9399C15.8124 19.8913 16.5393 19.7222 17.1754 19.4751C17.833 19.2195 18.3906 18.8776 18.9466 18.3216C19.5026 17.7657 19.8445 17.208 20.1001 16.5504C20.3473 15.9144 20.5163 15.1874 20.5648 14.1231C20.6135 13.0564 20.625 12.7159 20.625 10.0001C20.625 7.28417 20.6135 6.94363 20.5648 5.87702C20.5163 4.81264 20.3473 4.0857 20.1001 3.44963C19.8445 2.79203 19.5026 2.23436 18.9466 1.67839C18.3906 1.12246 17.833 0.780526 17.1754 0.525008C16.5393 0.277787 15.8124 0.108725 14.748 0.0601778C13.6814 0.0115116 13.3409 0 10.625 0ZM7.29168 10.0001C7.29168 11.841 8.78405 13.3334 10.625 13.3334C12.466 13.3334 13.9584 11.841 13.9584 10.0001C13.9584 8.15905 12.466 6.66668 10.625 6.66668C8.78405 6.66668 7.29168 8.15905 7.29168 10.0001ZM5.48988 10.0001C5.48988 7.16394 7.78894 4.86487 10.625 4.86487C13.4611 4.86487 15.7601 7.16394 15.7601 10.0001C15.7601 12.8361 13.4611 15.1351 10.625 15.1351C7.78894 15.1351 5.48988 12.8361 5.48988 10.0001ZM15.963 5.86198C16.6258 5.86198 17.1631 5.32475 17.1631 4.66199C17.1631 3.99924 16.6258 3.46197 15.963 3.46197C15.3003 3.46197 14.7631 3.99924 14.7631 4.66199C14.7631 5.32475 15.3003 5.86198 15.963 5.86198Z" fill="#A2A2A2"/>
</svg>
