<svg width="195" height="45" viewBox="0 0 195 45" fill="none" xmlns="http://www.w3.org/2000/svg">
<path d="M153.515 22.5097C153.515 21.3508 153.515 20.2723 153.482 19.2904C153.466 18.3247 153.37 17.3911 153.209 16.4736C153.055 15.6197 152.785 14.7911 152.406 14.0109C151.358 12.0812 149.702 10.5531 147.697 9.66486C146.42 9.15273 145.054 8.901 143.679 8.92443C142.338 8.89387 141.005 9.13794 139.761 9.64168C138.517 10.1454 137.39 10.8982 136.447 11.854C135.228 13.1167 134.426 14.7236 134.149 16.4575C133.988 17.3911 133.891 18.3247 133.875 19.2582L133.843 22.4936C133.843 23.6364 133.843 24.7149 133.875 25.7128C133.891 26.6786 133.988 27.5961 134.149 28.5297C134.388 30.279 135.202 31.8986 136.463 33.1332C137.402 34.0944 138.529 34.8508 139.773 35.3549C141.018 35.8591 142.353 36.1 143.695 36.0628C145.475 36.0921 147.229 35.6356 148.769 34.7424C150.309 33.8491 151.577 32.5528 152.438 30.9924C152.791 30.2037 153.065 29.3828 153.209 28.5297C153.37 27.6122 153.45 26.6625 153.482 25.7289C153.515 24.731 153.531 23.6364 153.515 22.5097ZM148.324 22.5097C148.324 23.7813 148.307 24.8436 148.259 25.6807C148.227 26.3728 148.163 27.0649 148.05 27.7571C147.97 28.2078 147.841 28.6424 147.632 29.0609C147.218 29.9398 146.498 30.6377 145.607 31.0246C144.998 31.2859 144.342 31.4206 143.679 31.4206C143.016 31.4206 142.36 31.2859 141.75 31.0246C140.849 30.6429 140.117 29.9446 139.693 29.0609C139.502 28.6475 139.372 28.2082 139.307 27.7571C139.195 27.0649 139.131 26.3728 139.099 25.6807C139.008 23.5623 139.008 21.441 139.099 19.3226C139.131 18.6305 139.195 17.9383 139.307 17.2623C139.372 16.7955 139.5 16.3609 139.693 15.9424C140.118 15.0596 140.849 14.3616 141.75 13.9787C142.362 13.7245 143.017 13.5937 143.679 13.5937C144.341 13.5937 144.996 13.7245 145.607 13.9787C146.497 14.3668 147.216 15.0644 147.632 15.9424C147.841 16.3609 147.97 16.7955 148.05 17.2623C148.163 17.9383 148.227 18.6305 148.259 19.3226C148.307 20.1596 148.324 21.222 148.324 22.5097ZM194.979 9.61657C194.975 9.49558 194.924 9.38094 194.837 9.29685C194.75 9.21276 194.634 9.1658 194.513 9.16587H190.222C190.104 9.16988 189.992 9.21866 189.908 9.30232C189.824 9.38599 189.776 9.49831 189.772 9.61657V25.5036L179.309 9.29464C179.229 9.18197 179.165 9.16587 179.02 9.16587H175.034C174.916 9.16988 174.804 9.21866 174.721 9.30232C174.637 9.38599 174.588 9.49831 174.584 9.61657V35.3706C174.584 35.6282 174.793 35.8374 175.034 35.8535H179.325C179.582 35.8535 179.775 35.6282 179.775 35.3706V19.4675L190.254 35.7247C190.318 35.8213 190.382 35.8374 190.527 35.8374H194.513C194.77 35.8374 194.963 35.6282 194.963 35.3867V9.63266L194.979 9.61657ZM166.211 9.61657C166.207 9.49558 166.156 9.38094 166.069 9.29685C165.982 9.21276 165.866 9.1658 165.745 9.16587H161.454C161.336 9.16988 161.224 9.21866 161.14 9.30232C161.057 9.38599 161.008 9.49831 161.004 9.61657V35.3706C161.004 35.6282 161.213 35.8535 161.454 35.8535H165.745C165.87 35.8493 165.989 35.7966 166.076 35.7065C166.163 35.6164 166.211 35.4959 166.211 35.3706V9.61657ZM114.895 22.5097C114.895 21.222 114.895 20.1596 114.927 19.3065C114.959 18.6144 115.024 17.9222 115.136 17.2462C115.283 16.1998 115.814 15.2458 116.625 14.5703C117.436 13.8947 118.47 13.546 119.524 13.5923C120.986 13.5923 122.32 14.1396 123.156 15.3629C123.541 15.9585 123.831 16.5863 123.991 17.2623C123.991 17.3267 124.072 17.375 124.136 17.375H129.182C129.263 17.375 129.279 17.3267 129.263 17.2623C128.716 14.1235 127.045 11.3067 124.12 9.9224C122.669 9.2558 121.087 8.92568 119.491 8.95662C118.16 8.92564 116.837 9.16656 115.602 9.66469C114.367 10.1628 113.246 10.9077 112.307 11.854C111.195 12.9453 110.439 14.3481 110.138 15.878C109.832 17.375 109.688 19.5802 109.688 22.5097C109.688 25.4231 109.832 27.6283 110.138 29.1253C110.439 30.6552 111.195 32.058 112.307 33.1493C113.243 34.1008 114.363 34.8502 115.598 35.3513C116.834 35.8523 118.159 36.0945 119.491 36.0628C121.082 36.0949 122.657 35.7408 124.104 35.097C125.493 34.3832 126.688 33.3423 127.587 32.0638C128.485 30.7853 129.06 29.3074 129.263 27.7571C129.263 27.6766 129.263 27.6444 129.182 27.6444H124.12C124.103 27.6422 124.086 27.6433 124.069 27.6478C124.053 27.6522 124.038 27.6599 124.024 27.6704C124.011 27.6809 123.999 27.694 123.991 27.7088C123.983 27.7237 123.977 27.7401 123.975 27.7571C123.815 28.417 123.541 29.0448 123.156 29.6403C122.746 30.2156 122.199 30.6791 121.564 30.9883C120.93 31.2976 120.228 31.4429 119.524 31.4109C117.274 31.4109 115.522 30.0749 115.136 27.7732C115.019 27.0921 114.949 26.4036 114.927 25.7128C114.895 24.8436 114.879 23.7813 114.879 22.4936L114.895 22.5097ZM61.57 9.61657C61.566 9.49831 61.5173 9.38599 61.4337 9.30232C61.3502 9.21866 61.2381 9.16988 61.12 9.16587H56.8289C56.7108 9.16988 56.5987 9.21866 56.5152 9.30232C56.4316 9.38599 56.3829 9.49831 56.3789 9.61657V35.3706C56.3789 35.6282 56.5718 35.8535 56.8289 35.8535H61.12C61.3611 35.8535 61.57 35.6282 61.57 35.3706V27.8376L65.0093 23.7169L72.0807 35.7247C72.145 35.8052 72.2414 35.8535 72.3378 35.8535H77.545C77.7861 35.8535 77.8343 35.6925 77.7057 35.4994L68.4646 19.7894L76.9503 9.58438C77.111 9.37512 77.0468 9.18197 76.7896 9.18197H71.0843C71.0505 9.18005 71.0168 9.18637 70.986 9.20039C70.9552 9.21441 70.9282 9.2357 70.9075 9.26245L61.5861 20.4816V9.61657H61.57ZM92.8128 31.427C90.4021 31.427 88.2164 29.1735 88.2164 26.5177V9.61657C88.2122 9.49558 88.1613 9.38094 88.0743 9.29685C87.9874 9.21276 87.8712 9.1658 87.7503 9.16587H83.4593C83.3412 9.16988 83.229 9.21866 83.1455 9.30232C83.062 9.38599 83.0133 9.49831 83.0093 9.61657V26.4533C83.0093 32.3284 87.3968 36.0628 92.8128 36.0628C98.2128 36.0628 102.616 32.3284 102.616 26.4533V9.61657C102.612 9.49558 102.561 9.38094 102.474 9.29685C102.387 9.21276 102.271 9.1658 102.15 9.16587H97.8593C97.7412 9.16988 97.629 9.21866 97.5455 9.30232C97.462 9.38599 97.4133 9.49831 97.4093 9.61657V26.5177C97.4093 29.1735 95.2236 31.427 92.8128 31.427Z" fill="white"/>
<path fill-rule="evenodd" clip-rule="evenodd" d="M13.2763 22.5095L26.5834 35.8372L34.9888 27.4188C35.7006 26.7059 36.666 26.3054 37.6727 26.3054C38.6794 26.3054 39.6448 26.7059 40.3566 27.4188C41.0685 28.1318 41.4684 29.0987 41.4684 30.1069C41.4684 31.1151 41.0685 32.0821 40.3566 32.795L29.2674 43.9014C27.7727 45.3662 25.3941 45.3662 23.8995 43.9014L7.90843 27.8856V37.3985C7.90843 38.4081 7.50798 39.3764 6.79517 40.0903C6.08237 40.8042 5.11559 41.2053 4.10753 41.2053C3.09947 41.2053 2.1327 40.8042 1.4199 40.0903C0.707091 39.3764 0.306641 38.4081 0.306641 37.3985L0.306641 7.58822C0.306641 6.5786 0.707091 5.61034 1.4199 4.89643C2.1327 4.18252 3.09947 3.78145 4.10753 3.78145C5.11559 3.78145 6.08237 4.18252 6.79517 4.89643C7.50798 5.61034 7.90843 6.5786 7.90843 7.58822V17.1172L23.8995 1.10142C24.6151 0.395615 25.5791 0 26.5834 0C27.5878 0 28.5518 0.395615 29.2674 1.10142L40.3566 12.2079C41.0685 12.9208 41.4684 13.8877 41.4684 14.8959C41.4684 15.9042 41.0685 16.8711 40.3566 17.584C39.6448 18.2969 38.6794 18.6974 37.6727 18.6974C36.666 18.6974 35.7006 18.2969 34.9888 17.584L26.5995 9.16566L13.2763 22.5095ZM26.5995 18.6947C26.0993 18.6947 25.604 18.7933 25.1419 18.985C24.6798 19.1768 24.2599 19.4578 23.9062 19.812C23.5525 20.1662 23.2719 20.5868 23.0805 21.0496C22.8891 21.5124 22.7906 22.0085 22.7906 22.5095C22.7906 23.0104 22.8891 23.5065 23.0805 23.9693C23.2719 24.4322 23.5525 24.8527 23.9062 25.207C24.2599 25.5612 24.6798 25.8422 25.1419 26.0339C25.604 26.2256 26.0993 26.3243 26.5995 26.3243C27.6097 26.3243 28.5785 25.9224 29.2928 25.207C30.0071 24.4915 30.4084 23.5212 30.4084 22.5095C30.4084 21.4977 30.0071 20.5274 29.2928 19.812C28.5785 19.0966 27.6097 18.6947 26.5995 18.6947Z" fill="white"/>
</svg>
