<svg width="87" height="20" viewBox="0 0 87 20" fill="none" xmlns="http://www.w3.org/2000/svg">
<path d="M68.293 10.0039C68.293 9.48879 68.293 9.00948 68.2787 8.57309C68.2716 8.14386 68.2287 7.72893 68.1573 7.32116C68.0888 6.94166 67.9686 6.57337 67.8002 6.22661C67.3346 5.36901 66.5987 4.68985 65.7073 4.29506C65.1399 4.06744 64.5328 3.95557 63.9216 3.96598C63.3255 3.9524 62.733 4.06087 62.1803 4.28476C61.6276 4.50864 61.1263 4.84322 60.7073 5.26799C60.1658 5.82922 59.8092 6.54337 59.6859 7.314C59.6144 7.72893 59.5716 8.14386 59.5644 8.55878L59.5501 9.99672C59.5501 10.5046 59.5502 10.984 59.5644 11.4275C59.5716 11.8567 59.6144 12.2645 59.6859 12.6794C59.7924 13.4569 60.1543 14.1767 60.7144 14.7254C61.1317 15.1526 61.6326 15.4888 62.1857 15.7129C62.7389 15.9369 63.3323 16.044 63.9287 16.0275C64.7196 16.0405 65.4992 15.8376 66.1837 15.4406C66.8683 15.0436 67.432 14.4675 67.8144 13.774C67.9716 13.4234 68.093 13.0586 68.1573 12.6794C68.2287 12.2717 68.2644 11.8496 68.2787 11.4347C68.293 10.9911 68.3002 10.5046 68.293 10.0039ZM65.9859 10.0039C65.9859 10.569 65.9787 11.0412 65.9573 11.4132C65.943 11.7208 65.9144 12.0284 65.8644 12.336C65.8287 12.5364 65.7716 12.7295 65.6787 12.9155C65.4943 13.3061 65.1745 13.6163 64.7787 13.7883C64.5078 13.9044 64.2162 13.9643 63.9216 13.9643C63.6269 13.9643 63.3353 13.9044 63.0644 13.7883C62.6637 13.6186 62.3386 13.3083 62.1502 12.9155C62.0651 12.7318 62.0073 12.5365 61.9787 12.336C61.9287 12.0284 61.9002 11.7208 61.8859 11.4132C61.8457 10.4717 61.8457 9.5289 61.8859 8.5874C61.9002 8.27978 61.9287 7.97216 61.9787 7.6717C62.0073 7.46424 62.0644 7.27108 62.1502 7.08508C62.3391 6.69271 62.6641 6.38252 63.0644 6.2123C63.3361 6.09935 63.6274 6.0412 63.9216 6.0412C64.2158 6.0412 64.507 6.09935 64.7787 6.2123C65.1741 6.38483 65.4938 6.69485 65.6787 7.08508C65.7716 7.27108 65.8287 7.46424 65.8644 7.6717C65.9144 7.97216 65.943 8.27978 65.9573 8.5874C65.9787 8.9594 65.9859 9.43156 65.9859 10.0039ZM86.7216 4.2736C86.7197 4.21982 86.6971 4.16887 86.6584 4.1315C86.6198 4.09413 86.5682 4.07325 86.5144 4.07329H84.6073C84.5548 4.07507 84.505 4.09675 84.4678 4.13393C84.4307 4.17112 84.4091 4.22104 84.4073 4.2736V11.3345L79.7573 4.13052C79.7216 4.08044 79.693 4.07329 79.6287 4.07329H77.8573C77.8048 4.07507 77.755 4.09675 77.7178 4.13393C77.6807 4.17112 77.6591 4.22104 77.6573 4.2736V15.7198C77.6573 15.8343 77.7502 15.9273 77.8573 15.9345H79.7644C79.8787 15.9345 79.9644 15.8343 79.9644 15.7198V8.65178L84.6216 15.8772C84.6502 15.9201 84.6787 15.9273 84.743 15.9273H86.5144C86.6287 15.9273 86.7144 15.8343 86.7144 15.727V4.28075L86.7216 4.2736ZM73.9359 4.2736C73.934 4.21982 73.9114 4.16887 73.8727 4.1315C73.8341 4.09413 73.7824 4.07325 73.7287 4.07329H71.8216C71.7691 4.07507 71.7193 4.09675 71.6821 4.13393C71.645 4.17112 71.6234 4.22104 71.6216 4.2736V15.7198C71.6216 15.8343 71.7144 15.9345 71.8216 15.9345H73.7287C73.7843 15.9326 73.837 15.9092 73.8756 15.8691C73.9143 15.8291 73.9359 15.7755 73.9359 15.7198V4.2736ZM51.1287 10.0039C51.1287 9.43156 51.1287 8.9594 51.143 8.58025C51.1573 8.27263 51.1859 7.96501 51.2359 7.66455C51.3011 7.1995 51.5371 6.77549 51.8976 6.47523C52.2581 6.17498 52.7174 6.02003 53.1859 6.04061C53.8359 6.04061 54.4287 6.28384 54.8002 6.82754C54.9716 7.09223 55.1002 7.37124 55.1716 7.6717C55.1716 7.70032 55.2073 7.72178 55.2359 7.72178H57.4787C57.5144 7.72178 57.5216 7.70032 57.5144 7.6717C57.2716 6.27669 56.5287 5.02476 55.2287 4.40952C54.584 4.11326 53.8808 3.96653 53.1716 3.98029C52.58 3.96652 51.9918 4.07359 51.4428 4.29499C50.8939 4.51638 50.3957 4.84744 49.9787 5.26799C49.4845 5.75303 49.1483 6.37651 49.0144 7.05646C48.8787 7.72178 48.8144 8.70186 48.8144 10.0039C48.8144 11.2987 48.8787 12.2788 49.0144 12.9441C49.1483 13.6241 49.4845 14.2476 49.9787 14.7326C50.3944 15.1555 50.8921 15.4885 51.4412 15.7112C51.9904 15.9339 52.5793 16.0416 53.1716 16.0275C53.8787 16.0418 54.5787 15.8844 55.2216 15.5982C55.8389 15.281 56.37 14.8184 56.7694 14.2501C57.1688 13.6819 57.4244 13.0251 57.5144 12.336C57.5144 12.3003 57.5144 12.286 57.4787 12.286H55.2287C55.2212 12.285 55.2136 12.2855 55.2063 12.2875C55.1989 12.2894 55.1921 12.2929 55.1861 12.2975C55.1801 12.3022 55.1751 12.308 55.1714 12.3146C55.1677 12.3212 55.1653 12.3285 55.1644 12.336C55.093 12.6294 54.9716 12.9084 54.8002 13.1731C54.618 13.4287 54.3749 13.6347 54.0929 13.7722C53.811 13.9096 53.4991 13.9742 53.1859 13.96C52.1859 13.96 51.4073 13.3662 51.2359 12.3432C51.1837 12.0405 51.1527 11.7345 51.143 11.4275C51.1287 11.0412 51.1216 10.569 51.1216 9.99672L51.1287 10.0039ZM27.4287 4.2736C27.4269 4.22104 27.4053 4.17112 27.3682 4.13393C27.331 4.09675 27.2812 4.07507 27.2287 4.07329H25.3216C25.2691 4.07507 25.2193 4.09675 25.1821 4.13393C25.145 4.17112 25.1234 4.22104 25.1216 4.2736V15.7198C25.1216 15.8343 25.2073 15.9345 25.3216 15.9345H27.2287C27.3359 15.9345 27.4287 15.8343 27.4287 15.7198V12.3718L28.9573 10.5404L32.1002 15.8772C32.1287 15.913 32.1716 15.9345 32.2144 15.9345H34.5287C34.6359 15.9345 34.6573 15.8629 34.6002 15.7771L30.493 8.79486L34.2644 4.25929C34.3359 4.16629 34.3073 4.08044 34.193 4.08044H31.6573C31.6423 4.07959 31.6273 4.0824 31.6136 4.08863C31.5999 4.09486 31.588 4.10432 31.5787 4.11621L27.4359 9.10248V4.2736H27.4287ZM41.3144 13.9671C40.243 13.9671 39.2716 12.9656 39.2716 11.7852V4.2736C39.2697 4.21982 39.2471 4.16887 39.2084 4.1315C39.1698 4.09413 39.1182 4.07325 39.0644 4.07329H37.1573C37.1048 4.07507 37.055 4.09675 37.0178 4.13393C36.9807 4.17112 36.9591 4.22104 36.9573 4.2736V11.7566C36.9573 14.3678 38.9073 16.0275 41.3144 16.0275C43.7144 16.0275 45.6716 14.3678 45.6716 11.7566V4.2736C45.6697 4.21982 45.6471 4.16887 45.6084 4.1315C45.5698 4.09413 45.5182 4.07325 45.4644 4.07329H43.5573C43.5048 4.07507 43.455 4.09675 43.4178 4.13393C43.3807 4.17112 43.3591 4.22104 43.3573 4.2736V11.7852C43.3573 12.9656 42.3859 13.9671 41.3144 13.9671Z" fill="white"/>
<path fill-rule="evenodd" clip-rule="evenodd" d="M5.96448 10.0042L11.8788 15.9276L15.6145 12.1862C15.9308 11.8693 16.3599 11.6913 16.8073 11.6913C17.2547 11.6913 17.6838 11.8693 18.0002 12.1862C18.3166 12.503 18.4943 12.9328 18.4943 13.3809C18.4943 13.829 18.3166 14.2587 18.0002 14.5756L13.0716 19.5117C12.4073 20.1628 11.3502 20.1628 10.6859 19.5117L3.57877 12.3936V16.6216C3.57877 17.0703 3.40079 17.5006 3.08399 17.8179C2.76718 18.1352 2.33751 18.3135 1.88948 18.3135C1.44145 18.3135 1.01178 18.1352 0.694976 17.8179C0.378173 17.5006 0.200195 17.0703 0.200195 16.6216L0.200195 3.37254C0.200195 2.92382 0.378173 2.49348 0.694976 2.17619C1.01178 1.8589 1.44145 1.68064 1.88948 1.68064C2.33751 1.68064 2.76718 1.8589 3.08399 2.17619C3.40079 2.49348 3.57877 2.92382 3.57877 3.37254V7.60765L10.6859 0.48952C11.0039 0.175829 11.4324 0 11.8788 0C12.3251 0 12.7536 0.175829 13.0716 0.48952L18.0002 5.42571C18.3166 5.74257 18.4943 6.17231 18.4943 6.62041C18.4943 7.06851 18.3166 7.49826 18.0002 7.81512C17.6838 8.13197 17.2547 8.30998 16.8073 8.30998C16.3599 8.30998 15.9308 8.13197 15.6145 7.81512L11.8859 4.07362L5.96448 10.0042ZM11.8859 8.30873C11.6636 8.30873 11.4435 8.35259 11.2381 8.4378C11.0327 8.523 10.8461 8.64789 10.6889 8.80533C10.5317 8.96277 10.407 9.14968 10.3219 9.35538C10.2368 9.56108 10.1931 9.78156 10.1931 10.0042C10.1931 10.2269 10.2368 10.4473 10.3219 10.653C10.407 10.8587 10.5317 11.0457 10.6889 11.2031C10.8461 11.3605 11.0327 11.4854 11.2381 11.5706C11.4435 11.6558 11.6636 11.6997 11.8859 11.6997C12.3349 11.6997 12.7655 11.5211 13.0829 11.2031C13.4004 10.8851 13.5788 10.4539 13.5788 10.0042C13.5788 9.55454 13.4004 9.12329 13.0829 8.80533C12.7655 8.48736 12.3349 8.30873 11.8859 8.30873Z" fill="white"/>
</svg>
