<svg width="151" height="45" viewBox="0 0 151 45" fill="none" xmlns="http://www.w3.org/2000/svg">
<path d="M44.3019 2.02499e-06H1.30699C1.17555 -0.000262713 1.04535 0.025433 0.923861 0.0756114C0.802374 0.12579 0.691992 0.199461 0.599048 0.292405C0.506105 0.385348 0.43243 0.495736 0.382252 0.617223C0.332074 0.738711 0.306378 0.86891 0.306643 1.00035V43.9952C0.306642 44.1265 0.332531 44.2565 0.382828 44.3777C0.433125 44.499 0.506842 44.6091 0.599759 44.7019C0.692677 44.7946 0.802971 44.8681 0.924327 44.9182C1.04568 44.9682 1.17572 44.9938 1.30699 44.9936H44.3019C44.4332 44.9938 44.5632 44.9682 44.6845 44.9182C44.8059 44.8681 44.9162 44.7946 45.0091 44.7019C45.102 44.6091 45.1757 44.499 45.226 44.3777C45.2763 44.2565 45.3022 44.1265 45.3022 43.9952V1.00035C45.3025 0.86891 45.2768 0.738711 45.2266 0.617223C45.1764 0.495736 45.1028 0.385348 45.0098 0.292405C44.9169 0.199461 44.8065 0.12579 44.685 0.0756114C44.5635 0.025433 44.4333 -0.000262713 44.3019 2.02499e-06ZM30.303 28.996C30.303 29.261 30.1979 29.5151 30.0107 29.7027C29.8236 29.8902 29.5697 29.9959 29.3047 29.9964H16.3062C16.1748 29.9964 16.0447 29.9705 15.9234 29.9202C15.802 29.87 15.6917 29.7963 15.5988 29.7034C15.5059 29.6105 15.4323 29.5002 15.382 29.3788C15.3317 29.2575 15.3058 29.1274 15.3058 28.996V15.9995C15.3058 15.7342 15.4112 15.4798 15.5988 15.2922C15.7864 15.1046 16.0409 14.9992 16.3062 14.9992H29.3027C29.434 14.9989 29.564 15.0246 29.6853 15.0746C29.8067 15.1247 29.917 15.1982 30.0099 15.2909C30.1028 15.3836 30.1765 15.4938 30.2268 15.615C30.2771 15.7363 30.303 15.8663 30.303 15.9975V28.996ZM134.315 14.9992H121.319C121.053 14.9992 120.799 15.1046 120.611 15.2922C120.424 15.4798 120.318 15.7342 120.318 15.9995V28.998C120.318 29.263 120.423 29.5171 120.611 29.7047C120.798 29.8922 121.052 29.9979 121.317 29.9984H134.315C134.58 29.9984 134.835 29.893 135.022 29.7054C135.21 29.5178 135.315 29.2634 135.315 28.998V15.9995C135.315 15.7342 135.21 15.4798 135.022 15.2922C134.835 15.1046 134.58 14.9992 134.315 14.9992ZM119.312 2.02499e-06H106.313C106.048 2.02499e-06 105.794 0.105398 105.606 0.292999C105.418 0.480601 105.313 0.735043 105.313 1.00035V13.9988C105.313 14.2642 105.418 14.5186 105.606 14.7062C105.794 14.8938 106.048 14.9992 106.313 14.9992H119.31C119.441 14.9995 119.572 14.9738 119.693 14.9236C119.815 14.8735 119.925 14.7998 120.019 14.7069C120.112 14.614 120.186 14.5036 120.236 14.3821C120.286 14.2606 120.312 14.1304 120.312 13.9988V1.00437C120.312 0.739059 120.207 0.484616 120.019 0.297014C119.832 0.109413 119.577 0.00401728 119.312 0.00401728V2.02499e-06ZM149.308 2.02499e-06H136.308C136.042 2.02499e-06 135.788 0.105398 135.6 0.292999C135.413 0.480601 135.307 0.735043 135.307 1.00035V13.9988C135.307 14.2642 135.413 14.5186 135.6 14.7062C135.788 14.8938 136.042 14.9992 136.308 14.9992H149.304C149.436 14.9995 149.566 14.9738 149.688 14.9236C149.809 14.8735 149.92 14.7998 150.013 14.7069C150.106 14.614 150.18 14.5036 150.23 14.3821C150.281 14.2606 150.307 14.1304 150.307 13.9988V1.00437C150.307 0.739059 150.201 0.484616 150.014 0.297014C149.826 0.109413 149.572 0.00401728 149.306 0.00401728L149.308 2.02499e-06ZM119.312 29.9964H106.313C106.048 29.9964 105.794 30.1018 105.606 30.2894C105.418 30.477 105.313 30.7314 105.313 30.9967V43.9952C105.313 44.2605 105.418 44.515 105.606 44.7026C105.794 44.8902 106.048 44.9956 106.313 44.9956H119.31C119.441 44.9958 119.572 44.9702 119.693 44.92C119.815 44.8699 119.925 44.7962 120.019 44.7033C120.112 44.6104 120.186 44.5 120.236 44.3785C120.286 44.257 120.312 44.1268 120.312 43.9952V30.9987C120.313 30.8672 120.287 30.7369 120.237 30.6153C120.187 30.4937 120.113 30.3832 120.02 30.2901C119.927 30.197 119.817 30.1231 119.695 30.0727C119.574 30.0223 119.443 29.9964 119.312 29.9964ZM149.308 29.9964H136.308C136.042 29.9964 135.788 30.1018 135.6 30.2894C135.413 30.477 135.307 30.7314 135.307 30.9967V43.9952C135.307 44.2605 135.413 44.515 135.6 44.7026C135.788 44.8902 136.042 44.9956 136.308 44.9956H149.304C149.436 44.9958 149.566 44.9702 149.688 44.92C149.809 44.8699 149.92 44.7962 150.013 44.7033C150.106 44.6104 150.18 44.5 150.23 44.3785C150.281 44.257 150.307 44.1268 150.307 43.9952V30.9987C150.307 30.8672 150.281 30.7369 150.231 30.6153C150.181 30.4937 150.107 30.3832 150.014 30.2901C149.921 30.197 149.811 30.1231 149.69 30.0727C149.568 30.0223 149.438 29.9964 149.306 29.9964H149.308ZM96.796 2.02499e-06H83.7975C83.6662 2.02499e-06 83.5361 0.0258787 83.4147 0.0761509C83.2934 0.126423 83.1831 0.200108 83.0902 0.292999C82.9973 0.38589 82.9236 0.496168 82.8733 0.617536C82.8231 0.738904 82.7972 0.868985 82.7972 1.00035V13.9988C82.7972 14.1302 82.8231 14.2603 82.8733 14.3817C82.9236 14.503 82.9973 14.6133 83.0902 14.7062C83.1831 14.7991 83.2934 14.8728 83.4147 14.923C83.5361 14.9733 83.6662 14.9992 83.7975 14.9992H96.794C96.9256 14.9995 97.0559 14.9738 97.1775 14.9236C97.2991 14.8735 97.4096 14.7998 97.5027 14.7069C97.5958 14.614 97.6697 14.5036 97.7201 14.3821C97.7705 14.2606 97.7964 14.1304 97.7964 13.9988V1.00437C97.7969 0.872662 97.7714 0.742151 97.7214 0.620319C97.6714 0.498487 97.5978 0.387732 97.5048 0.294415C97.4119 0.201098 97.3014 0.127054 97.1798 0.0765309C97.0582 0.0260077 96.9277 9.62855e-07 96.796 2.02499e-06ZM96.796 29.9964H83.7975C83.6662 29.9964 83.5361 30.0223 83.4147 30.0725C83.2934 30.1228 83.1831 30.1965 83.0902 30.2894C82.9973 30.3823 82.9236 30.4925 82.8733 30.6139C82.8231 30.7353 82.7972 30.8654 82.7972 30.9967V43.9952C82.7972 44.1266 82.8231 44.2567 82.8733 44.3781C82.9236 44.4994 82.9973 44.6097 83.0902 44.7026C83.1831 44.7955 83.2934 44.8692 83.4147 44.9194C83.5361 44.9697 83.6662 44.9956 83.7975 44.9956H96.794C96.9256 44.9958 97.0559 44.9702 97.1775 44.92C97.2991 44.8699 97.4096 44.7962 97.5027 44.7033C97.5958 44.6104 97.6697 44.5 97.7201 44.3785C97.7705 44.257 97.7964 44.1268 97.7964 43.9952V30.9987C97.7967 30.8672 97.771 30.7369 97.7208 30.6153C97.6707 30.4937 97.597 30.3832 97.5041 30.2901C97.4112 30.197 97.3008 30.1231 97.1793 30.0727C97.0578 30.0223 96.9276 29.9964 96.796 29.9964ZM82.7972 15.9875C82.7972 15.7222 82.6918 15.4677 82.5042 15.2801C82.3166 15.0925 82.0622 14.9871 81.7969 14.9871H67.798V1.00035C67.798 0.735391 67.6929 0.481248 67.5057 0.293704C67.3186 0.10616 67.0646 0.000534075 66.7997 2.02499e-06H53.8012C53.6697 -0.000262713 53.5395 0.025433 53.418 0.0756114C53.2965 0.12579 53.1862 0.199461 53.0932 0.292405C53.0003 0.385348 52.9266 0.495736 52.8764 0.617223C52.8262 0.738711 52.8006 0.86891 52.8008 1.00035V43.9711C52.8006 44.1026 52.8262 44.2328 52.8764 44.3543C52.9266 44.4757 53.0003 44.5861 53.0932 44.6791C53.1862 44.772 53.2965 44.8457 53.418 44.8959C53.5395 44.946 53.6697 44.9717 53.8012 44.9715H66.7977C67.063 44.9715 67.3174 44.8661 67.505 44.6785C67.6926 44.4909 67.798 44.2364 67.798 43.9711V29.9843H81.7989C82.0635 29.9838 82.3171 29.8784 82.5042 29.6913C82.6913 29.5042 82.7967 29.2506 82.7972 28.986V15.9875Z" fill="white"/>
</svg>
