<svg width="21" height="20" viewBox="0 0 21 20" fill="none" xmlns="http://www.w3.org/2000/svg">
<path fill-rule="evenodd" clip-rule="evenodd" d="M10.625 20C16.1478 20 20.625 15.5228 20.625 10C20.625 4.47715 16.1478 0 10.625 0C5.10215 0 0.625 4.47715 0.625 10C0.625 15.5228 5.10215 20 10.625 20ZM7.8062 11.5893C8.44974 12.4421 9.55242 13.0864 10.6378 13.0864C11.7232 13.0864 12.7769 12.4331 13.4197 11.5697C16.8918 11.5697 16.6495 16 16.6495 16H4.62537C4.62537 16 4.7187 11.5893 7.8062 11.5893ZM12.9792 9.03441C12.5659 10.2194 11.672 11.4945 10.6353 11.4945C9.58748 11.4945 8.68434 10.1871 8.27786 8.99002C8.33822 8.92886 8.37267 8.85832 8.37267 8.78331V6.71042C8.37267 6.7031 8.37163 6.69593 8.36988 6.68888C8.81069 5.98078 9.66004 5.50088 10.6353 5.50088C11.605 5.50139 12.4497 5.97493 12.8932 6.6749C12.8888 6.68416 12.885 6.6935 12.885 6.70365V8.82395C12.885 8.90036 12.9192 8.97214 12.9792 9.03441ZM12.9792 9.03441C13.1067 9.16661 13.3508 9.25599 13.6316 9.25599C13.6362 9.25599 13.6401 9.25524 13.6441 9.25448C13.648 9.25373 13.652 9.25298 13.6565 9.25298V10.0275H12.9159V10.7576H14.3858L14.3783 6.70365C14.3783 6.4658 14.0471 6.27387 13.6362 6.27236V5.78236L13.6362 5.78038C13.6364 5.683 13.6406 4.00002 10.6443 4.00002C7.64937 4.00002 7.65361 5.68299 7.65385 5.78038C7.65385 5.78114 7.65385 5.7818 7.65385 5.78236V6.28967C7.64999 6.28967 7.64653 6.28908 7.64315 6.2885C7.63995 6.28795 7.63683 6.28741 7.63353 6.28741C7.22483 6.28741 6.8959 6.47634 6.8959 6.71042V8.78331C6.8959 9.01588 7.22558 9.20556 7.63353 9.20556C7.90992 9.20556 8.15106 9.1185 8.27786 8.99002C8.13046 8.55593 8.04837 8.13633 8.04837 7.79881C8.04837 7.39639 8.165 7.01799 8.36988 6.68888C8.36609 6.6736 8.35899 6.65884 8.35192 6.64416C8.34781 6.63564 8.34372 6.62715 8.3403 6.61859V6.05333C8.3403 6.05123 8.33995 6.04712 8.33944 6.04116C8.32726 5.89936 8.22526 4.7113 10.6443 4.7113C13.0512 4.7113 12.9219 5.88682 12.9051 6.03882C12.9043 6.04605 12.9038 6.05097 12.9038 6.05333V6.6487C12.902 6.65639 12.8985 6.66369 12.895 6.67098C12.8944 6.67229 12.8938 6.67359 12.8932 6.6749C13.1037 7.00728 13.2238 7.39072 13.2238 7.79881C13.2238 8.14794 13.1361 8.58469 12.9792 9.03441Z" fill="#9C9C9C"/>
</svg>
