<svg width="26" height="22" viewBox="0 0 26 22" fill="none" xmlns="http://www.w3.org/2000/svg">
<path fill-rule="evenodd" clip-rule="evenodd" d="M23.2211 0.536752C24.581 -0.0358358 26.0389 1.11408 25.7988 2.56994L22.9626 19.7658C22.6891 21.4238 20.8681 22.3752 19.347 21.549C18.0741 20.8576 16.1856 19.7935 14.4836 18.6813C13.6338 18.126 11.0314 16.3452 11.3513 15.0776C11.6248 13.9937 15.9996 9.92133 18.4996 7.49945C19.4816 6.54811 19.0344 5.99853 17.8746 6.87445C14.9976 9.04733 10.3787 12.351 8.85121 13.2807C7.50354 14.101 6.79989 14.241 5.96058 14.101C4.42792 13.8456 3.00696 13.4501 1.84686 12.9692C0.278894 12.3192 0.355269 10.1645 1.84579 9.53695L23.2211 0.536752Z" fill="white"/>
</svg>
