<svg width="20" height="20" viewBox="0 0 20 20" fill="none" xmlns="http://www.w3.org/2000/svg">
<path d="M14.074 5.98878C14.0835 5.98697 14.0932 5.98606 14.1029 5.98606C14.2417 5.98606 14.3705 6.02922 14.4761 6.10359L14.4741 6.10226C14.5511 6.16932 14.6029 6.26361 14.6155 6.36985C14.6155 6.37118 14.6156 6.3725 14.6159 6.37381C14.6289 6.45435 14.6361 6.54658 14.6361 6.64077C14.6361 6.68393 14.6348 6.72643 14.6315 6.76892V6.76295C14.4821 8.33599 13.834 12.1507 13.5046 13.9117C13.3652 14.6574 13.091 14.907 12.8254 14.9309C12.2483 14.9847 11.8101 14.5498 11.251 14.1833C10.3758 13.6089 9.88114 13.2517 9.03187 12.6919C8.0498 12.0458 8.68659 11.6892 9.24568 11.1089C9.39243 10.9562 11.9363 8.6421 11.9861 8.43227C11.9887 8.41966 11.99 8.40571 11.99 8.3911C11.99 8.38521 11.9898 8.37938 11.9893 8.37362C11.9821 8.28796 11.9027 8.22112 11.8167 8.22112C11.7869 8.22112 11.7583 8.22709 11.7317 8.23705C11.7319 8.23696 11.7323 8.23658 11.7321 8.23664C11.6353 8.26299 10.2377 9.18676 7.53918 11.008C7.24369 11.241 6.87052 11.3884 6.46414 11.4057H6.46016C5.88446 11.336 5.36189 11.2078 4.86587 11.0252L4.91501 11.0412C4.29217 10.838 3.79748 10.7311 3.83997 10.3871C3.86255 10.2083 4.10912 10.0252 4.57968 9.83798C7.47831 8.57503 9.41124 7.74259 10.3785 7.34064C11.4456 6.77424 12.6826 6.3081 13.9834 6.00598L14.074 5.98878ZM9.97676 0C4.46414 0.0132802 0 4.48539 0 10C0 15.5226 4.47676 20 10 20C15.5232 20 20 15.5232 20 10C20 4.48539 15.5359 0.0132802 10.0246 0H10.0232C10.0077 0 9.99225 0 9.97676 0Z" fill="#A2A2A2"/>
</svg>
