<svg width="21" height="20" viewBox="0 0 21 20" fill="none" xmlns="http://www.w3.org/2000/svg">
<path d="M20.634 3.81295C20.634 7.94065 20.634 12.0683 20.634 16.1915C20.625 16.268 20.6115 16.3444 20.607 16.4209C20.58 16.839 20.5396 17.2617 20.3777 17.6439C19.8156 18.9703 18.8354 19.7752 17.3786 19.9415C17.1942 19.964 17.0054 19.982 16.821 20C12.6933 20 8.56565 20 4.44245 20C4.375 19.973 4.29856 19.9775 4.22662 19.973C3.82644 19.9505 3.41727 19.9146 3.04856 19.7617C1.67716 19.2176 0.84982 18.2284 0.683453 16.7356C0.660971 16.5558 0.642986 16.3759 0.625 16.1915C0.625 12.0638 0.625 7.93615 0.625 3.81295C0.633993 3.73651 0.647482 3.66007 0.651979 3.58363C0.692446 3.03957 0.759892 2.5 1.02968 2.01439C1.66367 0.872302 2.60342 0.17536 3.92986 0.0539567C4.10072 0.0404675 4.27158 0.0179856 4.44245 0C8.57014 0 12.6978 0 16.821 0C16.8885 0.0269784 16.9649 0.0224816 17.0369 0.026978C17.437 0.04946 17.8462 0.0854311 18.2149 0.238309C19.5818 0.791366 20.4092 1.78057 20.5755 3.27338C20.5935 3.45324 20.616 3.63309 20.634 3.81295ZM10.3147 6.25899C8.93435 6.25899 7.55396 6.25899 6.17356 6.25899C5.95324 6.25899 5.94874 6.26349 5.94874 6.48831C5.94874 6.94245 5.94874 7.39658 5.94874 7.84622C5.94874 8.04856 5.96223 8.05755 6.16007 8.06205C6.99191 8.06205 7.82824 8.06205 8.66007 8.06205C8.93435 8.06205 8.93885 8.06205 8.93885 8.34083C8.93885 9.7482 8.93885 11.1556 8.93885 12.5629C8.93885 12.7833 8.95234 12.9991 8.9928 13.2149C9.15468 14.1412 9.64928 14.6763 10.571 14.8606C11.4703 15.0405 12.3741 15.0225 13.2734 14.8696C13.4173 14.8426 13.4712 14.7752 13.4667 14.6268C13.4577 14.1906 13.4667 13.75 13.4622 13.3138C13.4622 13.1205 13.4532 13.1115 13.2554 13.143C12.9092 13.2014 12.5585 13.2149 12.2122 13.152C11.7311 13.062 11.5288 12.8192 11.5018 12.3246C11.4973 12.2797 11.5018 12.2302 11.5018 12.1853C11.5018 10.8993 11.5018 9.61331 11.5018 8.32284C11.5018 8.06655 11.5063 8.05755 11.7626 8.05755C12.6709 8.05755 13.5746 8.05306 14.4829 8.05755C14.6313 8.05755 14.6853 8.0036 14.6808 7.85521C14.6763 7.39658 14.6808 6.93795 14.6763 6.47932C14.6763 6.2545 14.6718 6.25 14.4514 6.25C13.0755 6.25899 11.6951 6.25899 10.3147 6.25899Z" fill="#A2A2A2"/>
</svg>
