<svg width="21" height="14" viewBox="0 0 21 14" fill="none" xmlns="http://www.w3.org/2000/svg">
<path fill-rule="evenodd" clip-rule="evenodd" d="M8.61344 9.58612V3.9743C10.6056 4.91173 12.1486 5.81731 13.9735 6.79364C12.4683 7.62835 10.6056 8.56492 8.61344 9.58612ZM19.716 1.18328C19.3724 0.730524 18.7867 0.378089 18.1631 0.261409C16.3303 -0.0866411 4.89599 -0.0876311 3.06415 0.261409C2.56411 0.355149 2.11884 0.581732 1.73633 0.933772C0.124637 2.42967 0.629666 10.4517 1.01815 11.7512C1.18151 12.3136 1.39269 12.7193 1.65865 12.9855C2.00131 13.3376 2.47047 13.58 3.00936 13.6887C4.51845 14.0008 12.293 14.1753 18.1312 13.7355C18.6691 13.6418 19.1452 13.3916 19.5208 13.0246C21.0109 11.5347 20.9093 3.06213 19.716 1.18328Z" fill="#A2A2A2"/>
</svg>
