<svg width="324" height="564" viewBox="0 0 324 564" fill="none" xmlns="http://www.w3.org/2000/svg">
<g opacity="0.5">
<path d="M-2.31238 -75.9586C67.1889 -59.0195 124.289 -22.1468 161.675 24.3887C199.061 70.9242 212.403 125.936 188.125 185.776C168.766 229.802 117.744 412.215 281.074 483.412C441.859 556.297 449.995 604.271 458.634 642.062" stroke="#DDC081" stroke-opacity="0.7"/>
<path d="M0.952395 -76.4532C65.4292 -58.3318 116.619 -18.2889 155.063 30.0009C193.507 78.2906 210.637 132.478 194.596 191.999C180.05 235.387 128.624 412.796 283.846 483.385C435.497 557.93 443.303 603.979 454.507 644.03" stroke="#D8BE80" stroke-opacity="0.7"/>
<path d="M4.1495 -76.9423C63.7077 -57.6632 109.112 -14.5168 148.592 35.4903C188.072 85.4974 208.91 138.878 200.932 198.087C191.099 240.849 139.275 413.361 286.562 483.355C429.27 559.525 436.754 603.69 450.47 645.955" stroke="#D2BC7F" stroke-opacity="0.7"/>
<path d="M7.27776 -77.4217C62.0234 -57.0101 101.767 -10.8272 142.261 40.8602C182.754 92.5475 207.22 145.139 207.132 204.043C201.909 246.193 149.698 413.912 289.219 483.324C423.177 561.084 430.346 603.405 446.519 647.835" stroke="#CDBA7E" stroke-opacity="0.7"/>
<path d="M10.3373 -77.8915C60.3762 -56.3723 94.583 -7.21963 136.068 46.1111C177.554 99.4418 205.567 151.261 213.196 209.866C212.481 251.418 159.891 414.451 291.817 483.294C417.218 562.608 424.079 603.126 442.655 649.674" stroke="#C8B87D" stroke-opacity="0.7"/>
<path d="M13.3277 -78.344C58.7659 -55.7421 87.5609 -3.68659 130.015 51.2504C172.47 106.187 203.952 157.252 219.122 215.565C222.815 256.532 169.854 414.983 294.357 483.27C411.393 564.104 417.953 602.859 438.878 651.477" stroke="#C3B67C" stroke-opacity="0.7"/>
<path d="M16.2483 -78.7928C57.1918 -55.1331 80.6995 -0.24155 124.101 56.2647C167.502 112.771 202.372 163.099 224.911 221.126C232.911 261.522 179.587 415.497 296.837 483.24C405.701 565.559 411.967 602.593 435.186 653.233" stroke="#BEB47C" stroke-opacity="0.7"/>
<path d="M19.1001 -79.2261C55.6547 -54.5335 73.9999 3.1272 118.326 61.1658C162.651 119.204 200.83 168.812 230.564 226.561C242.768 266.399 189.09 416.004 299.259 483.216C400.144 566.985 406.122 602.337 431.582 654.952" stroke="#B9B27B" stroke-opacity="0.7"/>
<path d="M21.8834 -79.6538C54.1551 -53.9533 67.4623 6.40976 112.69 65.9438C157.918 125.478 199.325 174.383 236.081 231.86C252.388 271.154 198.365 416.493 301.623 483.188C394.72 568.371 400.418 602.083 428.066 656.625" stroke="#B4B07A" stroke-opacity="0.7"/>
<path d="M24.5997 -80.068C52.6944 -53.3845 61.0883 9.61406 107.196 70.6064C153.304 131.599 197.86 179.819 241.463 237.031C261.771 275.793 207.412 416.974 303.93 483.164C389.433 569.726 394.858 601.838 424.638 658.259" stroke="#B0AF79" stroke-opacity="0.7"/>
<path d="M27.2455 -80.4726C51.2692 -52.831 54.8743 12.7361 101.84 75.1499C148.805 137.564 196.43 185.116 246.707 242.069C270.915 280.315 216.227 417.441 306.177 483.139C384.279 571.046 389.437 601.599 421.295 659.851" stroke="#ABAD78" stroke-opacity="0.7"/>
<path d="M29.8222 -80.8657C49.8809 -52.291 48.8219 15.778 96.6225 79.5762C144.423 143.374 195.037 190.277 251.814 246.978C279.821 284.719 224.814 417.897 308.365 483.116C379.258 572.333 384.157 601.366 418.04 661.402" stroke="#A7AB78" stroke-opacity="0.7"/>
<path d="M32.3304 -81.2511C48.5299 -51.7683 42.9315 18.7356 91.545 83.8811C140.158 149.027 193.681 195.296 256.786 251.752C288.489 289.003 233.171 418.338 310.495 483.09C374.372 573.582 379.018 601.137 414.871 662.909" stroke="#A2AA77" stroke-opacity="0.7"/>
<path d="M34.7704 -81.6251C47.2167 -51.259 37.2034 21.6131 86.6075 88.069C136.012 154.525 192.364 200.179 261.621 256.397C296.92 293.17 241.299 418.767 312.567 483.066C369.621 574.797 374.02 600.915 411.79 664.376" stroke="#9EA876" stroke-opacity="0.7"/>
<path d="M37.1406 -81.9875C45.9397 -50.763 31.6361 24.4103 81.8085 92.1397C131.981 159.869 191.082 204.925 266.319 260.911C305.112 297.221 249.197 419.187 314.58 483.044C365.003 575.98 369.163 600.7 408.795 665.803" stroke="#9AA776" stroke-opacity="0.7"/>
<path d="M39.4426 -82.3364C44.7003 -50.2786 26.2311 27.1292 77.1495 96.095C128.068 165.061 189.839 209.535 270.881 265.297C313.067 301.157 256.866 419.596 316.536 483.025C360.519 577.132 364.448 600.495 405.888 667.191" stroke="#96A575" stroke-opacity="0.7"/>
<path d="M41.6744 -82.6778C43.4968 -49.8115 20.9866 29.7638 72.6286 99.929C124.271 170.094 188.631 214.005 275.305 269.549C320.782 304.972 264.305 419.99 318.431 483.004C356.169 578.245 359.873 600.292 403.067 668.533" stroke="#93A474" stroke-opacity="0.7"/>
<path d="M43.8389 -83.0076C42.3319 -49.3577 15.9053 32.3183 68.2486 103.646C120.592 174.974 187.463 218.339 279.595 273.671C328.261 308.671 271.515 420.373 320.269 482.985C351.954 579.325 355.44 600.097 400.334 669.837" stroke="#8FA274" stroke-opacity="0.7"/>
<path d="M45.9338 -83.3259C41.2033 -48.9174 10.985 34.7925 64.0073 107.246C117.03 179.699 186.33 222.535 283.747 277.663C335.502 312.253 278.496 420.746 322.048 482.967C347.872 580.373 351.147 599.91 397.687 671.099" stroke="#8BA173" stroke-opacity="0.7"/>
<path d="M47.9598 -83.6385C40.1118 -48.4963 6.22626 37.1806 59.9053 110.722C113.584 184.264 185.235 226.589 287.762 281.519C342.504 315.713 285.246 421.101 323.769 482.945C343.925 581.381 346.996 599.724 395.127 672.316" stroke="#88A072" stroke-opacity="0.7"/>
<path d="M49.9164 -83.9356C39.0568 -48.0847 1.62874 39.4924 55.9422 114.086C110.256 188.679 184.177 230.51 291.641 285.248C349.268 319.059 291.768 421.448 325.431 482.929C340.111 582.359 342.985 599.549 392.654 673.496" stroke="#859F72" stroke-opacity="0.7"/>
<path d="M51.8054 -84.2232C38.0402 -47.6885 -2.80584 41.7219 52.1196 117.329C107.045 192.937 183.157 234.292 295.385 288.845C355.795 322.287 298.06 421.783 327.035 482.912C336.433 583.302 339.116 599.378 390.269 674.633" stroke="#819D71" stroke-opacity="0.7"/>
<path d="M53.6261 -84.5013C37.0612 -47.3078 -7.07802 43.8692 48.4371 120.454C103.952 197.039 182.174 237.935 298.992 292.311C362.084 325.397 304.124 422.105 328.581 482.896C332.889 584.21 335.389 599.214 387.971 675.728" stroke="#7E9C71" stroke-opacity="0.7"/>
<path d="M50.4025 -83.926C31.1438 -46.0985 -16.1641 46.7781 39.9185 124.304C96.0011 201.829 176.254 242.283 297.488 296.488C363.161 329.232 304.983 423.257 325.094 483.722C324.504 585.926 326.827 599.898 380.785 677.624" stroke="#7B9B70" stroke-opacity="0.7"/>
<path d="M45.5879 -83.0828C23.7413 -44.6463 -26.6105 49.8631 30.0172 128.292C86.6449 206.721 168.848 246.751 294.325 300.791C362.477 333.206 304.091 424.654 320.026 484.807C314.731 587.866 316.885 600.846 372.164 679.737" stroke="#789A70" stroke-opacity="0.7"/>
<path d="M40.952 -82.2702C16.6236 -43.2496 -36.6477 52.8259 20.5028 132.122C77.6533 211.417 161.728 251.039 291.273 304.923C361.802 337.022 303.217 425.999 315.147 485.851C305.339 589.73 307.331 601.76 363.877 681.767" stroke="#76996F" stroke-opacity="0.7"/>
<path d="M36.5004 -81.4888C9.79607 -41.9091 -46.2701 55.6655 11.3809 135.791C69.0319 215.916 154.897 255.148 288.338 308.881C361.143 340.678 302.366 427.289 310.462 486.854C296.335 591.518 298.171 602.637 355.931 683.713" stroke="#73986F" stroke-opacity="0.7"/>
<path d="M32.2338 -80.7391C3.25946 -40.6252 -55.4769 58.3817 2.65231 139.3C60.7815 220.217 148.358 259.078 285.52 312.666C360.5 344.175 301.54 428.525 305.973 487.816C287.719 593.23 289.407 603.479 348.325 685.577" stroke="#71976E" stroke-opacity="0.7"/>
<path d="M28.1579 -80.0256C-2.98049 -39.4025 -64.2624 60.9697 -5.67739 142.643C52.9076 224.316 142.115 262.822 282.825 316.272C359.878 347.506 300.743 429.701 301.685 488.73C279.497 594.859 281.042 604.28 341.065 687.35" stroke="#6E966E" stroke-opacity="0.7"/>
<path d="M24.2715 -79.3388C-8.92502 -38.2313 -72.6278 63.4395 -13.6093 145.831C45.4092 228.223 136.168 266.391 280.252 319.711C359.277 350.683 299.976 430.829 297.597 489.609C271.667 596.418 273.078 605.05 334.152 689.047" stroke="#6C956E" stroke-opacity="0.7"/>
<path d="M20.5782 -78.6927C-14.5705 -37.1258 -80.5697 65.7768 -21.14 148.85C38.2898 231.924 130.521 269.771 277.805 322.967C358.7 353.691 299.242 431.893 293.713 490.437C264.233 597.891 265.516 605.775 327.587 690.65" stroke="#6A946D" stroke-opacity="0.7"/>
<path d="M17.0801 -78.0798C-19.9148 -36.0783 -88.0857 67.9891 -28.2671 151.707C31.5516 235.425 125.174 272.97 275.485 326.049C358.149 356.538 298.542 432.901 290.034 491.223C257.197 599.286 258.36 606.463 321.373 692.169" stroke="#68946D" stroke-opacity="0.7"/>
<path d="M13.7769 -77.5022C-24.9583 -35.0912 -95.1764 70.0743 -34.9911 154.4C25.1942 238.726 120.129 275.985 273.292 328.953C357.624 359.221 297.876 433.852 286.56 491.962C250.56 600.6 251.608 607.111 315.51 693.6" stroke="#66936C" stroke-opacity="0.7"/>
<path d="M10.672 -76.9562C-29.6975 -34.1605 -101.838 72.0364 -41.3084 156.933C19.2212 241.83 115.388 278.821 271.231 331.686C357.128 361.746 297.249 434.749 283.295 492.662C244.324 601.84 245.265 607.725 310.001 694.949" stroke="#64926C" stroke-opacity="0.7"/>
<path d="M7.76414 -76.4459C-34.1338 -33.2906 -108.072 73.8705 -47.2206 159.3C13.6309 244.73 110.95 281.471 269.298 334.239C356.659 364.105 296.657 435.586 280.238 493.314C238.487 602.997 239.328 608.296 304.845 696.207" stroke="#62926C" stroke-opacity="0.7"/>
<path d="M5.05675 -75.9715C-38.2636 -32.4814 -113.875 75.5771 -52.724 161.504C8.42704 247.43 106.818 283.938 267.498 336.615C356.222 366.3 296.105 436.364 277.391 493.921C233.054 604.073 233.802 608.827 300.045 697.379" stroke="#61916C" stroke-opacity="0.7"/>
<path d="M2.54701 -75.533C-42.0899 -31.7331 -119.25 77.1562 -57.8216 163.542C3.60682 249.929 102.99 286.22 265.829 338.814C355.814 368.332 295.591 437.085 274.752 494.482C228.022 605.07 228.684 609.319 295.599 698.463" stroke="#5F916B" stroke-opacity="0.7"/>
<path d="M0.237917 -75.1266C-45.6095 -31.0418 -124.194 78.6112 -62.5102 165.42C-0.826844 252.229 99.4691 288.322 264.293 340.839C355.437 370.203 295.117 437.75 272.325 495.001C223.393 605.989 223.976 609.775 291.509 699.463" stroke="#5E906B" stroke-opacity="0.7"/>
<path d="M-1.8709 -74.7564C-48.823 -30.4117 -128.706 79.9384 -66.7904 167.133C-4.87429 254.328 96.2544 290.239 262.889 342.686C355.092 371.91 294.682 438.357 270.108 495.475C219.168 606.827 219.678 610.19 287.775 700.375" stroke="#5D906B" stroke-opacity="0.7"/>
<path d="M-3.77852 -74.4205C-51.7293 -29.8407 -132.788 81.1394 -70.6611 168.683C-8.53466 256.226 93.3469 291.974 261.618 344.357C354.778 373.454 294.288 438.907 268.102 495.903C215.347 607.585 215.792 610.566 284.399 701.201" stroke="#5C8F6B" stroke-opacity="0.7"/>
</g>
</svg>
