<svg width="217" height="348" viewBox="0 0 217 348" fill="none" xmlns="http://www.w3.org/2000/svg">
<g opacity="0.3">
<path d="M-75.1014 -171.117C-22.4051 -158.274 20.8888 -130.316 49.2348 -95.033C77.5809 -59.7494 87.6972 -18.0394 69.2892 27.3322C54.611 60.7129 15.926 199.02 139.764 253.001C261.673 308.263 267.841 344.637 274.391 373.291" stroke="#DDC081" stroke-opacity="0.7"/>
<path d="M-72.6256 -171.494C-23.7389 -157.754 15.0737 -127.393 44.2223 -90.7799C73.3709 -54.1663 86.3589 -13.0811 74.1964 32.0485C63.1677 64.9449 24.1756 199.458 141.867 252.979C256.849 309.499 262.768 344.414 271.263 374.782" stroke="#D8BE80" stroke-opacity="0.7"/>
<path d="M-70.2017 -171.863C-25.0442 -157.246 9.38162 -124.532 39.3157 -86.6163C69.2499 -48.7006 85.0492 -8.22699 79.0004 36.6659C71.5444 69.0884 32.2517 199.888 143.925 252.958C252.127 310.71 257.802 344.196 268.201 376.242" stroke="#D2BC7F" stroke-opacity="0.7"/>
<path d="M-67.8299 -172.227C-26.3214 -156.751 3.81221 -121.735 34.515 -82.5451C65.2177 -43.3554 83.7677 -3.48034 83.701 41.1808C79.7407 73.1395 40.1538 200.305 145.94 252.934C247.507 311.892 252.943 343.98 265.205 377.667" stroke="#CDBA7E" stroke-opacity="0.7"/>
<path d="M-65.5101 -172.583C-27.5702 -156.267 -1.63438 -118.999 29.8201 -78.5636C61.2746 -38.1279 82.5147 1.16193 88.2984 45.5965C87.7569 77.1016 47.8823 200.714 147.91 252.911C242.989 313.048 248.192 343.769 262.276 379.062" stroke="#C8B87D" stroke-opacity="0.7"/>
<path d="M-63.2427 -172.928C-28.7911 -155.791 -6.9586 -116.323 25.2307 -74.6689C57.4199 -33.0153 81.2897 5.7023 92.792 49.9154C95.5923 80.977 55.4365 201.116 149.835 252.891C238.573 314.18 243.547 343.565 259.412 380.427" stroke="#C3B67C" stroke-opacity="0.7"/>
<path d="M-61.0283 -173.267C-29.9848 -155.328 -12.161 -113.709 20.7461 -70.8655C53.6533 -28.022 80.092 10.1367 97.1814 54.1334C103.246 84.7618 62.8159 201.507 151.716 252.87C234.257 315.285 239.008 343.364 256.613 381.76" stroke="#BEB47C" stroke-opacity="0.7"/>
<path d="M-58.8657 -173.597C-31.1497 -154.875 -17.2403 -111.156 16.3678 -67.1512C49.9759 -23.1459 78.9232 14.467 101.468 58.2525C110.721 88.458 70.022 201.889 153.553 252.85C230.044 316.364 234.577 343.169 253.881 383.061" stroke="#B9B27B" stroke-opacity="0.7"/>
<path d="M-56.7557 -173.919C-32.2871 -154.432 -22.1975 -108.665 12.0946 -63.5257C46.3868 -18.3867 77.782 18.6937 105.65 62.273C118.014 92.0657 77.0536 202.263 155.344 252.832C225.932 317.418 230.252 342.979 251.214 384.332" stroke="#B4B07A" stroke-opacity="0.7"/>
<path d="M-54.6965 -174.235C-33.3949 -154.003 -27.0306 -106.237 7.92869 -59.9924C42.8879 -13.7476 76.6705 22.8133 109.731 66.1915C125.129 95.5817 83.9128 202.625 157.093 252.811C221.923 318.444 226.036 342.791 248.615 385.57" stroke="#B0AF79" stroke-opacity="0.7"/>
<path d="M-52.6901 -174.54C-34.4752 -153.582 -31.7417 -103.869 3.8677 -56.5464C39.4771 -9.22391 75.5865 26.8307 113.707 70.013C132.062 99.0108 90.5972 202.981 158.797 252.793C218.015 319.446 221.926 342.61 246.081 386.778" stroke="#ABAD78" stroke-opacity="0.7"/>
<path d="M-50.7365 -174.839C-35.5279 -153.173 -36.3308 -101.563 -0.0880626 -53.1907C36.1547 -4.81847 74.5304 30.7431 117.58 73.7345C138.814 102.35 97.1074 203.326 160.457 252.776C214.208 320.421 217.922 342.434 243.612 387.954" stroke="#A7AB78" stroke-opacity="0.7"/>
<path d="M-48.8347 -175.129C-36.5521 -152.775 -40.7969 -99.3185 -3.93784 -49.9247C32.9212 -0.530958 73.5027 34.5507 121.349 77.3562C145.387 105.6 103.444 203.662 162.072 252.758C210.504 321.369 214.026 342.262 241.21 389.098" stroke="#A2AA77" stroke-opacity="0.7"/>
<path d="M-46.9845 -175.414C-37.5476 -152.39 -45.1397 -97.1377 -7.68124 -46.7504C29.7773 3.63692 72.5039 38.2518 125.015 80.8767C151.779 108.759 109.607 203.987 163.643 252.739C206.901 322.29 210.237 342.093 238.874 390.209" stroke="#9EA876" stroke-opacity="0.7"/>
<path d="M-45.1877 -175.689C-38.5162 -152.015 -49.3612 -95.0176 -11.3202 -43.6647C26.7208 7.68812 71.5321 41.8495 128.577 84.2988C157.99 111.829 115.595 204.304 165.169 252.722C203.399 323.187 206.554 341.929 236.603 391.29" stroke="#9AA776" stroke-opacity="0.7"/>
<path d="M-43.4425 -175.953C-39.456 -151.647 -53.4594 -92.9558 -14.8528 -40.6655C23.7538 11.6248 70.5891 45.3459 132.036 87.6247C164.021 114.814 121.41 204.615 166.651 252.708C200 324.06 202.979 341.774 234.399 392.343" stroke="#96A575" stroke-opacity="0.7"/>
<path d="M-41.7497 -176.213C-40.3679 -151.294 -57.4353 -90.9593 -18.28 -37.7595C20.8753 15.4402 69.6741 48.734 135.391 90.8474C169.872 117.706 127.05 204.913 168.089 252.69C196.702 324.903 199.51 341.619 232.26 393.36" stroke="#93A474" stroke-opacity="0.7"/>
<path d="M-40.109 -176.463C-41.2516 -150.95 -61.2884 -89.0223 -21.6014 -34.9412C18.0857 19.1399 68.7875 52.0196 138.643 93.9728C175.542 120.51 132.517 205.204 169.482 252.676C193.506 325.722 196.149 341.472 230.188 394.348" stroke="#8FA274" stroke-opacity="0.7"/>
<path d="M-38.5206 -176.705C-42.1073 -150.617 -65.0191 -87.1471 -24.8172 -32.2126C15.3846 22.7218 67.9288 55.2007 141.791 96.9987C181.032 123.225 137.809 205.485 170.831 252.662C190.411 326.516 192.894 341.329 228.181 395.305" stroke="#8BA173" stroke-opacity="0.7"/>
<path d="M-36.984 -176.942C-42.9344 -150.297 -68.6266 -85.336 -27.9268 -29.5763C12.7729 26.1835 67.099 58.2747 144.836 99.9226C186.341 125.849 142.928 205.755 172.136 252.646C187.419 327.28 189.747 341.188 226.241 396.228" stroke="#88A072" stroke-opacity="0.7"/>
<path d="M-35.5009 -177.166C-43.7348 -149.984 -72.113 -83.5822 -30.9322 -27.0252C10.2486 29.5318 66.296 61.2485 147.777 102.751C191.469 128.387 147.872 206.019 173.396 252.635C184.527 328.023 186.705 341.056 224.365 397.123" stroke="#859F72" stroke-opacity="0.7"/>
<path d="M-34.0683 -177.385C-44.5052 -149.684 -75.4749 -81.8921 -33.83 -24.566C7.81485 32.7602 65.523 64.1156 150.615 105.479C196.419 130.835 152.644 206.273 174.613 252.621C181.738 328.738 183.773 340.927 222.557 397.985" stroke="#819D71" stroke-opacity="0.7"/>
<path d="M-32.6883 -177.596C-45.248 -149.396 -78.7146 -80.2647 -36.6226 -22.1974C5.46935 35.87 64.7776 66.8772 153.35 108.105C201.187 133.192 157.241 206.516 175.784 252.608C179.05 329.426 180.946 340.801 220.814 398.815" stroke="#7E9C71" stroke-opacity="0.7"/>
<path d="M-35.1321 -177.159C-49.7342 -148.478 -85.6034 -78.0587 -43.0811 -19.2783C-0.558916 39.5021 60.2891 70.1743 152.21 111.273C202.003 136.099 157.893 207.39 173.141 253.235C172.693 330.727 174.455 341.321 215.366 400.253" stroke="#7B9B70" stroke-opacity="0.7"/>
<path d="M-38.7826 -176.519C-55.3468 -147.376 -93.5239 -75.7185 -50.5884 -16.2531C-7.65293 43.2124 54.6741 73.5629 149.811 114.537C201.484 139.114 157.216 208.451 169.298 254.059C165.283 332.199 166.916 342.041 208.829 401.856" stroke="#789A70" stroke-opacity="0.7"/>
<path d="M-42.2976 -175.903C-60.7436 -146.317 -101.134 -73.472 -57.8023 -13.3494C-14.4704 46.7731 49.2752 76.8149 147.497 117.67C200.973 142.007 156.553 209.47 165.599 254.851C158.163 333.613 159.673 342.734 202.546 403.395" stroke="#76996F" stroke-opacity="0.7"/>
<path d="M-45.673 -175.31C-65.9204 -145.301 -108.43 -71.3191 -64.7188 -10.5676C-21.0074 50.1839 44.0962 79.9302 145.272 120.67C200.473 144.779 155.908 210.448 162.047 255.611C151.336 334.968 152.728 343.399 196.521 404.871" stroke="#73986F" stroke-opacity="0.7"/>
<path d="M-48.9079 -174.742C-70.8765 -144.327 -115.411 -69.2596 -71.3368 -7.90718C-27.2629 53.4453 39.1382 82.9094 143.135 123.54C199.986 147.431 155.282 211.385 158.643 256.34C144.803 336.266 146.082 344.037 190.754 406.284" stroke="#71976E" stroke-opacity="0.7"/>
<path d="M-51.9983 -174.201C-75.6077 -143.4 -122.072 -67.2972 -77.6525 -5.37198C-33.2329 56.5533 34.405 85.7482 141.092 126.275C199.514 149.957 154.678 212.277 155.392 257.034C138.568 337.501 139.74 344.644 185.25 407.629" stroke="#6E966E" stroke-opacity="0.7"/>
<path d="M-54.9453 -173.682C-80.1151 -142.514 -128.415 -65.4268 -83.6667 -2.95666C-38.9185 59.5135 29.8958 88.4524 139.141 128.88C199.058 152.363 154.096 213.13 152.292 257.698C132.632 338.681 133.701 345.226 180.008 408.913" stroke="#6C956E" stroke-opacity="0.7"/>
<path d="M-57.7452 -173.192C-84.3951 -141.676 -134.436 -63.6542 -89.3761 -0.667345C-44.3161 62.3195 25.614 91.0158 137.286 131.349C198.621 154.645 153.539 213.938 149.347 258.326C126.996 339.798 127.969 345.776 175.031 410.129" stroke="#6A946D" stroke-opacity="0.7"/>
<path d="M-60.3974 -172.726C-88.4471 -140.88 -140.135 -61.9753 -94.7799 1.50032C-49.425 64.9759 21.5603 93.4426 135.527 133.687C198.203 156.805 153.009 214.704 146.558 258.923C121.661 340.857 122.543 346.299 170.32 411.282" stroke="#68946D" stroke-opacity="0.7"/>
<path d="M-62.9019 -172.289C-92.2712 -140.132 -145.511 -60.3951 -99.8781 3.54122C-54.2452 67.4775 17.7348 95.7277 133.865 135.889C197.805 158.838 152.504 215.423 143.924 259.483C116.629 341.853 117.423 346.79 165.874 412.366" stroke="#66936C" stroke-opacity="0.7"/>
<path d="M-65.2562 -171.875C-95.8646 -139.427 -150.562 -58.9075 -104.668 5.46159C-58.7742 69.8307 14.1399 97.8778 132.301 137.96C197.429 160.752 152.028 216.104 141.449 260.014C111.9 342.793 112.614 347.255 161.697 413.389" stroke="#64926C" stroke-opacity="0.7"/>
<path d="M-67.4608 -171.487C-99.2281 -138.767 -155.289 -57.5165 -109.151 7.25713C-63.0126 72.0307 10.775 99.8877 130.836 139.896C197.074 162.541 151.58 216.738 139.13 260.508C107.475 343.671 108.113 347.688 157.788 414.344" stroke="#62926C" stroke-opacity="0.7"/>
<path d="M-69.5139 -171.128C-102.36 -138.154 -159.689 -56.2228 -113.324 8.92727C-66.9585 74.0774 7.64215 101.757 129.471 141.698C196.742 164.205 151.161 217.328 136.972 260.968C103.355 344.486 103.922 348.091 154.148 415.232" stroke="#61916C" stroke-opacity="0.7"/>
<path d="M-71.4165 -170.794C-105.261 -137.585 -163.764 -55.0244 -117.188 10.4743C-70.613 75.9729 4.74015 103.489 128.206 143.366C196.433 165.747 150.771 217.876 134.971 261.395C99.54 345.243 100.042 348.465 150.777 416.055" stroke="#5F916B" stroke-opacity="0.7"/>
<path d="M-73.1673 -170.488C-107.929 -137.062 -167.512 -53.9227 -120.743 11.8964C-73.9746 77.7155 2.07047 105.081 127.041 144.9C196.147 167.164 150.412 218.379 133.131 261.787C96.0306 345.938 96.4723 348.809 147.676 416.812" stroke="#5E906B" stroke-opacity="0.7"/>
<path d="M-74.7662 -170.206C-110.366 -136.584 -170.934 -52.9154 -123.989 13.1961C-77.0434 79.3076 -0.366966 106.536 125.976 146.301C195.885 168.459 150.082 218.84 131.45 262.147C92.8269 346.575 93.2138 349.125 144.845 417.504" stroke="#5D906B" stroke-opacity="0.7"/>
<path d="M-76.2125 -169.952C-112.569 -136.151 -174.028 -52.0051 -126.923 14.3707C-79.8186 80.7466 -2.57136 107.851 125.013 147.568C195.648 169.629 149.783 219.257 129.929 262.472C89.9297 347.15 90.267 349.409 142.285 418.129" stroke="#5C8F6B" stroke-opacity="0.7"/>
</g>
</svg>
