<svg width="375" height="812" viewBox="0 0 375 812" fill="none" xmlns="http://www.w3.org/2000/svg">
<path d="M3.5508 -5.23464C-29.9141 64.8925 -38.0868 138.269 -24.5901 201.688C-11.0934 265.107 26.0461 314.109 93.0816 334.763C143.429 348.699 331.991 431.007 279.766 617.36C230.71 802.731 265.502 842.519 291.377 875.739" stroke="#DDC081" stroke-opacity="0.7" stroke-width="2"/>
<path d="M0.888734 -2.82932C-28.131 63.8808 -29.5772 134.46 -15.3307 199.974C-1.08424 265.488 32.761 317.112 93.872 344.48C140.377 362.029 325.006 440.56 277.837 619.673C236.45 798.495 269.847 836.684 295.864 873.615" stroke="#D8BE80" stroke-opacity="0.7" stroke-width="2"/>
<path d="M-1.71751 -0.473634C-26.3857 62.8915 -21.2474 130.732 -6.2669 198.297C8.71356 265.862 39.3339 320.053 94.6455 353.994C137.389 375.079 318.168 449.913 275.947 621.938C242.068 794.349 274.101 830.974 300.256 871.538" stroke="#D2BC7F" stroke-opacity="0.7" stroke-width="2"/>
<path d="M-4.26751 1.8309C-24.678 61.9231 -13.0968 127.084 2.6018 196.656C18.3004 266.228 45.7654 322.931 95.4025 363.302C134.465 387.847 311.477 459.065 274.099 624.154C247.566 790.293 278.263 825.386 304.553 869.505" stroke="#CDBA7E" stroke-opacity="0.7" stroke-width="2"/>
<path d="M-6.76133 4.08384C-23.0078 60.9752 -5.12566 123.515 11.2753 195.05C27.6763 266.585 52.0553 325.744 96.1428 372.404C131.606 400.334 304.933 468.014 272.291 626.32C252.942 786.324 282.333 819.92 308.756 867.515" stroke="#C8B87D" stroke-opacity="0.7" stroke-width="2"/>
<path d="M-9.19931 6.28762C-21.3755 60.0502 2.66579 120.029 19.7533 193.482C36.8408 266.936 58.2034 328.495 96.8662 381.303C128.811 412.541 298.537 476.763 270.524 628.439C258.197 782.446 286.312 814.579 312.864 865.572" stroke="#C3B67C" stroke-opacity="0.7" stroke-width="2"/>
<path d="M-11.5806 8.43928C-19.7802 59.1451 10.2784 116.621 28.0366 191.949C45.7949 267.277 64.2105 331.182 97.5734 389.996C126.08 424.465 292.288 485.309 268.797 630.508C263.332 778.657 290.199 809.359 316.877 863.673" stroke="#BEB47C" stroke-opacity="0.7" stroke-width="2"/>
<path d="M-13.906 10.5403C-18.2229 58.2615 17.7113 113.293 36.1244 190.452C54.5376 267.61 70.0756 333.805 98.2638 398.483C123.414 436.109 286.187 493.654 267.112 632.528C268.345 774.957 293.995 804.262 320.796 861.818" stroke="#B9B27B" stroke-opacity="0.7" stroke-width="2"/>
<path d="M-16.1755 12.5922C-16.7033 57.4007 24.9645 110.048 44.0168 188.992C63.0691 267.937 75.7991 336.367 98.9373 406.768C120.812 447.473 280.232 501.799 265.467 634.501C273.237 771.347 297.699 799.291 324.621 860.01" stroke="#B4B07A" stroke-opacity="0.7" stroke-width="2"/>
<path d="M-18.3887 14.592C-15.221 56.5598 32.0386 106.881 51.7142 187.568C71.3897 268.254 81.3811 338.864 99.5943 414.846C118.275 458.555 274.425 509.741 263.862 636.424C278.009 767.826 301.311 794.44 328.35 858.245" stroke="#B0AF79" stroke-opacity="0.7" stroke-width="2"/>
<path d="M-20.5456 16.5416C-13.7763 55.7409 38.9333 103.796 59.2164 186.18C79.4994 268.564 86.8217 341.298 100.235 422.72C115.802 469.356 268.766 517.482 262.299 638.299C282.659 764.394 304.832 789.713 331.986 856.525" stroke="#ABAD78" stroke-opacity="0.7" stroke-width="2"/>
<path d="M-22.6466 18.4411C-12.3694 54.9439 45.6484 100.791 66.5231 184.828C87.3979 268.866 92.1204 343.67 100.858 430.39C113.393 479.876 263.253 525.023 260.776 640.126C287.188 761.053 308.261 785.11 335.526 854.851" stroke="#A7AB78" stroke-opacity="0.7" stroke-width="2"/>
<path d="M-24.6914 20.2885C-11 54.1668 52.1842 97.865 73.6348 183.512C95.0854 269.159 97.2777 345.977 101.465 437.853C111.049 490.115 257.888 532.361 259.293 641.902C291.597 757.799 311.599 780.629 338.972 853.22" stroke="#A2AA77" stroke-opacity="0.7" stroke-width="2"/>
<path d="M-26.68 22.0848C-9.66815 53.4107 58.5405 95.0191 80.5512 182.231C102.562 269.443 102.293 348.22 102.056 445.111C108.769 500.071 252.67 539.496 257.852 643.629C295.884 754.634 314.845 776.27 342.323 851.634" stroke="#9EA876" stroke-opacity="0.7" stroke-width="2"/>
<path d="M-28.6125 23.8319C-8.37399 52.6774 64.7174 92.255 87.2723 180.988C109.827 269.721 107.168 350.401 102.629 452.166C106.553 509.748 247.599 546.432 256.451 645.309C300.05 751.56 317.999 772.036 345.58 850.093" stroke="#9AA776" stroke-opacity="0.7" stroke-width="2"/>
<path d="M-30.4889 25.5279C-7.11731 51.9651 70.7149 89.5709 93.7983 179.781C116.882 269.991 111.9 352.518 103.186 459.015C104.402 519.144 242.676 553.166 255.091 646.94C304.095 748.575 321.062 767.924 348.742 848.598" stroke="#96A575" stroke-opacity="0.7" stroke-width="2"/>
<path d="M-32.3092 27.1723C-5.89833 51.2732 76.5329 86.9662 100.129 178.609C123.725 270.251 116.491 354.572 103.727 465.659C102.315 528.258 237.9 559.698 253.771 648.521C308.019 745.679 324.033 763.935 351.81 847.146" stroke="#93A474" stroke-opacity="0.7" stroke-width="2"/>
<path d="M-34.0733 28.767C-4.71689 50.6036 82.1716 84.4428 106.264 177.474C130.357 270.505 120.94 356.563 104.25 472.099C100.292 537.092 233.271 566.029 252.492 650.054C311.823 742.872 326.912 760.069 354.783 845.739" stroke="#8FA274" stroke-opacity="0.7" stroke-width="2"/>
<path d="M-35.7812 30.3106C-3.573 49.9551 87.6309 81.9994 112.205 176.375C136.779 270.75 125.248 358.49 104.757 478.333C98.3341 545.644 228.79 572.159 251.254 651.539C315.505 740.155 329.7 756.326 357.661 844.378" stroke="#8BA173" stroke-opacity="0.7" stroke-width="2"/>
<path d="M-37.4331 31.8031C-2.46685 49.3274 92.9105 79.6359 117.95 175.311C142.989 270.986 129.414 360.353 105.248 484.363C96.4401 553.915 224.455 578.087 250.057 652.974C319.066 737.527 332.396 752.706 360.445 843.06" stroke="#88A072" stroke-opacity="0.7" stroke-width="2"/>
<path d="M-39.0289 33.2454C-1.39824 48.7217 98.0109 77.3533 123.499 174.284C148.988 271.216 133.439 362.154 105.721 490.188C94.6106 561.905 220.268 583.813 248.9 654.361C322.506 734.988 335 749.21 363.134 841.788" stroke="#859F72" stroke-opacity="0.7" stroke-width="2"/>
<path d="M-40.5684 34.6366C-0.367109 48.1368 102.932 75.1506 128.854 173.293C154.776 271.436 137.322 363.891 106.178 495.807C92.8456 569.614 216.229 589.338 247.784 655.698C325.825 732.539 337.513 745.836 365.728 840.561" stroke="#819D71" stroke-opacity="0.7" stroke-width="2"/>
<path d="M-42.0519 35.9777C0.626321 47.5739 107.673 73.0288 134.013 172.339C160.353 271.65 141.064 365.566 106.619 501.223C91.1447 577.043 212.336 594.662 246.709 656.988C329.023 730.179 339.934 742.585 368.228 839.378" stroke="#7E9C71" stroke-opacity="0.7" stroke-width="2"/>
<path d="M-39.3538 33.6601C5.70762 43.4244 116.361 67.3794 143.103 167.813C169.845 268.247 148.789 363.569 111.168 502.825C93.6337 580.582 212.717 596.177 249.799 654.621C336.226 724.301 346.39 735.85 374.759 834.633" stroke="#7B9B70" stroke-opacity="0.7" stroke-width="2"/>
<path d="M-35.3364 30.1881C12.0145 38.1925 126.132 60.7067 153.26 162.22C180.388 263.733 157.636 360.405 116.963 503.119C97.4502 582.737 214.508 596.387 254.194 651.101C344.57 717.408 354.016 728.134 382.458 828.828" stroke="#789A70" stroke-opacity="0.7" stroke-width="2"/>
<path d="M-31.469 26.8456C18.0776 33.1622 135.518 54.2944 163.016 156.842C190.515 259.39 166.135 357.358 122.536 503.388C101.125 584.79 216.24 596.575 258.423 647.713C352.588 710.785 361.345 720.721 389.857 823.249" stroke="#76996F" stroke-opacity="0.7" stroke-width="2"/>
<path d="M-27.7544 23.6347C23.8942 28.3355 144.515 48.1447 172.368 151.684C200.221 255.222 174.284 354.43 127.883 503.635C104.655 586.745 217.91 596.744 262.484 644.458C360.275 704.434 368.373 713.614 396.952 817.896" stroke="#73986F" stroke-opacity="0.7" stroke-width="2"/>
<path d="M-24.1954 20.5577C29.4614 23.7147 153.121 42.2601 181.313 146.746C209.505 251.231 182.079 351.623 133.002 503.861C108.038 588.604 219.516 596.897 266.374 641.339C367.63 698.356 375.098 706.814 403.741 812.774" stroke="#71976E" stroke-opacity="0.7" stroke-width="2"/>
<path d="M-20.7938 17.618C34.7775 19.3033 161.335 36.6437 189.849 142.032C218.364 247.42 189.519 348.941 137.891 504.071C111.271 590.37 221.055 597.036 270.091 638.36C374.65 692.556 381.518 700.326 410.221 807.883" stroke="#6E966E" stroke-opacity="0.7" stroke-width="2"/>
<path d="M-17.552 14.8156C39.8402 15.1013 169.153 31.2957 197.974 137.542C226.796 243.788 196.602 346.383 142.547 504.263C114.353 592.042 222.526 597.162 273.633 635.52C381.333 687.033 387.63 694.148 416.391 803.226" stroke="#6C956E" stroke-opacity="0.7" stroke-width="2"/>
<path d="M-14.471 12.1525C44.6483 11.1106 176.574 26.218 205.687 133.278C234.8 240.339 203.326 343.953 146.969 504.441C117.283 593.623 223.928 597.276 276.998 632.821C387.679 681.79 393.434 688.283 422.25 798.803" stroke="#6A946D" stroke-opacity="0.7" stroke-width="2"/>
<path d="M-11.5525 9.62883C49.2002 7.33133 183.598 21.4108 212.986 129.241C242.375 237.071 209.69 341.649 151.156 504.604C120.058 595.114 225.258 597.379 280.186 630.263C393.684 676.825 398.927 682.732 427.795 794.616" stroke="#68946D" stroke-opacity="0.7" stroke-width="2"/>
<path d="M-8.79731 7.24696C53.495 3.76595 190.222 16.8764 219.87 125.432C249.518 233.988 215.693 339.474 155.107 504.755C122.678 596.516 226.516 597.473 283.195 627.849C399.35 672.143 404.11 677.496 433.026 790.665" stroke="#66936C" stroke-opacity="0.7" stroke-width="2"/>
<path d="M-6.20662 5.00777C57.5316 0.4153 196.447 12.6158 226.339 121.853C256.231 231.091 221.334 337.429 158.821 504.894C125.142 597.83 227.7 597.558 286.024 625.58C404.673 667.744 408.98 672.577 437.942 786.953" stroke="#64926C" stroke-opacity="0.7" stroke-width="2"/>
<path d="M-3.78115 2.91046C61.3092 -2.72143 202.27 8.62802 232.391 118.503C262.511 228.378 226.612 335.514 162.297 505.021C127.449 599.056 228.81 597.636 288.672 623.454C409.654 663.626 413.537 667.973 442.542 783.478" stroke="#62926C" stroke-opacity="0.7" stroke-width="2"/>
<path d="M-1.52124 0.956626C64.8276 -5.64262 207.693 4.9148 238.025 115.383C268.358 225.851 231.526 333.729 165.534 505.137C129.598 600.195 229.847 597.705 291.139 621.474C414.293 659.792 417.781 663.686 446.826 780.242" stroke="#61916C" stroke-opacity="0.7" stroke-width="2"/>
<path d="M0.571909 -0.852722C68.0854 -8.34729 212.713 1.4771 243.242 112.494C273.771 223.511 236.076 332.077 168.532 505.244C131.589 601.248 230.807 597.769 293.424 619.641C418.587 656.242 421.71 659.718 450.792 777.246" stroke="#5F916B" stroke-opacity="0.7" stroke-width="2"/>
<path d="M2.49816 -2.51813C71.0827 -10.836 217.331 -1.68562 248.041 109.836C278.75 221.358 240.262 330.555 171.29 505.34C133.422 602.215 231.692 597.826 295.527 617.953C422.538 652.977 425.325 656.067 454.441 774.49" stroke="#5E906B" stroke-opacity="0.7" stroke-width="2"/>
<path d="M4.25726 -4.03925C73.8191 -13.1083 221.546 -4.57302 252.421 107.41C283.295 219.392 244.082 329.166 173.808 505.426C135.095 603.095 232.5 597.876 297.447 616.411C426.144 649.996 428.624 652.734 457.772 771.973" stroke="#5D906B" stroke-opacity="0.7" stroke-width="2"/>
<path d="M5.84826 -5.41425C76.2936 -15.1625 225.358 -7.18327 256.381 105.216C287.405 217.615 247.537 327.91 176.085 505.505C136.608 603.892 233.232 597.922 299.184 615.018C429.405 647.301 431.608 649.721 460.784 769.698" stroke="#5C8F6B" stroke-opacity="0.7" stroke-width="2"/>
</svg>
