<svg width="1440" height="1024" viewBox="0 0 1440 1024" fill="none" xmlns="http://www.w3.org/2000/svg">
<path d="M-115.681 -321.646C-140.56 -139.688 -106.159 31.3868 -30.1402 164.45C45.879 297.513 164.752 381.108 330.531 379.371C453.906 374.516 937.644 424.133 954.164 881.251C977.111 1333.88 1084.07 1398.42 1166.22 1454.59" stroke="#DDC081" stroke-opacity="0.7" stroke-width="2"/>
<path d="M-119.942 -314.313C-137.272 -143.247 -89.7418 16.6894 -10.5269 153.93C68.6881 291.171 182.031 383.039 339.304 400.68C456.628 406.724 928.794 450.669 951.485 887.848C986.985 1320.21 1089.65 1382.16 1174.8 1446.58" stroke="#D8BE80" stroke-opacity="0.7" stroke-width="2"/>
<path d="M-124.115 -307.136C-134.056 -146.731 -73.6719 2.30092 8.6714 143.631C91.0147 284.962 198.945 384.929 347.89 421.539C459.29 438.252 920.129 476.645 948.86 894.305C996.65 1306.83 1095.12 1366.24 1183.19 1438.74" stroke="#D2BC7F" stroke-opacity="0.7" stroke-width="2"/>
<path d="M-128.198 -300.113C-130.908 -150.14 -57.9476 -11.7768 27.4567 133.555C112.861 278.887 215.494 386.779 356.292 441.95C461.896 469.101 911.65 502.061 946.293 900.624C1006.11 1293.75 1100.47 1350.66 1191.4 1431.07" stroke="#CDBA7E" stroke-opacity="0.7" stroke-width="2"/>
<path d="M-132.19 -293.244C-127.829 -153.473 -42.569 -25.5436 45.8288 123.702C134.227 272.947 231.68 388.589 364.51 461.912C464.445 499.272 903.359 526.92 943.783 906.805C1015.36 1280.95 1105.7 1335.43 1199.43 1423.57" stroke="#C8B87D" stroke-opacity="0.7" stroke-width="2"/>
<path d="M-136.094 -286.53C-124.821 -156.732 -27.5381 -39.0016 63.7859 114.069C155.11 267.14 247.5 390.358 372.54 481.424C466.935 528.764 895.253 551.217 941.328 912.846C1024.4 1268.43 1110.81 1320.54 1207.28 1416.24" stroke="#C3B67C" stroke-opacity="0.7" stroke-width="2"/>
<path d="M-139.906 -279.972C-121.88 -159.917 -12.8508 -52.1507 81.332 104.657C175.515 261.466 262.958 392.085 380.389 500.485C469.37 557.575 887.336 574.955 938.932 918.746C1033.23 1256.21 1115.81 1305.99 1214.95 1409.07" stroke="#BEB47C" stroke-opacity="0.7" stroke-width="2"/>
<path d="M-143.629 -273.567C-119.009 -163.026 1.48875 -64.989 98.463 95.4684C195.437 255.926 278.05 393.772 388.051 519.099C471.746 585.707 879.605 598.133 936.591 924.508C1041.85 1244.27 1120.69 1291.79 1222.44 1402.08" stroke="#B9B27B" stroke-opacity="0.7" stroke-width="2"/>
<path d="M-147.262 -267.316C-116.208 -166.059 15.4826 -77.5165 115.181 86.502C214.879 250.521 292.779 395.419 395.528 537.263C474.065 613.162 872.06 620.753 934.306 930.132C1050.27 1232.62 1125.45 1277.93 1229.75 1395.26" stroke="#B4B07A" stroke-opacity="0.7" stroke-width="2"/>
<path d="M-150.807 -261.221C-113.477 -169.018 29.1289 -89.7351 131.484 77.7565C233.839 245.248 307.141 397.024 402.819 554.978C476.326 639.937 864.7 642.813 932.077 935.616C1058.48 1221.26 1130.09 1264.41 1236.87 1388.6" stroke="#B0AF79" stroke-opacity="0.7" stroke-width="2"/>
<path d="M-154.259 -255.28C-110.813 -171.901 42.4314 -101.643 147.376 69.2336C252.32 240.11 321.142 398.59 409.927 572.244C478.531 666.033 857.53 664.313 929.907 940.962C1066.48 1210.19 1134.62 1251.24 1243.82 1382.11" stroke="#ABAD78" stroke-opacity="0.7" stroke-width="2"/>
<path d="M-157.623 -249.494C-108.22 -174.71 55.3863 -113.242 162.852 60.9315C270.318 235.105 334.777 400.113 416.849 589.06C480.678 691.449 850.544 685.254 927.791 946.168C1074.27 1199.41 1139.02 1238.4 1250.59 1375.79" stroke="#A7AB78" stroke-opacity="0.7" stroke-width="2"/>
<path d="M-160.897 -243.862C-105.695 -177.443 67.9955 -124.53 177.916 52.8522C287.837 230.234 348.048 401.597 423.587 605.427C482.768 716.187 843.746 705.635 925.733 951.235C1081.85 1188.91 1143.31 1225.92 1257.17 1369.64" stroke="#A2AA77" stroke-opacity="0.7" stroke-width="2"/>
<path d="M-164.082 -238.385C-103.242 -180.102 80.257 -135.509 192.565 44.9936C304.872 225.496 360.953 403.04 430.138 621.344C484.799 740.245 837.133 725.456 923.73 956.163C1089.23 1178.7 1147.48 1213.77 1263.57 1363.66" stroke="#9EA876" stroke-opacity="0.7" stroke-width="2"/>
<path d="M-167.175 -233.062C-100.855 -182.685 92.1748 -146.178 206.802 37.3577C321.43 220.893 373.496 404.442 436.506 636.812C486.774 763.625 830.709 744.719 921.786 960.952C1096.4 1168.78 1151.54 1201.96 1269.8 1357.85" stroke="#9AA776" stroke-opacity="0.7" stroke-width="2"/>
<path d="M-170.179 -227.895C-98.5392 -185.194 103.745 -156.537 220.625 29.9427C337.505 216.423 385.674 405.803 442.688 651.831C488.692 786.324 824.47 763.421 919.896 965.601C1103.35 1159.15 1155.47 1190.5 1275.84 1352.21" stroke="#96A575" stroke-opacity="0.7" stroke-width="2"/>
<path d="M-173.093 -222.881C-96.2922 -187.627 114.969 -166.586 234.034 22.7503C353.099 212.087 397.488 407.123 448.686 666.401C490.552 808.346 818.418 781.564 918.064 970.112C1110.1 1149.81 1159.29 1179.39 1281.7 1346.73" stroke="#93A474" stroke-opacity="0.7" stroke-width="2"/>
<path d="M-175.917 -218.023C-94.114 -189.986 125.848 -176.326 247.031 15.7787C368.213 207.883 408.937 408.403 454.499 680.52C492.355 829.687 812.554 799.147 916.288 974.482C1116.65 1140.75 1162.99 1168.61 1287.38 1341.42" stroke="#8FA274" stroke-opacity="0.7" stroke-width="2"/>
<path d="M-178.653 -213.319C-92.0065 -192.269 136.379 -185.755 259.612 9.02986C382.845 203.815 420.021 409.642 460.125 694.191C494.099 850.35 806.874 816.171 914.568 978.715C1122.98 1131.99 1166.57 1158.18 1292.88 1336.29" stroke="#8BA173" stroke-opacity="0.7" stroke-width="2"/>
<path d="M-181.298 -208.771C-89.9679 -194.479 146.565 -194.875 271.78 2.50184C396.996 199.879 430.741 410.839 465.568 707.412C495.787 870.333 801.381 832.635 912.905 982.807C1129.11 1123.51 1170.04 1148.09 1298.2 1331.32" stroke="#88A072" stroke-opacity="0.7" stroke-width="2"/>
<path d="M-183.851 -204.376C-87.9962 -196.612 156.407 -203.685 283.538 -3.80349C410.669 196.078 441.1 411.997 470.827 720.184C497.419 889.638 796.078 848.54 911.3 986.761C1135.03 1115.31 1173.39 1138.34 1303.34 1326.52" stroke="#859F72" stroke-opacity="0.7" stroke-width="2"/>
<path d="M-186.317 -200.135C-86.0972 -198.669 165.899 -212.183 294.878 -9.88613C423.857 192.411 451.09 413.115 475.898 732.508C498.991 908.264 790.958 863.887 909.749 990.577C1140.74 1107.41 1176.62 1128.94 1308.3 1321.89" stroke="#819D71" stroke-opacity="0.7" stroke-width="2"/>
<path d="M-188.691 -196.049C-84.2651 -200.652 175.047 -220.373 305.807 -15.748C436.567 188.877 460.719 414.191 480.787 744.382C500.508 926.21 786.027 878.673 908.256 994.253C1146.24 1099.8 1179.73 1119.88 1313.08 1317.43" stroke="#7E9C71" stroke-opacity="0.7" stroke-width="2"/>
<path d="M-184.285 -203.208C-75.8116 -213.65 190.54 -239.343 323.013 -32.4781C455.486 174.387 476.674 404.136 492.181 744.716C508.658 932.388 787.973 881.809 913.511 986.7C1158.22 1081.38 1189.42 1100.07 1324.36 1302.05" stroke="#7B9B70" stroke-opacity="0.7" stroke-width="2"/>
<path d="M-177.739 -213.914C-65.3782 -229.966 207.736 -261.395 341.855 -52.3782C475.974 156.638 494.313 390.649 505.44 741.209C518.8 934.494 792.155 880.994 920.871 975.616C1172.05 1059.86 1201.03 1077.21 1337.52 1283.44" stroke="#789A70" stroke-opacity="0.7" stroke-width="2"/>
<path d="M-171.438 -224.223C-55.3477 -245.655 224.252 -282.586 359.95 -71.506C495.647 139.574 511.255 377.672 518.18 737.804C528.551 936.472 796.19 880.17 927.955 964.943C1185.33 1039.18 1212.2 1055.25 1350.16 1265.55" stroke="#76996F" stroke-opacity="0.7" stroke-width="2"/>
<path d="M-165.384 -234.125C-45.7251 -260.707 240.084 -302.905 377.293 -89.8493C514.501 123.206 527.494 365.216 530.396 734.511C537.906 938.333 800.073 879.349 934.756 954.694C1198.07 1019.35 1222.91 1034.19 1362.29 1248.4" stroke="#73986F" stroke-opacity="0.7" stroke-width="2"/>
<path d="M-159.586 -243.611C-36.5165 -275.114 255.225 -322.344 393.877 -107.401C532.529 107.542 543.024 353.29 542.083 731.339C546.859 940.085 803.797 878.539 941.269 944.875C1210.25 1000.38 1233.15 1014.04 1373.88 1231.98" stroke="#71976E" stroke-opacity="0.7" stroke-width="2"/>
<path d="M-154.045 -252.679C-27.7236 -288.872 269.673 -340.9 409.702 -124.157C549.73 92.585 557.843 341.896 553.239 728.292C555.408 941.731 807.363 877.742 947.492 935.491C1221.88 982.265 1242.94 994.815 1384.95 1216.31" stroke="#6E966E" stroke-opacity="0.7" stroke-width="2"/>
<path d="M-148.762 -261.321C-19.3492 -301.975 283.425 -358.565 424.763 -140.111C566.101 78.3422 571.949 331.042 563.86 725.375C563.551 943.279 810.765 876.967 953.422 926.548C1232.96 965.023 1252.25 976.51 1395.49 1201.38" stroke="#6C956E" stroke-opacity="0.7" stroke-width="2"/>
<path d="M-143.742 -269.534C-11.396 -314.42 296.48 -375.338 439.06 -155.261C581.639 64.8158 585.339 320.73 573.944 722.592C571.284 944.73 814.002 876.214 959.057 918.049C1243.47 948.651 1261.1 959.129 1405.5 1187.21" stroke="#6A946D" stroke-opacity="0.7" stroke-width="2"/>
<path d="M-138.988 -277.314C-3.86796 -326.202 308.833 -391.213 452.587 -169.601C596.34 52.0113 598.008 310.966 583.488 719.948C578.604 946.09 817.071 875.491 964.393 909.999C1253.42 933.156 1269.47 942.68 1414.97 1173.79" stroke="#68946D" stroke-opacity="0.7" stroke-width="2"/>
<path d="M-134.499 -284.659C3.23509 -337.32 320.484 -406.188 465.344 -183.129C610.205 39.9297 609.957 301.75 592.491 717.444C585.511 947.361 819.97 874.797 969.43 902.399C1262.8 918.538 1277.37 927.163 1423.9 1161.13" stroke="#66936C" stroke-opacity="0.7" stroke-width="2"/>
<path d="M-130.278 -291.566C9.91156 -347.769 331.431 -420.26 477.331 -195.842C623.231 28.5755 621.185 293.087 600.952 715.084C592.004 948.546 822.698 874.137 974.165 895.253C1271.62 904.801 1284.79 912.583 1432.3 1149.24" stroke="#64926C" stroke-opacity="0.7" stroke-width="2"/>
<path d="M-126.326 -298.031C16.1602 -357.547 341.674 -433.427 488.546 -207.738C635.418 17.9508 631.69 284.979 608.869 712.87C598.08 949.648 825.254 873.513 978.599 888.565C1279.87 891.949 1291.74 898.941 1440.16 1138.11" stroke="#62926C" stroke-opacity="0.7" stroke-width="2"/>
<path d="M-122.645 -304.055C21.9779 -366.654 351.209 -445.687 498.986 -218.816C646.762 8.05555 641.469 277.426 616.24 710.803C603.738 950.666 827.636 872.926 982.728 882.333C1287.56 879.98 1298.21 886.237 1447.47 1127.74" stroke="#61916C" stroke-opacity="0.7" stroke-width="2"/>
<path d="M-119.233 -309.636C27.3677 -375.089 360.039 -457.041 508.653 -229.075C657.267 -1.10866 650.525 270.43 623.067 708.884C608.979 951.602 829.845 872.376 986.554 876.559C1294.67 868.897 1304.2 874.474 1454.25 1118.14" stroke="#5F916B" stroke-opacity="0.7" stroke-width="2"/>
<path d="M-116.095 -314.771C32.3247 -382.848 368.159 -467.484 517.544 -238.511C666.928 -9.5386 658.853 263.993 629.345 707.116C613.8 952.46 831.878 871.867 990.074 871.246C1301.22 858.703 1309.71 863.655 1460.48 1109.31" stroke="#5E906B" stroke-opacity="0.7" stroke-width="2"/>
<path d="M-113.231 -319.459C36.8485 -389.931 375.57 -477.015 525.657 -247.124C675.743 -17.2331 666.453 258.117 635.075 705.501C618.199 953.241 833.733 871.401 993.286 866.396C1307.19 849.398 1314.74 853.779 1466.16 1101.25" stroke="#5D906B" stroke-opacity="0.7" stroke-width="2"/>
<path d="M-110.638 -323.701C40.9421 -396.338 382.273 -485.636 532.995 -254.915C683.717 -24.1931 673.327 252.802 640.259 704.037C622.181 953.943 835.414 870.976 996.193 862.008C1312.59 840.983 1319.29 844.848 1471.31 1093.96" stroke="#5C8F6B" stroke-opacity="0.7" stroke-width="2"/>
</svg>
