<svg width="622" height="262" viewBox="0 0 622 262" fill="none" xmlns="http://www.w3.org/2000/svg">
<path d="M-91.6683 -43.6051C-71.2005 23.7529 -31.8287 77.8293 15.9528 112.003C63.7343 146.177 118.521 156.26 175.983 129.112C218.176 107.668 394.603 47.4989 473.545 204.065C554.007 358.038 601.592 363.392 639.2 369.801" stroke="#DDC081" stroke-opacity="0.7" stroke-width="2"/>
<path d="M-91.9797 -40.3695C-70.6264 21.9865 -28.4648 70.0811 21.0986 105.198C70.662 140.315 124.847 154.165 182.449 135.129C224.28 118.449 395.768 58.1577 473.667 206.791C555.257 351.697 600.933 356.834 640.903 365.639" stroke="#D8BE80" stroke-opacity="0.7" stroke-width="2"/>
<path d="M-92.2838 -37.2044C-70.0638 20.2551 -25.1712 62.4941 26.1366 98.5348C77.4444 134.575 131.041 152.113 188.78 141.016C230.255 129.001 396.909 68.5894 473.787 209.458C556.481 345.488 600.288 350.412 642.571 361.563" stroke="#D2BC7F" stroke-opacity="0.7" stroke-width="2"/>
<path d="M-92.5805 -34.1029C-69.5124 18.5656 -21.9477 55.0751 31.0669 92.0194C84.0815 128.964 137.102 150.109 194.975 146.782C236.103 139.331 398.027 78.8011 473.906 212.071C557.68 339.416 599.659 344.132 644.204 357.579" stroke="#CDBA7E" stroke-opacity="0.7" stroke-width="2"/>
<path d="M-92.8735 -31.0719C-68.9761 16.911 -18.798 47.8172 35.8858 85.6453C90.5696 123.473 143.027 148.148 201.03 152.418C241.819 149.43 399.117 88.7858 474.019 214.625C558.85 333.477 599.04 337.989 645.798 353.68" stroke="#C8B87D" stroke-opacity="0.7" stroke-width="2"/>
<path d="M-93.1556 -28.1079C-68.4475 15.2949 -15.7149 40.7239 40.6005 79.4158C96.916 118.108 148.823 146.231 206.954 157.929C247.411 159.304 400.186 98.5469 474.133 217.123C559.998 327.672 598.439 331.985 647.361 349.87" stroke="#C3B67C" stroke-opacity="0.7" stroke-width="2"/>
<path d="M-93.4341 -25.2144C-67.9339 13.7137 -12.7056 33.7915 45.2039 73.3274C103.113 112.863 154.483 144.357 212.739 163.31C252.871 168.947 401.228 108.081 474.243 219.56C561.116 321.998 597.849 326.117 648.884 346.146" stroke="#BEB47C" stroke-opacity="0.7" stroke-width="2"/>
<path d="M-93.7052 -22.388C-67.4317 12.1709 -9.76647 27.0238 49.6996 67.3837C109.166 107.744 160.009 142.527 218.388 168.566C258.203 178.365 402.247 117.391 474.35 221.942C562.209 316.459 597.275 320.388 650.373 342.51" stroke="#B9B27B" stroke-opacity="0.7" stroke-width="2"/>
<path d="M-93.969 -19.6286C-66.9408 10.6666 -6.89758 20.4206 54.0874 61.5847C115.072 102.749 165.404 140.744 223.901 173.696C263.407 187.557 403.241 126.478 474.455 224.267C563.276 311.056 596.714 314.799 651.826 338.964" stroke="#B4B07A" stroke-opacity="0.7" stroke-width="2"/>
<path d="M-94.2291 -16.9362C-66.4648 9.2007 -4.10241 13.982 58.3639 55.9304C120.83 97.8788 170.662 139.005 229.275 178.701C268.48 196.522 404.209 135.342 474.556 226.536C564.314 305.787 596.165 309.35 653.241 335.506" stroke="#B0AF79" stroke-opacity="0.7" stroke-width="2"/>
<path d="M-94.4784 -14.3145C-65.9967 7.7697 -1.37389 7.70443 62.5362 50.4172C126.446 93.13 175.79 137.308 234.517 183.576C273.428 205.258 405.155 143.978 474.658 228.745C565.33 300.649 595.634 304.036 654.624 332.134" stroke="#ABAD78" stroke-opacity="0.7" stroke-width="2"/>
<path d="M-94.7239 -11.7632C-65.5436 6.37367 1.28086 1.58792 66.5972 45.0452C131.913 88.5025 180.783 135.654 239.62 188.322C278.245 213.764 406.075 152.387 474.754 230.894C566.317 295.643 595.114 298.859 655.968 328.848" stroke="#A7AB78" stroke-opacity="0.7" stroke-width="2"/>
<path d="M-94.9621 -9.27546C-65.1017 5.01955 3.86543 -4.36052 70.5504 39.8214C137.235 84.0032 185.643 134.048 244.588 192.946C282.934 222.047 406.971 160.577 474.849 232.991C567.278 290.776 594.608 293.824 657.277 325.654" stroke="#A2AA77" stroke-opacity="0.7" stroke-width="2"/>
<path d="M-95.1965 -6.85826C-64.6748 3.70037 6.37628 -10.1479 74.3923 34.7387C142.408 79.6252 190.367 132.483 249.416 197.44C287.491 230.101 407.839 168.539 474.938 235.027C568.21 286.039 594.114 288.925 658.548 322.545" stroke="#9EA876" stroke-opacity="0.7" stroke-width="2"/>
<path d="M-95.4202 -4.50812C-64.2558 2.4196 8.8204 -15.7708 78.1299 29.8006C147.439 75.372 194.962 130.965 254.112 201.809C291.924 237.929 408.687 176.277 475.029 237.008C569.12 281.438 593.638 284.166 659.786 319.525" stroke="#9AA776" stroke-opacity="0.7" stroke-width="2"/>
<path d="M-95.6401 -2.2285C-63.8517 1.17379 11.1908 -21.2326 81.7563 25.0038C152.322 71.2401 199.42 129.488 258.669 206.049C296.225 245.527 409.508 183.789 475.114 238.928C570.001 276.968 593.173 279.543 660.986 316.591" stroke="#96A575" stroke-opacity="0.7" stroke-width="2"/>
<path d="M-95.8527 -0.0159047C-63.4589 -0.0335932 13.4911 -26.5298 85.2749 20.3516C157.059 67.233 203.746 128.056 263.09 210.163C300.398 252.899 410.304 191.077 475.198 240.793C570.856 272.633 592.723 275.059 662.151 313.745" stroke="#93A474" stroke-opacity="0.7" stroke-width="2"/>
<path d="M-96.058 2.12971C-63.0775 -1.20249 15.7211 -31.6624 88.6856 15.8441C161.65 63.3506 207.939 126.67 267.376 214.152C304.444 260.045 411.077 198.141 475.28 242.601C571.685 268.432 592.287 270.715 663.281 310.989" stroke="#8FA274" stroke-opacity="0.7" stroke-width="2"/>
<path d="M-96.256 4.20472C-62.7075 -2.33651 17.8809 -36.6341 91.9887 11.4777C166.096 59.5895 211.999 125.325 271.526 218.011C308.361 266.961 411.826 204.979 475.36 244.349C572.489 264.363 591.866 266.506 664.375 308.318" stroke="#8BA173" stroke-opacity="0.7" stroke-width="2"/>
<path d="M-96.4503 6.21266C-62.3524 -3.43214 19.967 -41.4411 95.1804 7.25602C170.394 55.9532 215.924 124.026 275.537 221.745C312.147 273.651 412.548 211.593 475.435 246.041C573.263 260.429 591.456 262.437 665.431 305.736" stroke="#88A072" stroke-opacity="0.7" stroke-width="2"/>
<path d="M-96.6373 8.15363C-62.0087 -4.48927 21.9828 -46.0836 98.2643 3.17902C174.546 52.4416 219.715 122.773 279.412 225.353C315.805 280.115 413.246 217.983 475.507 247.676C574.012 256.63 591.06 258.508 666.451 303.243" stroke="#859F72" stroke-opacity="0.7" stroke-width="2"/>
<path d="M-96.8169 10.0241C-61.6764 -5.51148 23.9285 -50.565 101.24 -0.756844C178.552 49.0513 223.374 121.561 283.152 228.832C319.335 286.349 413.92 224.146 475.578 249.252C574.736 252.963 590.679 254.715 667.437 300.835" stroke="#819D71" stroke-opacity="0.7" stroke-width="2"/>
<path d="M-96.9893 11.8274C-61.3554 -6.49528 25.804 -54.8819 104.109 -4.54805C182.414 45.7858 226.9 120.394 286.756 232.185C322.737 292.357 414.57 230.086 475.647 250.772C575.433 249.43 590.313 251.061 668.387 298.517" stroke="#7E9C71" stroke-opacity="0.7" stroke-width="2"/>
<path d="M-96.599 8.62647C-60.4905 -12.3779 28.1646 -63.9715 107.425 -13.1318C186.685 37.7078 230.849 114.336 290.78 230.475C326.567 293.201 415.752 230.865 476.27 247.298C576.661 241.095 590.517 242.609 669.857 291.35" stroke="#7B9B70" stroke-opacity="0.7" stroke-width="2"/>
<path d="M-96.035 3.8517C-59.4704 -19.7289 30.6215 -74.4033 110.8 -23.0778C190.978 28.2478 234.832 106.816 294.835 227.132C330.435 292.313 417.076 229.913 477.057 242.261C578.029 231.388 590.902 232.79 671.459 282.765" stroke="#789A70" stroke-opacity="0.7" stroke-width="2"/>
<path d="M-95.4914 -0.747342C-58.4894 -26.7987 32.9805 -84.4279 114.039 -32.6363C195.097 19.1553 238.654 99.5842 298.726 223.907C334.147 291.441 418.349 228.981 477.815 237.41C579.344 222.058 591.274 223.353 672.997 274.512" stroke="#76996F" stroke-opacity="0.7" stroke-width="2"/>
<path d="M-94.9686 -5.16705C-57.548 -33.5837 35.2412 -94.0414 117.142 -41.8038C199.043 10.4339 242.316 92.6441 302.454 220.803C337.703 290.59 419.57 228.071 478.543 232.749C580.605 213.11 591.632 214.302 674.473 266.594" stroke="#73986F" stroke-opacity="0.7" stroke-width="2"/>
<path d="M-94.467 -9.39711C-56.6464 -40.0736 37.4032 -103.234 120.109 -50.5699C202.815 2.09404 245.816 86.0061 306.017 217.829C341.103 289.769 420.739 227.195 479.24 228.289C581.812 204.553 591.976 205.647 675.885 259.022" stroke="#71976E" stroke-opacity="0.7" stroke-width="2"/>
<path d="M-93.9869 -13.4456C-55.785 -46.2764 39.4662 -112.013 122.94 -58.9427C206.413 -5.87247 249.155 79.662 309.417 214.978C344.346 288.971 421.855 226.344 479.907 224.021C582.965 196.38 592.307 197.381 677.232 251.787" stroke="#6E966E" stroke-opacity="0.7" stroke-width="2"/>
<path d="M-93.5321 -17.2998C-54.9675 -52.1795 41.4264 -120.366 125.63 -66.9095C209.833 -13.4529 252.329 73.6246 312.648 212.263C347.428 288.207 422.914 225.53 480.539 219.958C584.059 188.603 592.619 189.515 678.512 244.902" stroke="#6C956E" stroke-opacity="0.7" stroke-width="2"/>
<path d="M-93.0992 -20.9648C-54.1906 -57.7879 43.2873 -128.299 128.183 -74.4755C213.078 -20.6523 255.341 67.8888 315.714 209.679C350.353 287.474 423.921 224.749 481.14 216.096C585.099 181.217 592.917 182.044 679.728 238.363" stroke="#6A946D" stroke-opacity="0.7" stroke-width="2"/>
<path d="M-92.6884 -24.4355C-53.4545 -63.0967 45.0485 -135.805 130.599 -81.6355C216.149 -27.4656 258.191 62.4596 318.615 207.23C353.121 286.776 424.874 224.006 481.71 212.438C586.083 174.228 593.2 174.975 680.879 232.174" stroke="#68946D" stroke-opacity="0.7" stroke-width="2"/>
<path d="M-92.3 -27.7107C-52.7593 -68.1043 46.7099 -142.885 132.877 -88.3882C219.045 -33.8916 260.878 57.3383 321.351 204.918C355.731 286.114 425.774 223.302 482.249 208.986C587.013 167.636 593.468 168.307 681.965 226.337" stroke="#66936C" stroke-opacity="0.7" stroke-width="2"/>
<path d="M-91.9375 -30.7927C-52.1089 -72.8134 48.2678 -149.54 135.015 -94.7361C221.762 -39.9326 263.4 52.5226 323.918 202.741C358.181 285.487 426.616 222.635 482.752 205.738C587.883 161.439 593.717 162.04 682.983 220.849" stroke="#64926C" stroke-opacity="0.7" stroke-width="2"/>
<path d="M-91.5939 -33.6771C-51.4959 -77.2193 49.7293 -155.765 137.019 -100.675C224.308 -45.5841 265.763 48.017 326.323 200.703C360.475 284.898 427.409 222.008 483.228 202.699C588.702 155.641 593.955 156.176 683.939 215.714" stroke="#62926C" stroke-opacity="0.7" stroke-width="2"/>
<path d="M-91.2765 -36.3665C-50.9279 -81.3248 51.0872 -161.564 138.881 -106.206C226.675 -50.8489 267.959 43.8187 328.559 198.801C362.609 284.345 428.144 221.42 483.668 199.865C589.461 150.241 594.174 150.714 684.827 210.93" stroke="#61916C" stroke-opacity="0.7" stroke-width="2"/>
<path d="M-90.9852 -38.8567C-50.4046 -85.1256 52.3415 -166.932 140.602 -111.327C228.863 -55.7227 269.99 39.9319 330.626 197.039C364.581 283.832 428.822 220.875 484.073 197.242C590.162 145.241 594.374 145.658 685.646 206.502" stroke="#5F916B" stroke-opacity="0.7" stroke-width="2"/>
<path d="M-90.7132 -41.1471C-49.9193 -88.6212 53.4989 -171.869 142.189 -116.037C230.879 -60.2049 271.861 36.3573 332.531 195.419C366.399 283.359 429.45 220.373 484.449 194.828C590.81 140.643 594.562 141.007 686.404 202.429" stroke="#5E906B" stroke-opacity="0.7" stroke-width="2"/>
<path d="M-90.464 -43.2373C-49.4755 -91.8111 54.5561 -176.374 143.638 -120.334C232.719 -64.295 273.569 33.0953 334.27 193.94C368.058 282.928 430.024 219.915 484.794 192.626C591.402 136.448 594.735 136.764 687.096 198.712" stroke="#5D906B" stroke-opacity="0.7" stroke-width="2"/>
<path d="M-90.2411 -45.1303C-49.0766 -94.6982 55.5095 -180.45 144.945 -124.223C234.381 -67.9961 275.112 30.1429 335.841 192.6C369.556 282.535 430.54 219.498 485.103 190.632C591.936 132.651 594.889 132.924 687.719 195.349" stroke="#5C8F6B" stroke-opacity="0.7" stroke-width="2"/>
</svg>
