<svg width="336" height="376" viewBox="0 0 336 376" fill="none" xmlns="http://www.w3.org/2000/svg">
<g opacity="0.7">
<path d="M138.686 -106.476C91.9482 -78.9556 58.5781 -39.6823 41.6351 2.28633C24.6921 44.2549 27.0583 87.109 57.79 125.227C81.4866 152.943 158.482 274.175 55.5215 361.634C-45.2215 449.761 -40.6177 486.366 -38.6097 515.69" stroke="#DDC081" stroke-opacity="0.7"/>
<path d="M136.208 -106.121C93.3761 -78.8429 64.9906 -38.5631 47.6636 4.91064C30.3366 48.3844 29.7729 91.47 54.4557 131.161C74.5185 159.468 150.712 276.979 53.5031 362.221C-40.2455 449.551 -35.8245 484.687 -35.1835 516.214" stroke="#D8BE80" stroke-opacity="0.7"/>
<path d="M133.781 -105.776C94.7723 -78.7346 71.2664 -37.4695 53.5636 7.47785C35.8607 52.4252 32.429 95.7375 51.1903 136.968C67.6958 165.854 143.104 279.723 51.5259 362.794C-35.3757 449.346 -31.1337 483.043 -31.8307 516.727" stroke="#D2BC7F" stroke-opacity="0.7"/>
<path d="M131.405 -105.438C96.1381 -78.6287 77.4066 -36.3996 59.336 9.98945C41.2654 56.3785 35.0273 99.9125 47.9947 142.65C61.0197 172.101 135.659 282.406 49.5907 363.354C-30.6114 449.143 -26.5445 481.433 -28.5508 517.227" stroke="#CDBA7E" stroke-opacity="0.7"/>
<path d="M129.081 -105.109C97.4734 -78.5272 83.4112 -35.3553 64.9809 12.4438C46.5506 60.243 37.568 103.994 44.8691 148.205C54.49 178.209 128.378 285.03 47.6978 363.901C-25.9523 448.943 -22.0567 479.857 -25.3434 517.714" stroke="#C8B87D" stroke-opacity="0.7"/>
<path d="M126.811 -104.784C98.7799 -78.4242 89.2819 -34.3307 70.5001 14.8466C51.7182 64.024 40.0528 107.987 41.8152 153.638C48.1087 184.184 121.263 287.597 45.8487 364.438C-21.3968 448.751 -17.6686 478.32 -22.207 518.194" stroke="#C3B67C" stroke-opacity="0.7"/>
<path d="M124.593 -104.469C100.056 -78.3256 95.0171 -33.3318 75.8917 17.1921C56.7664 67.716 42.4801 111.886 38.8311 158.944C41.8739 190.019 114.31 290.103 44.0419 364.961C-16.9465 448.562 -13.3819 476.816 -19.1431 518.661" stroke="#BEB47C" stroke-opacity="0.7"/>
<path d="M122.427 -104.159C101.303 -78.2275 100.618 -32.3545 81.1569 19.4842C61.6962 71.3229 44.8507 115.695 35.918 164.127C35.7867 195.718 107.523 292.553 42.2782 365.474C-12.6007 448.379 -9.19573 475.35 -16.151 519.119" stroke="#B9B27B" stroke-opacity="0.7"/>
<path d="M120.314 -103.858C102.519 -78.1337 106.083 -31.4028 86.2954 21.719C66.5074 74.8407 47.1644 119.41 33.0756 169.183C29.8467 201.277 100.899 294.941 40.5574 365.973C-8.35926 448.199 -5.11015 473.917 -13.2305 519.564" stroke="#B4B07A" stroke-opacity="0.7"/>
<path d="M118.252 -103.566C103.704 -78.0424 111.412 -30.4748 91.3044 23.8983C71.1972 78.2714 49.4186 123.034 30.3011 174.114C24.0514 206.699 94.4368 297.27 38.8769 366.459C-4.22513 448.023 -1.12802 472.52 -10.3848 519.998" stroke="#B0AF79" stroke-opacity="0.7"/>
<path d="M116.242 -103.278C104.86 -77.9515 116.606 -29.5685 96.1877 26.0242C75.7694 81.6169 51.617 126.567 27.5985 178.921C18.4045 211.986 88.1401 299.541 37.2405 366.934C-0.194426 447.853 2.75455 471.16 -7.60972 520.423" stroke="#ABAD78" stroke-opacity="0.7"/>
<path d="M114.285 -102.999C105.985 -77.8631 121.665 -28.6858 100.944 28.0947C80.2224 84.8753 53.7578 130.008 24.9657 183.604C12.9041 217.134 82.0068 301.754 35.6462 367.397C3.73092 447.688 6.53562 469.835 -4.90737 520.836" stroke="#A7AB78" stroke-opacity="0.7"/>
<path d="M112.382 -102.729C107.082 -77.7791 126.59 -27.8288 105.574 30.1078C84.5577 88.0445 55.8428 133.355 22.4047 188.159C7.55204 222.143 76.0387 303.905 34.0958 367.846C7.5528 447.524 10.2171 468.543 -2.27581 521.236" stroke="#A2AA77" stroke-opacity="0.7"/>
<path d="M110.528 -102.466C108.146 -77.6975 131.378 -26.9954 110.075 32.0656C88.7716 91.1266 57.8682 136.61 19.9117 192.589C2.34456 227.014 70.2321 305.997 32.5857 368.282C11.2674 447.365 13.7951 467.287 0.281144 521.626" stroke="#9EA876" stroke-opacity="0.7"/>
<path d="M108.728 -102.211C109.181 -77.6184 136.031 -26.1856 114.45 33.9681C92.868 94.1218 59.8378 139.773 17.4904 196.894C-2.71447 231.748 64.5909 308.031 31.1197 368.706C14.8786 447.211 17.2736 466.066 2.76742 522.004" stroke="#9AA776" stroke-opacity="0.7"/>
<path d="M106.981 -101.959C110.187 -77.5377 140.551 -25.3955 118.698 35.819C96.8459 97.0336 61.7508 142.848 15.14 201.077C-7.62607 236.348 59.114 310.008 29.6967 369.121C18.3854 447.065 20.6515 464.885 5.18193 522.375" stroke="#96A575" stroke-opacity="0.7"/>
<path d="M105.286 -101.719C111.163 -77.4634 144.934 -24.6332 122.819 37.6106C100.704 99.8543 63.606 145.827 12.8594 205.132C-12.3912 240.807 53.8004 311.923 28.3158 369.52C21.7868 446.919 23.9279 463.734 7.52368 522.731" stroke="#93A474" stroke-opacity="0.7"/>
<path d="M103.642 -101.485C112.107 -77.3896 149.182 -23.8924 126.813 39.3487C104.443 102.59 65.4035 148.716 10.6487 209.063C-17.0099 245.13 48.6503 313.78 26.9771 369.908C25.0828 446.78 27.1028 462.621 9.79281 523.078" stroke="#8FA274" stroke-opacity="0.7"/>
<path d="M102.051 -101.256C113.023 -77.3162 153.295 -23.1733 130.679 41.0336C108.064 105.24 67.1443 151.515 8.50878 212.871C-21.4811 249.317 43.6646 315.581 25.6814 370.286C28.2745 446.647 30.1772 461.546 11.9902 523.416" stroke="#8BA173" stroke-opacity="0.7"/>
<path d="M100.512 -101.041C113.907 -77.2511 157.273 -22.4837 134.419 42.657C111.565 107.798 68.8275 154.216 6.43876 216.548C-25.8058 253.36 38.8422 317.316 24.4279 370.646C31.3608 446.513 33.15 460.5 14.115 523.736" stroke="#88A072" stroke-opacity="0.7"/>
<path d="M99.0274 -100.827C114.764 -77.1827 161.117 -21.812 138.033 44.231C114.949 110.274 70.455 156.831 4.44057 220.106C-29.9821 257.272 34.1853 318.997 23.2184 370.999C34.3437 446.388 36.0233 459.495 16.1689 524.052" stroke="#859F72" stroke-opacity="0.7"/>
<path d="M97.5931 -100.621C115.588 -77.1166 164.824 -21.1639 141.518 45.7495C118.212 112.663 72.0238 159.354 2.51122 223.538C-34.0129 261.046 29.6907 320.62 22.05 371.339C37.2202 446.268 38.7941 458.525 18.1492 524.356" stroke="#819D71" stroke-opacity="0.7"/>
<path d="M96.2103 -100.426C116.382 -77.0568 168.395 -20.5433 144.875 47.2089C121.355 114.961 73.5347 161.781 0.65171 226.842C-37.8971 264.679 25.3594 322.18 20.9238 371.664C39.9913 446.149 41.4634 457.587 20.0568 524.645" stroke="#7E9C71" stroke-opacity="0.7"/>
<path d="M98.677 -100.714C120.943 -77.4747 175.628 -20.4217 151.902 48.1375C128.177 116.697 78.7855 163.641 2.65936 229.545C-37.8377 267.699 24.9888 323.205 23.6369 371.5C46.4544 445.558 47.8284 456.209 25.689 524.448" stroke="#7B9B70" stroke-opacity="0.7"/>
<path d="M102.356 -101.155C126.634 -78.0411 183.886 -20.4696 159.963 48.8648C136.039 118.199 85.1392 165.263 5.89774 231.977C-36.4709 270.435 25.9425 324.025 27.553 371.178C53.9729 444.826 55.2528 454.72 32.4094 524.094" stroke="#789A70" stroke-opacity="0.7"/>
<path d="M105.9 -101.581C132.107 -78.5861 191.822 -20.5174 167.708 49.5606C143.595 119.639 91.248 166.817 9.01853 234.307C-35.1451 273.058 26.8722 324.809 31.3238 370.868C61.1987 444.123 62.3883 453.291 38.8697 523.753" stroke="#76996F" stroke-opacity="0.7"/>
<path d="M109.302 -101.989C137.356 -79.1094 199.428 -20.5648 175.133 50.2249C150.839 121.015 97.1057 168.302 12.0159 236.537C-33.8661 275.567 27.7719 325.559 34.9434 370.569C68.1258 443.447 69.2289 451.92 45.0639 523.424" stroke="#73986F" stroke-opacity="0.7"/>
<path d="M112.563 -102.379C142.382 -79.6086 206.706 -20.6093 182.238 50.8606C157.77 122.33 102.713 169.723 14.8904 238.668C-32.6333 277.965 28.6424 326.276 38.4125 370.285C74.7549 442.803 75.7753 450.613 50.9928 523.111" stroke="#71976E" stroke-opacity="0.7"/>
<path d="M115.678 -102.753C147.18 -80.0875 213.65 -20.6548 189.017 51.4633C164.383 123.581 108.065 171.073 17.637 240.696C-31.4517 280.247 29.4785 326.956 41.7258 370.01C81.0807 442.185 82.0224 449.362 56.6512 522.809" stroke="#6E966E" stroke-opacity="0.7"/>
<path d="M118.649 -103.109C151.751 -80.542 220.263 -20.6969 195.472 52.0378C170.681 124.772 113.163 172.359 20.2572 242.626C-30.32 282.419 30.2816 327.604 44.885 369.75C87.105 441.599 87.9718 448.174 62.0406 522.524" stroke="#6C956E" stroke-opacity="0.7"/>
<path d="M121.471 -103.448C156.09 -80.9757 226.539 -20.7396 201.599 52.5799C176.659 125.899 118.002 173.576 22.7464 244.454C-29.2427 284.477 31.0474 328.216 47.8855 369.501C92.823 441.04 93.6188 447.044 67.1565 522.25" stroke="#6A946D" stroke-opacity="0.7"/>
<path d="M124.146 -103.768C160.2 -81.3846 232.481 -20.7787 207.4 53.0939C182.318 126.966 122.585 174.728 25.1065 246.184C-28.2179 286.424 31.7775 328.796 50.7291 369.266C98.2367 440.513 98.9653 445.977 72.0008 521.992" stroke="#68946D" stroke-opacity="0.7"/>
<path d="M126.669 -104.072C164.077 -81.7726 238.084 -20.8181 212.869 53.5758C187.655 127.97 126.907 175.812 27.3334 247.812C-27.2496 288.257 32.468 329.34 53.4118 369.042C103.342 440.013 104.007 444.969 76.5693 521.747" stroke="#66936C" stroke-opacity="0.7"/>
<path d="M129.042 -104.356C167.72 -82.1353 243.349 -20.8533 218.01 54.0304C192.671 128.914 130.97 176.832 29.4285 249.344C-26.3365 289.981 33.1202 329.854 55.9349 368.835C108.14 439.547 108.746 444.025 80.8634 521.52" stroke="#64926C" stroke-opacity="0.7"/>
<path d="M131.265 -104.624C171.131 -82.4771 248.276 -20.889 222.82 54.4524C197.364 129.794 134.772 177.782 31.3905 250.772C-25.4799 291.589 33.7329 330.33 58.2972 368.637C112.63 439.106 113.18 443.137 84.8819 521.302" stroke="#62926C" stroke-opacity="0.7"/>
<path d="M133.335 -104.872C174.307 -82.7936 252.863 -20.9206 227.298 54.8469C201.734 130.614 138.312 178.668 33.2182 252.104C-24.6809 293.088 34.3048 330.776 60.4974 368.455C116.811 438.699 117.309 442.314 88.6236 521.102" stroke="#61916C" stroke-opacity="0.7"/>
<path d="M135.253 -105.103C177.249 -83.0887 257.11 -20.952 231.445 55.21C205.78 131.372 141.591 179.486 34.912 253.334C-23.9392 294.473 34.8363 331.186 62.5361 368.284C120.682 438.319 121.132 441.549 92.0888 520.915" stroke="#5F916B" stroke-opacity="0.7"/>
<path d="M137.017 -105.315C179.953 -83.3584 261.016 -20.9793 235.259 55.5453C209.501 132.07 144.606 180.24 36.4695 254.467C-23.2573 295.748 35.325 331.565 64.4105 368.129C124.242 437.972 124.648 440.848 95.2751 520.744" stroke="#5E906B" stroke-opacity="0.7"/>
<path d="M138.63 -105.508C182.425 -83.6048 264.584 -21.0044 238.742 55.8512C212.9 132.707 147.36 180.927 37.8941 255.5C-22.6316 296.911 35.7743 331.91 66.1245 367.987C127.493 437.655 127.859 440.208 98.186 520.589" stroke="#5D906B" stroke-opacity="0.7"/>
<path d="M140.087 -105.681C184.659 -83.8258 267.809 -21.0253 241.89 56.1293C215.972 133.284 149.85 181.551 39.1816 256.436C-22.0664 297.965 36.1801 332.224 67.6735 367.86C130.432 437.37 130.762 439.631 100.817 520.449" stroke="#5C8F6B" stroke-opacity="0.7"/>
</g>
</svg>
