<svg width="217" height="276" viewBox="0 0 217 276" fill="none" xmlns="http://www.w3.org/2000/svg">
<g opacity="0.3">
<path d="M-75.1014 -171.117C-22.4051 -158.274 20.8888 -130.316 49.2348 -95.033C77.5809 -59.7494 87.6972 -18.0394 69.2892 27.3322C54.611 60.7129 15.926 199.02 139.764 253.001C261.673 308.263 267.841 344.637 274.391 373.291" stroke="#DDC081" stroke-opacity="0.7"/>
<path d="M-72.6266 -171.494C-23.7398 -157.755 15.0728 -127.394 44.2213 -90.7801C73.3699 -54.1665 86.3579 -13.0813 74.1954 32.0483C63.1668 64.9447 24.1747 199.458 141.866 252.979C256.848 309.499 262.767 344.414 271.262 374.781" stroke="#D8BE80" stroke-opacity="0.7"/>
<path d="M-70.2017 -171.864C-25.0442 -157.246 9.38162 -124.533 39.3157 -86.6168C69.2499 -48.7011 85.0492 -8.22747 79.0004 36.6654C71.5444 69.0879 32.2517 199.888 143.925 252.958C252.127 310.71 257.802 344.196 268.201 376.242" stroke="#D2BC7F" stroke-opacity="0.7"/>
<path d="M-67.8308 -172.228C-26.3223 -156.752 3.81123 -121.735 34.514 -82.5456C65.2168 -43.3559 83.7667 -3.48082 83.7 41.1803C79.7398 73.139 40.1529 200.305 145.939 252.934C247.506 311.891 252.942 343.98 265.205 377.667" stroke="#CDBA7E" stroke-opacity="0.7"/>
<path d="M-65.5101 -172.584C-27.5702 -156.268 -1.63438 -119 29.8201 -78.564C61.2746 -38.1284 82.5147 1.16144 88.2984 45.5961C87.7569 77.1011 47.8823 200.713 147.91 252.911C242.989 313.047 248.192 343.768 262.276 379.061" stroke="#C8B87D" stroke-opacity="0.7"/>
<path d="M-63.2432 -172.929C-28.7916 -155.792 -6.95909 -116.323 25.2302 -74.6692C57.4195 -33.0156 81.2892 5.70206 92.7915 49.9152C95.5918 80.9768 55.436 201.115 149.835 252.891C238.572 314.18 243.546 343.565 259.412 380.427" stroke="#C3B67C" stroke-opacity="0.7"/>
<path d="M-61.0283 -173.267C-29.9848 -155.328 -12.161 -113.709 20.7461 -70.8657C53.6533 -28.0223 80.092 10.1364 97.1814 54.1332C103.246 84.7616 62.8159 201.506 151.716 252.87C234.257 315.284 239.008 343.364 256.613 381.759" stroke="#BEB47C" stroke-opacity="0.7"/>
<path d="M-58.8667 -173.597C-31.1507 -154.875 -17.2413 -111.156 16.3668 -67.1512C49.975 -23.1459 78.9222 14.467 101.467 58.2525C110.72 88.458 70.0211 201.889 153.552 252.85C230.043 316.364 234.576 343.169 253.88 383.061" stroke="#B9B27B" stroke-opacity="0.7"/>
<path d="M-56.7567 -173.919C-32.2881 -154.433 -22.1985 -108.665 12.0936 -63.526C46.3858 -18.3869 77.781 18.6934 105.649 62.2727C118.013 92.0654 77.0526 202.263 155.343 252.832C225.931 317.418 230.251 342.978 251.213 384.332" stroke="#B4B07A" stroke-opacity="0.7"/>
<path d="M-54.697 -174.235C-33.3954 -154.004 -27.0311 -106.238 7.9282 -59.9929C42.8875 -13.7481 76.67 22.8128 109.73 66.191C125.128 95.5812 83.9123 202.625 157.093 252.811C221.922 318.443 226.035 342.791 248.615 385.569" stroke="#B0AF79" stroke-opacity="0.7"/>
<path d="M-52.6901 -174.541C-34.4752 -153.583 -31.7417 -103.869 3.8677 -56.5469C39.4771 -9.2244 75.5865 26.8303 113.707 70.0125C132.062 99.0103 90.5972 202.98 158.797 252.793C218.015 319.445 221.926 342.61 246.081 386.777" stroke="#ABAD78" stroke-opacity="0.7"/>
<path d="M-50.7365 -174.839C-35.5279 -153.173 -36.3308 -101.563 -0.0880626 -53.1909C36.1547 -4.81871 74.5304 30.7429 117.58 73.7342C138.814 102.35 97.1074 203.326 160.457 252.775C214.208 320.42 217.922 342.434 243.612 387.954" stroke="#A7AB78" stroke-opacity="0.7"/>
<path d="M-48.8357 -175.129C-36.5531 -152.775 -40.7979 -99.3187 -3.93881 -49.925C32.9203 -0.531202 73.5017 34.5504 121.348 77.356C145.386 105.6 103.443 203.662 162.071 252.758C210.503 321.369 214.025 342.262 241.209 389.098" stroke="#A2AA77" stroke-opacity="0.7"/>
<path d="M-46.985 -175.414C-37.5481 -152.39 -45.1402 -97.138 -7.68173 -46.7506C29.7768 3.63668 72.5034 38.2516 125.015 80.8765C151.779 108.759 109.606 203.987 163.643 252.739C206.901 322.29 210.237 342.092 238.874 390.209" stroke="#9EA876" stroke-opacity="0.7"/>
<path d="M-45.1882 -175.689C-38.5167 -152.015 -49.3617 -95.0179 -11.3207 -43.665C26.7203 7.68788 71.5316 41.8493 128.576 84.2986C157.99 111.829 115.594 204.304 165.169 252.721C203.399 323.186 206.554 341.929 236.603 391.29" stroke="#9AA776" stroke-opacity="0.7"/>
<path d="M-43.4425 -175.954C-39.456 -151.647 -53.4594 -92.9561 -14.8528 -40.6657C23.7538 11.6246 70.5891 45.3456 132.036 87.6245C164.021 114.814 121.41 204.615 166.651 252.707C200 324.059 202.979 341.774 234.399 392.343" stroke="#96A575" stroke-opacity="0.7"/>
<path d="M-41.7507 -176.213C-40.3689 -151.294 -57.4363 -90.9595 -18.281 -37.7598C20.8743 15.44 69.6731 48.7337 135.39 90.8472C169.871 117.705 127.049 204.913 168.088 252.69C196.701 324.903 199.509 341.619 232.259 393.36" stroke="#93A474" stroke-opacity="0.7"/>
<path d="M-40.1099 -176.463C-41.2526 -150.95 -61.2894 -89.0223 -21.6023 -34.9412C18.0847 19.1399 68.7865 52.0196 138.642 93.9728C175.541 120.51 132.516 205.204 169.481 252.676C193.505 325.722 196.148 341.472 230.187 394.348" stroke="#8FA274" stroke-opacity="0.7"/>
<path d="M-38.5211 -176.705C-42.1078 -150.617 -65.0196 -87.1471 -24.8177 -32.2126C15.3841 22.7218 67.9283 55.2007 141.79 96.9987C181.031 123.225 137.809 205.485 170.831 252.662C190.411 326.516 192.894 341.329 228.18 395.305" stroke="#8BA173" stroke-opacity="0.7"/>
<path d="M-36.9845 -176.942C-42.9349 -150.297 -68.6271 -85.336 -27.9273 -29.5763C12.7725 26.1835 67.0985 58.2747 144.836 99.9226C186.341 125.849 142.928 205.755 172.136 252.646C187.418 327.28 189.746 341.188 226.24 396.228" stroke="#88A072" stroke-opacity="0.7"/>
<path d="M-35.5009 -177.167C-43.7348 -149.984 -72.113 -83.5827 -30.9322 -27.0257C10.2486 29.5313 66.296 61.248 147.777 102.751C191.469 128.387 147.872 206.019 173.396 252.634C184.527 328.023 186.705 341.056 224.365 397.123" stroke="#859F72" stroke-opacity="0.7"/>
<path d="M-34.0692 -177.385C-44.5062 -149.684 -75.4759 -81.8924 -33.831 -24.5662C7.81387 32.76 65.5221 64.1153 150.614 105.478C196.418 130.834 152.643 206.272 174.612 252.621C181.737 328.738 183.772 340.927 222.556 397.985" stroke="#819D71" stroke-opacity="0.7"/>
<path d="M-32.6883 -177.596C-45.248 -149.396 -78.7146 -80.2649 -36.6226 -22.1976C5.46935 35.8697 64.7776 66.8769 153.35 108.105C201.187 133.191 157.241 206.516 175.784 252.608C179.05 329.425 180.946 340.801 220.814 398.815" stroke="#7E9C71" stroke-opacity="0.7"/>
<path d="M-35.1331 -177.16C-49.7352 -148.479 -85.6043 -78.059 -43.0821 -19.2785C-0.559893 39.5019 60.2881 70.1741 152.209 111.273C202.002 136.099 157.892 207.39 173.14 253.235C172.692 330.727 174.454 341.32 215.365 400.253" stroke="#7B9B70" stroke-opacity="0.7"/>
<path d="M-38.7831 -176.52C-55.3473 -147.377 -93.5244 -75.719 -50.5889 -16.2535C-7.65342 43.2119 54.6736 73.5624 149.811 114.536C201.484 139.114 157.215 208.45 169.297 254.058C165.283 332.198 166.916 342.04 208.829 401.855" stroke="#789A70" stroke-opacity="0.7"/>
<path d="M-42.2981 -175.903C-60.744 -146.317 -101.135 -73.4722 -57.8028 -13.3497C-14.4709 46.7729 49.2747 76.8147 147.497 117.669C200.973 142.007 156.553 209.47 165.598 254.85C158.162 333.612 159.672 342.733 202.546 403.395" stroke="#76996F" stroke-opacity="0.7"/>
<path d="M-45.673 -175.311C-65.9204 -145.301 -108.43 -71.3193 -64.7188 -10.5678C-21.0074 50.1836 44.0962 79.9299 145.272 120.67C200.473 144.779 155.908 210.448 162.047 255.611C151.336 334.967 152.728 343.398 196.521 404.871" stroke="#73986F" stroke-opacity="0.7"/>
<path d="M-48.9084 -174.742C-70.877 -144.328 -115.411 -69.2599 -71.3373 -7.90742C-27.2634 53.445 39.1377 82.9091 143.135 123.54C199.985 147.43 155.281 211.385 158.643 256.34C144.802 336.265 146.082 344.037 190.754 406.284" stroke="#71976E" stroke-opacity="0.7"/>
<path d="M-51.9993 -174.201C-75.6086 -143.4 -122.073 -67.2975 -77.6534 -5.37222C-33.2339 56.553 34.404 85.7479 141.091 126.275C199.513 149.956 154.677 212.277 155.391 257.033C138.567 337.501 139.739 344.644 185.249 407.629" stroke="#6E966E" stroke-opacity="0.7"/>
<path d="M-54.9453 -173.683C-80.1151 -142.515 -128.415 -65.427 -83.6667 -2.9569C-38.9185 59.5132 29.8958 88.4522 139.141 128.88C199.058 152.363 154.096 213.13 152.292 257.698C132.632 338.681 133.701 345.226 180.008 408.913" stroke="#6C956E" stroke-opacity="0.7"/>
<path d="M-57.7457 -173.192C-84.3956 -141.676 -134.437 -63.6547 -89.3766 -0.667833C-44.3166 62.3191 25.6135 91.0153 137.285 131.349C198.621 154.644 153.539 213.937 149.347 258.326C126.995 339.798 127.968 345.776 175.03 410.129" stroke="#6A946D" stroke-opacity="0.7"/>
<path d="M-60.3983 -172.726C-88.4481 -140.88 -140.136 -61.9755 -94.7808 1.50008C-49.4259 64.9757 21.5594 93.4423 135.526 133.687C198.202 156.804 153.008 214.703 146.557 258.923C121.66 340.857 122.542 346.299 170.319 411.282" stroke="#68946D" stroke-opacity="0.7"/>
<path d="M-62.9024 -172.289C-92.2717 -140.132 -145.511 -60.3951 -99.8786 3.54122C-54.2457 67.4775 17.7343 95.7277 133.864 135.889C197.805 158.838 152.504 215.423 143.924 259.483C116.628 341.853 117.423 346.79 165.874 412.366" stroke="#66936C" stroke-opacity="0.7"/>
<path d="M-65.2567 -171.875C-95.8651 -139.427 -150.562 -58.9078 -104.669 5.46134C-58.7747 69.8305 14.1395 97.8776 132.301 137.96C197.428 160.752 152.028 216.103 141.448 260.014C111.9 342.793 112.613 347.255 161.697 413.389" stroke="#64926C" stroke-opacity="0.7"/>
<path d="M-67.4618 -171.487C-99.2291 -138.767 -155.29 -57.5165 -109.152 7.25713C-63.0136 72.0307 10.7741 99.8877 130.835 139.896C197.073 162.541 151.579 216.738 139.13 260.508C107.474 343.671 108.112 347.688 157.787 414.344" stroke="#62926C" stroke-opacity="0.7"/>
<path d="M-69.5139 -171.128C-102.36 -138.154 -159.689 -56.2231 -113.324 8.92702C-66.9585 74.0771 7.64215 101.757 129.471 141.697C196.742 164.205 151.161 217.328 136.972 260.968C103.355 344.486 103.922 348.091 154.148 415.231" stroke="#61916C" stroke-opacity="0.7"/>
<path d="M-71.4175 -170.795C-105.261 -137.585 -163.765 -55.0246 -117.189 10.474C-70.614 75.9727 4.73918 103.489 128.205 143.366C196.432 165.747 150.77 217.876 134.97 261.395C99.539 345.243 100.041 348.465 150.776 416.055" stroke="#5F916B" stroke-opacity="0.7"/>
<path d="M-73.1683 -170.488C-107.93 -137.063 -167.513 -53.923 -120.744 11.8962C-73.9756 77.7153 2.06949 105.081 127.04 144.9C196.146 167.164 150.411 218.379 133.13 261.787C96.0296 345.938 96.4713 348.809 147.675 416.811" stroke="#5E906B" stroke-opacity="0.7"/>
<path d="M-74.7667 -170.206C-110.366 -136.584 -170.934 -52.9157 -123.989 13.1958C-77.0439 79.3074 -0.367454 106.536 125.976 146.301C195.885 168.459 150.082 218.84 131.449 262.147C92.8264 346.575 93.2133 349.125 144.845 417.504" stroke="#5D906B" stroke-opacity="0.7"/>
<path d="M-76.2134 -169.952C-112.57 -136.151 -174.029 -52.0051 -126.924 14.3707C-79.8196 80.7466 -2.57234 107.851 125.012 147.568C195.647 169.629 149.783 219.257 129.928 262.472C89.9287 347.15 90.266 349.409 142.284 418.129" stroke="#5C8F6B" stroke-opacity="0.7"/>
</g>
</svg>
