<svg width="61" height="20" viewBox="0 0 61 20" fill="none" xmlns="http://www.w3.org/2000/svg">
<path d="M43.3804 15.4208V0H46.4838V15.4208H43.3804Z" fill="#605C5C"/>
<path d="M7.26299 20.0008H0.621582V4.58008H7.00092C10.1044 4.58008 11.8975 6.26974 11.8975 8.91113C11.8989 9.57167 11.7164 10.2196 11.3705 10.7823C11.0246 11.345 10.5289 11.8004 9.93886 12.0973C10.613 12.3824 11.1838 12.8668 11.5746 13.4857C11.9654 14.1046 12.1575 14.8282 12.1251 15.5594C12.1251 18.4422 10.0975 20.0008 7.26299 20.0008ZM6.75954 7.26974H3.72504V10.8215H6.75954C8.06989 10.8215 8.81472 10.1042 8.81472 9.04216C8.81472 7.98009 8.07678 7.26974 6.75954 7.26974ZM6.96643 13.5249H3.72504V17.3181H6.96643C8.36644 17.3181 9.03541 16.4491 9.03541 15.4077C9.03541 14.3732 8.36644 13.5249 6.96643 13.5249ZM21.5803 13.6767V20.0008H18.5044V13.6767L13.7251 4.58008H17.0906L20.0561 10.7939L22.9734 4.58697H26.3458L21.5734 13.6767H21.5803ZM35.139 20.0008H28.4838V4.58008H34.8631C37.9666 4.58008 39.7666 6.26974 39.7666 8.91113C39.7673 9.5724 39.5838 10.2208 39.2366 10.7836C38.8895 11.3464 38.3923 11.8013 37.801 12.0973C38.4752 12.3824 39.046 12.8668 39.4368 13.4857C39.8276 14.1046 40.0197 14.8282 39.9873 15.5594C39.9873 18.4422 37.9597 20.0008 35.1321 20.0008H35.139ZM34.6217 7.26974H31.5872V10.8215H34.6217C35.939 10.8215 36.6769 10.1042 36.6769 9.04216C36.6769 7.98009 35.939 7.26974 34.6217 7.26974ZM34.8286 13.5249H31.5872V17.3181H34.8286C36.2286 17.3181 36.8976 16.4491 36.8976 15.4077C36.8976 14.3732 36.2286 13.5249 34.8286 13.5249ZM56.477 7.26974V20.0008H53.3735V7.26974H49.2287V4.58008H60.6218V7.26974H56.477Z" fill="#605C5C"/>
</svg>
