<svg width="156" height="52" viewBox="0 0 156 52" fill="none" xmlns="http://www.w3.org/2000/svg">
<path d="M111.173 40.094V0H119.242V40.094H111.173Z" fill="white"/>
<path d="M17.2677 51.9992H0V11.9053H16.5863C24.6553 11.9053 29.3174 16.2984 29.3174 23.166C29.321 24.8834 28.8466 26.568 27.9472 28.031C27.0478 29.4941 25.759 30.678 24.2249 31.4502C25.9777 32.1912 27.4618 33.4509 28.4779 35.0599C29.494 36.669 29.9934 38.5504 29.9091 40.4516C29.9091 47.9468 24.6373 51.9992 17.2677 51.9992ZM15.9587 18.8984H8.069V28.1329H15.9587C19.3656 28.1329 21.3022 26.2681 21.3022 23.5067C21.3022 20.7453 19.3835 18.8984 15.9587 18.8984ZM16.4966 35.1619H8.069V45.024H16.4966C20.1366 45.024 21.8759 42.7647 21.8759 40.0571C21.8759 37.3674 20.1366 35.1619 16.4966 35.1619ZM54.4926 35.5564V51.9992H46.4954V35.5564L34.0691 11.9053H42.8195L50.5299 28.0612L58.1147 11.9232H66.883L54.4747 35.5564H54.4926ZM89.7452 51.9992H72.4417V11.9053H89.0279C97.0969 11.9053 101.777 16.2984 101.777 23.166C101.779 24.8853 101.302 26.5711 100.399 28.0344C99.4965 29.4977 98.204 30.6805 96.6666 31.4502C98.4194 32.1912 99.9035 33.4509 100.92 35.0599C101.936 36.669 102.435 38.5504 102.351 40.4516C102.351 47.9468 97.079 51.9992 89.7272 51.9992H89.7452ZM88.4003 18.8984H80.5107V28.1329H88.4003C91.8252 28.1329 93.7438 26.2681 93.7438 23.5067C93.7438 20.7453 91.8252 18.8984 88.4003 18.8984ZM88.9383 35.1619H80.5107V45.024H88.9383C92.5783 45.024 94.3176 42.7647 94.3176 40.0571C94.3176 37.3674 92.5783 35.1619 88.9383 35.1619ZM145.224 18.8984V51.9992H137.155V18.8984H126.378V11.9053H156.001V18.8984H145.224Z" fill="white"/>
</svg>
