<svg width="314" height="72" viewBox="0 0 314 72" fill="none" xmlns="http://www.w3.org/2000/svg">
<path d="M1.0498 52.3038L14.3506 61.3796C15.7709 62.3488 17.6517 62.3018 19.0218 61.263L28.9375 53.7453C30.1088 52.8573 31.6726 52.6832 33.0104 53.2917L44.5205 58.5276C45.7642 59.0934 47.2107 58.9852 48.3564 58.2407L55.5277 53.5804C56.7409 52.792 58.2852 52.7202 59.5663 53.3926L75.4779 61.7443C76.9252 62.504 78.6891 62.3067 79.9327 61.2459L89.0723 53.4504C89.9286 52.7201 91.053 52.3842 92.1696 52.5253L107.174 54.4213C108.464 54.5843 109.752 54.1102 110.629 53.15L136.739 24.5559C137.206 24.0444 137.798 23.663 138.457 23.449L146.457 20.8497C147.692 20.4482 148.656 19.4718 149.041 18.231L152.384 7.45985C153.35 4.34599 157.436 3.63423 159.398 6.2379L164.637 13.1886C166.041 15.0513 168.734 15.3225 170.481 13.7771L173.407 11.189C175.154 9.64364 177.848 9.91488 179.252 11.7776L179.507 12.116C181.171 14.3235 184.519 14.2183 186.04 11.9107L192.031 2.8265C193.107 1.19601 195.202 0.580482 196.988 1.37047L212.708 8.32271L227.113 15.9676C227.936 16.4044 228.581 17.1149 228.936 17.9765L233.463 28.9608C234.663 31.8716 238.6 32.3195 240.423 29.7527L245.738 22.2688C246.631 21.0108 248.169 20.3789 249.689 20.6448L266.363 23.5622C267.158 23.7012 267.975 23.5969 268.709 23.2631L273.25 21.1974C274.588 20.5888 276.152 20.763 277.323 21.6509L284.829 27.3416L296.681 38.5741C297.135 39.0043 297.482 39.5349 297.693 40.1234L299.371 44.7857C300.486 47.8856 304.66 48.3841 306.474 45.634L313.05 35.6623" stroke="#5F976E"/>
<path d="M14.3353 61.9536L1.0498 52.802V68.0012C1.0498 70.2104 2.84066 72.002 5.0498 72.002H309.05C311.259 72.002 313.05 70.2111 313.05 68.002V36.002L306.485 46.0511C304.676 48.8204 300.479 48.322 299.368 45.2061L297.689 40.4945C297.48 39.9076 297.137 39.3776 296.687 38.9469L284.829 27.602L277.334 21.8655C276.157 20.9651 274.58 20.7886 273.233 21.4069L268.718 23.4807C267.978 23.8201 267.153 23.9262 266.352 23.7847L249.705 20.8442C248.177 20.5743 246.63 21.2126 245.737 22.4817L240.435 30.0186C238.615 32.605 234.656 32.1568 233.46 29.229L228.931 18.1355C228.579 17.2736 227.937 16.5614 227.117 16.1217L212.708 8.40195L197.008 1.39239C195.214 0.591266 193.103 1.21212 192.029 2.85724L186.049 12.0105C184.529 14.3373 181.158 14.443 179.495 12.2159L179.26 11.901C177.856 10.0201 175.142 9.74699 173.391 11.3104L170.498 13.8935C168.747 15.4569 166.033 15.1838 164.628 13.3029L159.412 6.31531C157.453 3.69213 153.345 4.40382 152.383 7.53291L149.035 18.4222C148.654 19.6637 147.693 20.6427 146.459 21.0475L138.46 23.6713C137.799 23.888 137.207 24.2731 136.74 24.7888L110.632 53.6531C109.754 54.6235 108.457 55.1033 107.159 54.9377L92.1832 53.0273C91.0587 52.8839 89.9261 53.2243 89.0671 53.964L79.9435 61.8199C78.6954 62.8946 76.9161 63.0944 75.4607 62.3232L59.5817 53.9092C58.2928 53.2263 56.7343 53.299 55.5147 54.0992L48.3685 58.7874C47.2166 59.5431 45.7569 59.6528 44.505 59.0779L33.027 53.8069C31.6807 53.1886 30.103 53.3651 28.9266 54.2655L19.0356 61.8359C17.6597 62.889 15.7622 62.9365 14.3353 61.9536Z" fill="url(#paint0_linear_2957_23297)"/>
<defs>
<linearGradient id="paint0_linear_2957_23297" x1="157.834" y1="3.60195" x2="157.374" y2="72.0041" gradientUnits="userSpaceOnUse">
<stop stop-color="#5F976E"/>
<stop offset="1" stop-color="#5F976E" stop-opacity="0"/>
</linearGradient>
</defs>
</svg>
