<svg width="87" height="20" viewBox="0 0 87 20" fill="none" xmlns="http://www.w3.org/2000/svg">
<path d="M68.1929 10.0039C68.1929 9.48879 68.1929 9.00948 68.1786 8.57309C68.1715 8.14386 68.1286 7.72893 68.0572 7.32116C67.9887 6.94166 67.8685 6.57337 67.7001 6.22661C67.2345 5.36901 66.4986 4.68985 65.6072 4.29506C65.0398 4.06744 64.4327 3.95557 63.8215 3.96598C63.2254 3.9524 62.6329 4.06087 62.0802 4.28476C61.5275 4.50864 61.0262 4.84322 60.6072 5.26799C60.0657 5.82922 59.7091 6.54337 59.5858 7.314C59.5143 7.72893 59.4715 8.14386 59.4643 8.55878L59.4501 9.99672C59.4501 10.5046 59.4501 10.984 59.4643 11.4275C59.4715 11.8567 59.5143 12.2645 59.5858 12.6794C59.6923 13.4569 60.0542 14.1767 60.6143 14.7254C61.0316 15.1526 61.5325 15.4888 62.0856 15.7129C62.6388 15.9369 63.2322 16.044 63.8286 16.0275C64.6195 16.0405 65.3991 15.8376 66.0836 15.4406C66.7682 15.0436 67.3319 14.4675 67.7143 13.774C67.8715 13.4234 67.9929 13.0586 68.0572 12.6794C68.1286 12.2717 68.1643 11.8496 68.1786 11.4347C68.1929 10.9911 68.2001 10.5046 68.1929 10.0039ZM65.8858 10.0039C65.8858 10.569 65.8786 11.0412 65.8572 11.4132C65.8429 11.7208 65.8143 12.0284 65.7643 12.336C65.7286 12.5364 65.6715 12.7295 65.5786 12.9155C65.3942 13.3061 65.0744 13.6163 64.6786 13.7883C64.4077 13.9044 64.1161 13.9643 63.8215 13.9643C63.5268 13.9643 63.2352 13.9044 62.9643 13.7883C62.5636 13.6186 62.2385 13.3083 62.0501 12.9155C61.965 12.7318 61.9072 12.5365 61.8786 12.336C61.8286 12.0284 61.8001 11.7208 61.7858 11.4132C61.7456 10.4717 61.7456 9.5289 61.7858 8.5874C61.8001 8.27978 61.8286 7.97216 61.8786 7.6717C61.9072 7.46424 61.9643 7.27108 62.0501 7.08508C62.239 6.69271 62.564 6.38252 62.9643 6.2123C63.236 6.09935 63.5273 6.0412 63.8215 6.0412C64.1157 6.0412 64.4069 6.09935 64.6786 6.2123C65.074 6.38483 65.3937 6.69485 65.5786 7.08508C65.6715 7.27108 65.7286 7.46424 65.7643 7.6717C65.8143 7.97216 65.8429 8.27978 65.8572 8.5874C65.8786 8.9594 65.8858 9.43156 65.8858 10.0039ZM86.6215 4.2736C86.6196 4.21982 86.597 4.16887 86.5583 4.1315C86.5197 4.09413 86.4681 4.07325 86.4143 4.07329H84.5072C84.4547 4.07507 84.4049 4.09675 84.3677 4.13393C84.3306 4.17112 84.309 4.22104 84.3072 4.2736V11.3345L79.6572 4.13052C79.6215 4.08044 79.5929 4.07329 79.5286 4.07329H77.7572C77.7047 4.07507 77.6549 4.09675 77.6177 4.13393C77.5806 4.17112 77.559 4.22104 77.5572 4.2736V15.7198C77.5572 15.8343 77.6501 15.9273 77.7572 15.9345H79.6643C79.7786 15.9345 79.8643 15.8343 79.8643 15.7198V8.65178L84.5215 15.8772C84.5501 15.9201 84.5786 15.9273 84.6429 15.9273H86.4143C86.5286 15.9273 86.6143 15.8343 86.6143 15.727V4.28075L86.6215 4.2736ZM73.8358 4.2736C73.8339 4.21982 73.8113 4.16887 73.7726 4.1315C73.734 4.09413 73.6824 4.07325 73.6286 4.07329H71.7215C71.669 4.07507 71.6192 4.09675 71.582 4.13393C71.5449 4.17112 71.5233 4.22104 71.5215 4.2736V15.7198C71.5215 15.8343 71.6143 15.9345 71.7215 15.9345H73.6286C73.6842 15.9326 73.7369 15.9092 73.7756 15.8691C73.8142 15.8291 73.8358 15.7755 73.8358 15.7198V4.2736ZM51.0286 10.0039C51.0286 9.43156 51.0286 8.9594 51.0429 8.58025C51.0572 8.27263 51.0858 7.96501 51.1358 7.66455C51.201 7.1995 51.437 6.77549 51.7975 6.47523C52.158 6.17498 52.6173 6.02003 53.0858 6.04061C53.7358 6.04061 54.3286 6.28384 54.7001 6.82754C54.8715 7.09223 55.0001 7.37124 55.0715 7.6717C55.0715 7.70032 55.1072 7.72178 55.1358 7.72178H57.3786C57.4143 7.72178 57.4215 7.70032 57.4143 7.6717C57.1715 6.27669 56.4286 5.02476 55.1286 4.40952C54.4839 4.11326 53.7807 3.96653 53.0715 3.98029C52.4799 3.96652 51.8917 4.07359 51.3427 4.29499C50.7938 4.51638 50.2956 4.84744 49.8786 5.26799C49.3844 5.75303 49.0482 6.37651 48.9143 7.05646C48.7786 7.72178 48.7143 8.70186 48.7143 10.0039C48.7143 11.2987 48.7786 12.2788 48.9143 12.9441C49.0482 13.6241 49.3844 14.2476 49.8786 14.7326C50.2943 15.1555 50.792 15.4885 51.3412 15.7112C51.8903 15.9339 52.4792 16.0416 53.0715 16.0275C53.7786 16.0418 54.4786 15.8844 55.1215 15.5982C55.7388 15.281 56.2699 14.8184 56.6693 14.2501C57.0687 13.6819 57.3244 13.0251 57.4143 12.336C57.4143 12.3003 57.4143 12.286 57.3786 12.286H55.1286C55.1211 12.285 55.1135 12.2855 55.1062 12.2875C55.0988 12.2894 55.092 12.2929 55.086 12.2975C55.08 12.3022 55.075 12.308 55.0713 12.3146C55.0676 12.3212 55.0652 12.3285 55.0643 12.336C54.9929 12.6294 54.8715 12.9084 54.7001 13.1731C54.5179 13.4287 54.2748 13.6347 53.9928 13.7722C53.7109 13.9096 53.399 13.9742 53.0858 13.96C52.0858 13.96 51.3072 13.3662 51.1358 12.3432C51.0836 12.0405 51.0526 11.7345 51.0429 11.4275C51.0286 11.0412 51.0215 10.569 51.0215 9.99672L51.0286 10.0039ZM27.3286 4.2736C27.3268 4.22104 27.3052 4.17112 27.2681 4.13393C27.2309 4.09675 27.1811 4.07507 27.1286 4.07329H25.2215C25.169 4.07507 25.1192 4.09675 25.082 4.13393C25.0449 4.17112 25.0233 4.22104 25.0215 4.2736V15.7198C25.0215 15.8343 25.1072 15.9345 25.2215 15.9345H27.1286C27.2358 15.9345 27.3286 15.8343 27.3286 15.7198V12.3718L28.8572 10.5404L32.0001 15.8772C32.0286 15.913 32.0715 15.9345 32.1143 15.9345H34.4286C34.5358 15.9345 34.5572 15.8629 34.5001 15.7771L30.3929 8.79486L34.1643 4.25929C34.2358 4.16629 34.2072 4.08044 34.0929 4.08044H31.5572C31.5422 4.07959 31.5272 4.0824 31.5135 4.08863C31.4998 4.09486 31.4879 4.10432 31.4786 4.11621L27.3358 9.10248V4.2736H27.3286ZM41.2143 13.9671C40.1429 13.9671 39.1715 12.9656 39.1715 11.7852V4.2736C39.1696 4.21982 39.147 4.16887 39.1083 4.1315C39.0697 4.09413 39.0181 4.07325 38.9643 4.07329H37.0572C37.0047 4.07507 36.9549 4.09675 36.9178 4.13393C36.8806 4.17112 36.859 4.22104 36.8572 4.2736V11.7566C36.8572 14.3678 38.8072 16.0275 41.2143 16.0275C43.6143 16.0275 45.5715 14.3678 45.5715 11.7566V4.2736C45.5696 4.21982 45.547 4.16887 45.5083 4.1315C45.4697 4.09413 45.4181 4.07325 45.3643 4.07329H43.4572C43.4047 4.07507 43.3549 4.09675 43.3177 4.13393C43.2806 4.17112 43.259 4.22104 43.2572 4.2736V11.7852C43.2572 12.9656 42.2858 13.9671 41.2143 13.9671Z" fill="#605C5C"/>
<path fill-rule="evenodd" clip-rule="evenodd" d="M5.86438 10.0042L11.7787 15.9276L15.5144 12.1862C15.8307 11.8693 16.2598 11.6913 16.7072 11.6913C17.1546 11.6913 17.5837 11.8693 17.9001 12.1862C18.2165 12.503 18.3942 12.9328 18.3942 13.3809C18.3942 13.829 18.2165 14.2587 17.9001 14.5756L12.9715 19.5117C12.3072 20.1628 11.2501 20.1628 10.5858 19.5117L3.47867 12.3936V16.6216C3.47867 17.0703 3.30069 17.5006 2.98389 17.8179C2.66709 18.1352 2.23741 18.3135 1.78938 18.3135C1.34136 18.3135 0.911681 18.1352 0.594878 17.8179C0.278075 17.5006 0.100098 17.0703 0.100098 16.6216L0.100098 3.37254C0.100098 2.92382 0.278075 2.49348 0.594878 2.17619C0.911681 1.8589 1.34136 1.68064 1.78938 1.68064C2.23741 1.68064 2.66709 1.8589 2.98389 2.17619C3.30069 2.49348 3.47867 2.92382 3.47867 3.37254V7.60765L10.5858 0.48952C10.9038 0.175829 11.3323 0 11.7787 0C12.225 0 12.6535 0.175829 12.9715 0.48952L17.9001 5.42571C18.2165 5.74257 18.3942 6.17231 18.3942 6.62041C18.3942 7.06851 18.2165 7.49826 17.9001 7.81512C17.5837 8.13197 17.1546 8.30998 16.7072 8.30998C16.2598 8.30998 15.8307 8.13197 15.5144 7.81512L11.7858 4.07362L5.86438 10.0042ZM11.7858 8.30873C11.5635 8.30873 11.3434 8.35259 11.138 8.4378C10.9326 8.523 10.746 8.64789 10.5888 8.80533C10.4316 8.96277 10.3069 9.14968 10.2218 9.35538C10.1367 9.56108 10.093 9.78156 10.093 10.0042C10.093 10.2269 10.1367 10.4473 10.2218 10.653C10.3069 10.8587 10.4316 11.0457 10.5888 11.2031C10.746 11.3605 10.9326 11.4854 11.138 11.5706C11.3434 11.6558 11.5635 11.6997 11.7858 11.6997C12.2348 11.6997 12.6654 11.5211 12.9828 11.2031C13.3003 10.8851 13.4787 10.4539 13.4787 10.0042C13.4787 9.55454 13.3003 9.12329 12.9828 8.80533C12.6654 8.48736 12.2348 8.30873 11.7858 8.30873Z" fill="#605C5C"/>
</svg>
