<svg width="225" height="52" viewBox="0 0 225 52" fill="none" xmlns="http://www.w3.org/2000/svg">
<path d="M177.041 26.011C177.041 24.6718 177.041 23.4256 177.004 22.291C176.985 21.175 176.874 20.0962 176.688 19.036C176.51 18.0493 176.198 17.0917 175.76 16.1902C174.549 13.9604 172.636 12.1946 170.318 11.1681C168.843 10.5763 167.264 10.2854 165.675 10.3125C164.126 10.2772 162.585 10.5592 161.148 11.1413C159.711 11.7235 158.408 12.5934 157.318 13.6977C155.91 15.157 154.983 17.0137 154.663 19.0174C154.477 20.0962 154.365 21.175 154.347 22.2538L154.31 25.9924C154.31 27.3131 154.31 28.5593 154.347 29.7125C154.365 30.8285 154.477 31.8887 154.663 32.9675C154.94 34.9889 155.88 36.8605 157.337 38.2871C158.422 39.3978 159.724 40.2719 161.162 40.8544C162.6 41.437 164.143 41.7155 165.694 41.6724C167.75 41.7062 169.777 41.1788 171.557 40.1466C173.337 39.1144 174.803 37.6164 175.797 35.8133C176.205 34.9019 176.521 33.9533 176.688 32.9675C176.874 31.9073 176.967 30.8099 177.004 29.7311C177.041 28.5779 177.06 27.3131 177.041 26.011ZM171.043 26.011C171.043 27.4805 171.024 28.7081 170.968 29.6753C170.931 30.4751 170.857 31.2749 170.727 32.0747C170.634 32.5955 170.485 33.0977 170.244 33.5813C169.765 34.5969 168.933 35.4034 167.904 35.8505C167.2 36.1524 166.442 36.3081 165.675 36.3081C164.909 36.3081 164.151 36.1524 163.447 35.8505C162.405 35.4094 161.56 34.6025 161.07 33.5813C160.848 33.1036 160.698 32.596 160.624 32.0747C160.494 31.2749 160.42 30.4751 160.383 29.6753C160.278 27.2274 160.278 24.7761 160.383 22.3282C160.42 21.5284 160.494 20.7286 160.624 19.9474C160.698 19.408 160.847 18.9058 161.07 18.4222C161.561 17.402 162.406 16.5955 163.447 16.153C164.153 15.8593 164.911 15.7081 165.675 15.7081C166.44 15.7081 167.198 15.8593 167.904 16.153C168.932 16.6015 169.763 17.4076 170.244 18.4222C170.485 18.9058 170.634 19.408 170.727 19.9474C170.857 20.7286 170.931 21.5284 170.968 22.3282C171.024 23.2954 171.043 24.523 171.043 26.011ZM224.955 11.1123C224.951 10.9725 224.892 10.84 224.791 10.7429C224.691 10.6457 224.557 10.5914 224.417 10.5915H219.458C219.322 10.5962 219.192 10.6525 219.096 10.7492C218.999 10.8459 218.943 10.9757 218.938 11.1123V29.4707L206.848 10.7403C206.755 10.6101 206.681 10.5915 206.514 10.5915H201.908C201.772 10.5962 201.642 10.6525 201.546 10.7492C201.449 10.8459 201.393 10.9757 201.388 11.1123V40.8726C201.388 41.1702 201.63 41.412 201.908 41.4306H206.867C207.164 41.4306 207.387 41.1702 207.387 40.8726V22.4956L219.495 41.2818C219.57 41.3934 219.644 41.412 219.811 41.412H224.417C224.714 41.412 224.937 41.1702 224.937 40.8912V11.1309L224.955 11.1123ZM191.713 11.1123C191.708 10.9725 191.649 10.84 191.548 10.7429C191.448 10.6457 191.314 10.5914 191.174 10.5915H186.215C186.079 10.5962 185.949 10.6525 185.853 10.7492C185.756 10.8459 185.7 10.9757 185.695 11.1123V40.8726C185.695 41.1702 185.937 41.4306 186.215 41.4306H191.174C191.319 41.4257 191.455 41.3648 191.556 41.2607C191.656 41.1566 191.713 41.0174 191.713 40.8726V11.1123ZM132.414 26.011C132.414 24.523 132.414 23.2954 132.451 22.3096C132.488 21.5098 132.563 20.71 132.693 19.9288C132.862 18.7197 133.476 17.6172 134.413 16.8366C135.35 16.0559 136.545 15.6531 137.763 15.7066C139.453 15.7066 140.994 16.339 141.96 17.7526C142.405 18.4408 142.74 19.1662 142.925 19.9474C142.925 20.0218 143.018 20.0776 143.093 20.0776H148.924C149.017 20.0776 149.035 20.0218 149.017 19.9474C148.385 16.3204 146.454 13.0653 143.074 11.4657C141.398 10.6954 139.569 10.314 137.725 10.3497C136.187 10.3139 134.658 10.5923 133.231 11.1679C131.803 11.7436 130.508 12.6043 129.424 13.6977C128.139 14.9588 127.265 16.5799 126.917 18.3478C126.564 20.0776 126.397 22.6258 126.397 26.011C126.397 29.3777 126.564 31.9259 126.917 33.6557C127.265 35.4236 128.139 37.0446 129.424 38.3057C130.505 39.4052 131.799 40.2712 133.227 40.8502C134.654 41.4292 136.185 41.709 137.725 41.6724C139.564 41.7096 141.384 41.3004 143.055 40.5564C144.66 39.7315 146.041 38.5287 147.08 37.0513C148.118 35.5739 148.783 33.8662 149.017 32.0747C149.017 31.9817 149.017 31.9445 148.924 31.9445H143.074C143.054 31.9419 143.035 31.9432 143.016 31.9484C142.997 31.9535 142.979 31.9624 142.963 31.9745C142.948 31.9867 142.935 32.0017 142.925 32.0189C142.915 32.0361 142.909 32.0551 142.907 32.0747C142.721 32.8373 142.405 33.5627 141.96 34.2509C141.486 34.9157 140.854 35.4512 140.121 35.8086C139.388 36.166 138.577 36.3339 137.763 36.2969C135.163 36.2969 133.138 34.7531 132.693 32.0933C132.557 31.3063 132.476 30.5107 132.451 29.7125C132.414 28.7081 132.395 27.4805 132.395 25.9924L132.414 26.011ZM70.794 11.1123C70.7894 10.9757 70.7331 10.8459 70.6366 10.7492C70.54 10.6525 70.4104 10.5962 70.274 10.5915H65.3154C65.179 10.5962 65.0494 10.6525 64.9528 10.7492C64.8563 10.8459 64.8 10.9757 64.7954 11.1123V40.8726C64.7954 41.1702 65.0183 41.4306 65.3154 41.4306H70.274C70.5526 41.4306 70.794 41.1702 70.794 40.8726V32.1677L74.7683 27.4061L82.9397 41.2818C83.014 41.3748 83.1254 41.4306 83.2368 41.4306H89.254C89.5326 41.4306 89.5883 41.2446 89.4397 41.0214L78.7611 22.8676L88.5668 11.0751C88.7526 10.8333 88.6783 10.6101 88.3811 10.6101H81.7883C81.7492 10.6079 81.7103 10.6152 81.6747 10.6314C81.6391 10.6476 81.608 10.6722 81.584 10.7031L70.8126 23.6674V11.1123H70.794ZM106.897 36.3155C104.111 36.3155 101.585 33.7115 101.585 30.6425V11.1123C101.581 10.9725 101.522 10.84 101.421 10.7429C101.321 10.6457 101.187 10.5914 101.047 10.5915H96.0883C95.9518 10.5962 95.8222 10.6525 95.7257 10.7492C95.6292 10.8459 95.5729 10.9757 95.5683 11.1123V30.5681C95.5683 37.3571 100.638 41.6724 106.897 41.6724C113.137 41.6724 118.225 37.3571 118.225 30.5681V11.1123C118.221 10.9725 118.162 10.84 118.061 10.7429C117.961 10.6457 117.827 10.5914 117.687 10.5915H112.728C112.592 10.5962 112.462 10.6525 112.366 10.7492C112.269 10.8459 112.213 10.9757 112.208 11.1123V30.6425C112.208 33.7115 109.683 36.3155 106.897 36.3155Z" fill="white"/>
<path fill-rule="evenodd" clip-rule="evenodd" d="M14.9871 26.0109L30.3643 41.4119L40.0771 31.684C40.8997 30.8602 42.0153 30.3974 43.1786 30.3974C44.3418 30.3974 45.4575 30.8602 46.28 31.684C47.1026 32.5078 47.5647 33.6252 47.5647 34.7902C47.5647 35.9553 47.1026 37.0726 46.28 37.8964L33.4657 50.7305C31.7386 52.4232 28.99 52.4232 27.2629 50.7305L8.78429 32.2234V43.2161C8.78429 44.3828 8.32154 45.5016 7.49786 46.3266C6.67417 47.1516 5.55701 47.615 4.39214 47.615C3.22727 47.615 2.11012 47.1516 1.28643 46.3266C0.462742 45.5016 1.73579e-08 44.3828 0 43.2161L0 8.76861C1.73579e-08 7.60194 0.462742 6.48306 1.28643 5.65809C2.11012 4.83313 3.22727 4.36968 4.39214 4.36968C5.55701 4.36968 6.67417 4.83313 7.49786 5.65809C8.32154 6.48306 8.78429 7.60194 8.78429 8.76861V19.7799L27.2629 1.27275C28.0897 0.457156 29.2037 0 30.3643 0C31.5248 0 32.6388 0.457156 33.4657 1.27275L46.28 14.1069C47.1026 14.9307 47.5647 16.048 47.5647 17.2131C47.5647 18.3781 47.1026 19.4955 46.28 20.3193C45.4575 21.1431 44.3418 21.6059 43.1786 21.6059C42.0153 21.6059 40.8997 21.1431 40.0771 20.3193L30.3829 10.5914L14.9871 26.0109ZM30.3829 21.6027C29.8049 21.6027 29.2325 21.7167 28.6985 21.9383C28.1645 22.1598 27.6793 22.4845 27.2706 22.8939C26.8619 23.3032 26.5377 23.7892 26.3165 24.324C26.0953 24.8588 25.9814 25.432 25.9814 26.0109C25.9814 26.5898 26.0953 27.1631 26.3165 27.6979C26.5377 28.2327 26.8619 28.7187 27.2706 29.128C27.6793 29.5374 28.1645 29.8621 28.6985 30.0836C29.2325 30.3052 29.8049 30.4192 30.3829 30.4192C31.5502 30.4192 32.6697 29.9547 33.4951 29.128C34.3206 28.3013 34.7843 27.1801 34.7843 26.0109C34.7843 24.8418 34.3206 23.7206 33.4951 22.8939C32.6697 22.0671 31.5502 21.6027 30.3829 21.6027Z" fill="white"/>
</svg>
