<svg width="167" height="50" viewBox="0 0 167 50" fill="none" xmlns="http://www.w3.org/2000/svg">
<path d="M48.8884 2.25021e-06H1.11161C0.965551 -0.000291932 0.820867 0.0282617 0.685868 0.0840209C0.550869 0.13978 0.42821 0.221645 0.324929 0.324926C0.221648 0.428207 0.13978 0.550872 0.0840209 0.685871C0.0282617 0.82087 -0.000291932 0.965551 2.25021e-06 1.11161V48.8884C1.95493e-06 49.0343 0.0287704 49.1787 0.0846613 49.3134C0.140552 49.4482 0.222468 49.5706 0.325719 49.6736C0.428971 49.7767 0.551532 49.8583 0.686385 49.914C0.821239 49.9696 0.965739 49.9981 1.11161 49.9978H48.8884C49.0343 49.9981 49.1788 49.9696 49.3136 49.914C49.4485 49.8583 49.571 49.7767 49.6743 49.6736C49.7775 49.5706 49.8595 49.4482 49.9153 49.3134C49.9712 49.1787 50 49.0343 50 48.8884V1.11161C50.0003 0.965551 49.9717 0.82087 49.916 0.685871C49.8602 0.550872 49.7784 0.428207 49.6751 0.324926C49.5718 0.221645 49.4491 0.13978 49.3141 0.0840209C49.1791 0.0282617 49.0345 -0.000291932 48.8884 2.25021e-06ZM33.3326 32.221C33.3326 32.5154 33.2158 32.7978 33.0078 33.0062C32.7998 33.2146 32.5177 33.332 32.2232 33.3326H17.779C17.633 33.3326 17.4885 33.3038 17.3536 33.248C17.2188 33.1921 17.0962 33.1102 16.993 33.007C16.8898 32.9038 16.8079 32.7812 16.752 32.6464C16.6962 32.5115 16.6674 32.367 16.6674 32.221V17.779C16.6674 17.4842 16.7845 17.2015 16.993 16.993C17.2015 16.7845 17.4842 16.6674 17.779 16.6674H32.221C32.3669 16.6671 32.5114 16.6956 32.6462 16.7512C32.7811 16.8068 32.9036 16.8885 33.0069 16.9915C33.1101 17.0946 33.192 17.217 33.2479 17.3517C33.3038 17.4865 33.3326 17.6309 33.3326 17.7768V32.221ZM148.913 16.6674H134.471C134.176 16.6674 133.893 16.7845 133.685 16.993C133.476 17.2015 133.359 17.4842 133.359 17.779V32.2232C133.359 32.5176 133.476 32.8 133.684 33.0085C133.892 33.2169 134.174 33.3342 134.469 33.3348H148.913C149.208 33.3348 149.491 33.2177 149.699 33.0092C149.907 32.8008 150.025 32.518 150.025 32.2232V17.779C150.025 17.4842 149.907 17.2015 149.699 16.993C149.491 16.7845 149.208 16.6674 148.913 16.6674ZM132.241 2.25021e-06H117.797C117.502 2.25021e-06 117.219 0.11712 117.011 0.325587C116.802 0.534053 116.685 0.816795 116.685 1.11161V15.5558C116.685 15.8506 116.802 16.1334 117.011 16.3418C117.219 16.5503 117.502 16.6674 117.797 16.6674H132.239C132.385 16.6677 132.53 16.6392 132.665 16.5834C132.8 16.5277 132.923 16.4459 133.026 16.3426C133.13 16.2394 133.212 16.1167 133.268 15.9817C133.324 15.8467 133.353 15.702 133.353 15.5558V1.11607C133.353 0.821257 133.236 0.538515 133.027 0.330048C132.819 0.121582 132.536 0.00446408 132.241 0.00446408V2.25021e-06ZM165.574 2.25021e-06H151.127C150.832 2.25021e-06 150.55 0.11712 150.341 0.325587C150.133 0.534053 150.016 0.816795 150.016 1.11161V15.5558C150.016 15.8506 150.133 16.1334 150.341 16.3418C150.55 16.5503 150.832 16.6674 151.127 16.6674H165.569C165.715 16.6677 165.86 16.6392 165.995 16.5834C166.13 16.5277 166.253 16.4459 166.357 16.3426C166.46 16.2394 166.542 16.1167 166.598 15.9817C166.654 15.8467 166.683 15.702 166.683 15.5558V1.11607C166.683 0.821257 166.566 0.538515 166.357 0.330048C166.149 0.121582 165.866 0.00446408 165.571 0.00446408L165.574 2.25021e-06ZM132.241 33.3326H117.797C117.502 33.3326 117.219 33.4497 117.011 33.6582C116.802 33.8666 116.685 34.1494 116.685 34.4442V48.8884C116.685 49.1832 116.802 49.4659 117.011 49.6744C117.219 49.8829 117.502 50 117.797 50H132.239C132.385 50.0003 132.53 49.9717 132.665 49.916C132.8 49.8603 132.923 49.7785 133.026 49.6752C133.13 49.572 133.212 49.4493 133.268 49.3143C133.324 49.1793 133.353 49.0346 133.353 48.8884V34.4464C133.353 34.3003 133.324 34.1555 133.269 34.0204C133.213 33.8852 133.131 33.7624 133.028 33.659C132.925 33.5555 132.802 33.4734 132.667 33.4174C132.532 33.3614 132.387 33.3326 132.241 33.3326ZM165.574 33.3326H151.127C150.832 33.3326 150.55 33.4497 150.341 33.6582C150.133 33.8666 150.016 34.1494 150.016 34.4442V48.8884C150.016 49.1832 150.133 49.4659 150.341 49.6744C150.55 49.8829 150.832 50 151.127 50H165.569C165.715 50.0003 165.86 49.9717 165.995 49.916C166.13 49.8603 166.253 49.7785 166.357 49.6752C166.46 49.572 166.542 49.4493 166.598 49.3143C166.654 49.1793 166.683 49.0346 166.683 48.8884V34.4464C166.683 34.3003 166.655 34.1555 166.599 34.0204C166.543 33.8852 166.461 33.7624 166.358 33.659C166.255 33.5555 166.132 33.4734 165.997 33.4174C165.862 33.3614 165.72 33.3326 165.574 33.3326ZM107.221 2.25021e-06H92.7768C92.6308 2.25021e-06 92.4862 0.0287569 92.3514 0.0846204C92.2165 0.140484 92.094 0.222364 91.9908 0.325587C91.8875 0.428809 91.8057 0.551352 91.7498 0.686219C91.6939 0.821085 91.6652 0.965633 91.6652 1.11161V15.5558C91.6652 15.7018 91.6939 15.8463 91.7498 15.9812C91.8057 16.1161 91.8875 16.2386 91.9908 16.3418C92.094 16.4451 92.2165 16.5269 92.3514 16.5828C92.4862 16.6387 92.6308 16.6674 92.7768 16.6674H107.219C107.365 16.6677 107.51 16.6392 107.645 16.5834C107.78 16.5277 107.903 16.4459 108.006 16.3426C108.11 16.2394 108.192 16.1167 108.248 15.9817C108.304 15.8467 108.333 15.702 108.333 15.5558V1.11607C108.333 0.96972 108.305 0.824693 108.249 0.689311C108.194 0.553929 108.112 0.430856 108.009 0.32716C107.905 0.223465 107.783 0.141185 107.647 0.0850427C107.512 0.0289003 107.367 1.06994e-06 107.221 2.25021e-06ZM107.221 33.3326H92.7768C92.6308 33.3326 92.4862 33.3613 92.3514 33.4172C92.2165 33.4731 92.094 33.555 91.9908 33.6582C91.8875 33.7614 91.8057 33.8839 91.7498 34.0188C91.6939 34.1537 91.6652 34.2982 91.6652 34.4442V48.8884C91.6652 49.0344 91.6939 49.1789 91.7498 49.3138C91.8057 49.4487 91.8875 49.5712 91.9908 49.6744C92.094 49.7776 92.2165 49.8595 92.3514 49.9154C92.4862 49.9712 92.6308 50 92.7768 50H107.219C107.365 50.0003 107.51 49.9717 107.645 49.916C107.78 49.8603 107.903 49.7785 108.006 49.6752C108.11 49.572 108.192 49.4493 108.248 49.3143C108.304 49.1793 108.333 49.0346 108.333 48.8884V34.4464C108.333 34.3003 108.304 34.1555 108.249 34.0204C108.193 33.8852 108.111 33.7624 108.008 33.659C107.905 33.5555 107.782 33.4734 107.647 33.4174C107.512 33.3614 107.367 33.3326 107.221 33.3326ZM91.6652 17.7656C91.6652 17.4708 91.5481 17.1881 91.3396 16.9796C91.1311 16.7711 90.8484 16.654 90.5536 16.654H74.9978V1.11161C74.9978 0.817182 74.881 0.534773 74.673 0.32637C74.465 0.117967 74.1828 0.000593475 73.8884 2.25021e-06H59.4442C59.2981 -0.000291932 59.1535 0.0282617 59.0185 0.0840209C58.8835 0.13978 58.7608 0.221645 58.6575 0.324926C58.5542 0.428207 58.4724 0.550872 58.4166 0.685871C58.3608 0.82087 58.3323 0.965551 58.3326 1.11161V48.8616C58.3323 49.0077 58.3608 49.1523 58.4166 49.2873C58.4724 49.4223 58.5542 49.545 58.6575 49.6483C58.7608 49.7516 58.8835 49.8334 59.0185 49.8892C59.1535 49.945 59.2981 49.9735 59.4442 49.9732H73.8862C74.181 49.9732 74.4637 49.8561 74.6722 49.6476C74.8806 49.4392 74.9978 49.1564 74.9978 48.8616V33.3192H90.5558C90.8498 33.3186 91.1317 33.2015 91.3396 32.9936C91.5475 32.7857 91.6646 32.5039 91.6652 32.2098V17.7656Z" fill="white"/>
</svg>
