<svg width="61" height="18" viewBox="0 0 61 18" fill="none" xmlns="http://www.w3.org/2000/svg">
<path d="M18.2214 8.10076e-07H1.02176C0.96918 -0.000105095 0.917094 0.0101742 0.868494 0.0302475C0.819895 0.0503209 0.775738 0.0797922 0.738557 0.116973C0.701375 0.154154 0.671903 0.198314 0.65183 0.246914C0.631756 0.295513 0.621477 0.347598 0.621583 0.40018V17.5998C0.621583 17.6523 0.631939 17.7043 0.65206 17.7528C0.672181 17.8013 0.70167 17.8454 0.738841 17.8825C0.776012 17.9196 0.820134 17.949 0.868681 17.969C0.917228 17.989 0.969248 17.9993 1.02176 17.9992H18.2214C18.2739 17.9993 18.3259 17.989 18.3745 17.969C18.423 17.949 18.4672 17.9196 18.5043 17.8825C18.5415 17.8454 18.571 17.8013 18.5911 17.7528C18.6112 17.7043 18.6216 17.6523 18.6216 17.5998V0.40018C18.6217 0.347598 18.6114 0.295513 18.5913 0.246914C18.5713 0.198314 18.5418 0.154154 18.5046 0.116973C18.4674 0.0797922 18.4233 0.0503209 18.3747 0.0302475C18.3261 0.0101742 18.274 -0.000105095 18.2214 8.10076e-07ZM12.6213 11.5996C12.6213 11.7055 12.5793 11.8072 12.5044 11.8822C12.4295 11.9573 12.3279 11.9995 12.2219 11.9997H7.02203C6.96948 11.9997 6.91744 11.9894 6.86889 11.9693C6.82034 11.9492 6.77622 11.9197 6.73906 11.8825C6.7019 11.8454 6.67242 11.8012 6.65231 11.7527C6.6322 11.7041 6.62185 11.6521 6.62185 11.5996V6.40045C6.62185 6.29431 6.66401 6.19252 6.73906 6.11748C6.81411 6.04243 6.9159 6.00027 7.02203 6.00027H12.2211C12.2737 6.00016 12.3257 6.01041 12.3742 6.03044C12.4228 6.05046 12.4669 6.07986 12.5041 6.11696C12.5412 6.15405 12.5707 6.19812 12.5908 6.24662C12.611 6.29513 12.6213 6.34713 12.6213 6.39964V11.5996ZM54.2302 6.00027H49.0311C48.925 6.00027 48.8232 6.04243 48.7482 6.11748C48.6731 6.19252 48.631 6.29431 48.631 6.40045V11.6004C48.631 11.7064 48.673 11.808 48.7479 11.883C48.8228 11.9581 48.9243 12.0003 49.0303 12.0005H54.2302C54.3364 12.0005 54.4382 11.9584 54.5132 11.8833C54.5883 11.8083 54.6304 11.7065 54.6304 11.6004V6.40045C54.6304 6.29431 54.5883 6.19252 54.5132 6.11748C54.4382 6.04243 54.3364 6.00027 54.2302 6.00027ZM48.2284 8.10076e-07H43.0285C42.9223 8.10076e-07 42.8205 0.0421632 42.7455 0.117211C42.6704 0.192259 42.6283 0.294046 42.6283 0.40018V5.60009C42.6283 5.70622 42.6704 5.80801 42.7455 5.88306C42.8205 5.95811 42.9223 6.00027 43.0285 6.00027H48.2276C48.2802 6.00037 48.3323 5.9901 48.381 5.97004C48.4296 5.94997 48.4738 5.92051 48.5111 5.88334C48.5483 5.84617 48.5778 5.80202 48.598 5.75342C48.6182 5.70481 48.6285 5.65271 48.6285 5.60009V0.401786C48.6285 0.295653 48.5864 0.193865 48.5113 0.118817C48.4363 0.0437694 48.3345 0.00160707 48.2284 0.00160707V8.10076e-07ZM60.2281 8.10076e-07H55.0274C54.9213 8.10076e-07 54.8195 0.0421632 54.7444 0.117211C54.6694 0.192259 54.6272 0.294046 54.6272 0.40018V5.60009C54.6272 5.70622 54.6694 5.80801 54.7444 5.88306C54.8195 5.95811 54.9213 6.00027 55.0274 6.00027H60.2265C60.2791 6.00037 60.3312 5.9901 60.3799 5.97004C60.4285 5.94997 60.4727 5.92051 60.51 5.88334C60.5472 5.84617 60.5768 5.80202 60.5969 5.75342C60.6171 5.70481 60.6275 5.65271 60.6275 5.60009V0.401786C60.6275 0.295653 60.5853 0.193865 60.5103 0.118817C60.4352 0.0437694 60.3334 0.00160707 60.2273 0.00160707L60.2281 8.10076e-07ZM48.2284 11.9997H43.0285C42.9223 11.9997 42.8205 12.0419 42.7455 12.1169C42.6704 12.192 42.6283 12.2938 42.6283 12.3999V17.5998C42.6283 17.706 42.6704 17.8077 42.7455 17.8828C42.8205 17.9578 42.9223 18 43.0285 18H48.2276C48.2802 18.0001 48.3323 17.9898 48.381 17.9698C48.4296 17.9497 48.4738 17.9202 48.5111 17.8831C48.5483 17.8459 48.5778 17.8018 48.598 17.7532C48.6182 17.7045 48.6285 17.6524 48.6285 17.5998V12.4007C48.6287 12.3481 48.6184 12.296 48.5983 12.2473C48.5783 12.1987 48.5488 12.1545 48.5116 12.1172C48.4745 12.08 48.4303 12.0504 48.3817 12.0303C48.3331 12.0101 48.281 11.9997 48.2284 11.9997ZM60.2281 11.9997H55.0274C54.9213 11.9997 54.8195 12.0419 54.7444 12.1169C54.6694 12.192 54.6272 12.2938 54.6272 12.3999V17.5998C54.6272 17.706 54.6694 17.8077 54.7444 17.8828C54.8195 17.9578 54.9213 18 55.0274 18H60.2265C60.2791 18.0001 60.3312 17.9898 60.3799 17.9698C60.4285 17.9497 60.4727 17.9202 60.51 17.8831C60.5472 17.8459 60.5768 17.8018 60.5969 17.7532C60.6171 17.7045 60.6275 17.6524 60.6275 17.5998V12.4007C60.6276 12.3481 60.6173 12.296 60.5972 12.2473C60.5772 12.1987 60.5477 12.1545 60.5106 12.1172C60.4734 12.08 60.4292 12.0504 60.3806 12.0303C60.332 12.0101 60.2807 11.9997 60.2281 11.9997ZM39.2211 8.10076e-07H34.0212C33.9687 8.10076e-07 33.9166 0.0103525 33.8681 0.0304633C33.8195 0.0505742 33.7754 0.0800512 33.7383 0.117211C33.7011 0.154371 33.6716 0.198487 33.6515 0.247039C33.6314 0.295591 33.621 0.347628 33.621 0.40018V5.60009C33.621 5.65264 33.6314 5.70468 33.6515 5.75323C33.6716 5.80178 33.7011 5.8459 33.7383 5.88306C33.7754 5.92022 33.8195 5.9497 33.8681 5.96981C33.9166 5.98992 33.9687 6.00027 34.0212 6.00027H39.2203C39.273 6.00037 39.3251 5.9901 39.3737 5.97004C39.4224 5.94997 39.4666 5.92051 39.5038 5.88334C39.5411 5.84617 39.5706 5.80202 39.5908 5.75342C39.6109 5.70481 39.6213 5.65271 39.6213 5.60009V0.401786C39.6215 0.349099 39.6113 0.29689 39.5913 0.248152C39.5713 0.199414 39.5419 0.155108 39.5047 0.117778C39.4675 0.0804473 39.4233 0.0508267 39.3746 0.0306154C39.326 0.0104041 39.2738 3.8518e-07 39.2211 8.10076e-07ZM39.2211 11.9997H34.0212C33.9687 11.9997 33.9166 12.0101 33.8681 12.0302C33.8195 12.0503 33.7754 12.0798 33.7383 12.1169C33.7011 12.1541 33.6716 12.1982 33.6515 12.2468C33.6314 12.2953 33.621 12.3474 33.621 12.3999V17.5998C33.621 17.6524 33.6314 17.7044 33.6515 17.753C33.6716 17.8015 33.7011 17.8456 33.7383 17.8828C33.7754 17.92 33.8195 17.9494 33.8681 17.9695C33.9166 17.9896 33.9687 18 34.0212 18H39.2203C39.273 18.0001 39.3251 17.9898 39.3737 17.9698C39.4224 17.9497 39.4666 17.9202 39.5038 17.8831C39.5411 17.8459 39.5706 17.8018 39.5908 17.7532C39.6109 17.7045 39.6213 17.6524 39.6213 17.5998V12.4007C39.6214 12.3481 39.6112 12.296 39.5911 12.2473C39.571 12.1987 39.5416 12.1545 39.5044 12.1172C39.4672 12.08 39.4231 12.0504 39.3745 12.0303C39.3259 12.0101 39.2738 11.9997 39.2211 11.9997ZM33.621 6.39562C33.621 6.28949 33.5789 6.1877 33.5038 6.11266C33.4288 6.03761 33.327 5.99545 33.2209 5.99545H27.6208V0.40018C27.6208 0.294185 27.5787 0.192518 27.5039 0.117493C27.429 0.0424682 27.3274 0.000213651 27.2214 8.10076e-07H22.0215C21.9689 -0.000105095 21.9168 0.0101742 21.8682 0.0302475C21.8196 0.0503209 21.7755 0.0797922 21.7383 0.116973C21.7011 0.154154 21.6716 0.198314 21.6516 0.246914C21.6315 0.295513 21.6212 0.347598 21.6213 0.40018V17.5902C21.6212 17.6428 21.6315 17.6948 21.6516 17.7434C21.6716 17.792 21.7011 17.8362 21.7383 17.8734C21.7755 17.9106 21.8196 17.94 21.8682 17.9601C21.9168 17.9802 21.9689 17.9905 22.0215 17.9904H27.2206C27.3267 17.9904 27.4285 17.9482 27.5036 17.8731C27.5786 17.7981 27.6208 17.6963 27.6208 17.5902V11.9949H33.2217C33.3275 11.9947 33.429 11.9526 33.5038 11.8777C33.5787 11.8029 33.6208 11.7014 33.621 11.5955V6.39562Z" fill="#605C5C"/>
</svg>
