<svg width="215" height="325" viewBox="0 0 215 325" fill="none" xmlns="http://www.w3.org/2000/svg">
<g clip-path="url(#clip0_2978_20483)">
<path fill-rule="evenodd" clip-rule="evenodd" d="M200 0C208.284 0 215 6.71573 215 15V310C215 318.284 208.284 325 200 325H15C6.71573 325 0 318.284 0 310V15C0 6.71573 6.71572 0 15 0H200ZM196 6C204.284 6 211 12.7157 211 21V39.5V278.5V304C211 312.284 204.284 319 196 319H176.5H42H19C10.7157 319 4 312.284 4 304V278.5V39.5V21C4 12.7157 10.7157 6 19 6H42H176.5H196Z" fill="url(#paint0_linear_2978_20483)"/>
<path d="M211 19C211 10.7157 204.284 4 196 4H176.5H42H19C10.7157 4 4 10.7157 4 19V37.9281V279.982V306C4 314.284 10.7157 321 19 321H42H176.5H196C204.284 321 211 314.284 211 306V279.982V37.9281V19Z" fill="black"/>
<path d="M211 19C211 10.7157 204.284 4 196 4H176.5H42H19C10.7157 4 4 10.7157 4 19V37.9281V279.982V306C4 314.284 10.7157 321 19 321H42H176.5H196C204.284 321 211 314.284 211 306V279.982V37.9281V19Z" fill="#47967C" fill-opacity="0.2"/>
<path d="M211 19C211 10.7157 204.284 4 196 4H176.5H42H19C10.7157 4 4 10.7157 4 19V37.9281V279.982V306C4 314.284 10.7157 321 19 321H42H176.5H196C204.284 321 211 314.284 211 306V279.982V37.9281V19Z" fill="url(#paint1_linear_2978_20483)" fill-opacity="0.1"/>
<g filter="url(#filter0_d_2978_20483)">
<path d="M85.9648 178.397C85.8881 177.703 85.9648 176.957 85.9392 176.185C85.9392 175.8 86.0159 175.363 86.1437 174.951C86.2459 174.565 86.2459 174.154 86.3225 173.794C86.4759 173.1 86.6803 172.431 86.8336 171.737C87.0891 170.605 87.5747 169.551 88.0091 168.471C88.4435 167.365 89.0567 166.337 89.67 165.308C90.2577 164.305 90.9732 163.405 91.7398 162.506C92.8131 161.297 93.963 160.14 95.0618 158.957C95.8284 158.134 96.6205 157.363 97.3871 156.566C98.8692 155.074 100.377 153.583 101.808 152.04C103.341 150.42 104.9 148.851 106.459 147.231C107.148 146.511 107.915 145.843 108.579 145.071C109.678 143.786 110.93 142.654 112.106 141.446C112.77 140.777 113.435 140.108 114.073 139.414C115.607 137.743 117.293 136.226 118.826 134.529C120.104 133.114 121.509 131.803 122.813 130.414C123.809 129.36 124.806 128.331 125.777 127.303C126.62 126.429 127.54 125.683 128.46 124.911C129.38 124.14 130.376 123.523 131.399 122.906C132.497 122.263 133.698 121.749 134.899 121.311C135.436 121.131 135.947 120.874 136.484 120.771C136.944 120.694 137.378 120.54 137.838 120.489C138.553 120.411 139.243 120.257 139.959 120.154C141.032 120 142.131 120 143.204 120C144.584 120 145.938 120.206 147.267 120.463C148.749 120.746 150.18 121.157 151.535 121.774C152.863 122.366 154.167 123.086 155.393 123.909C156.799 124.886 158.102 125.991 159.303 127.226C160.376 128.306 161.245 129.54 162.114 130.774C163.212 132.394 164.005 134.194 164.669 136.046C165.231 137.64 165.589 139.26 165.793 140.931C165.895 141.883 166.023 142.834 165.998 143.811C165.972 144.814 165.998 145.817 165.844 146.82C165.665 147.977 165.512 149.16 165.206 150.291C164.822 151.68 164.362 153.043 163.749 154.328C162.701 156.643 161.321 158.7 159.609 160.577C158.434 161.888 157.182 163.148 155.955 164.383C154.703 165.617 153.502 166.903 152.327 168.188C151.816 168.754 151.305 169.32 150.717 169.808C150.385 170.117 150.078 170.477 149.771 170.785C149.541 171.017 149.311 171.223 149.081 171.454C147.804 172.791 146.501 174.077 145.248 175.44C144.558 176.185 143.869 176.931 143.179 177.651C142.003 178.86 140.828 180.068 139.627 181.277C138.426 182.485 137.199 183.668 136.049 184.928C134.465 186.651 132.804 188.323 131.194 190.045C130.172 191.125 129.073 192.154 128.026 193.208C126.978 194.263 125.93 195.317 124.882 196.371C124.295 196.962 123.605 197.451 122.966 197.965C122.072 198.66 121.126 199.277 120.13 199.791C118.571 200.588 116.935 201.231 115.249 201.72C114.227 202.002 113.153 202.157 112.106 202.362C111.825 202.414 111.518 202.414 111.237 202.44C109.857 202.542 108.477 202.414 107.097 202.414C106.689 202.414 106.28 202.285 105.871 202.234C105.385 202.157 104.9 202.028 104.414 201.925C103.571 201.745 102.753 201.488 101.936 201.257C100.965 200.974 100.045 200.511 99.1247 200.1C98.5115 199.817 97.9748 199.405 97.3871 199.097C96.9016 198.84 96.4672 198.531 96.0328 198.222C95.4451 197.76 94.8573 197.297 94.2952 196.834C93.503 196.165 92.762 195.42 92.072 194.648C91.6376 194.134 91.1777 193.645 90.7688 193.105C90.0533 192.154 89.4656 191.125 88.9034 190.097C88.3668 189.094 87.8302 188.091 87.4724 187.011C87.0891 185.931 86.8336 184.825 86.5014 183.745C86.3737 183.308 86.3736 182.82 86.2714 182.357C85.9903 181.045 85.9137 179.76 85.9648 178.397ZM100.351 195.574C100.428 195.445 100.402 195.342 100.402 195.24C100.402 194.057 100.402 192.874 100.402 191.717C100.402 185.623 100.402 179.554 100.402 173.46C100.402 173.254 100.428 173.125 100.683 173.125C102.549 173.125 104.414 173.125 106.28 173.151C106.535 173.151 106.637 173.1 106.612 172.817C106.612 170.425 106.612 168.008 106.612 165.617C106.612 163.945 106.612 162.3 106.612 160.628C106.612 160.217 106.612 160.217 107.046 160.191C107.276 160.191 107.532 160.217 107.762 160.14C107.89 160.114 108.068 160.191 108.094 160.397C108.094 160.654 108.145 160.886 108.145 161.117C108.145 165 108.145 168.883 108.145 172.791C108.145 173.048 108.222 173.125 108.477 173.1C110.343 173.1 112.208 173.1 114.073 173.074C114.329 173.074 114.406 173.125 114.406 173.383C114.406 180.351 114.406 187.32 114.406 194.262C114.406 195.111 114.406 195.985 114.406 196.834C114.406 197.04 114.457 197.117 114.687 197.04C114.993 196.937 115.3 196.885 115.581 196.757C116.118 196.525 116.68 196.32 117.216 196.037C117.83 195.702 118.469 195.42 119.082 195.06C119.823 194.622 120.487 194.134 121.177 193.594C121.586 193.285 121.969 192.977 121.791 192.36C121.791 192.334 121.791 192.308 121.791 192.257C121.791 181.997 121.816 171.711 121.816 161.451C121.816 158.237 121.816 155.023 121.816 151.808C121.816 151.397 121.816 151.397 122.225 151.397C124.014 151.397 125.828 151.397 127.617 151.397C127.923 151.397 128.026 151.294 128.026 150.986C128 148.877 128.026 146.743 128.026 144.634C128.026 142.706 128.026 140.777 128.026 138.848C128.026 138.54 128.128 138.463 128.409 138.463C128.69 138.488 128.971 138.488 129.227 138.463C129.456 138.437 129.508 138.54 129.508 138.746C129.508 142.757 129.508 146.768 129.508 150.806C129.508 150.934 129.533 151.063 129.482 151.166C129.38 151.397 129.508 151.397 129.661 151.397C130.121 151.397 130.606 151.397 131.066 151.397C132.497 151.397 133.928 151.397 135.334 151.397C135.589 151.397 135.691 151.474 135.691 151.731C135.666 152.066 135.666 152.426 135.666 152.76C135.666 161.246 135.666 169.705 135.666 178.191C135.666 178.294 135.666 178.371 135.691 178.474C135.768 178.68 135.819 178.705 135.973 178.551C136.279 178.217 136.586 177.908 136.892 177.6C138.528 175.903 140.189 174.205 141.824 172.508C143.843 170.425 145.862 168.343 147.906 166.26C148.059 166.105 148.11 165.925 148.11 165.72C148.11 162.634 148.11 159.523 148.11 156.437C148.11 156.18 148.034 156.103 147.778 156.103C145.989 156.128 144.201 156.103 142.412 156.103C141.926 156.103 141.901 156.206 141.901 155.614C141.901 146.408 141.901 137.177 141.901 127.971C141.901 127.74 141.799 127.534 141.824 127.303C141.952 126.557 141.875 125.786 141.875 125.04C141.875 124.526 141.85 124.526 141.364 124.551C141.288 124.551 141.185 124.551 141.109 124.551C140.572 124.603 140.036 124.603 139.499 124.706C138.323 124.937 137.148 125.246 135.998 125.683C134.669 126.171 133.417 126.814 132.267 127.611C130.836 128.589 129.584 129.823 128.358 131.057C127.31 132.111 126.313 133.166 125.266 134.22C124.831 134.657 124.397 135.068 123.988 135.506C122.71 136.843 121.433 138.206 120.155 139.568C119.848 139.903 119.542 140.288 119.21 140.597C118.52 141.266 117.881 141.96 117.191 142.628C115.326 144.48 113.46 146.357 111.697 148.311C110.649 149.468 109.55 150.548 108.452 151.654C106.612 153.531 104.721 155.383 102.907 157.286C101.067 159.214 99.2525 161.143 97.3871 163.046C96.0583 164.408 94.704 165.745 93.6819 167.391C92.9408 168.548 92.2765 169.757 91.7654 171.043C91.101 172.714 90.6922 174.437 90.5133 176.211C90.3089 178.191 90.3344 180.171 90.7433 182.125C91.0243 183.463 91.4076 184.774 91.8932 186.06C92.1487 186.754 92.532 187.397 92.8897 188.04C94.704 191.28 97.1571 193.774 100.351 195.574ZM155.751 129.951C155.725 130.106 155.725 130.183 155.725 130.26C155.725 134.374 155.725 138.463 155.725 142.577C155.725 146.974 155.725 151.371 155.725 155.794C155.725 156.077 155.674 156.206 155.342 156.206C153.502 156.18 151.688 156.206 149.848 156.206C149.567 156.206 149.49 156.308 149.49 156.566C149.49 159.086 149.49 161.631 149.49 164.151C149.49 164.28 149.49 164.408 149.49 164.537C150.155 163.894 150.793 163.277 151.432 162.634C152.48 161.554 153.528 160.474 154.575 159.394C155.853 158.083 157.156 156.797 158.178 155.254C160.197 152.22 161.27 148.851 161.5 145.226C161.628 143.143 161.398 141.086 160.887 139.054C160.35 136.92 159.482 134.94 158.255 133.114C157.565 131.957 156.696 131.006 155.751 129.951Z" fill="url(#paint2_linear_2978_20483)"/>
<path d="M85.9648 178.397C85.8881 177.703 85.9648 176.957 85.9392 176.185C85.9392 175.8 86.0159 175.363 86.1437 174.951C86.2459 174.565 86.2459 174.154 86.3225 173.794C86.4759 173.1 86.6803 172.431 86.8336 171.737C87.0891 170.605 87.5747 169.551 88.0091 168.471C88.4435 167.365 89.0567 166.337 89.67 165.308C90.2577 164.305 90.9732 163.405 91.7398 162.506C92.8131 161.297 93.963 160.14 95.0618 158.957C95.8284 158.134 96.6205 157.363 97.3871 156.566C98.8692 155.074 100.377 153.583 101.808 152.04C103.341 150.42 104.9 148.851 106.459 147.231C107.148 146.511 107.915 145.843 108.579 145.071C109.678 143.786 110.93 142.654 112.106 141.446C112.77 140.777 113.435 140.108 114.073 139.414C115.607 137.743 117.293 136.226 118.826 134.529C120.104 133.114 121.509 131.803 122.813 130.414C123.809 129.36 124.806 128.331 125.777 127.303C126.62 126.429 127.54 125.683 128.46 124.911C129.38 124.14 130.376 123.523 131.399 122.906C132.497 122.263 133.698 121.749 134.899 121.311C135.436 121.131 135.947 120.874 136.484 120.771C136.944 120.694 137.378 120.54 137.838 120.489C138.553 120.411 139.243 120.257 139.959 120.154C141.032 120 142.131 120 143.204 120C144.584 120 145.938 120.206 147.267 120.463C148.749 120.746 150.18 121.157 151.535 121.774C152.863 122.366 154.167 123.086 155.393 123.909C156.799 124.886 158.102 125.991 159.303 127.226C160.376 128.306 161.245 129.54 162.114 130.774C163.212 132.394 164.005 134.194 164.669 136.046C165.231 137.64 165.589 139.26 165.793 140.931C165.895 141.883 166.023 142.834 165.998 143.811C165.972 144.814 165.998 145.817 165.844 146.82C165.665 147.977 165.512 149.16 165.206 150.291C164.822 151.68 164.362 153.043 163.749 154.328C162.701 156.643 161.321 158.7 159.609 160.577C158.434 161.888 157.182 163.148 155.955 164.383C154.703 165.617 153.502 166.903 152.327 168.188C151.816 168.754 151.305 169.32 150.717 169.808C150.385 170.117 150.078 170.477 149.771 170.785C149.541 171.017 149.311 171.223 149.081 171.454C147.804 172.791 146.501 174.077 145.248 175.44C144.558 176.185 143.869 176.931 143.179 177.651C142.003 178.86 140.828 180.068 139.627 181.277C138.426 182.485 137.199 183.668 136.049 184.928C134.465 186.651 132.804 188.323 131.194 190.045C130.172 191.125 129.073 192.154 128.026 193.208C126.978 194.263 125.93 195.317 124.882 196.371C124.295 196.962 123.605 197.451 122.966 197.965C122.072 198.66 121.126 199.277 120.13 199.791C118.571 200.588 116.935 201.231 115.249 201.72C114.227 202.002 113.153 202.157 112.106 202.362C111.825 202.414 111.518 202.414 111.237 202.44C109.857 202.542 108.477 202.414 107.097 202.414C106.689 202.414 106.28 202.285 105.871 202.234C105.385 202.157 104.9 202.028 104.414 201.925C103.571 201.745 102.753 201.488 101.936 201.257C100.965 200.974 100.045 200.511 99.1247 200.1C98.5115 199.817 97.9748 199.405 97.3871 199.097C96.9016 198.84 96.4672 198.531 96.0328 198.222C95.4451 197.76 94.8573 197.297 94.2952 196.834C93.503 196.165 92.762 195.42 92.072 194.648C91.6376 194.134 91.1777 193.645 90.7688 193.105C90.0533 192.154 89.4656 191.125 88.9034 190.097C88.3668 189.094 87.8302 188.091 87.4724 187.011C87.0891 185.931 86.8336 184.825 86.5014 183.745C86.3737 183.308 86.3736 182.82 86.2714 182.357C85.9903 181.045 85.9137 179.76 85.9648 178.397ZM100.351 195.574C100.428 195.445 100.402 195.342 100.402 195.24C100.402 194.057 100.402 192.874 100.402 191.717C100.402 185.623 100.402 179.554 100.402 173.46C100.402 173.254 100.428 173.125 100.683 173.125C102.549 173.125 104.414 173.125 106.28 173.151C106.535 173.151 106.637 173.1 106.612 172.817C106.612 170.425 106.612 168.008 106.612 165.617C106.612 163.945 106.612 162.3 106.612 160.628C106.612 160.217 106.612 160.217 107.046 160.191C107.276 160.191 107.532 160.217 107.762 160.14C107.89 160.114 108.068 160.191 108.094 160.397C108.094 160.654 108.145 160.886 108.145 161.117C108.145 165 108.145 168.883 108.145 172.791C108.145 173.048 108.222 173.125 108.477 173.1C110.343 173.1 112.208 173.1 114.073 173.074C114.329 173.074 114.406 173.125 114.406 173.383C114.406 180.351 114.406 187.32 114.406 194.262C114.406 195.111 114.406 195.985 114.406 196.834C114.406 197.04 114.457 197.117 114.687 197.04C114.993 196.937 115.3 196.885 115.581 196.757C116.118 196.525 116.68 196.32 117.216 196.037C117.83 195.702 118.469 195.42 119.082 195.06C119.823 194.622 120.487 194.134 121.177 193.594C121.586 193.285 121.969 192.977 121.791 192.36C121.791 192.334 121.791 192.308 121.791 192.257C121.791 181.997 121.816 171.711 121.816 161.451C121.816 158.237 121.816 155.023 121.816 151.808C121.816 151.397 121.816 151.397 122.225 151.397C124.014 151.397 125.828 151.397 127.617 151.397C127.923 151.397 128.026 151.294 128.026 150.986C128 148.877 128.026 146.743 128.026 144.634C128.026 142.706 128.026 140.777 128.026 138.848C128.026 138.54 128.128 138.463 128.409 138.463C128.69 138.488 128.971 138.488 129.227 138.463C129.456 138.437 129.508 138.54 129.508 138.746C129.508 142.757 129.508 146.768 129.508 150.806C129.508 150.934 129.533 151.063 129.482 151.166C129.38 151.397 129.508 151.397 129.661 151.397C130.121 151.397 130.606 151.397 131.066 151.397C132.497 151.397 133.928 151.397 135.334 151.397C135.589 151.397 135.691 151.474 135.691 151.731C135.666 152.066 135.666 152.426 135.666 152.76C135.666 161.246 135.666 169.705 135.666 178.191C135.666 178.294 135.666 178.371 135.691 178.474C135.768 178.68 135.819 178.705 135.973 178.551C136.279 178.217 136.586 177.908 136.892 177.6C138.528 175.903 140.189 174.205 141.824 172.508C143.843 170.425 145.862 168.343 147.906 166.26C148.059 166.105 148.11 165.925 148.11 165.72C148.11 162.634 148.11 159.523 148.11 156.437C148.11 156.18 148.034 156.103 147.778 156.103C145.989 156.128 144.201 156.103 142.412 156.103C141.926 156.103 141.901 156.206 141.901 155.614C141.901 146.408 141.901 137.177 141.901 127.971C141.901 127.74 141.799 127.534 141.824 127.303C141.952 126.557 141.875 125.786 141.875 125.04C141.875 124.526 141.85 124.526 141.364 124.551C141.288 124.551 141.185 124.551 141.109 124.551C140.572 124.603 140.036 124.603 139.499 124.706C138.323 124.937 137.148 125.246 135.998 125.683C134.669 126.171 133.417 126.814 132.267 127.611C130.836 128.589 129.584 129.823 128.358 131.057C127.31 132.111 126.313 133.166 125.266 134.22C124.831 134.657 124.397 135.068 123.988 135.506C122.71 136.843 121.433 138.206 120.155 139.568C119.848 139.903 119.542 140.288 119.21 140.597C118.52 141.266 117.881 141.96 117.191 142.628C115.326 144.48 113.46 146.357 111.697 148.311C110.649 149.468 109.55 150.548 108.452 151.654C106.612 153.531 104.721 155.383 102.907 157.286C101.067 159.214 99.2525 161.143 97.3871 163.046C96.0583 164.408 94.704 165.745 93.6819 167.391C92.9408 168.548 92.2765 169.757 91.7654 171.043C91.101 172.714 90.6922 174.437 90.5133 176.211C90.3089 178.191 90.3344 180.171 90.7433 182.125C91.0243 183.463 91.4076 184.774 91.8932 186.06C92.1487 186.754 92.532 187.397 92.8897 188.04C94.704 191.28 97.1571 193.774 100.351 195.574ZM155.751 129.951C155.725 130.106 155.725 130.183 155.725 130.26C155.725 134.374 155.725 138.463 155.725 142.577C155.725 146.974 155.725 151.371 155.725 155.794C155.725 156.077 155.674 156.206 155.342 156.206C153.502 156.18 151.688 156.206 149.848 156.206C149.567 156.206 149.49 156.308 149.49 156.566C149.49 159.086 149.49 161.631 149.49 164.151C149.49 164.28 149.49 164.408 149.49 164.537C150.155 163.894 150.793 163.277 151.432 162.634C152.48 161.554 153.528 160.474 154.575 159.394C155.853 158.083 157.156 156.797 158.178 155.254C160.197 152.22 161.27 148.851 161.5 145.226C161.628 143.143 161.398 141.086 160.887 139.054C160.35 136.92 159.482 134.94 158.255 133.114C157.565 131.957 156.696 131.006 155.751 129.951Z" fill="url(#paint3_linear_2978_20483)" fill-opacity="0.05"/>
<path d="M82.2896 189.235C82.0094 189.132 81.8566 188.928 81.7292 188.749C81.2706 188.136 80.7102 187.6 80.2007 187.038C79.5893 186.349 78.9524 185.659 78.29 184.995C77.0163 183.693 75.7425 182.39 74.4688 181.088C73.73 180.322 72.9912 179.581 72.2524 178.84C71.641 178.228 71.0805 177.564 70.4691 176.976C70.1889 176.695 69.9342 176.363 69.5775 176.133C69.2718 175.955 69.1699 175.572 68.8897 175.316C68.0745 174.576 67.3612 173.758 66.546 173.018C65.9091 172.43 65.3996 171.69 64.7627 171.102C64.3551 170.745 63.9984 170.311 63.5654 169.979C63.3616 169.851 63.2851 169.57 63.1068 169.391C62.2661 168.574 61.4254 167.782 60.6357 166.914C59.5657 165.714 58.3939 164.616 57.3239 163.415C56.5342 162.547 55.668 161.73 54.8528 160.887C53.6555 159.636 52.5601 158.282 51.6175 156.826C51.1589 156.111 50.8023 155.345 50.3947 154.605C50.0125 153.915 49.7833 153.174 49.4776 152.485C49.07 151.617 48.9426 150.697 48.6624 149.803C48.484 149.19 48.4076 148.552 48.2802 147.939C47.9745 146.228 48.051 144.517 48 142.78C48 142.321 48.051 141.861 48.0255 141.401C48.0255 141.044 48.1783 140.661 48.2293 140.277C48.2802 140.048 48.2548 139.792 48.2802 139.562C48.3312 139.179 48.4586 138.822 48.5605 138.439C48.8662 137.136 49.2738 135.885 49.7578 134.634C50.038 133.893 50.3182 133.127 50.7513 132.463C51.3118 131.594 51.8213 130.675 52.4327 129.858C53.0441 129.015 53.6555 128.172 54.3943 127.432C55.0312 126.768 55.6935 126.129 56.4068 125.516C57.5532 124.495 58.8015 123.601 60.1517 122.86C60.9669 122.426 61.8076 122.018 62.6482 121.634C63.2597 121.354 63.8711 121.124 64.5334 120.97C65.0429 120.843 65.5015 120.613 66.0365 120.562C66.8517 120.485 67.6159 120.281 68.4056 120.153C69.552 120 70.6984 120 71.8448 120C72.3034 120 72.7619 120 73.195 120.026C73.6535 120.051 74.1121 120.128 74.5707 120.204C75.2075 120.306 75.8444 120.562 76.5068 120.587C77.0927 120.613 77.5767 120.919 78.1117 121.047C79.1307 121.277 80.0478 121.762 80.9904 122.171C82.1368 122.682 83.1813 123.32 84.2003 124.035C84.9391 124.546 85.7033 125.057 86.3911 125.67C86.8752 126.104 87.3337 126.563 87.7668 127.023C89.1934 128.479 90.62 129.934 92.0466 131.39C93.6006 132.999 95.1546 134.634 96.7341 136.217C98.6702 138.158 100.53 140.201 102.491 142.116C102.568 142.193 102.644 142.269 102.721 142.346C102.823 142.448 102.797 142.55 102.695 142.653C101.982 143.368 101.294 144.057 100.581 144.772C100.352 145.028 100.071 145.257 99.8675 145.513C99.6892 145.717 99.5618 145.615 99.4345 145.513C98.874 144.951 98.2626 144.415 97.7786 143.776C97.2691 143.138 96.6067 142.678 96.1482 142.014C95.9444 141.733 95.6387 141.529 95.4094 141.273C94.4413 140.277 93.4987 139.23 92.5052 138.285C91.6136 137.417 90.7729 136.472 89.8813 135.578C89.2699 134.966 88.6075 134.404 88.047 133.74C87.2828 132.82 86.4166 132.029 85.6014 131.16C84.7098 130.215 83.8182 129.27 82.7737 128.479C82.1623 128.019 81.5254 127.559 80.8376 127.176C80.2771 126.844 79.6912 126.563 79.1307 126.257C78.5957 125.976 78.0353 125.746 77.4493 125.567C76.9653 125.414 76.4558 125.235 75.9463 125.108C75.1566 124.903 74.3668 124.776 73.5771 124.648C73.1695 124.571 72.7619 124.597 72.3543 124.571C72.0996 124.546 72.0486 124.648 72.0486 124.878C72.0486 125.67 72.0486 126.461 72.0486 127.227C72.0486 129.705 72.0486 132.182 72.0486 134.659C72.0486 140.609 72.0741 146.585 72.0486 152.536C72.0486 153.557 72.0996 154.579 72.0741 155.626C72.0741 155.83 72.0486 155.958 71.7684 155.958C69.9342 155.958 68.0999 155.958 66.2657 155.958C65.96 155.958 65.8836 156.06 65.8836 156.443C65.8836 159.176 65.8836 161.883 65.8836 164.616C65.8836 164.948 65.9091 165.28 65.8581 165.612C65.8327 165.739 65.8836 165.816 65.96 165.918C67.6923 167.68 69.4247 169.442 71.157 171.23C73.0421 173.171 74.9273 175.112 76.8125 177.053C77.271 177.512 77.7551 177.947 78.2391 178.406C78.2391 177.64 78.2391 176.848 78.2391 176.057C78.2391 167.91 78.2391 159.789 78.2391 151.642C78.2391 151.361 78.341 151.285 78.5957 151.285C80.43 151.285 82.2642 151.285 84.0984 151.285C84.4041 151.285 84.455 151.182 84.455 150.901C84.455 146.892 84.455 142.908 84.455 138.898C84.455 138.439 84.455 138.439 84.9136 138.439C85.1174 138.439 85.3467 138.464 85.5505 138.439C85.8307 138.413 85.9326 138.515 85.9326 138.822C85.9326 140.277 85.9326 141.733 85.9326 143.189C85.9326 145.794 85.9326 148.373 85.9326 150.978C85.9326 151.259 86.0345 151.361 86.2892 151.259C86.4676 151.182 86.6459 151.285 86.7988 151.285C88.4546 151.285 90.0851 151.285 91.7409 151.285C92.0212 151.285 92.174 151.361 92.0976 151.668C91.9957 152.255 92.0466 152.842 92.0466 153.404C92.0466 153.557 91.9957 153.66 91.8938 153.762C91.3079 154.324 90.7984 154.911 90.2124 155.473C89.5756 156.111 88.9387 156.75 88.3018 157.414C87.5885 158.129 86.9516 158.895 86.3402 159.687C85.9071 160.249 85.4995 160.81 85.1174 161.398C84.455 162.394 83.8182 163.415 83.3086 164.513C82.8246 165.535 82.3661 166.582 81.9839 167.655C81.6528 168.6 81.2961 169.519 81.0923 170.489C80.914 171.358 80.6847 172.2 80.5573 173.069C80.4809 173.656 80.43 174.244 80.3535 174.831C80.2516 175.623 80.2262 176.389 80.1752 177.18C80.1242 177.921 80.0988 178.662 80.2007 179.402C80.2516 179.76 80.2261 180.143 80.2516 180.5C80.328 181.216 80.4045 181.931 80.5064 182.62C80.6847 183.897 81.0159 185.148 81.3471 186.374C81.5254 187.038 81.7292 187.677 82.0094 188.29C82.0858 188.596 82.2387 188.877 82.2896 189.235ZM64.2787 164.079C64.2787 164.028 64.3041 164.003 64.3041 163.977C64.3041 161.474 64.3041 158.972 64.3041 156.469C64.3041 155.83 64.3041 155.856 63.6927 155.881C61.9349 155.958 60.2026 155.907 58.4448 155.907C58.2156 155.907 58.1137 155.83 58.1137 155.575C58.1137 147.224 58.1137 138.847 58.1137 130.496C58.1137 130.343 58.1901 130.113 58.0627 130.062C57.9353 130.011 57.8589 130.241 57.757 130.343C56.6106 131.441 55.719 132.744 54.9293 134.097C53.8593 135.962 53.1715 137.953 52.7384 140.048C52.3308 142.014 52.3053 144.006 52.4582 145.998C52.5346 146.969 52.7639 147.913 52.9677 148.858C53.4772 150.978 54.3943 152.945 55.5916 154.758C56.5851 156.29 57.8334 157.593 59.1327 158.895C59.846 159.636 60.5593 160.376 61.2726 161.117C62.1387 161.985 63.0049 162.853 63.8456 163.747C63.973 163.875 64.1003 164.003 64.2787 164.079Z" fill="url(#paint4_linear_2978_20483)"/>
</g>
<g filter="url(#filter1_d_2978_20483)">
<path d="M22.3143 19.104C22.8588 20.5441 21.6401 22.0336 20.1207 21.7851L12.4287 20.5269C10.9093 20.2784 10.2287 18.4783 11.2036 17.2867L16.1392 11.2543C17.1141 10.0627 19.0134 10.3733 19.5579 11.8135L22.3143 19.104Z" fill="url(#paint5_linear_2978_20483)"/>
</g>
<g filter="url(#filter2_d_2978_20483)">
<path d="M22.3143 305.742C22.8588 304.302 21.6401 302.812 20.1207 303.061L12.4287 304.319C10.9093 304.567 10.2287 306.367 11.2036 307.559L16.1392 313.591C17.1141 314.783 19.0134 314.472 19.5579 313.032L22.3143 305.742Z" fill="url(#paint6_linear_2978_20483)"/>
</g>
<g filter="url(#filter3_d_2978_20483)">
<path d="M192.529 19.104C191.985 20.5441 193.204 22.0336 194.723 21.7851L202.415 20.5269C203.934 20.2784 204.615 18.4783 203.64 17.2867L198.705 11.2543C197.73 10.0627 195.83 10.3733 195.286 11.8135L192.529 19.104Z" fill="url(#paint7_linear_2978_20483)"/>
</g>
<g filter="url(#filter4_d_2978_20483)">
<path d="M192.529 305.742C191.985 304.302 193.204 302.812 194.723 303.061L202.415 304.319C203.934 304.567 204.615 306.367 203.64 307.559L198.705 313.591C197.73 314.783 195.83 314.472 195.286 313.032L192.529 305.742Z" fill="url(#paint8_linear_2978_20483)"/>
</g>
</g>
<defs>
<filter id="filter0_d_2978_20483" x="44" y="120" width="126" height="90.4785" filterUnits="userSpaceOnUse" color-interpolation-filters="sRGB">
<feFlood flood-opacity="0" result="BackgroundImageFix"/>
<feColorMatrix in="SourceAlpha" type="matrix" values="0 0 0 0 0 0 0 0 0 0 0 0 0 0 0 0 0 0 127 0" result="hardAlpha"/>
<feOffset dy="4"/>
<feGaussianBlur stdDeviation="2"/>
<feComposite in2="hardAlpha" operator="out"/>
<feColorMatrix type="matrix" values="0 0 0 0 0 0 0 0 0 0 0 0 0 0 0 0 0 0 0.25 0"/>
<feBlend mode="normal" in2="BackgroundImageFix" result="effect1_dropShadow_2978_20483"/>
<feBlend mode="normal" in="SourceGraphic" in2="effect1_dropShadow_2978_20483" result="shape"/>
</filter>
<filter id="filter1_d_2978_20483" x="4.45" y="4.21953" width="24.2953" height="23.893" filterUnits="userSpaceOnUse" color-interpolation-filters="sRGB">
<feFlood flood-opacity="0" result="BackgroundImageFix"/>
<feColorMatrix in="SourceAlpha" type="matrix" values="0 0 0 0 0 0 0 0 0 0 0 0 0 0 0 0 0 0 127 0" result="hardAlpha"/>
<feOffset/>
<feGaussianBlur stdDeviation="3.15"/>
<feComposite in2="hardAlpha" operator="out"/>
<feColorMatrix type="matrix" values="0 0 0 0 0 0 0 0 0 0 0 0 0 0 0 0 0 0 0.25 0"/>
<feBlend mode="normal" in2="BackgroundImageFix" result="effect1_dropShadow_2978_20483"/>
<feBlend mode="normal" in="SourceGraphic" in2="effect1_dropShadow_2978_20483" result="shape"/>
</filter>
<filter id="filter2_d_2978_20483" x="4.45" y="296.733" width="24.2953" height="23.893" filterUnits="userSpaceOnUse" color-interpolation-filters="sRGB">
<feFlood flood-opacity="0" result="BackgroundImageFix"/>
<feColorMatrix in="SourceAlpha" type="matrix" values="0 0 0 0 0 0 0 0 0 0 0 0 0 0 0 0 0 0 127 0" result="hardAlpha"/>
<feOffset/>
<feGaussianBlur stdDeviation="3.15"/>
<feComposite in2="hardAlpha" operator="out"/>
<feColorMatrix type="matrix" values="0 0 0 0 0 0 0 0 0 0 0 0 0 0 0 0 0 0 0.25 0"/>
<feBlend mode="normal" in2="BackgroundImageFix" result="effect1_dropShadow_2978_20483"/>
<feBlend mode="normal" in="SourceGraphic" in2="effect1_dropShadow_2978_20483" result="shape"/>
</filter>
<filter id="filter3_d_2978_20483" x="186.098" y="4.21953" width="24.2953" height="23.893" filterUnits="userSpaceOnUse" color-interpolation-filters="sRGB">
<feFlood flood-opacity="0" result="BackgroundImageFix"/>
<feColorMatrix in="SourceAlpha" type="matrix" values="0 0 0 0 0 0 0 0 0 0 0 0 0 0 0 0 0 0 127 0" result="hardAlpha"/>
<feOffset/>
<feGaussianBlur stdDeviation="3.15"/>
<feComposite in2="hardAlpha" operator="out"/>
<feColorMatrix type="matrix" values="0 0 0 0 0 0 0 0 0 0 0 0 0 0 0 0 0 0 0.25 0"/>
<feBlend mode="normal" in2="BackgroundImageFix" result="effect1_dropShadow_2978_20483"/>
<feBlend mode="normal" in="SourceGraphic" in2="effect1_dropShadow_2978_20483" result="shape"/>
</filter>
<filter id="filter4_d_2978_20483" x="186.098" y="296.733" width="24.2953" height="23.893" filterUnits="userSpaceOnUse" color-interpolation-filters="sRGB">
<feFlood flood-opacity="0" result="BackgroundImageFix"/>
<feColorMatrix in="SourceAlpha" type="matrix" values="0 0 0 0 0 0 0 0 0 0 0 0 0 0 0 0 0 0 127 0" result="hardAlpha"/>
<feOffset/>
<feGaussianBlur stdDeviation="3.15"/>
<feComposite in2="hardAlpha" operator="out"/>
<feColorMatrix type="matrix" values="0 0 0 0 0 0 0 0 0 0 0 0 0 0 0 0 0 0 0.25 0"/>
<feBlend mode="normal" in2="BackgroundImageFix" result="effect1_dropShadow_2978_20483"/>
<feBlend mode="normal" in="SourceGraphic" in2="effect1_dropShadow_2978_20483" result="shape"/>
</filter>
<linearGradient id="paint0_linear_2978_20483" x1="51.2206" y1="-3.40978e-05" x2="180.187" y2="5.08494" gradientUnits="userSpaceOnUse">
<stop stop-color="#8973FC"/>
<stop offset="1" stop-color="#39009F"/>
</linearGradient>
<linearGradient id="paint1_linear_2978_20483" x1="-15" y1="29.3195" x2="201.447" y2="311.264" gradientUnits="userSpaceOnUse">
<stop stop-opacity="0"/>
<stop offset="0.455" stop-color="white"/>
<stop offset="1" stop-opacity="0"/>
</linearGradient>
<linearGradient id="paint2_linear_2978_20483" x1="105.006" y1="120" x2="152.95" y2="122.774" gradientUnits="userSpaceOnUse">
<stop stop-color="#66996E"/>
<stop offset="1" stop-color="#D0BB7C"/>
</linearGradient>
<linearGradient id="paint3_linear_2978_20483" x1="105.006" y1="120" x2="152.95" y2="122.774" gradientUnits="userSpaceOnUse">
<stop stop-color="#66996E"/>
<stop offset="1" stop-color="#D0BB7C"/>
</linearGradient>
<linearGradient id="paint4_linear_2978_20483" x1="61.0519" y1="120" x2="120.441" y2="120.964" gradientUnits="userSpaceOnUse">
<stop stop-color="#EE6467"/>
<stop offset="0.458333" stop-color="#BA091B"/>
</linearGradient>
<linearGradient id="paint5_linear_2978_20483" x1="26.3573" y1="18.9002" x2="33.7688" y2="31.8248" gradientUnits="userSpaceOnUse">
<stop stop-color="#CC6EE6"/>
<stop offset="0.9999" stop-color="#1C6A8B"/>
<stop offset="1" stop-color="#1A6889"/>
<stop offset="1" stop-color="#216F91"/>
<stop offset="1" stop-color="#0A8593"/>
</linearGradient>
<linearGradient id="paint6_linear_2978_20483" x1="26.3573" y1="305.946" x2="33.7688" y2="293.021" gradientUnits="userSpaceOnUse">
<stop stop-color="#CC6EE6"/>
<stop offset="0.9999" stop-color="#1C6A8B"/>
<stop offset="1" stop-color="#1A6889"/>
<stop offset="1" stop-color="#216F91"/>
<stop offset="1" stop-color="#0A8593"/>
</linearGradient>
<linearGradient id="paint7_linear_2978_20483" x1="188.486" y1="18.9002" x2="181.075" y2="31.8248" gradientUnits="userSpaceOnUse">
<stop stop-color="#CC6EE6"/>
<stop offset="0.9999" stop-color="#1C6A8B"/>
<stop offset="1" stop-color="#1A6889"/>
<stop offset="1" stop-color="#216F91"/>
<stop offset="1" stop-color="#0A8593"/>
</linearGradient>
<linearGradient id="paint8_linear_2978_20483" x1="188.486" y1="305.946" x2="181.075" y2="293.021" gradientUnits="userSpaceOnUse">
<stop stop-color="#CC6EE6"/>
<stop offset="0.9999" stop-color="#1C6A8B"/>
<stop offset="1" stop-color="#1A6889"/>
<stop offset="1" stop-color="#216F91"/>
<stop offset="1" stop-color="#0A8593"/>
</linearGradient>
<clipPath id="clip0_2978_20483">
<rect width="215" height="325" fill="white"/>
</clipPath>
</defs>
</svg>
