<svg width="118" height="83" viewBox="0 0 118 83" fill="none" xmlns="http://www.w3.org/2000/svg">
<g clip-path="url(#clip0_49_605)">
<path d="M37.9638 58.3969C37.8872 57.7026 37.9638 56.9569 37.9383 56.1854C37.9383 55.7997 38.0149 55.3626 38.1427 54.9512C38.2449 54.5654 38.2449 54.154 38.3216 53.794C38.4749 53.0997 38.6793 52.4312 38.8326 51.7369C39.0882 50.6055 39.5737 49.5512 40.0081 48.4712C40.4425 47.3655 41.0558 46.3369 41.6691 45.3083C42.2568 44.3055 42.9723 43.4055 43.7389 42.5055C44.8121 41.2969 45.962 40.1398 47.0608 38.957C47.8274 38.1341 48.6196 37.3627 49.3862 36.5655C50.8682 35.0741 52.3759 33.5827 53.8069 32.0398C55.3401 30.4198 56.8988 28.8513 58.4576 27.2313C59.1475 26.5113 59.9141 25.8427 60.5785 25.0713C61.6773 23.7856 62.9294 22.6542 64.1048 21.4456C64.7692 20.777 65.4336 20.1085 66.0725 19.4142C67.6056 17.7428 69.2922 16.2256 70.8254 14.5285C72.103 13.1142 73.5085 11.8028 74.8117 10.4142C75.8083 9.35995 76.8048 8.33139 77.7759 7.30282C78.6191 6.42854 79.539 5.68282 80.4589 4.9114C81.3789 4.13997 82.3754 3.52284 83.3976 2.9057C84.4964 2.26284 85.6974 1.74856 86.8984 1.31142C87.435 1.13142 87.9461 0.874281 88.4827 0.771425C88.9426 0.694282 89.377 0.539996 89.837 0.488567C90.5525 0.411425 91.2424 0.257135 91.9579 0.154279C93.0312 -6.27339e-06 94.13 0 95.2032 0C96.5831 0 97.9374 0.20571 99.2662 0.462852C100.748 0.745708 102.179 1.15714 103.534 1.77428C104.862 2.3657 106.166 3.08569 107.392 3.90855C108.798 4.88569 110.101 5.99139 111.302 7.22567C112.375 8.30567 113.244 9.53995 114.113 10.7742C115.211 12.3942 116.004 14.1942 116.668 16.0456C117.23 17.6399 117.588 19.2599 117.792 20.9313C117.895 21.8827 118.022 22.8342 117.997 23.8113C117.971 24.8142 117.997 25.817 117.843 26.8199C117.665 27.977 117.511 29.1599 117.205 30.2913C116.821 31.6798 116.361 33.0427 115.748 34.3284C114.7 36.6427 113.32 38.6998 111.608 40.5769C110.433 41.8884 109.181 43.1484 107.954 44.3826C106.702 45.6169 105.501 46.9026 104.326 48.1883C103.815 48.754 103.304 49.3198 102.716 49.8083C102.384 50.1169 102.077 50.4769 101.77 50.7855C101.54 51.0169 101.31 51.2226 101.08 51.454C99.8028 52.7912 98.4996 54.0769 97.2475 55.4397C96.5575 56.1854 95.8676 56.9311 95.1776 57.6511C94.0022 58.8597 92.8267 60.0683 91.6257 61.2768C90.4247 62.4854 89.1982 63.6683 88.0483 64.9283C86.464 66.6511 84.803 68.3225 83.1931 70.0454C82.171 71.1254 81.0722 72.1539 80.0245 73.2082C78.9769 74.2625 77.9292 75.3168 76.8815 76.3711C76.2938 76.9625 75.6038 77.4511 74.965 77.9653C74.0706 78.6596 73.1252 79.2768 72.1286 79.791C70.5698 80.5882 68.9344 81.231 67.2479 81.7196C66.2258 82.0025 65.1525 82.1567 64.1048 82.3625C63.8238 82.4139 63.5171 82.4139 63.236 82.4396C61.8562 82.5425 60.4763 82.4139 59.0964 82.4139C58.6876 82.4139 58.2787 82.2853 57.8698 82.2339C57.3843 82.1567 56.8988 82.0282 56.4133 81.9253C55.5701 81.7453 54.7523 81.4882 53.9346 81.2568C52.9636 80.9739 52.0437 80.511 51.1238 80.0996C50.5105 79.8168 49.9739 79.4053 49.3862 79.0968C48.9006 78.8396 48.4662 78.5311 48.0318 78.2225C47.4441 77.7596 46.8564 77.2968 46.2942 76.8339C45.5021 76.1653 44.761 75.4196 44.0711 74.6482C43.6367 74.1339 43.1767 73.6454 42.7679 73.1054C42.0524 72.1539 41.4646 71.1254 40.9025 70.0968C40.3658 69.0939 39.8292 68.0911 39.4715 67.0111C39.0882 65.9311 38.8326 64.8254 38.5005 63.7454C38.3727 63.3083 38.3727 62.8197 38.2705 62.3568C37.9894 61.0454 37.9127 59.7597 37.9638 58.3969ZM52.3503 75.5739C52.427 75.4453 52.4014 75.3425 52.4014 75.2396C52.4014 74.0568 52.4014 72.8739 52.4014 71.7168C52.4014 65.6225 52.4014 59.554 52.4014 53.4597C52.4014 53.254 52.427 53.1255 52.6825 53.1255C54.5479 53.1255 56.4133 53.1255 58.2787 53.1512C58.5342 53.1512 58.6364 53.0997 58.6109 52.8169C58.6109 50.4255 58.6109 48.0083 58.6109 45.6169C58.6109 43.9455 58.6109 42.2998 58.6109 40.6284C58.6109 40.2169 58.6109 40.2169 59.0453 40.1912C59.2753 40.1912 59.5308 40.2169 59.7608 40.1398C59.8886 40.1141 60.0674 40.1912 60.093 40.3969C60.093 40.6541 60.1441 40.8855 60.1441 41.1169C60.1441 44.9998 60.1441 48.8826 60.1441 52.7912C60.1441 53.0483 60.2207 53.1255 60.4763 53.0997C62.3417 53.0997 64.2071 53.0997 66.0725 53.074C66.328 53.074 66.4046 53.1255 66.4046 53.3826C66.4046 60.3511 66.4046 67.3197 66.4046 74.2625C66.4046 75.1111 66.4046 75.9853 66.4046 76.8339C66.4046 77.0396 66.4558 77.1168 66.6857 77.0396C66.9924 76.9368 67.299 76.8853 67.5801 76.7568C68.1167 76.5253 68.6789 76.3196 69.2155 76.0368C69.8288 75.7025 70.4676 75.4196 71.0809 75.0596C71.8219 74.6225 72.4863 74.1339 73.1763 73.5939C73.5851 73.2854 73.9684 72.9768 73.7895 72.3596C73.7895 72.3339 73.7895 72.3082 73.7895 72.2568C73.7895 61.9968 73.8151 51.7112 73.8151 41.4512C73.8151 38.237 73.8151 35.0227 73.8151 31.8084C73.8151 31.397 73.8151 31.397 74.2239 31.397C76.0127 31.397 77.827 31.397 79.6157 31.397C79.9223 31.397 80.0245 31.2941 80.0245 30.9856C79.999 28.877 80.0245 26.7427 80.0245 24.6342C80.0245 22.7056 80.0245 20.777 80.0245 18.8485C80.0245 18.5399 80.1268 18.4628 80.4078 18.4628C80.6889 18.4885 80.97 18.4885 81.2255 18.4628C81.4555 18.4371 81.5066 18.5399 81.5066 18.7456C81.5066 22.757 81.5066 26.7684 81.5066 30.8056C81.5066 30.9341 81.5322 31.0627 81.4811 31.1656C81.3789 31.397 81.5066 31.397 81.66 31.397C82.1199 31.397 82.6054 31.397 83.0654 31.397C84.4964 31.397 85.9274 31.397 87.3328 31.397C87.5883 31.397 87.6905 31.4741 87.6905 31.7313C87.665 32.0656 87.665 32.4256 87.665 32.7598C87.665 41.2455 87.665 49.7055 87.665 58.1911C87.665 58.294 87.665 58.3711 87.6905 58.474C87.7672 58.6797 87.8183 58.7054 87.9716 58.5511C88.2783 58.2169 88.5849 57.9083 88.8915 57.5997C90.5269 55.9026 92.1879 54.2054 93.8233 52.5083C95.842 50.4255 97.8607 48.3426 99.905 46.2598C100.058 46.1055 100.109 45.9255 100.109 45.7198C100.109 42.6341 100.109 39.5227 100.109 36.437C100.109 36.1798 100.033 36.1027 99.7772 36.1027C97.9885 36.1284 96.1998 36.1027 94.411 36.1027C93.9255 36.1027 93.9 36.2055 93.9 35.6141C93.9 26.4084 93.9 17.1771 93.9 7.97139C93.9 7.73996 93.7978 7.53425 93.8233 7.30282C93.9511 6.55711 93.8744 5.78568 93.8744 5.03997C93.8744 4.52569 93.8489 4.52569 93.3634 4.5514C93.2867 4.5514 93.1845 4.5514 93.1078 4.5514C92.5712 4.60283 92.0346 4.60283 91.498 4.70569C90.3225 4.93712 89.1471 5.24568 87.9972 5.68282C86.6684 6.17139 85.4163 6.81425 84.2664 7.61139C82.8354 8.58852 81.5833 9.82281 80.3567 11.0571C79.3091 12.1114 78.3125 13.1656 77.2648 14.2199C76.8304 14.6571 76.396 15.0685 75.9871 15.5056C74.7095 16.8428 73.4318 18.2056 72.1541 19.5685C71.8475 19.9028 71.5409 20.2885 71.2087 20.597C70.5187 21.2656 69.8799 21.9599 69.19 22.6285C67.3246 24.4799 65.4592 26.357 63.696 28.3113C62.6483 29.4684 61.5495 30.5484 60.4507 31.6541C58.6109 33.5313 56.7199 35.3827 54.9057 37.2855C53.0658 39.2141 51.2515 41.1427 49.3862 43.0455C48.0574 44.4084 46.7031 45.7455 45.6809 47.3912C44.9399 48.5483 44.2755 49.7569 43.7644 51.0426C43.1 52.714 42.6912 54.4369 42.5123 56.2112C42.3079 58.1911 42.3334 60.1711 42.7423 62.1254C43.0234 63.4625 43.4067 64.774 43.8922 66.0597C44.1477 66.754 44.531 67.3968 44.8888 68.0397C46.7031 71.2796 49.1562 73.7739 52.3503 75.5739ZM107.75 9.95138C107.724 10.1057 107.724 10.1828 107.724 10.2599C107.724 14.3742 107.724 18.4628 107.724 22.577C107.724 26.9742 107.724 31.3713 107.724 35.7941C107.724 36.077 107.673 36.2055 107.341 36.2055C105.501 36.1798 103.687 36.2055 101.847 36.2055C101.566 36.2055 101.489 36.3084 101.489 36.5655C101.489 39.0855 101.489 41.6312 101.489 44.1512C101.489 44.2798 101.489 44.4084 101.489 44.5369C102.154 43.8941 102.793 43.2769 103.431 42.6341C104.479 41.5541 105.527 40.4741 106.574 39.3941C107.852 38.0827 109.155 36.797 110.177 35.2541C112.196 32.2198 113.269 28.8513 113.499 25.2256C113.627 23.1427 113.397 21.0856 112.886 19.0542C112.349 16.9199 111.481 14.9399 110.254 13.1142C109.564 11.9571 108.695 11.0057 107.75 9.95138Z" fill="url(#paint0_linear_49_605)"/>
<path d="M37.9638 58.3969C37.8872 57.7026 37.9638 56.9569 37.9383 56.1854C37.9383 55.7997 38.0149 55.3626 38.1427 54.9512C38.2449 54.5654 38.2449 54.154 38.3216 53.794C38.4749 53.0997 38.6793 52.4312 38.8326 51.7369C39.0882 50.6055 39.5737 49.5512 40.0081 48.4712C40.4425 47.3655 41.0558 46.3369 41.6691 45.3083C42.2568 44.3055 42.9723 43.4055 43.7389 42.5055C44.8121 41.2969 45.962 40.1398 47.0608 38.957C47.8274 38.1341 48.6196 37.3627 49.3862 36.5655C50.8682 35.0741 52.3759 33.5827 53.8069 32.0398C55.3401 30.4198 56.8988 28.8513 58.4576 27.2313C59.1475 26.5113 59.9141 25.8427 60.5785 25.0713C61.6773 23.7856 62.9294 22.6542 64.1048 21.4456C64.7692 20.777 65.4336 20.1085 66.0725 19.4142C67.6056 17.7428 69.2922 16.2256 70.8254 14.5285C72.103 13.1142 73.5085 11.8028 74.8117 10.4142C75.8083 9.35995 76.8048 8.33139 77.7759 7.30282C78.6191 6.42854 79.539 5.68282 80.4589 4.9114C81.3789 4.13997 82.3754 3.52284 83.3976 2.9057C84.4964 2.26284 85.6974 1.74856 86.8984 1.31142C87.435 1.13142 87.9461 0.874281 88.4827 0.771425C88.9426 0.694282 89.377 0.539996 89.837 0.488567C90.5525 0.411425 91.2424 0.257135 91.9579 0.154279C93.0312 -6.27339e-06 94.13 0 95.2032 0C96.5831 0 97.9374 0.20571 99.2662 0.462852C100.748 0.745708 102.179 1.15714 103.534 1.77428C104.862 2.3657 106.166 3.08569 107.392 3.90855C108.798 4.88569 110.101 5.99139 111.302 7.22567C112.375 8.30567 113.244 9.53995 114.113 10.7742C115.211 12.3942 116.004 14.1942 116.668 16.0456C117.23 17.6399 117.588 19.2599 117.792 20.9313C117.895 21.8827 118.022 22.8342 117.997 23.8113C117.971 24.8142 117.997 25.817 117.843 26.8199C117.665 27.977 117.511 29.1599 117.205 30.2913C116.821 31.6798 116.361 33.0427 115.748 34.3284C114.7 36.6427 113.32 38.6998 111.608 40.5769C110.433 41.8884 109.181 43.1484 107.954 44.3826C106.702 45.6169 105.501 46.9026 104.326 48.1883C103.815 48.754 103.304 49.3198 102.716 49.8083C102.384 50.1169 102.077 50.4769 101.77 50.7855C101.54 51.0169 101.31 51.2226 101.08 51.454C99.8028 52.7912 98.4996 54.0769 97.2475 55.4397C96.5575 56.1854 95.8676 56.9311 95.1776 57.6511C94.0022 58.8597 92.8267 60.0683 91.6257 61.2768C90.4247 62.4854 89.1982 63.6683 88.0483 64.9283C86.464 66.6511 84.803 68.3225 83.1931 70.0454C82.171 71.1254 81.0722 72.1539 80.0245 73.2082C78.9769 74.2625 77.9292 75.3168 76.8815 76.3711C76.2938 76.9625 75.6038 77.4511 74.965 77.9653C74.0706 78.6596 73.1252 79.2768 72.1286 79.791C70.5698 80.5882 68.9344 81.231 67.2479 81.7196C66.2258 82.0025 65.1525 82.1567 64.1048 82.3625C63.8238 82.4139 63.5171 82.4139 63.236 82.4396C61.8562 82.5425 60.4763 82.4139 59.0964 82.4139C58.6876 82.4139 58.2787 82.2853 57.8698 82.2339C57.3843 82.1567 56.8988 82.0282 56.4133 81.9253C55.5701 81.7453 54.7523 81.4882 53.9346 81.2568C52.9636 80.9739 52.0437 80.511 51.1238 80.0996C50.5105 79.8168 49.9739 79.4053 49.3862 79.0968C48.9006 78.8396 48.4662 78.5311 48.0318 78.2225C47.4441 77.7596 46.8564 77.2968 46.2942 76.8339C45.5021 76.1653 44.761 75.4196 44.0711 74.6482C43.6367 74.1339 43.1767 73.6454 42.7679 73.1054C42.0524 72.1539 41.4646 71.1254 40.9025 70.0968C40.3658 69.0939 39.8292 68.0911 39.4715 67.0111C39.0882 65.9311 38.8326 64.8254 38.5005 63.7454C38.3727 63.3083 38.3727 62.8197 38.2705 62.3568C37.9894 61.0454 37.9127 59.7597 37.9638 58.3969ZM52.3503 75.5739C52.427 75.4453 52.4014 75.3425 52.4014 75.2396C52.4014 74.0568 52.4014 72.8739 52.4014 71.7168C52.4014 65.6225 52.4014 59.554 52.4014 53.4597C52.4014 53.254 52.427 53.1255 52.6825 53.1255C54.5479 53.1255 56.4133 53.1255 58.2787 53.1512C58.5342 53.1512 58.6364 53.0997 58.6109 52.8169C58.6109 50.4255 58.6109 48.0083 58.6109 45.6169C58.6109 43.9455 58.6109 42.2998 58.6109 40.6284C58.6109 40.2169 58.6109 40.2169 59.0453 40.1912C59.2753 40.1912 59.5308 40.2169 59.7608 40.1398C59.8886 40.1141 60.0674 40.1912 60.093 40.3969C60.093 40.6541 60.1441 40.8855 60.1441 41.1169C60.1441 44.9998 60.1441 48.8826 60.1441 52.7912C60.1441 53.0483 60.2207 53.1255 60.4763 53.0997C62.3417 53.0997 64.2071 53.0997 66.0725 53.074C66.328 53.074 66.4046 53.1255 66.4046 53.3826C66.4046 60.3511 66.4046 67.3197 66.4046 74.2625C66.4046 75.1111 66.4046 75.9853 66.4046 76.8339C66.4046 77.0396 66.4558 77.1168 66.6857 77.0396C66.9924 76.9368 67.299 76.8853 67.5801 76.7568C68.1167 76.5253 68.6789 76.3196 69.2155 76.0368C69.8288 75.7025 70.4676 75.4196 71.0809 75.0596C71.8219 74.6225 72.4863 74.1339 73.1763 73.5939C73.5851 73.2854 73.9684 72.9768 73.7895 72.3596C73.7895 72.3339 73.7895 72.3082 73.7895 72.2568C73.7895 61.9968 73.8151 51.7112 73.8151 41.4512C73.8151 38.237 73.8151 35.0227 73.8151 31.8084C73.8151 31.397 73.8151 31.397 74.2239 31.397C76.0127 31.397 77.827 31.397 79.6157 31.397C79.9223 31.397 80.0245 31.2941 80.0245 30.9856C79.999 28.877 80.0245 26.7427 80.0245 24.6342C80.0245 22.7056 80.0245 20.777 80.0245 18.8485C80.0245 18.5399 80.1268 18.4628 80.4078 18.4628C80.6889 18.4885 80.97 18.4885 81.2255 18.4628C81.4555 18.4371 81.5066 18.5399 81.5066 18.7456C81.5066 22.757 81.5066 26.7684 81.5066 30.8056C81.5066 30.9341 81.5322 31.0627 81.4811 31.1656C81.3789 31.397 81.5066 31.397 81.66 31.397C82.1199 31.397 82.6054 31.397 83.0654 31.397C84.4964 31.397 85.9274 31.397 87.3328 31.397C87.5883 31.397 87.6905 31.4741 87.6905 31.7313C87.665 32.0656 87.665 32.4256 87.665 32.7598C87.665 41.2455 87.665 49.7055 87.665 58.1911C87.665 58.294 87.665 58.3711 87.6905 58.474C87.7672 58.6797 87.8183 58.7054 87.9716 58.5511C88.2783 58.2169 88.5849 57.9083 88.8915 57.5997C90.5269 55.9026 92.1879 54.2054 93.8233 52.5083C95.842 50.4255 97.8607 48.3426 99.905 46.2598C100.058 46.1055 100.109 45.9255 100.109 45.7198C100.109 42.6341 100.109 39.5227 100.109 36.437C100.109 36.1798 100.033 36.1027 99.7772 36.1027C97.9885 36.1284 96.1998 36.1027 94.411 36.1027C93.9255 36.1027 93.9 36.2055 93.9 35.6141C93.9 26.4084 93.9 17.1771 93.9 7.97139C93.9 7.73996 93.7978 7.53425 93.8233 7.30282C93.9511 6.55711 93.8744 5.78568 93.8744 5.03997C93.8744 4.52569 93.8489 4.52569 93.3634 4.5514C93.2867 4.5514 93.1845 4.5514 93.1078 4.5514C92.5712 4.60283 92.0346 4.60283 91.498 4.70569C90.3225 4.93712 89.1471 5.24568 87.9972 5.68282C86.6684 6.17139 85.4163 6.81425 84.2664 7.61139C82.8354 8.58852 81.5833 9.82281 80.3567 11.0571C79.3091 12.1114 78.3125 13.1656 77.2648 14.2199C76.8304 14.6571 76.396 15.0685 75.9871 15.5056C74.7095 16.8428 73.4318 18.2056 72.1541 19.5685C71.8475 19.9028 71.5409 20.2885 71.2087 20.597C70.5187 21.2656 69.8799 21.9599 69.19 22.6285C67.3246 24.4799 65.4592 26.357 63.696 28.3113C62.6483 29.4684 61.5495 30.5484 60.4507 31.6541C58.6109 33.5313 56.7199 35.3827 54.9057 37.2855C53.0658 39.2141 51.2515 41.1427 49.3862 43.0455C48.0574 44.4084 46.7031 45.7455 45.6809 47.3912C44.9399 48.5483 44.2755 49.7569 43.7644 51.0426C43.1 52.714 42.6912 54.4369 42.5123 56.2112C42.3079 58.1911 42.3334 60.1711 42.7423 62.1254C43.0234 63.4625 43.4067 64.774 43.8922 66.0597C44.1477 66.754 44.531 67.3968 44.8888 68.0397C46.7031 71.2796 49.1562 73.7739 52.3503 75.5739ZM107.75 9.95138C107.724 10.1057 107.724 10.1828 107.724 10.2599C107.724 14.3742 107.724 18.4628 107.724 22.577C107.724 26.9742 107.724 31.3713 107.724 35.7941C107.724 36.077 107.673 36.2055 107.341 36.2055C105.501 36.1798 103.687 36.2055 101.847 36.2055C101.566 36.2055 101.489 36.3084 101.489 36.5655C101.489 39.0855 101.489 41.6312 101.489 44.1512C101.489 44.2798 101.489 44.4084 101.489 44.5369C102.154 43.8941 102.793 43.2769 103.431 42.6341C104.479 41.5541 105.527 40.4741 106.574 39.3941C107.852 38.0827 109.155 36.797 110.177 35.2541C112.196 32.2198 113.269 28.8513 113.499 25.2256C113.627 23.1427 113.397 21.0856 112.886 19.0542C112.349 16.9199 111.481 14.9399 110.254 13.1142C109.564 11.9571 108.695 11.0057 107.75 9.95138Z" fill="url(#paint1_linear_49_605)" fill-opacity="0.05"/>
<path d="M34.2896 69.2351C34.0094 69.1329 33.8566 68.9286 33.7292 68.7498C33.2706 68.1369 32.7102 67.6006 32.2007 67.0388C31.5893 66.3492 30.9524 65.6597 30.29 64.9957C29.0163 63.6932 27.7425 62.3908 26.4688 61.0883C25.73 60.3222 24.9912 59.5815 24.2524 58.8409C23.641 58.228 23.0805 57.564 22.4691 56.9766C22.1889 56.6957 21.9342 56.3637 21.5775 56.1339C21.2718 55.9551 21.1699 55.572 20.8897 55.3166C20.0745 54.576 19.3612 53.7588 18.546 53.0182C17.9091 52.4308 17.3996 51.6902 16.7627 51.1028C16.3551 50.7453 15.9984 50.3111 15.5654 49.9791C15.3616 49.8514 15.2851 49.5705 15.1068 49.3917C14.2661 48.5745 13.4254 47.7828 12.6357 46.9145C11.5657 45.7142 10.3939 44.616 9.32393 43.4157C8.5342 42.5474 7.66804 41.7302 6.85283 40.8874C5.6555 39.6361 4.56006 38.2825 3.61748 36.8268C3.15893 36.1118 2.80227 35.3456 2.39467 34.605C2.01254 33.9154 1.78326 33.1748 1.47756 32.4853C1.06996 31.617 0.942583 30.6976 0.662355 29.8038C0.484029 29.1908 0.407603 28.5524 0.280227 27.9395C-0.0254756 26.2284 0.0509504 24.5173 0 22.7807C0 22.321 0.05095 21.8613 0.0254748 21.4016C0.0254748 21.0441 0.178325 20.661 0.229275 20.2779C0.280226 20.0481 0.254752 19.7927 0.280227 19.5629C0.331177 19.1798 0.458553 18.8223 0.560454 18.4392C0.866157 17.1367 1.27376 15.8853 1.75779 14.634C2.03802 13.8934 2.31824 13.1272 2.75132 12.4632C3.31178 11.5949 3.82128 10.6755 4.43269 9.85828C5.04409 9.01551 5.6555 8.17275 6.39428 7.43213C7.03116 6.76813 7.69351 6.12967 8.40682 5.51675C9.55321 4.49522 10.8015 3.60137 12.1517 2.86076C12.9669 2.42661 13.8076 2.01799 14.6482 1.63491C15.2597 1.35399 15.8711 1.12415 16.5334 0.970922C17.0429 0.84323 17.5015 0.613382 18.0365 0.562306C18.8517 0.48569 19.6159 0.281382 20.4056 0.15369C21.552 0.000459313 22.6984 0.000457764 23.8448 0.000457764C24.3034 0.000457764 24.7619 0.000459321 25.195 0.0259977C25.6535 0.0515361 26.1121 0.128154 26.5707 0.20477C27.2075 0.306923 27.8444 0.562307 28.5068 0.587846C29.0927 0.613384 29.5767 0.919842 30.1117 1.04753C31.1307 1.27738 32.0478 1.76261 32.9904 2.17122C34.1368 2.68199 35.1813 3.32045 36.2003 4.03553C36.9391 4.5463 37.7033 5.05706 38.3911 5.66998C38.8752 6.10414 39.3337 6.56383 39.7668 7.02352C41.1934 8.47921 42.62 9.9349 44.0466 11.3906C45.6006 12.9995 47.1546 14.634 48.7341 16.2173C50.6702 18.1583 52.5299 20.2013 54.4915 22.1167C54.5679 22.1933 54.6443 22.2699 54.7208 22.3466C54.8227 22.4487 54.7972 22.5509 54.6953 22.653C53.982 23.3681 53.2942 24.0576 52.5808 24.7727C52.3516 25.0281 52.0713 25.2579 51.8675 25.5133C51.6892 25.7176 51.5618 25.6155 51.4345 25.5133C50.874 24.9515 50.2626 24.4152 49.7786 23.7767C49.2691 23.1382 48.6067 22.6786 48.1482 22.0146C47.9444 21.7336 47.6387 21.5293 47.4094 21.2739C46.4413 20.2779 45.4987 19.2309 44.5052 18.286C43.6136 17.4176 42.7729 16.4727 41.8813 15.5789C41.2699 14.966 40.6075 14.4041 40.047 13.7401C39.2828 12.8207 38.4166 12.029 37.6014 11.1607C36.7098 10.2158 35.8182 9.2709 34.7737 8.47921C34.1623 8.01952 33.5254 7.55983 32.8376 7.17675C32.2771 6.84475 31.6912 6.56383 31.1307 6.25736C30.5957 5.97644 30.0353 5.7466 29.4493 5.56783C28.9653 5.4146 28.4558 5.23583 27.9463 5.10814C27.1566 4.90383 26.3668 4.77614 25.5771 4.64845C25.1695 4.57183 24.7619 4.59737 24.3543 4.57183C24.0996 4.54629 24.0486 4.64845 24.0486 4.87829C24.0486 5.66998 24.0486 6.46168 24.0486 7.22783C24.0486 9.70505 24.0486 12.1823 24.0486 14.6595C24.0486 20.6099 24.0741 26.5859 24.0486 32.5364C24.0486 33.5579 24.0996 34.5794 24.0741 35.6265C24.0741 35.8308 24.0486 35.9585 23.7684 35.9585C21.9342 35.9585 20.0999 35.9585 18.2657 35.9585C17.96 35.9585 17.8836 36.0607 17.8836 36.4438C17.8836 39.1764 17.8836 41.8834 17.8836 44.616C17.8836 44.948 17.9091 45.28 17.8581 45.612C17.8327 45.7397 17.8836 45.8163 17.96 45.9185C19.6923 47.6807 21.4247 49.4428 23.157 51.2305C25.0421 53.1714 26.9273 55.1123 28.8125 57.0532C29.271 57.5129 29.7551 57.9471 30.2391 58.4068C30.2391 57.6406 30.2391 56.8489 30.2391 56.0572C30.2391 47.9105 30.2391 39.7893 30.2391 31.6425C30.2391 31.3616 30.341 31.285 30.5957 31.285C32.4299 31.285 34.2642 31.285 36.0984 31.285C36.4041 31.285 36.455 31.1828 36.455 30.9019C36.455 26.8924 36.455 22.9084 36.455 18.8989C36.455 18.4392 36.455 18.4392 36.9136 18.4392C37.1174 18.4392 37.3467 18.4647 37.5505 18.4392C37.8307 18.4136 37.9326 18.5158 37.9326 18.8223C37.9326 20.2779 37.9326 21.7336 37.9326 23.1893C37.9326 25.7942 37.9326 28.3736 37.9326 30.9785C37.9326 31.2595 38.0345 31.3616 38.2893 31.2595C38.4676 31.1828 38.6459 31.285 38.7988 31.285C40.4546 31.285 42.0851 31.285 43.7409 31.285C44.0212 31.285 44.174 31.3616 44.0976 31.6681C43.9957 32.2555 44.0466 32.8428 44.0466 33.4047C44.0466 33.5579 43.9957 33.6601 43.8938 33.7622C43.3079 34.3241 42.7984 34.9114 42.2124 35.4733C41.5756 36.1117 40.9387 36.7502 40.3018 37.4142C39.5885 38.1293 38.9516 38.8954 38.3402 39.6871C37.9071 40.249 37.4995 40.8108 37.1174 41.3982C36.455 42.3942 35.8182 43.4157 35.3086 44.5139C34.8246 45.5354 34.3661 46.5825 33.9839 47.6551C33.6528 48.6 33.2961 49.5194 33.0923 50.4899C32.914 51.3582 32.6847 52.2009 32.5573 53.0693C32.4809 53.6566 32.43 54.244 32.3535 54.8314C32.2516 55.6231 32.2261 56.3892 32.1752 57.1809C32.1242 57.9215 32.0988 58.6622 32.2007 59.4028C32.2516 59.7603 32.2261 60.1434 32.2516 60.5009C32.328 61.216 32.4045 61.9311 32.5064 62.6206C32.6847 63.8975 33.0159 65.1489 33.3471 66.3747C33.5254 67.0387 33.7292 67.6772 34.0094 68.2901C34.0858 68.5966 34.2387 68.8775 34.2896 69.2351ZM16.2787 44.0797C16.2787 44.0287 16.3041 44.0031 16.3041 43.9776C16.3041 41.4748 16.3041 38.9721 16.3041 36.4693C16.3041 35.8308 16.3041 35.8564 15.6927 35.8819C13.9349 35.9585 12.2026 35.9074 10.4448 35.9074C10.2156 35.9074 10.1137 35.8308 10.1137 35.5754C10.1137 27.2244 10.1137 18.8478 10.1137 10.4967C10.1137 10.3435 10.1901 10.1137 10.0627 10.0626C9.93534 10.0115 9.85891 10.2414 9.75701 10.3435C8.61062 11.4417 7.71899 12.7441 6.92926 14.0977C5.8593 15.962 5.17147 17.954 4.73839 20.0481C4.33079 22.0146 4.30531 24.0066 4.45816 25.9986C4.53459 26.969 4.76387 27.9139 4.96767 28.8588C5.47717 30.9785 6.39428 32.945 7.59161 34.7582C8.58515 36.2905 9.83343 37.593 11.1327 38.8954C11.846 39.6361 12.5593 40.3767 13.2726 41.1173C14.1387 41.9856 15.0049 42.8539 15.8456 43.7477C15.973 43.8754 16.1003 44.0031 16.2787 44.0797Z" fill="url(#paint2_linear_49_605)"/>
</g>
<defs>
<linearGradient id="paint0_linear_49_605" x1="57.0045" y1="-8.65344e-06" x2="104.949" y2="2.77412" gradientUnits="userSpaceOnUse">
<stop stop-color="#66996E"/>
<stop offset="1" stop-color="#D0BB7C"/>
</linearGradient>
<linearGradient id="paint1_linear_49_605" x1="57.0045" y1="-8.65344e-06" x2="104.949" y2="2.77412" gradientUnits="userSpaceOnUse">
<stop stop-color="#66996E"/>
<stop offset="1" stop-color="#D0BB7C"/>
</linearGradient>
<linearGradient id="paint2_linear_49_605" x1="13.0519" y1="0.000459595" x2="72.4412" y2="0.964879" gradientUnits="userSpaceOnUse">
<stop stop-color="#EE6467"/>
<stop offset="0.458333" stop-color="#BA091B"/>
</linearGradient>
<clipPath id="clip0_49_605">
<rect width="118" height="82.4795" fill="white"/>
</clipPath>
</defs>
</svg>
