<svg width="88" height="62" viewBox="0 0 88 62" fill="none" xmlns="http://www.w3.org/2000/svg">
<g filter="url(#filter0_d_1692_16355)">
<path d="M73.8493 28.431L74.4051 28.3098L73.8493 28.431ZM73.9455 40.8005L74.4978 40.9189L73.9455 40.8005ZM63.9625 49.9606L64.2727 50.2993L63.9625 49.9606ZM47.2651 52.8238L47.3101 52.4203L47.3101 52.4203L47.2651 52.8238ZM16.6057 38.2468L16.0875 38.4335L16.6057 38.2468ZM12.9777 25.72L13.5551 25.7534L12.9777 25.72ZM20.2358 15.3449C20.4594 15.1828 20.4546 14.9269 20.2251 14.7733C19.9956 14.6197 19.6284 14.6266 19.4048 14.7887L20.2358 15.3449ZM63.3015 17.3148C68.0251 20.4763 71.5007 24.3885 73.2935 28.5521L74.4051 28.3098C72.5528 24.0081 68.9688 19.9791 64.1111 16.7278L63.3015 17.3148ZM73.2935 28.5521C75.0862 32.7155 75.1134 36.9362 73.3932 40.6821L74.4978 40.9189C76.2973 37.0003 76.2575 32.6117 74.4051 28.3098L73.2935 28.5521ZM73.3932 40.6821C71.6739 44.4261 68.2837 47.5349 63.6523 49.622L64.2727 50.2993C69.1394 48.1061 72.6974 44.8394 74.4978 40.9189L73.3932 40.6821ZM63.6523 49.622C59.0192 51.7099 53.3354 52.6886 47.3101 52.4203L47.2202 53.2273C53.4699 53.5057 59.4076 52.4917 64.2727 50.2993L63.6523 49.622ZM47.3101 52.4203C41.2836 52.1519 35.1925 50.6477 29.8129 48.09L29.1501 48.76C34.6851 51.3916 40.9715 52.949 47.2202 53.2273L47.3101 52.4203ZM29.8129 48.09C24.4333 45.5323 20.0174 42.0409 17.1239 38.0601L16.0875 38.4335C19.0693 42.5357 23.6149 46.1283 29.1501 48.76L29.8129 48.09ZM17.1239 38.0601C14.2303 34.0793 12.9945 29.7958 13.5551 25.7534L12.4003 25.6866C11.8165 29.8962 13.1057 34.3314 16.0875 38.4335L17.1239 38.0601ZM13.5551 25.7534C14.1155 21.7125 16.445 18.0934 20.2358 15.3449L19.4048 14.7887C15.4172 17.6799 12.9843 21.4754 12.4003 25.6866L13.5551 25.7534Z" fill="#FFEBA8"/>
</g>
<path d="M34.1689 42.297L35.1344 30.0172L46.6352 29.8808L45.8464 12.1183" stroke="#FFF1B1" stroke-width="2"/>
<path d="M39.6403 45.5671L39.7668 40.168L47.3794 45.2632L43.4466 48.1147L39.6403 45.5671Z" fill="url(#paint0_linear_1692_16355)"/>
<path d="M39.8083 36.2791L40.0445 33.6954L43.7411 33.4276L54.1219 40.3756L50.1891 43.2271L39.8083 36.2791Z" fill="url(#paint1_linear_1692_16355)"/>
<path d="M48.6247 32.7791L50.7864 32.6592L50.8273 28.7696L60.8621 35.486L56.9293 38.3375L48.6247 32.7791Z" fill="url(#paint2_linear_1692_16355)"/>
<path d="M50.8694 24.8819L50.3039 19.0196L67.6053 30.5996L63.6725 33.451L50.8694 24.8819Z" fill="url(#paint3_linear_1692_16355)"/>
<defs>
<filter id="filter0_d_1692_16355" x="8.26367" y="14.6621" width="71.5586" height="46.6094" filterUnits="userSpaceOnUse" color-interpolation-filters="sRGB">
<feFlood flood-opacity="0" result="BackgroundImageFix"/>
<feColorMatrix in="SourceAlpha" type="matrix" values="0 0 0 0 0 0 0 0 0 0 0 0 0 0 0 0 0 0 127 0" result="hardAlpha"/>
<feOffset dy="4"/>
<feGaussianBlur stdDeviation="2"/>
<feComposite in2="hardAlpha" operator="out"/>
<feColorMatrix type="matrix" values="0 0 0 0 0 0 0 0 0 0 0 0 0 0 0 0 0 0 0.25 0"/>
<feBlend mode="normal" in2="BackgroundImageFix" result="effect1_dropShadow_1692_16355"/>
<feBlend mode="normal" in="SourceGraphic" in2="effect1_dropShadow_1692_16355" result="shape"/>
</filter>
<linearGradient id="paint0_linear_1692_16355" x1="37.8004" y1="41.5938" x2="42.8448" y2="48.5511" gradientUnits="userSpaceOnUse">
<stop stop-color="#A7F9BD"/>
<stop offset="1" stop-color="#5F976E"/>
</linearGradient>
<linearGradient id="paint1_linear_1692_16355" x1="40.0445" y1="33.6954" x2="48.0697" y2="44.7637" gradientUnits="userSpaceOnUse">
<stop stop-color="#A7F9BD"/>
<stop offset="1" stop-color="#5F976E"/>
</linearGradient>
<linearGradient id="paint2_linear_1692_16355" x1="48.8609" y1="30.1954" x2="55.5103" y2="39.3663" gradientUnits="userSpaceOnUse">
<stop stop-color="#A7F9BD"/>
<stop offset="1" stop-color="#5F976E"/>
</linearGradient>
<linearGradient id="paint3_linear_1692_16355" x1="48.3375" y1="20.4454" x2="59.802" y2="36.2573" gradientUnits="userSpaceOnUse">
<stop stop-color="#A7F9BD"/>
<stop offset="1" stop-color="#5F976E"/>
</linearGradient>
</defs>
</svg>
