<svg width="46" height="28" viewBox="0 0 46 28" fill="none" xmlns="http://www.w3.org/2000/svg">
<g clip-path="url(#clip0_55_81)">
<path d="M10.1204 19.5722C8.76284 18.9539 8.82058 17.9715 10.2527 17.3213L21.3734 12.2726C22.9427 11.5601 25.5386 11.5219 27.0524 12.189L43.7064 19.5275C44.9857 20.0912 45.0742 20.9836 43.9163 21.6438L33.8134 27.4036C32.3157 28.2574 29.4183 28.3625 27.7923 27.6218L10.1204 19.5722Z" fill="#CAB87A"/>
<path d="M5.86833 12.3629L17.7381 6.97408C19.041 6.3826 21.1942 6.3484 22.4585 6.89911L42.675 15.7051C43.7416 16.1697 43.8306 16.9079 42.8867 17.4597L32.2573 23.673C31.0252 24.3932 28.6007 24.4911 27.2302 23.8759L5.77323 14.2455C4.62713 13.7311 4.66873 12.9076 5.86833 12.3629Z" stroke="#FFF1B1"/>
<path d="M1.22578 10.1483C-0.146425 9.53078 -0.095123 8.54353 1.3431 7.89058L15.7009 1.37215C17.2654 0.661902 19.8514 0.621357 21.368 1.2833L44.6449 11.443C45.9249 12.0016 46.0284 12.8889 44.8907 13.5507L32.0056 21.0466C30.5234 21.9088 27.6166 22.0239 25.9754 21.2854L1.22578 10.1483Z" fill="url(#paint0_linear_55_81)"/>
<line y1="-0.5" x2="14.8716" y2="-0.5" transform="matrix(0.910554 -0.413389 0.93129 0.36428 17.816 13.4129)" stroke="#054A15"/>
<line y1="-0.5" x2="14.8716" y2="-0.5" transform="matrix(0.910554 -0.413389 0.93129 0.36428 14.8547 12.2541)" stroke="#054A15"/>
<line y1="-0.5" x2="14.8716" y2="-0.5" transform="matrix(0.910554 -0.413389 0.93129 0.36428 11.8901 11.0953)" stroke="#054A15"/>
<line y1="-0.5" x2="14.8716" y2="-0.5" transform="matrix(0.910554 -0.413389 0.93129 0.36428 8.92886 9.93645)" stroke="#054A15"/>
<line y1="-0.5" x2="14.8716" y2="-0.5" transform="matrix(0.910554 -0.413389 0.93129 0.36428 20.1871 14.3396)" stroke="#054A15"/>
<line y1="-0.5" x2="6.29182" y2="-0.5" transform="matrix(0.910554 -0.41339 0.93129 0.364279 31.5524 12.1837)" stroke="#054A15"/>
<line y1="-0.5" x2="6.29182" y2="-0.5" transform="matrix(0.910554 -0.41339 0.93129 0.364279 33.9224 13.1104)" stroke="#054A15"/>
<line y1="-0.5" x2="6.29182" y2="-0.5" transform="matrix(0.910554 -0.41339 0.93129 0.364279 36.2917 14.0379)" stroke="#054A15"/>
</g>
<defs>
<linearGradient id="paint0_linear_55_81" x1="7.6262" y1="5.03807" x2="17.9558" y2="27.7907" gradientUnits="userSpaceOnUse">
<stop stop-color="#A7F9BD"/>
<stop offset="1" stop-color="#5F976E"/>
</linearGradient>
<clipPath id="clip0_55_81">
<rect width="46" height="28" fill="white"/>
</clipPath>
</defs>
</svg>
