<svg width="104" height="44" viewBox="0 0 104 44" fill="none" xmlns="http://www.w3.org/2000/svg">
<path d="M29.3992 28.4592C28.0416 27.8409 28.0993 26.8585 29.5315 26.2083L48.702 17.505C50.2713 16.7925 52.8671 16.7543 54.381 17.4213L81.5662 29.4004C82.8455 29.964 82.934 30.8565 81.7761 31.5166L64.3822 41.4332C62.8844 42.2871 59.987 42.3921 58.361 41.6514L29.3992 28.4592Z" fill="#CAB87A"/>
<path d="M22.6837 20.6366C21.5375 20.1222 21.5791 19.2986 22.7787 18.754L43.0637 9.54469C44.3665 8.95321 46.5198 8.91901 47.7841 9.46972L80.2637 23.6173C81.3303 24.0819 81.4193 24.8201 80.4753 25.3719L62.3367 35.9746C61.1046 36.6949 58.6802 36.7927 57.3096 36.1776L22.6837 20.6366Z" stroke="#FFF1B1"/>
<path d="M16.1636 14.4525C14.7914 13.8351 14.8427 12.8478 16.2809 12.1948L40.2638 1.3067C41.8282 0.59645 44.4142 0.555904 45.9308 1.21784L82.9595 17.3797C84.2395 17.9384 84.343 18.8256 83.2053 19.4875L61.7067 31.9942C60.2245 32.8565 57.3178 32.9716 55.6765 32.233L16.1636 14.4525Z" fill="url(#paint0_linear_1692_16334)"/>
<line y1="-0.5" x2="22.104" y2="-0.5" transform="matrix(0.910554 -0.413389 0.93129 0.36428 42.0078 19.8379)" stroke="#054A15"/>
<line y1="-0.5" x2="22.104" y2="-0.5" transform="matrix(0.910554 -0.413389 0.93129 0.36428 37.6074 18.1152)" stroke="#054A15"/>
<line y1="-0.5" x2="22.104" y2="-0.5" transform="matrix(0.910554 -0.413389 0.93129 0.36428 33.2012 16.3945)" stroke="#054A15"/>
<line y1="-0.5" x2="22.104" y2="-0.5" transform="matrix(0.910554 -0.413389 0.93129 0.36428 28.7988 14.6719)" stroke="#054A15"/>
<line y1="-0.5" x2="22.104" y2="-0.5" transform="matrix(0.910554 -0.413389 0.93129 0.36428 45.5332 21.2168)" stroke="#054A15"/>
<line y1="-0.5" x2="9.3517" y2="-0.5" transform="matrix(0.910554 -0.41339 0.93129 0.364279 62.4258 18.0117)" stroke="#054A15"/>
<line y1="-0.5" x2="9.3517" y2="-0.5" transform="matrix(0.910554 -0.41339 0.93129 0.364279 65.9473 19.3887)" stroke="#054A15"/>
<line y1="-0.5" x2="9.3517" y2="-0.5" transform="matrix(0.910554 -0.41339 0.93129 0.364279 69.4688 20.7676)" stroke="#054A15"/>
<defs>
<linearGradient id="paint0_linear_1692_16334" x1="26.8626" y1="7.39078" x2="42.2158" y2="41.2086" gradientUnits="userSpaceOnUse">
<stop stop-color="#A7F9BD"/>
<stop offset="1" stop-color="#5F976E"/>
</linearGradient>
</defs>
</svg>
