<svg width="123" height="72" viewBox="0 0 123 72" fill="none" xmlns="http://www.w3.org/2000/svg">
<path d="M91.9484 38.9331C91.9113 35.2617 89.9144 31.4787 86.2327 28.1052C82.551 24.7316 77.3656 21.9334 71.3905 20.0957C65.4154 18.2581 58.9444 17.4714 52.8686 17.8441C46.7928 18.2167 41.411 19.7304 37.4643 22.1766C33.5175 24.6227 31.2 27.8812 30.8307 31.5032C30.4614 35.1252 32.0586 38.9326 35.4023 42.4012C38.7459 45.8698 43.6717 48.829 49.5013 50.8713C55.3309 52.9136 61.7776 53.9385 67.9537 53.805" stroke="#FFF1B1" stroke-linecap="round"/>
<path d="M79.6619 37.6846C79.6393 35.4471 78.4223 33.1416 76.1786 31.0856C73.9348 29.0296 70.7746 27.3243 67.1331 26.2043C63.4916 25.0844 59.5479 24.605 55.8451 24.8321C52.1422 25.0592 48.8624 25.9816 46.457 27.4725C44.0517 28.9633 42.6393 30.9491 42.4143 33.1565C42.1892 35.3639 43.1626 37.6843 45.2004 39.7982C47.2382 41.9121 50.2401 43.7156 53.7929 44.9602C57.3457 46.2049 61.2746 46.8295 65.0386 46.7481" stroke="#FFF1B1" stroke-width="2" stroke-linecap="round"/>
<rect width="4.54584" height="20.0022" transform="matrix(0.861441 -0.507858 0.861441 0.507858 64.1035 39.709)" fill="#66A176"/>
<rect width="12.8799" height="5.45515" rx="2.72758" transform="matrix(0.861441 -0.507858 0.861441 0.507858 75.8516 51.2539)" fill="#66A176"/>
<ellipse cx="6.81877" cy="8.18272" rx="6.81877" ry="8.18272" transform="matrix(0.861441 -0.507858 0.861441 0.507858 48.4414 35.0918)" fill="url(#paint0_linear_1692_16378)"/>
<defs>
<linearGradient id="paint0_linear_1692_16378" x1="6.81877" y1="0" x2="6.81877" y2="16.3654" gradientUnits="userSpaceOnUse">
<stop stop-color="#A7F9BD"/>
<stop offset="1" stop-color="#5F976E"/>
</linearGradient>
</defs>
</svg>
