<svg width="47" height="28" viewBox="0 0 47 28" fill="none" xmlns="http://www.w3.org/2000/svg">
<g clip-path="url(#clip0_55_22)">
<g clip-path="url(#clip1_55_22)">
<path d="M46.0726 16.8105C46.0453 14.1129 44.5781 11.3333 41.8729 8.85458C39.1678 6.37583 35.3577 4.31978 30.9674 2.96955C26.5771 1.61932 21.8225 1.04131 17.3583 1.31512C12.894 1.58892 8.93966 2.70108 6.03974 4.49844C3.13983 6.29581 1.43697 8.68998 1.16563 11.3513C0.8943 14.0126 2.06784 16.8102 4.52466 19.3588C6.98148 21.9074 10.6007 24.0817 14.8841 25.5822C19.1675 27.0828 23.9042 27.8359 28.4422 27.7378" stroke="#FFF1B1" stroke-linecap="round"/>
<path d="M37.045 15.8939C37.0284 14.2499 36.1342 12.5559 34.4856 11.0453C32.837 9.5346 30.515 8.28156 27.8393 7.45867C25.1637 6.63579 22.266 6.28352 19.5453 6.45039C16.8246 6.61726 14.4147 7.29506 12.6474 8.39045C10.88 9.48583 9.84223 10.9449 9.67686 12.5669C9.5115 14.1888 10.2267 15.8937 11.724 17.4469C13.2213 19.0002 15.427 20.3253 18.0375 21.2398C20.6479 22.1543 23.5347 22.6133 26.3003 22.5535" stroke="#FFF1B1" stroke-width="2" stroke-linecap="round"/>
<rect width="3.34011" height="14.6969" transform="matrix(0.861441 -0.507858 0.861441 0.507858 25.6133 17.3813)" fill="#66A176"/>
<rect width="9.46365" height="4.00824" rx="2.00412" transform="matrix(0.861441 -0.507858 0.861441 0.507858 34.2453 25.8635)" fill="#66A176"/>
<ellipse cx="5.01017" cy="6.01235" rx="5.01017" ry="6.01235" transform="matrix(0.861441 -0.507858 0.861441 0.507858 14.1046 13.9885)" fill="url(#paint0_linear_55_22)"/>
</g>
</g>
<defs>
<linearGradient id="paint0_linear_55_22" x1="5.01017" y1="0" x2="5.01017" y2="12.0247" gradientUnits="userSpaceOnUse">
<stop stop-color="#A7F9BD"/>
<stop offset="1" stop-color="#5F976E"/>
</linearGradient>
<clipPath id="clip0_55_22">
<rect width="47" height="28" fill="white"/>
</clipPath>
<clipPath id="clip1_55_22">
<rect width="47.0666" height="56.4813" fill="white" transform="matrix(1 0 0.48416 0.87498 -13.6061 -10.2124)"/>
</clipPath>
</defs>
</svg>
