<svg width="52" height="29" viewBox="0 0 52 29" fill="none" xmlns="http://www.w3.org/2000/svg">
<rect width="23.3617" height="20.8981" rx="4" transform="matrix(0.877165 -0.480188 0.877165 0.480188 6.11035 14.7935)" fill="url(#paint0_linear_2041_1476)"/>
<path d="M7.82424 18.9952L3.50866 16.6327C1.57088 15.5719 1.57088 13.852 3.50866 12.7912L8.38311 10.1227M16.2073 23.5843L21.0818 26.2528C23.0196 27.3136 26.1613 27.3136 28.0991 26.2528L32.9736 23.5843M17.4182 5.17661L22.9447 2.15124C24.8825 1.09044 28.0243 1.09044 29.962 2.15124L34.2776 4.51373M42.6607 9.10291L47.5352 11.7713C49.4729 12.8321 49.4729 14.552 47.5352 15.6128L42.0087 18.6382" stroke="#FFF1B1"/>
<ellipse cx="2.54855" cy="3.05825" rx="2.54855" ry="3.05825" transform="matrix(0.877165 -0.480188 0.877165 0.480188 12.8169 13.5698)" fill="#FFF1B1"/>
<path d="M29.1358 15.1606C31.9755 16.7152 29.0059 17.1898 26.6395 18.4853C24.2732 19.7807 23.4061 21.4063 20.5664 19.8518C17.7268 18.2973 17.3431 15.987 19.7095 14.6915C22.0759 13.3961 26.2962 13.6061 29.1358 15.1606Z" fill="#FFF1B1"/>
<line y1="-1" x2="6.79612" y2="-1" transform="matrix(0.877165 -0.480188 0.877165 0.480188 22.9512 10.959)" stroke="#FFF1B1" stroke-width="2"/>
<line y1="-1" x2="6.79612" y2="-1" transform="matrix(0.877165 -0.480188 0.877165 0.480188 25.6338 12.4277)" stroke="#FFF1B1" stroke-width="2"/>
<line y1="-1" x2="6.79612" y2="-1" transform="matrix(0.877165 -0.480188 0.877165 0.480188 28.3164 13.896)" stroke="#FFF1B1" stroke-width="2"/>
<line y1="-1" x2="6.79612" y2="-1" transform="matrix(0.877165 -0.480188 0.877165 0.480188 30.9985 15.3647)" stroke="#FFF1B1" stroke-width="2"/>
<defs>
<linearGradient id="paint0_linear_2041_1476" x1="11.6808" y1="0" x2="11.6808" y2="20.8981" gradientUnits="userSpaceOnUse">
<stop stop-color="#A7F9BD"/>
<stop offset="1" stop-color="#5F976E"/>
</linearGradient>
</defs>
</svg>
