<svg width="84" height="46" viewBox="0 0 84 46" fill="none" xmlns="http://www.w3.org/2000/svg">
<rect width="37.9873" height="33.9814" rx="4" transform="matrix(0.877165 -0.480188 0.877165 0.480188 10.6152 23.6797)" fill="url(#paint0_linear_1692_16317)"/>
<path d="M13.4023 30.5116L4.18835 25.4676C2.25057 24.4068 2.25057 22.6869 4.18835 21.6261L14.3111 16.0846M27.0337 37.9739L37.1564 43.5154C39.0942 44.5762 42.236 44.5762 44.1737 43.5154L54.2965 37.9739M29.0027 8.04196L40.1856 1.92006C42.1234 0.859256 45.2652 0.859256 47.2029 1.92006L56.4169 6.96408M70.0483 14.4263L80.171 19.9678C82.1088 21.0286 82.1088 22.7485 80.171 23.8094L68.9881 29.9313" stroke="#FFF1B1"/>
<ellipse cx="4.14407" cy="4.97289" rx="4.14407" ry="4.97289" transform="matrix(0.877165 -0.480188 0.877165 0.480188 21.5195 21.6895)" fill="#FFF1B1"/>
<path d="M48.0566 24.2769C52.674 26.8046 47.8453 27.5764 43.9975 29.6829C40.1496 31.7893 38.7397 34.4327 34.1223 31.905C29.5049 29.3773 28.881 25.6205 32.7289 23.5141C36.5767 21.4076 43.4392 21.7492 48.0566 24.2769Z" fill="#FFF1B1"/>
<line y1="-1" x2="11.0509" y2="-1" transform="matrix(0.877165 -0.480188 0.877165 0.480188 38 17.4453)" stroke="#FFF1B1" stroke-width="2"/>
<line y1="-1" x2="11.0509" y2="-1" transform="matrix(0.877165 -0.480188 0.877165 0.480188 42.3613 19.832)" stroke="#FFF1B1" stroke-width="2"/>
<line y1="-1" x2="11.0509" y2="-1" transform="matrix(0.877165 -0.480188 0.877165 0.480188 46.7227 22.2207)" stroke="#FFF1B1" stroke-width="2"/>
<line y1="-1" x2="11.0509" y2="-1" transform="matrix(0.877165 -0.480188 0.877165 0.480188 51.0859 24.6074)" stroke="#FFF1B1" stroke-width="2"/>
<defs>
<linearGradient id="paint0_linear_1692_16317" x1="18.9937" y1="0" x2="18.9937" y2="33.9814" gradientUnits="userSpaceOnUse">
<stop stop-color="#A7F9BD"/>
<stop offset="1" stop-color="#5F976E"/>
</linearGradient>
</defs>
</svg>
